<svg width="211" height="211" viewBox="0 0 211 211" fill="none" xmlns="http://www.w3.org/2000/svg">
<circle cx="105.345" cy="105.976" r="105" fill="#EBF4FE"/>
<mask id="mask0_44_7272" style="mask-type:alpha" maskUnits="userSpaceOnUse" x="0" y="0" width="211" height="211">
<circle cx="105.345" cy="105.976" r="105" fill="#FF3985"/>
</mask>
<g mask="url(#mask0_44_7272)">
<path d="M213.504 112.009C211.807 125.748 205.953 138.111 196.985 148.497C175.511 173.37 136.201 186.885 93.5103 180.765C88.4962 180.05 83.5968 179.077 78.8305 177.884C63.5451 174.063 49.5993 167.884 37.6215 160.003C10.4225 142.121 -6.63817 115.454 -6.1152 87.5209C-6.06933 85.2134 -5.90877 82.9014 -5.62435 80.5847C-5.00504 75.5339 -3.81689 70.6667 -2.11495 66.015C-0.605683 61.8725 1.31187 57.8998 3.59641 54.1198C7.75264 47.2478 13.1154 41.0226 19.4781 35.559C23.4325 32.1551 27.7768 29.0494 32.4468 26.2694C35.5204 24.4436 38.7408 22.7554 42.0805 21.2186C50.7507 17.2321 60.2972 14.2503 70.4309 12.4337C77.0184 11.2501 83.8537 10.5574 90.8725 10.3968C92.5607 10.3601 94.2718 10.3464 95.9829 10.3739C98.5152 10.4106 101.07 10.5161 103.649 10.695C104.594 10.7547 105.543 10.8281 106.493 10.9198C109.103 11.1446 111.727 11.4474 114.369 11.8281C140.302 15.5531 163.267 25.9116 180.598 40.206C182.97 42.1695 185.236 44.2017 187.388 46.289C187.388 46.2936 187.388 46.2936 187.388 46.2936C187.75 46.6376 188.103 46.9909 188.457 47.3487C193.113 52.0049 197.214 56.9869 200.696 62.2074C210.797 77.3552 215.66 94.5535 213.504 112.009Z" fill="#EBF4FE"/>
<path d="M207.159 92.6192L207.154 92.6147C207.012 92.4954 206.801 92.5137 206.686 92.6559L205.636 93.8991C205.631 93.8946 205.631 93.8946 205.627 93.89L206.998 91.9541C207.117 91.7843 207.076 91.5504 206.911 91.4311L206.906 91.4265C206.737 91.3072 206.503 91.3485 206.383 91.5137L205.104 93.3211L206.471 91.2384C206.585 91.0641 206.535 90.8301 206.361 90.72L206.356 90.7155C206.182 90.6008 205.948 90.6512 205.838 90.8256L204.691 92.5688L205.558 90.9081C205.654 90.7246 205.581 90.4999 205.397 90.4035L205.393 90.3989C205.209 90.3026 204.984 90.376 204.888 90.5595L203.92 92.4128L203.278 93.3165C203.438 93.0596 203.429 92.5458 203.438 92.2477C203.466 91.2063 202.594 91.454 202.631 91.8669C202.658 92.1789 202.617 92.8027 202.42 93.1927C202.264 93.5 202.163 93.8349 202.149 94.101L202.14 94.1056C202.14 94.1148 202.145 94.1239 202.145 94.1331C202.145 94.1973 202.154 94.2524 202.168 94.3074C202.223 94.6331 202.369 94.9313 202.58 95.1332L202.457 95.3258L197.81 99.9179L191.419 101.404L189.433 101.179L189.373 101.184L187.869 100.285L187.791 99.3444C187.887 99.1839 187.988 99.005 188.107 98.8031C188.318 98.4315 188.465 97.8902 188.552 97.2113C188.57 97.2159 188.589 97.2205 188.607 97.225C188.667 97.2296 188.731 97.2159 188.786 97.1883C189.034 97.0691 189.112 96.7021 189.148 96.225C189.194 95.6378 189.098 95.1286 188.772 95.1011L188.763 93.7478C188.763 93.7202 188.754 93.6927 188.749 93.6652V93.5872C188.722 92.9358 188.465 92.3945 188.043 91.9128C186.561 90.2154 182.942 90.7246 182.01 92.422C181.891 92.6422 181.804 92.8394 181.744 93.0275C181.662 92.7752 181.542 92.5321 181.396 92.2935C180.299 90.5182 176.872 90.2567 175.767 91.4449C174.973 92.2981 174.51 93.156 174.542 95.0001C174.547 95.0047 174.547 95.0047 174.551 95.0093C174.226 94.9543 173.941 95.2983 173.987 95.8534C174.028 96.3351 174.166 96.9911 174.409 97.1241C174.703 97.2801 174.822 97.1012 174.845 97.1012C174.886 97.7939 174.854 98.3994 175.042 98.7894C175.065 98.8352 175.083 98.8765 175.106 98.9224L174.96 99.505C173.872 99.4867 172.088 98.6013 170.923 97.7847C170.652 97.5508 170.372 97.3351 170.115 97.1425L170.092 97.1195L170.088 97.1241C169.753 96.8718 169.445 96.6562 169.225 96.5048C169.033 96.3764 168.922 96.1608 168.932 95.9314C168.973 94.7432 168.156 90.2108 168.083 88.6924V88.6649L168.28 88.5777C168.61 88.3988 168.863 88.1052 168.95 87.752C168.973 87.6602 169.161 86.4629 169.17 86.4079C169.17 86.3299 169.143 86.2473 169.088 86.1877L168.904 85.9766L168.863 84.7105C168.867 84.472 168.679 84.2793 168.441 84.2747L168.381 84.2701C168.161 84.2655 167.977 84.4444 167.973 84.6646L167.954 85.0958C167.95 85.0958 167.95 85.0958 167.945 85.0958L167.959 84.6188C167.964 84.5041 167.922 84.394 167.854 84.3068C167.78 84.2242 167.684 84.1738 167.578 84.1738L167.422 84.1692C167.225 84.1646 167.06 84.3389 167.055 84.5545L167.046 84.8619C167.019 84.66 166.867 84.4995 166.675 84.4949L166.519 84.4903C166.422 84.4903 166.331 84.527 166.257 84.6004C166.188 84.6738 166.147 84.7747 166.147 84.8802L166.142 85.0408C166.11 84.894 165.982 84.7793 165.826 84.7793L165.688 84.7747C165.514 84.7701 165.372 84.9078 165.367 85.0775V85.1463L165.243 86.6372C165.17 87.7566 165.358 88.2199 165.812 88.6098V88.6374C165.762 89.6925 165.413 93.656 165.294 95.7066C165.285 95.8488 165.28 95.9773 165.271 96.0965C164.583 95.5598 163.055 95.1745 161.665 95.6286L159.78 90.165L159.541 90.2108L159.326 89.6925C159.504 89.4035 159.555 89.0548 159.431 88.7337L159.069 87.4171L158.614 85.5454C158.573 85.3665 158.39 85.2564 158.211 85.2977H158.206C158.027 85.339 157.917 85.5225 157.958 85.7014L158.339 87.2841C158.335 87.2841 158.33 87.2841 158.325 87.2841L157.573 85.0362C157.509 84.8389 157.293 84.7334 157.096 84.7977L157.087 84.8022C156.89 84.8665 156.784 85.0821 156.848 85.2793L157.55 87.3758L156.674 85.0454C156.601 84.8527 156.385 84.7518 156.192 84.8252L156.183 84.8298C155.99 84.9032 155.889 85.1188 155.963 85.3115L156.697 87.2657L155.867 85.5867C155.775 85.4032 155.55 85.3252 155.362 85.417L155.357 85.4216C155.174 85.5133 155.096 85.7381 155.188 85.9262L156.114 87.7978L156.463 88.8484C156.348 88.5639 155.931 88.2704 155.692 88.0869C154.867 87.4492 154.555 88.2979 154.908 88.5135C155.178 88.674 155.656 89.0732 155.857 89.4677C156.013 89.775 156.224 90.0549 156.431 90.22V90.2292C156.44 90.2338 156.449 90.2384 156.458 90.243C156.513 90.2842 156.559 90.3072 156.614 90.3255C156.913 90.4723 157.238 90.532 157.523 90.4769L157.605 90.6925L158.569 97.1562L156.798 101.322L155.628 101.189L155.568 101.193L154.064 100.294L153.986 99.3536C154.082 99.1931 154.183 99.0141 154.302 98.8123C154.513 98.4407 154.66 97.8994 154.747 97.2205C154.766 97.225 154.784 97.2296 154.802 97.2342C154.862 97.2388 154.926 97.225 154.981 97.1975C155.229 97.0782 155.307 96.7112 155.344 96.2342C155.389 95.647 155.293 95.1378 154.967 95.1102L154.958 93.7569C154.958 93.7294 154.949 93.7019 154.944 93.6744V93.5964C154.917 92.945 154.66 92.4036 154.238 91.922C153.926 91.5641 153.513 91.3118 153.059 91.1375C152.972 90.0319 152.898 89.0777 152.88 88.6374V88.6098C153.334 88.2199 153.522 87.7566 153.449 86.6372L153.325 85.1463V85.0775C153.321 84.9078 153.178 84.7747 153.004 84.7747L152.866 84.7793C152.706 84.7839 152.582 84.894 152.55 85.0408L152.545 84.8802C152.545 84.7747 152.504 84.6738 152.435 84.6004C152.366 84.527 152.275 84.4857 152.174 84.4903L152.018 84.4949C151.825 84.4995 151.674 84.66 151.646 84.8619L151.637 84.5545C151.632 84.3343 151.467 84.1646 151.27 84.1692L151.114 84.1738C151.008 84.1784 150.912 84.2242 150.839 84.3068C150.765 84.3894 150.729 84.5041 150.733 84.6188L150.747 85.0958C150.742 85.0958 150.742 85.0958 150.738 85.0958L150.719 84.6646C150.715 84.4444 150.531 84.2655 150.311 84.2701L150.252 84.2747C150.013 84.2793 149.825 84.4765 149.829 84.7105L149.788 85.9766L149.605 86.1877C149.55 86.2473 149.522 86.3299 149.522 86.4079C149.531 86.4629 149.719 87.6602 149.742 87.752C149.834 88.1052 150.082 88.4034 150.412 88.5777L150.609 88.6649V88.6924C150.586 89.2062 150.476 90.064 150.343 91.0228C149.407 91.2522 148.586 91.7385 148.21 92.4266C147.779 93.2156 147.761 93.7111 147.875 94.4955L148.063 95.6928C148.077 95.6883 148.095 95.6928 148.114 95.6928C147.944 95.78 147.898 96.0323 147.93 96.3534C147.774 96.3488 147.623 96.358 147.467 96.381L147.476 96.2617L146.838 96.2342L146.82 96.592L146.738 98.4407C145.71 99.0141 144.54 99.4958 143.747 99.5096L143.6 98.927C143.623 98.8811 143.641 98.8398 143.664 98.7939C143.852 98.404 143.82 97.7985 143.861 97.1058C143.88 97.1104 144.003 97.2893 144.297 97.1287C144.54 96.9957 144.678 96.3397 144.719 95.858C144.765 95.3029 144.481 94.9543 144.155 95.0139C144.159 95.0093 144.159 95.0093 144.164 95.0047C144.173 94.3946 144.127 93.8991 144.036 93.4725C144.136 92.6605 144.205 92.0871 144.205 92.0871C144.398 90.6925 145.091 91.3256 145.38 89.8439C145.421 89.6282 145.866 88.7658 145.531 87.9768C145.526 87.963 145.522 87.9538 145.517 87.9446C145.508 87.9263 145.504 87.9079 145.494 87.8896H145.49C145.458 87.83 145.412 87.7749 145.348 87.7428C145.164 87.6511 144.935 87.7336 144.834 87.9309L144.875 87.8529C144.999 87.6143 144.916 87.3299 144.696 87.2152C144.476 87.1006 144.196 87.2061 144.077 87.4446C144.201 87.2061 144.118 86.9216 143.898 86.807C143.678 86.6923 143.398 86.7978 143.279 87.0363L142.902 87.7703L143.224 87.1418C143.338 86.9216 143.251 86.651 143.026 86.5409C142.806 86.4262 142.535 86.5134 142.425 86.7381L142.214 87.1556C142.049 87.1464 141.884 87.2015 141.82 87.3529C141.733 87.5501 141.843 87.7703 141.898 87.9768C142.054 88.5502 141.788 89.1603 141.884 89.7429C141.93 90.0228 142.058 90.2751 142.219 90.509C142.246 90.6834 142.269 90.8485 142.274 91.0045C140.824 90.3852 138.242 90.798 137.32 92.2981C136.705 93.2936 136.622 94.3028 137.2 96.0552C137.205 96.0552 137.209 96.0598 137.214 96.0598C136.888 96.1011 136.714 96.514 136.925 97.0324C137.104 97.4819 137.43 98.0691 137.705 98.1196C138.031 98.1838 138.095 97.9774 138.113 97.9682C138.301 98.4728 138.439 98.9362 138.622 99.2665C138.035 99.8628 137.347 100.257 136.43 100.744C136.416 100.744 135.93 101.033 135.54 101.101C135.434 101.115 135.287 101.138 135.131 101.156H135.127C134.815 101.193 134.443 101.225 134.223 101.212C133.87 101.189 133.503 101.124 133.127 101.033C133.127 101.037 133.127 101.037 133.127 101.042C133.072 101.028 133.021 101.01 132.966 101.001L132.971 100.73L132.984 100.289C133.09 100.138 133.2 99.9683 133.315 99.739C133.397 99.5784 133.475 99.2343 133.544 98.8444C133.595 98.5967 133.64 98.3214 133.7 98.0278C133.718 98.0324 133.81 98.2205 134.113 98.1104C134.365 98.0187 134.585 97.4039 134.696 96.9498C134.819 96.4222 134.59 96.0507 134.269 96.0598C134.273 96.0598 134.273 96.0552 134.278 96.0552C134.301 95.9222 134.315 95.8029 134.329 95.6791C134.361 95.7433 134.388 95.8121 134.425 95.8763C134.663 95.335 134.714 94.7157 134.572 94.1377C134.682 94.1836 134.801 94.2203 134.92 94.2386C134.425 93.8349 134.292 93.1468 134.021 92.5688C133.7 91.8761 133.122 91.2751 132.393 91.0458C131.943 90.9035 131.438 90.9219 131.003 91.0962C131.09 90.8439 131.214 90.6054 131.374 90.3943C131.067 90.5044 130.796 90.7109 130.599 90.9678C130.576 90.9402 130.558 90.9081 130.53 90.8806C130.374 90.72 130.163 90.6008 129.938 90.5916C130.067 90.6971 130.181 90.8256 130.278 90.9586C130.209 90.9586 130.136 90.9632 130.067 90.9724C129.714 91.0045 129.365 91.0412 129.012 91.0779C129.136 91.1604 129.255 91.2476 129.379 91.3302C129.356 91.3394 129.333 91.3485 129.31 91.3577C128.218 91.8669 127.507 92.922 126.856 93.9313C127.002 93.8854 127.149 93.8257 127.291 93.7753C127.085 94.335 126.966 94.9359 126.86 95.5277C127.016 95.3809 127.172 95.2295 127.333 95.0827C127.346 95.3901 127.379 95.7204 127.443 96.0965C127.447 96.0965 127.452 96.1011 127.452 96.1011C127.131 96.0965 126.911 96.4681 127.039 96.9957C127.149 97.4498 127.379 98.06 127.635 98.1471C127.938 98.2526 128.03 98.0645 128.048 98.06C128.08 98.2113 128.108 98.3581 128.135 98.5004C128.213 99.0233 128.319 99.5234 128.415 99.7344C128.521 99.9592 128.631 100.133 128.736 100.285L128.741 100.689V100.693L128.746 101.001C128.571 101.033 128.42 101.069 128.287 101.101C128.025 101.152 127.768 101.193 127.516 101.207C127.374 101.216 126.333 101.106 126.195 101.101C125.888 101.028 125.589 100.913 125.3 100.757C125.296 100.762 125.296 100.767 125.296 100.771C124.828 100.523 124.406 100.294 124.021 100.055L126.502 94.6194L133.094 80.1781L133.241 79.8524L132.172 79.3661L132.026 79.6918C118.13 73.7236 111.189 83.5224 100.923 78.7376C101.703 84.7793 101.859 87.9722 101.432 90.9953C101.037 91.0825 100.661 91.2155 100.326 91.3898C100.17 91.3348 99.9961 91.3806 99.8998 91.5228L99.6704 91.844C99.5741 91.9311 99.4869 92.0229 99.4135 92.1146L99.9823 91.243C100.097 91.0687 100.047 90.8347 99.8722 90.7246L99.8677 90.72C99.6933 90.6054 99.464 90.6558 99.3493 90.8301L98.2024 92.5734L99.0694 90.9127C99.1658 90.7292 99.0924 90.5044 98.9089 90.4081L98.9043 90.4035C98.7208 90.3072 98.4914 90.3806 98.3997 90.5641L97.4317 92.4174L96.7895 93.3211C96.9501 93.0642 96.9409 92.5504 96.9501 92.2523C96.9776 91.2109 96.106 91.4586 96.1427 91.8715C96.1702 92.1834 96.1289 92.8073 95.9316 93.1973C95.7757 93.5046 95.6747 93.8395 95.661 94.1056L95.6518 94.1102C95.6518 94.1193 95.6564 94.1285 95.6564 94.1377C95.6564 94.2019 95.6656 94.257 95.6793 94.312C95.7344 94.6377 95.8812 94.9359 96.0922 95.1378L95.9683 95.3304L94.1746 97.1012C94.0645 96.9314 93.9453 96.7755 93.8214 96.6379C92.1332 94.7295 89.1927 95.4222 88.4587 96.28C87.9311 96.8947 87.4632 97.5645 87.2614 98.7297C87.2017 99.0738 87.2614 99.9133 87.4403 100.822L84.9309 101.404L82.9446 101.179L82.8849 101.184L81.394 100.289C81.6601 99.8949 81.917 99.4912 82.1785 99.0784C82.6005 98.3994 82.9905 97.6884 83.1785 96.9177C83.2015 96.8168 83.1831 96.358 83.1464 95.6974C83.0226 93.6514 82.6739 89.6833 82.6281 88.6282V88.6007C83.0822 88.2107 83.2703 87.7474 83.1969 86.628L83.073 85.1371V85.0683C83.0685 84.8986 82.9262 84.7655 82.7519 84.7655L82.6143 84.7701C82.4537 84.7747 82.3299 84.8848 82.2978 85.0316L82.2932 84.8711C82.2932 84.7655 82.2519 84.6646 82.1831 84.5912C82.1143 84.5178 82.0225 84.4765 81.9262 84.4811L81.7702 84.4857C81.5775 84.4903 81.4261 84.6509 81.3986 84.8527L81.3894 84.5454C81.3848 84.3252 81.2197 84.1554 81.0224 84.16L80.8665 84.1646C80.761 84.1692 80.6646 84.2151 80.5912 84.2976C80.5178 84.3802 80.4811 84.4949 80.4857 84.6096L80.4995 85.0867C80.4949 85.0867 80.4949 85.0867 80.4903 85.0867L80.4719 84.6554C80.4674 84.4353 80.2839 84.2563 80.0637 84.2609L80.004 84.2655C79.7655 84.2701 79.5774 84.4674 79.582 84.7013L79.5407 85.9675L79.3572 86.1785C79.3022 86.2381 79.2746 86.3207 79.2746 86.3987C79.2838 86.4537 79.4719 87.6511 79.4948 87.7428C79.5866 88.096 79.8343 88.3942 80.1646 88.5685L80.3619 88.6557V88.6832C80.3389 89.197 80.2288 90.064 80.0958 91.0228C78.4168 90.5503 76.2332 91.1559 75.5405 92.4174C75.1092 93.2064 75.0909 93.7019 75.2056 94.4863L75.3937 95.6837C75.4074 95.6791 75.4258 95.6837 75.4441 95.6837C75.1918 95.8121 75.2102 96.2938 75.3432 96.8213C75.4579 97.2847 75.5634 97.6379 75.8295 97.7159C75.8891 97.7342 75.9533 97.7388 76.013 97.7205C76.0313 97.7159 76.0497 97.7067 76.0634 97.6975C76.1506 97.9957 76.2515 98.2618 76.357 98.4958C75.3615 99.0417 74.256 99.4821 73.4945 99.4958L73.3477 98.9132C73.3706 98.8673 73.3889 98.8261 73.4119 98.7802C73.6 98.3903 73.5679 97.7847 73.6091 97.092C73.6275 97.0966 73.7514 97.2755 74.0449 97.1149C74.2881 96.9819 74.4257 96.3259 74.467 95.8442C74.5129 95.2891 74.2284 94.9405 73.9027 95.0001C73.9073 94.9955 73.9073 94.9955 73.9119 94.991C73.944 93.2615 73.5357 92.4036 72.8293 91.5962C72.9302 91.5412 73.0403 91.4816 73.1596 91.4082C73.1963 91.4128 73.2284 91.4128 73.2651 91.4173C73.2651 91.3944 73.2605 91.3715 73.2605 91.3439C73.5082 91.1834 73.7697 90.9724 73.9807 90.6742L73.9761 90.6696C74.0128 90.6145 74.0404 90.5503 74.0404 90.4769C74.0404 90.2705 73.8569 90.1099 73.6367 90.1099H73.5724H73.7284C73.9945 90.1099 74.2101 89.9081 74.2101 89.6603C74.2101 89.4126 73.9899 89.2154 73.7238 89.22C73.9899 89.22 74.2055 89.0181 74.2055 88.7704C74.2055 88.5227 73.9853 88.3254 73.7192 88.33H73.6C73.8477 88.33 74.0449 88.1281 74.0404 87.8804C74.0404 87.6327 73.8385 87.4354 73.5908 87.4354H73.4578L73.6045 86.9216C73.6321 86.8161 73.6183 86.6969 73.5633 86.6005C73.5082 86.5042 73.4165 86.4308 73.3064 86.4033C73.2421 86.3849 73.1733 86.3803 73.1137 86.3895C73.1596 83.3526 73.4715 80.3708 74.0404 77.4394C64.2141 75.9118 54.1171 75.9622 43.777 77.4394C44.0844 79.279 44.2908 81.1873 44.4192 83.1599C44.4605 83.8022 44.4926 84.449 44.5156 85.1004C44.5156 85.1371 44.5202 85.1738 44.5202 85.2105C44.5339 85.6005 44.5385 85.9996 44.5477 86.3941C44.4743 86.3803 44.4009 86.3757 44.3275 86.3987C44.222 86.4262 44.1302 86.4996 44.0706 86.5959C44.0155 86.6923 44.0018 86.807 44.0293 86.9171L44.1761 87.4309H44.0431C43.7954 87.4309 43.5935 87.6281 43.5935 87.8758C43.5935 88.1236 43.7908 88.3254 44.0385 88.3254H43.9146C43.6486 88.3254 43.4284 88.5227 43.4284 88.7658C43.4284 89.0135 43.644 89.2154 43.91 89.2154C43.644 89.2154 43.4238 89.4126 43.4238 89.6558C43.4238 89.9035 43.6394 90.1053 43.9054 90.1053H44.0614H43.9972C43.777 90.1053 43.5935 90.2659 43.5935 90.4723C43.5935 90.5457 43.621 90.6099 43.6577 90.665L43.6531 90.6696C44.1807 91.4082 45.0156 91.6192 45.1303 91.8119C45.1762 91.8898 45.222 92.0229 45.2679 92.1834C43.6898 91.2614 41.4925 91.5963 40.3731 93.1101C39.818 93.8579 39.9648 94.5643 40.0612 95.2479C40.1575 95.936 40.1667 96.1745 40.1667 96.1745C39.8685 96.2204 39.8134 96.7021 39.896 97.2434C39.9648 97.6838 40.0612 98.0187 40.2951 98.1104C40.3502 98.1334 40.4098 98.1425 40.4649 98.1334C40.4832 98.1288 40.497 98.1242 40.5153 98.1196C40.6438 98.7435 40.8135 99.2343 41.0337 99.5646C41.208 99.8261 41.3594 100.042 41.4925 100.225L41.4833 100.927C41.4833 100.927 41.4053 100.959 41.2906 101.005C41.208 101.037 41.1071 101.078 41.0016 101.12C41.0016 101.12 40.5245 101.147 39.8501 101.166C38.7262 99.5142 36.4554 96.6424 33.6892 95.6286C33.6892 95.6103 33.6892 95.5965 33.6892 95.5782C33.6892 95.3625 33.6938 95.1469 33.703 94.9221C33.7121 94.5689 33.7305 94.2019 33.758 93.8257C33.7855 93.4312 33.8131 93.0275 33.8544 92.6101C33.8589 92.5642 33.8635 92.5183 33.8681 92.4679C33.9323 91.8119 34.0057 91.1375 34.1021 90.4448C34.3131 90.2475 34.492 90.0136 34.6388 89.7429C34.6526 89.72 34.6663 89.6925 34.6801 89.6603C34.8682 89.275 34.9783 88.8254 34.9783 88.3483C34.9783 88.174 34.9645 88.0043 34.937 87.8391C34.9324 87.83 34.9324 87.8162 34.9324 87.8116C34.9232 87.7566 34.9095 87.7015 34.8957 87.6465C34.8911 87.6189 34.882 87.5914 34.8774 87.5685C34.8728 87.5593 34.8728 87.5501 34.8682 87.541C34.8452 87.4538 34.8177 87.3666 34.7856 87.2886C34.7718 87.2474 34.7581 87.2107 34.7397 87.1694L39.7997 83.9215C40.3043 83.5958 40.6621 83.0957 40.8089 82.5131L41.9925 77.6275C41.9925 77.6229 41.9925 77.6229 41.9971 77.6229L42.3274 76.265H42.332L42.5613 75.2971L42.5843 75.1961C43.0247 74.5677 43.1072 74.4622 43.4926 73.563L43.777 72.4162L43.7908 72.3611C43.8275 72.2281 43.7449 72.095 43.6119 72.0629L43.5063 72.0354C43.3825 72.0033 43.2632 72.0629 43.2036 72.1684L43.2357 72.0446C43.2586 71.962 43.2494 71.8748 43.2127 71.806C43.176 71.7326 43.1118 71.6822 43.0384 71.6638L42.9146 71.6317C42.7678 71.595 42.6164 71.6822 42.5476 71.8335L42.6072 71.5996C42.6485 71.4299 42.5613 71.2647 42.4054 71.2234L42.2861 71.1913C42.2035 71.1684 42.1209 71.1867 42.0475 71.2326C41.9833 71.2739 41.9374 71.3427 41.9145 71.4161C41.9191 71.2785 41.8411 71.1546 41.7172 71.1225L41.598 71.0904C41.52 71.072 41.4374 71.0858 41.364 71.1317C41.2952 71.1775 41.2401 71.2555 41.2218 71.3381L41.0016 72.2143C40.997 72.2281 41.0016 72.2372 40.997 72.251L40.5841 72.5538C40.3731 73.3428 40.7676 74.3842 40.864 74.6227L40.8594 74.6181L38.5106 80.9763L35.6251 82.6966C34.6021 82.7058 33.2121 83.0728 31.6983 83.5545V83.137C32.6112 82.6003 33.3039 81.6644 33.5745 80.6277C33.7534 79.9441 33.8039 79.045 33.6938 78.155L33.6984 78.1596C33.6112 77.2605 33.3589 76.1228 32.9139 75.5952C30.767 73.0538 27.8035 74.5768 27.2622 75.164C25.7988 76.7559 26.0649 78.5496 26.2071 79.5909C26.2117 79.7239 26.2209 79.857 26.2209 79.99C26.2346 80.7332 26.1245 81.5406 25.6107 82.0819C25.9777 81.9489 26.3218 81.747 26.6108 81.4855C26.3447 81.9993 25.9594 82.4489 25.5006 82.8021C25.1153 82.7333 24.762 82.692 24.4455 82.7012L21.56 80.9809L19.2342 74.6778C19.2342 74.6732 19.7755 73.4529 19.537 72.5584L19.1241 72.2556C19.1241 72.2418 19.1241 72.2327 19.1195 72.2189L18.8993 71.3427C18.8764 71.2555 18.8259 71.1821 18.7571 71.1363C18.6883 71.0904 18.6011 71.072 18.5231 71.095L18.4039 71.1271C18.2754 71.1592 18.202 71.2831 18.2066 71.4207C18.1791 71.3473 18.1332 71.2785 18.069 71.2372C17.9956 71.1867 17.9084 71.173 17.8304 71.1959L17.7111 71.228C17.5598 71.2693 17.468 71.4344 17.5093 71.6042L17.5689 71.8381C17.5047 71.6868 17.3533 71.5996 17.2065 71.6363L17.0827 71.6684C17.0093 71.6867 16.945 71.7372 16.9083 71.8106C16.8716 71.884 16.8625 71.9666 16.8854 72.0492L16.9175 72.173C16.8625 72.0675 16.7386 72.0079 16.6147 72.04L16.5092 72.0675C16.3762 72.1042 16.2936 72.2372 16.3303 72.3657L16.3441 72.4207L16.6285 73.5676C17.0139 74.4622 17.0964 74.5677 17.5368 75.2007L18.3947 78.8294L19.2663 82.5177C19.4085 83.1003 19.7709 83.6003 20.2709 83.926L25.2942 87.151C25.2988 87.151 25.2988 87.151 25.2988 87.151C25.3034 87.1556 25.3034 87.1556 25.3034 87.1556H25.308C25.285 87.2015 25.2621 87.2474 25.2437 87.2932C25.2437 87.2978 25.2437 87.2978 25.2391 87.3024C25.2346 87.3116 25.23 87.3253 25.2254 87.3345C25.2116 87.3666 25.2024 87.4033 25.1887 87.4354C25.1657 87.5088 25.1428 87.5868 25.1245 87.6648C25.1107 87.7153 25.1015 87.7703 25.0923 87.8208C25.0786 87.8988 25.0694 87.9813 25.0602 88.0639C25.0511 88.1603 25.0465 88.2612 25.0465 88.3621C25.0465 88.4355 25.0511 88.5043 25.0556 88.5731C25.0556 88.6098 25.0602 88.6465 25.0648 88.6832C25.0694 88.7199 25.074 88.7612 25.0786 88.7979C25.0832 88.83 25.0923 88.8621 25.0923 88.8942C25.1061 88.9814 25.129 89.064 25.1474 89.142C25.1566 89.1787 25.1657 89.2154 25.1749 89.2475C25.1887 89.2934 25.207 89.3392 25.2208 89.3851C25.2254 89.3943 25.23 89.408 25.2346 89.4172C25.2346 89.4218 25.2346 89.4218 25.2391 89.4264C25.2575 89.4723 25.2758 89.5227 25.2942 89.564C25.3217 89.6282 25.3492 89.6879 25.3814 89.7475C25.3951 89.7704 25.4089 89.7934 25.4226 89.8163C25.4364 89.8438 25.4548 89.8714 25.4685 89.8943C25.4777 89.9127 25.4869 89.931 25.5006 89.9494C25.5052 89.9539 25.5052 89.9585 25.5052 89.9631C25.5511 90.0319 25.6016 90.0916 25.6474 90.1512C25.6795 90.1925 25.7071 90.2384 25.7438 90.2751C25.7484 90.2797 25.7529 90.2842 25.7575 90.2934C25.7896 90.3255 25.8217 90.3622 25.8539 90.3943C25.886 90.4265 25.9181 90.4586 25.9548 90.4861C25.9594 90.5136 25.9594 90.5411 25.964 90.5641C25.9823 90.7246 25.9961 90.8806 26.0144 91.0412C26.0282 91.1696 26.0374 91.2981 26.0465 91.4265C26.0924 91.922 26.1291 92.4128 26.1612 92.8945C26.1842 93.2615 26.2071 93.6239 26.2209 93.9771C26.2254 94.0551 26.2254 94.1285 26.23 94.2065C26.2438 94.5643 26.2484 94.9084 26.253 95.2524C26.253 95.3213 26.2576 95.3947 26.2576 95.4635C23.5005 96.358 21.3123 99.2298 20.1792 101.001C20.17 100.996 20.1608 100.996 20.1471 100.991L20.1517 100.721L20.1654 100.28C20.2709 100.129 20.381 99.9592 20.4957 99.7298C20.5783 99.5692 20.6563 99.2252 20.7251 98.8352C20.7756 98.5875 20.8214 98.3123 20.8811 98.0187C20.8994 98.0233 20.9912 98.2113 21.2939 98.1012C21.5463 98.0095 21.7664 97.3948 21.8765 96.9406C22.0004 96.4131 21.771 96.0415 21.4499 96.0507C21.4545 96.0507 21.4591 96.0461 21.4591 96.0461C21.482 95.913 21.4912 95.7938 21.5096 95.6699C21.5417 95.7341 21.5692 95.8029 21.6059 95.8672C21.8444 95.3258 21.8949 94.7065 21.7527 94.1285C21.8674 94.1744 21.9821 94.2111 22.1013 94.2294C21.6059 93.8257 21.4729 93.1376 21.2022 92.5596C20.8811 91.8669 20.3031 91.266 19.5737 91.0366C19.1241 90.8944 18.6195 90.9127 18.1837 91.087C18.2708 90.8347 18.3947 90.5962 18.5552 90.3852C18.2479 90.4953 17.9772 90.7017 17.78 90.9586C17.757 90.9311 17.7387 90.899 17.7111 90.8714C17.5552 90.7109 17.3442 90.5916 17.1194 90.5824C17.2478 90.6879 17.3625 90.8164 17.4588 90.9494C17.39 90.9494 17.3166 90.954 17.2478 90.9632C16.8946 90.9953 16.5459 91.032 16.1927 91.0687C16.3166 91.1513 16.4358 91.2384 16.5597 91.321C16.5368 91.3302 16.5138 91.3394 16.4909 91.3485C15.3991 91.8577 14.688 92.9128 14.0366 93.9221C14.1834 93.8762 14.3256 93.8166 14.4724 93.7661C14.266 94.3258 14.1467 94.9267 14.0412 95.5185C14.1972 95.3717 14.3531 95.2203 14.5137 95.0735C14.5275 95.3809 14.5596 95.7112 14.6238 96.0874C14.6284 96.0874 14.633 96.0919 14.633 96.0919C14.3119 96.0874 14.0917 96.4589 14.2201 96.9865C14.3302 97.4407 14.5596 98.0508 14.8165 98.1379C15.1192 98.2435 15.211 98.0554 15.2293 98.0508C15.2615 98.2022 15.289 98.349 15.3165 98.4912C15.3945 99.0141 15.5 99.5142 15.5963 99.7252C15.7019 99.95 15.8119 100.124 15.9175 100.276L15.922 100.679V100.684L15.9266 100.991C15.7523 101.023 15.6009 101.06 15.4679 101.092C15.2064 101.143 14.9495 101.184 14.6972 101.198C14.555 101.207 13.5136 101.097 13.376 101.092C13.0687 101.019 12.7705 100.904 12.4815 100.748C12.4769 100.753 12.4769 100.757 12.4769 100.762C11.0823 100.019 10.0639 99.4821 9.28402 98.115C9.27484 98.0967 9.26108 98.0783 9.25191 98.06C9.20145 97.9728 9.15557 97.8902 9.1097 97.8031C9.18768 97.7297 9.22438 97.615 9.20603 97.5003C9.19686 97.4498 9.19227 97.3948 9.18309 97.3351C9.16474 97.2113 9.14181 97.092 9.07758 96.9911C9.04088 96.9314 8.99042 96.881 8.95372 96.8168C8.94913 96.8168 8.94914 96.8122 8.94914 96.8122C8.89867 96.7296 8.81151 96.5461 8.73811 96.3672C8.68306 96.2296 8.6326 96.0965 8.61884 96.0231C8.58214 95.8534 8.39405 95.7938 8.23808 95.9268C8.21514 95.8717 8.19221 95.8259 8.16927 95.7708C7.84815 94.991 7.04076 92.5963 6.53614 91.5045C6.53614 91.4999 6.53155 91.4999 6.53155 91.4953C6.45815 91.2797 6.45357 91.0503 6.48109 90.798C6.74258 90.4723 6.98112 90.1237 7.04535 89.72C7.14168 89.1374 6.87561 88.5227 7.03158 87.9538C7.08663 87.7428 7.19673 87.5272 7.10957 87.3299C7.01782 87.1235 6.75175 87.0776 6.54073 87.1648L6.31136 86.7152C6.19667 86.495 5.9306 86.4079 5.7104 86.518C5.4902 86.6326 5.40304 86.8987 5.51314 87.1189L5.45809 87.0088C5.33423 86.7703 5.05898 86.6647 4.83879 86.7794C4.61859 86.8941 4.5406 87.1785 4.65988 87.4171C4.53601 87.1785 4.26077 87.073 4.04057 87.1877C3.82037 87.3024 3.74239 87.5868 3.86166 87.8254L3.90295 87.9034C3.80203 87.7061 3.57265 87.6189 3.38915 87.7107C3.32493 87.7428 3.28364 87.7978 3.24694 87.8575H3.24236C3.23318 87.8758 3.22859 87.8988 3.21942 87.9171C3.21483 87.9263 3.21024 87.9355 3.20566 87.9492C2.86619 88.7429 3.31576 89.6007 3.35704 89.8163C3.60476 91.0825 4.1415 90.8026 4.41674 91.5687C4.45803 91.6972 4.49931 91.8531 4.52684 92.0596C4.52684 92.0596 4.76539 94.0551 5.0177 95.8993C5.06816 96.2709 5.11862 96.6333 5.17367 96.9773C5.0544 96.9957 4.97641 97.037 4.96724 97.1333C4.95347 97.3076 5.0177 97.5691 5.04981 97.7801C5.06357 97.8306 5.06816 97.8856 5.07275 97.9269C5.07733 98.0141 5.04981 98.1058 5.04063 98.1976V98.2159C5.02687 98.4086 5.0911 98.5875 5.20119 98.7527C5.28836 98.8903 5.39845 99.0187 5.50397 99.138C5.5269 99.138 5.55443 99.1334 5.58195 99.1334C5.6003 99.2114 5.62324 99.2894 5.64159 99.372C5.70123 99.5738 5.76086 99.7848 5.83426 99.9867C5.96271 100.377 6.10951 100.762 6.30677 101.12C6.42604 101.331 6.56367 101.528 6.71046 101.716C6.94901 102.028 7.21967 102.313 7.50409 102.583C7.50868 102.588 7.50868 102.592 7.51327 102.592C7.6096 102.689 7.71511 102.785 7.81145 102.872C7.90778 102.959 8.02247 103.06 8.14174 103.161C8.15551 103.17 8.16468 103.184 8.17386 103.193C9.05923 103.946 10.3758 104.927 10.4905 105.015C10.4951 105.015 10.4951 105.019 10.4997 105.019C11.5181 105.776 11.4585 107.327 11.7337 108.565C11.7429 108.606 11.7521 108.648 11.7566 108.689C11.7933 108.863 11.8255 109.047 11.8484 109.226C11.9998 110.336 11.9447 111.515 11.8897 112.694C11.8943 112.698 11.8943 112.703 11.8897 112.708C11.8392 113.799 11.7888 114.887 11.9034 115.923C11.931 116.185 12.197 116.41 12.6328 116.607C12.5962 117.148 12.5778 117.515 12.5916 117.639C12.6145 117.873 12.8026 118.08 13.1191 118.263L12.9448 122.075C12.9494 122.08 12.8439 124.323 12.8439 124.323L12.7338 126.543L12.4815 130.796L12.4035 132.599C12.3897 132.769 12.3943 132.934 12.4172 133.094C12.4172 133.103 12.4172 133.113 12.4127 133.117C12.4081 133.168 12.4081 133.218 12.4081 133.273V133.548L12.3805 136.186L12.376 136.769H17.624L17.6056 133.328C17.6056 133.223 17.6011 133.108 17.5827 133.003V132.993L18.046 123.892L18.0552 123.791C18.0965 123.791 18.1378 123.786 18.1837 123.786C18.2112 123.786 18.2341 123.786 18.2616 123.786L18.2662 123.832L18.7387 132.989V132.993C18.7204 133.103 18.7158 133.218 18.7158 133.333L18.702 136.773H28.1751C28.1063 135.764 28.01 134.833 27.8815 134.122C28.6614 131.677 29.3724 127.952 29.4688 125.163C29.5605 125.158 29.7578 125.172 29.9092 125.163C30.0055 127.947 30.7166 131.677 31.4964 134.122C31.368 134.833 31.267 135.769 31.2028 136.773H36.1068V134.058L34.8728 119.089L34.8453 118.736C34.992 118.607 35.0884 118.469 35.1021 118.318C35.1343 117.974 35.148 117.621 35.1572 117.268C35.2489 117.222 35.3361 117.176 35.4095 117.125C35.4233 117.116 35.4324 117.107 35.4462 117.093C35.5013 117.057 35.5517 117.015 35.5976 116.974C35.6297 116.942 35.6481 116.91 35.671 116.882C35.6893 116.859 35.7123 116.836 35.7215 116.813C35.7536 116.758 35.7719 116.699 35.7765 116.639C35.9187 115.345 35.7994 113.965 35.749 112.611C35.8774 112.882 36.015 113.139 36.1573 113.373C36.4509 113.85 37.0335 114.024 37.5427 113.85L37.5702 114.547L36.8362 124.24L37.6161 124.263L37.6528 134.269L37.873 136.773H42.3136C42.2127 135.842 42.1209 134.911 42.0613 133.993L42.965 125.181L42.9788 125.369L44.8229 134.09L45.167 136.769H49.6168C49.4792 135.471 49.3783 134.383 49.3553 133.723C49.2773 131.415 48.8507 127.92 48.4929 124.548L49.1535 124.566L49.1948 119.488C49.1948 119.479 49.1948 119.465 49.1948 119.456L49.1994 119.112L49.993 119.474L51.6812 111.653C51.6857 111.639 51.6812 111.625 51.6857 111.611C51.7454 111.478 51.7958 111.341 51.8142 111.198V111.194C51.8463 110.955 51.8234 110.708 51.727 110.469C51.3555 108.565 50.7912 106.038 49.7911 104.294C49.7407 104.198 49.681 104.111 49.626 104.014C50.1444 104.455 50.6765 104.872 51.2591 105.253C51.2637 105.258 51.2683 105.262 51.2775 105.262C51.2775 105.258 51.2821 105.253 51.2821 105.253C51.2866 105.253 51.2866 105.258 51.2912 105.258C52.3051 106.01 52.2454 107.551 52.5207 108.785C53.0345 111.075 52.4289 113.731 52.6904 116.102C52.7133 116.341 52.9473 116.552 53.3235 116.735C53.3281 117.098 53.3418 117.456 53.3785 117.804C53.3923 117.956 53.4886 118.098 53.6354 118.231L52.3509 133.796V136.769H57.3421C57.3283 136.516 57.31 136.269 57.2916 136.026C57.2641 135.7 57.2366 135.383 57.2044 135.081C57.1723 134.782 57.1356 134.498 57.0943 134.232C57.076 134.099 57.0531 133.975 57.0301 133.856C57.8237 131.374 58.544 127.585 58.6403 124.754C58.7917 124.763 58.9935 124.75 59.0853 124.754C59.0899 124.933 59.0991 125.112 59.1128 125.296C59.2321 127.319 59.6312 129.727 60.1266 131.782C60.3056 132.53 60.5028 133.232 60.7001 133.851C60.6771 133.97 60.6588 134.099 60.6359 134.227C60.5946 134.489 60.5579 134.773 60.5258 135.076C60.4753 135.526 60.434 136.012 60.4019 136.521C60.3973 136.599 60.3973 136.682 60.3881 136.764H65.3793V133.792L64.7416 126.03C64.8792 125.961 64.9756 125.823 64.9756 125.663L64.9939 123.984C65.0581 124.112 65.1224 124.245 65.1866 124.374C65.3105 124.607 65.5857 124.685 65.8013 124.557C65.8059 124.557 65.8059 124.552 65.8105 124.552C66.0261 124.424 66.1041 124.153 65.994 123.933C65.5857 123.162 65.2508 122.328 64.9847 121.438C64.9572 121.286 64.9068 121.144 64.8288 121.016C64.8242 121.011 64.8242 121.006 64.8242 121.002C64.737 120.86 64.6223 120.731 64.4847 120.635C64.4618 118.937 65.8564 116.24 65.6637 113.263C65.6362 112.882 66.0261 112.588 66.1224 112.382C66.2555 112.098 66.361 111.831 66.4527 111.565L66.5536 111.593C67.1775 109.529 67.072 118.336 67.7005 116.268C67.9482 118.281 68.6501 114.543 68.9254 116.703L68.8703 117.928L68.6868 121.956C68.6914 121.961 68.696 121.961 68.7006 121.965C68.696 121.993 68.696 122.02 68.6914 122.048L68.4666 126.53L68.2097 130.879L68.1271 132.094C68.1134 132.273 68.118 132.447 68.1409 132.617V132.622C68.1363 132.677 68.1363 132.727 68.1363 132.782V133.062L68.1042 135.76L68.0996 136.76H73.4945L73.4761 132.833C73.4761 132.723 73.4715 132.608 73.4578 132.498V132.489L73.7514 127.085L73.9303 123.805L73.9348 123.699C74.0037 123.699 74.0771 123.699 74.1459 123.695L74.1505 123.74L74.6321 132.48C74.6138 132.594 74.6092 132.713 74.6138 132.828L74.5954 136.755H79.9903L79.9857 135.755L79.9627 133.787L80.5591 125.305L80.5637 125.19L80.9949 136.76H97.3904C97.2482 134.397 97.0785 131.723 96.8078 129.08C96.5968 126.965 96.3216 124.887 95.9592 123.043C96.0784 123.195 96.2849 123.24 96.45 123.144C96.4546 123.144 96.4546 123.139 96.4592 123.139C96.6473 123.029 96.7161 122.791 96.6198 122.598C96.2665 121.924 95.9683 121.194 95.739 120.415C95.716 120.282 95.6702 120.158 95.6013 120.048C95.5968 120.043 95.5967 120.038 95.5967 120.034C95.5279 119.924 95.4454 119.827 95.3444 119.749L95.505 119.781L96.9088 111.749L97.8538 109.047L98.3446 115.02C98.3951 115.657 98.6153 116.946 99.1428 117.263C99.1933 117.295 99.2438 117.313 99.2988 117.323L99.0144 117.336C99.0006 117.57 98.9869 117.777 98.9823 118.13C98.9181 119.359 98.8034 120.818 98.8034 121.08L98.3171 136.75H103.432L104.239 125.296L104.244 125.181L104.675 136.75H109.57L109.662 121.08C109.662 120.864 109.561 119.13 109.396 117.979C109.41 117.621 109.428 117.355 109.423 117.148L111.813 119.722L112.107 119.378C112.208 119.772 112.364 120.13 112.602 120.268C112.557 120.46 112.589 120.772 112.607 121.263C112.46 122.3 112.368 123.855 112.368 124.048L112.442 136.755H116.896L117.231 127.736L117.236 127.837L117.864 136.755H122.516L122.121 124.048C122.121 123.855 122.043 122.3 121.906 121.263C121.906 120.722 121.924 120.52 121.906 120.245H121.855C122.305 119.919 122.406 118.749 122.406 118.176V115.41L124.264 115.933C124.424 116.001 124.599 116.024 124.773 116.034C124.851 116.249 125.094 116.442 125.466 116.607C125.429 117.148 125.411 117.515 125.424 117.639C125.447 117.873 125.635 118.08 125.952 118.263L125.778 122.075C125.782 122.08 125.677 124.323 125.677 124.323L125.567 126.543L125.314 130.796L125.236 132.599C125.222 132.769 125.227 132.934 125.25 133.094C125.25 133.103 125.25 133.113 125.245 133.117C125.241 133.168 125.241 133.218 125.241 133.273V133.548L125.213 136.186L125.209 136.769H130.48L130.461 133.328C130.461 133.223 130.457 133.108 130.438 133.003V132.993L130.902 123.892L130.911 123.791C130.952 123.791 130.993 123.786 131.039 123.786C131.067 123.786 131.09 123.786 131.117 123.786L131.122 123.832L131.594 132.989V132.993C131.576 133.103 131.571 133.218 131.571 133.333L131.558 136.773H136.829L136.824 136.191L136.792 133.553L136.787 133.278C136.787 133.227 136.783 133.177 136.783 133.126C136.806 132.957 136.806 132.782 136.792 132.608L136.714 130.805L136.297 123.098L136.246 122.084C136.246 122.084 136.251 122.084 136.251 122.08L136.182 120.772L136.04 117.937C136.118 117.85 136.177 117.749 136.214 117.644C136.241 117.502 136.223 117.121 136.177 116.579C136.512 116.414 136.755 116.222 136.865 116.001C136.879 115.979 136.888 115.956 136.897 115.933C136.92 115.836 136.939 115.74 136.957 115.639C137.375 113.442 137.31 111.937 137.182 110.409C137.443 109.524 138.15 118.529 138.618 116.983C138.865 118.997 138.921 114.547 139.2 116.708L139.145 117.933L138.962 121.961C138.966 121.965 138.971 121.965 138.976 121.97C138.971 121.997 138.971 122.025 138.966 122.052L138.742 126.534L138.485 130.883L138.407 132.099C138.393 132.278 138.398 132.452 138.421 132.622V132.626C138.416 132.681 138.416 132.732 138.416 132.787V133.067L138.384 135.764L138.379 136.764H143.774L143.756 132.837C143.756 132.727 143.751 132.613 143.737 132.502V132.493L144.031 127.089L144.178 124.406C144.237 124.447 144.302 124.474 144.38 124.474H144.389C144.416 124.474 144.444 124.465 144.471 124.461L144.912 132.484C144.893 132.599 144.889 132.718 144.893 132.833L144.875 136.76H152.454L153.261 125.305L153.265 125.19L153.697 136.76H173.849L173.831 132.833C173.836 132.713 173.826 132.599 173.813 132.484L174.294 123.745L174.299 123.699C174.368 123.704 174.441 123.704 174.51 123.704L174.515 123.809L174.693 127.089L174.987 132.493V132.502C174.973 132.613 174.969 132.723 174.969 132.837L174.95 136.764H180.345L180.341 135.764L180.308 133.067V132.787C180.308 132.732 180.304 132.681 180.304 132.626V132.622C180.322 132.452 180.327 132.278 180.318 132.099L180.235 130.883L179.978 126.534L179.753 122.052C179.753 122.025 179.749 121.997 179.744 121.97C179.749 121.965 179.753 121.965 179.758 121.961L179.574 117.933L179.519 116.708C179.735 115.029 180.203 111.772 180.519 109.455L180.662 109.056L181.153 115.029C181.203 115.667 181.423 116.956 181.951 117.272C182.001 117.304 182.052 117.323 182.107 117.332L181.822 117.346C181.809 117.58 181.795 117.786 181.79 118.139C181.731 119.369 181.611 120.827 181.611 121.089L181.125 136.76H186.24L187.047 125.305L187.052 125.19L187.483 136.76H192.378L192.47 121.089C192.47 120.873 192.369 119.139 192.204 117.988C192.227 117.424 192.263 117.07 192.204 116.855C192.217 116.855 192.227 116.85 192.24 116.85C192.25 116.85 192.259 116.846 192.263 116.846C192.406 116.832 192.511 116.749 192.589 116.616C192.924 116.066 192.786 114.676 192.74 114.075L191.984 104.79L199.108 103.129C199.401 103.06 199.658 102.918 199.865 102.73C199.869 102.725 199.869 102.725 199.869 102.725C200.025 102.62 200.167 102.482 200.287 102.317L204.154 96.7525L203.98 96.5874L204.273 96.1057C204.608 96.0782 204.92 95.913 205.108 95.6286L205.957 94.5597L207.2 93.0872C207.319 92.9495 207.301 92.7385 207.159 92.6192ZM24.262 122.066L23.7345 128.456L23.4455 123.089L23.395 122.075C23.395 122.075 23.3996 122.075 23.3996 122.071L23.3308 120.763L23.1886 117.928C23.2665 117.841 23.3262 117.74 23.3629 117.635C23.3904 117.492 23.3721 117.112 23.3262 116.57C23.5143 116.479 23.6702 116.373 23.7895 116.263C23.8124 116.382 23.8308 116.497 23.8537 116.625C23.9271 116.818 24.0969 116.992 24.3446 117.144C24.3905 117.506 24.4455 117.887 24.5189 118.3C24.5281 118.332 24.5464 118.359 24.5602 118.392L24.262 122.066ZM26.3493 83.0223C26.1062 82.9581 25.8722 82.903 25.6474 82.8572C26.097 82.7287 26.5557 82.6232 27.0191 82.5773C26.7851 82.7104 26.5603 82.8572 26.3493 83.0223ZM45.5432 101.17C45.4468 101.129 45.3551 101.092 45.2771 101.06C45.1441 101.005 45.0523 100.968 45.0523 100.968V100.276C45.1945 100.092 45.3459 99.8766 45.5294 99.6105C45.7542 99.2848 45.9331 98.7939 46.0707 98.1746C46.0799 98.1792 46.0845 98.1792 46.0937 98.1838C46.19 98.6655 46.3001 99.1472 46.4331 99.6289C46.4928 99.8307 46.5524 100.037 46.6212 100.239C46.7451 100.629 46.8965 101.01 47.0937 101.368C47.2313 101.606 47.3919 101.831 47.5616 102.046C46.6717 101.643 45.5432 101.17 45.5432 101.17ZM67.0262 92.2844C66.4114 93.2798 66.3289 94.2891 66.9069 96.0415C66.9115 96.0415 66.9161 96.0461 66.9206 96.0461C66.5949 96.0874 66.4206 96.5002 66.6316 97.0186C66.8105 97.4682 67.1363 98.0554 67.4115 98.1058C67.5124 98.1242 67.5812 98.115 67.6363 98.0967C67.5858 98.1838 67.5445 98.271 67.4895 98.3627C66.7096 99.7206 65.6912 100.253 64.3012 100.987V100.991V100.987C63.6085 101.363 62.8883 101.487 62.1084 101.436H62.1038C62.1038 101.418 62.1038 101.4 62.1038 101.381L60.8652 100.955C60.8652 101.051 60.8606 101.138 60.856 101.225L60.8606 100.955L60.879 100.267C60.9661 100.138 61.0579 100.005 61.1634 99.8536C61.3974 99.505 61.4524 98.9224 61.5854 98.271C61.6038 98.2756 61.6955 98.4636 61.9937 98.3535C62.246 98.2618 62.4662 97.6517 62.5718 97.1975C62.6956 96.6746 62.4662 96.303 62.1497 96.3121C62.1543 96.3121 62.1589 96.3076 62.1589 96.3076C62.4433 94.5506 62.2139 93.5964 61.4799 92.7431C60.1679 91.2155 56.8604 91.4816 55.9888 92.7798C55.3603 93.7156 55.0483 94.5964 55.3557 96.3534C55.3603 96.3534 55.3649 96.358 55.3649 96.358C55.0483 96.3534 54.8236 96.725 54.952 97.248C55.0621 97.7021 55.2915 98.3077 55.5438 98.3948C55.8466 98.5004 55.9337 98.3123 55.9521 98.3077C56.0943 98.9591 56.1585 99.5417 56.3925 99.8858C56.4796 100.014 56.5576 100.124 56.6356 100.234L56.6448 100.923L55.4153 101.386C55.4153 101.404 55.4199 101.423 55.4199 101.436C54.6401 101.491 53.9107 101.368 53.218 100.991C53.2134 101.001 53.2134 101.005 53.2088 101.014C53.2088 101.01 53.2134 101.005 53.2134 101.001C51.828 100.262 50.8096 99.7298 50.0343 98.3673C49.5847 97.5829 49.2819 96.8764 48.9333 96.0415C48.5617 95.1515 48.3048 94.1652 47.8506 93.4083H47.8461C47.8461 93.4083 47.8506 93.4083 47.8506 93.4037L47.4882 92.1284L47.3047 92.1789L47.1121 91.4082C47.1717 91.3761 47.2084 91.2889 47.2359 91.1742C54.585 90.6467 61.2827 90.6283 68.5354 91.0733C67.9161 91.3439 67.361 91.743 67.0262 92.2844ZM88.2523 117.419C87.0045 119.387 86.3531 121.832 85.9539 124.516L85.9723 121.089C85.9723 120.873 85.8714 119.139 85.7062 117.988C85.7292 117.424 85.7659 117.07 85.7062 116.855C85.72 116.855 85.7292 116.85 85.7429 116.85C85.7521 116.85 85.7613 116.846 85.7659 116.846C85.9081 116.832 86.0136 116.749 86.0916 116.616C86.4265 116.066 86.2888 114.676 86.243 114.075L86.1787 113.281L86.743 111.662C86.7476 111.675 86.7522 111.685 86.7522 111.698C86.7797 111.822 86.8164 111.942 86.8577 112.047C86.8669 112.065 86.876 112.084 86.8852 112.107C86.9265 112.198 86.9724 112.286 87.0274 112.368C87.0366 112.382 87.0458 112.4 87.0549 112.414C87.1146 112.497 87.1834 112.57 87.2568 112.639C87.2751 112.657 87.2981 112.676 87.3164 112.689C87.3898 112.754 87.4724 112.809 87.555 112.859C87.5687 112.997 87.5871 113.134 87.6008 113.267C87.6284 113.501 87.6513 113.735 87.6788 113.969C87.6972 114.116 87.7155 114.263 87.7339 114.41C87.766 114.662 87.7981 114.914 87.8348 115.167C87.8531 115.295 87.8715 115.419 87.8899 115.547C87.9449 115.928 88.0091 116.309 88.0825 116.699C88.0963 116.722 88.1146 116.735 88.133 116.758C88.1743 116.974 88.211 117.194 88.2523 117.419ZM89.5 104.854C88.8807 105.015 88.3669 105.262 87.9036 105.533C87.2614 105.464 86.4173 105.891 86.1007 106.593L86.0962 106.583L86.0824 106.634C86.0732 106.657 86.0595 106.68 86.0503 106.703C86.0503 106.707 86.0549 106.716 86.0549 106.721L85.7292 107.753L85.486 104.781L88.8716 103.992C89.0734 104.203 89.2844 104.391 89.5 104.547V104.854ZM99.4364 101.757C99.4364 101.762 99.441 101.762 99.441 101.767L98.285 102.092L97.2895 102.377V102.386C96.7757 102.528 96.3353 102.918 96.1472 103.459L95.6564 104.863C95.2527 104.767 94.7527 104.703 94.3811 104.739C93.9636 104.721 93.3764 104.712 92.7479 104.698V104.547C93.0782 104.262 93.381 103.886 93.6425 103.404C94.0691 102.615 94.3536 101.9 94.5416 101.244L97.6611 96.7525L97.4868 96.5874L97.7804 96.1057C98.1153 96.0782 98.4272 95.913 98.6153 95.6286L98.9685 95.1836L99.0465 95.6745C99.0603 95.6699 99.0786 95.6745 99.097 95.6745C98.8447 95.8029 98.863 96.2846 98.996 96.8122C99.1107 97.2755 99.2162 97.6287 99.4823 97.7067C99.5419 97.7251 99.6062 97.7297 99.6658 97.7113C99.6842 97.7067 99.7025 97.6975 99.7163 97.6884C99.9135 98.3444 100.143 98.8536 100.414 99.1885C100.514 99.3123 100.606 99.4224 100.693 99.5279L100.785 100.624L99.4364 101.757ZM122.286 95.6286L123.135 94.5597L123.851 93.7156C124.355 93.8303 124.869 93.9771 125.401 94.1698L123.048 99.3261C122.695 99.0004 122.378 98.615 122.094 98.115C122.085 98.0967 122.071 98.0783 122.062 98.06C122.011 97.9728 121.965 97.8902 121.919 97.8031C121.997 97.7297 122.034 97.615 122.016 97.5003C122.007 97.4498 122.002 97.3948 121.993 97.3351C121.975 97.2113 121.952 97.092 121.887 96.9911C121.851 96.9314 121.8 96.881 121.764 96.8168C121.759 96.8168 121.759 96.8122 121.759 96.8122C121.708 96.7296 121.621 96.5461 121.548 96.3672C121.507 96.2617 121.475 96.1699 121.452 96.0965C121.786 96.0828 122.098 95.9176 122.286 95.6286ZM106.607 101.17L106.547 101.175L105.042 100.276L105.01 99.8582C105.533 99.6747 106.061 99.5601 106.602 99.6426L106.671 101.179L106.607 101.17ZM111.946 115.538L110.478 113.836L111.946 111.648V115.538ZM115.295 105.469L114.015 106.382H113.965L111.946 106.776V106.799C111.598 106.891 111.281 107.097 111.066 107.418L109.556 109.666L109.157 104.785L114.662 103.501C114.754 103.758 114.855 103.978 114.97 104.147C115.089 104.322 115.194 104.473 115.291 104.611V105.469H115.295ZM117.915 97.0094C117.685 96.9865 117.442 96.9727 117.162 96.9727C116.291 96.9727 115.717 97.0782 115.24 97.3673C115.24 97.3673 115.24 97.3673 115.236 97.3673C115.02 97.5003 114.823 97.67 114.625 97.8856C114.58 97.9361 114.534 97.9911 114.492 98.0462C114.139 98.5003 113.947 99.0692 113.969 99.6564L114.006 100.138L108.598 101.395L107.318 101.248L107.253 99.8353L107.102 96.569L107.088 96.2984C109.52 96.4314 111.63 95.8305 113.694 95.1378C114.983 94.7065 116.259 94.2386 117.575 93.8991C117.653 94.5139 117.745 95.2157 117.841 95.8993C117.892 96.2571 117.942 96.6057 117.988 96.9314L117.915 97.0094ZM119.144 105.469V104.482C119.213 104.381 119.286 104.276 119.369 104.157C119.584 103.84 119.754 103.363 119.883 102.762C119.896 102.767 119.915 102.776 119.933 102.776C119.988 102.785 120.043 102.78 120.098 102.757C120.185 102.725 120.245 102.647 120.296 102.556C120.305 102.565 120.318 102.579 120.328 102.588C120.332 102.592 120.332 102.597 120.337 102.597C120.433 102.693 120.539 102.79 120.635 102.877C120.731 102.964 120.846 103.065 120.965 103.166C120.979 103.175 120.988 103.189 120.997 103.198C121.062 103.253 121.13 103.313 121.204 103.368L119.974 106.056L119.144 105.469ZM123.498 107.666C123.287 107.194 122.869 106.882 122.397 106.79V106.781L121.484 106.602L121.057 106.519L122.149 104.134C122.736 104.592 123.245 104.973 123.314 105.028C123.319 105.028 123.319 105.033 123.323 105.033C124.342 105.79 124.282 107.34 124.557 108.579C124.566 108.62 124.576 108.662 124.58 108.703C124.617 108.877 124.649 109.061 124.672 109.24C124.727 109.662 124.75 110.093 124.759 110.529L123.498 107.666ZM158.637 120.327C158.592 119.667 158.514 118.713 158.413 117.988C158.436 117.424 158.472 117.07 158.413 116.855C158.426 116.855 158.436 116.85 158.449 116.85C158.458 116.85 158.468 116.846 158.472 116.846C158.614 116.832 158.72 116.749 158.798 116.616C159.133 116.066 158.995 114.676 158.949 114.075L159.036 112.657C159.073 112.676 159.11 112.698 159.151 112.712C159.188 112.969 159.225 113.217 159.257 113.469C159.27 113.575 159.289 113.685 159.303 113.795C159.335 114.024 159.367 114.244 159.403 114.469C159.422 114.584 159.436 114.703 159.454 114.818C159.486 115.038 159.523 115.254 159.555 115.469C159.573 115.575 159.587 115.685 159.605 115.79C159.656 116.102 159.711 116.405 159.766 116.699C159.78 116.717 159.798 116.735 159.816 116.758C159.853 116.979 159.894 117.199 159.931 117.424C159.426 118.121 159 119.125 158.637 120.327ZM161.183 104.698C160.555 104.712 159.968 104.726 159.55 104.739C159.546 104.739 159.537 104.739 159.532 104.739L159.61 103.501L159.945 102.712C160.05 102.936 160.165 103.166 160.293 103.404C160.555 103.891 160.858 104.267 161.188 104.547V104.698H161.183ZM164.422 104.556C164.817 104.271 165.197 103.891 165.551 103.404C166.184 102.533 166.555 100.831 166.661 99.6931C166.803 99.9133 166.941 100.138 167.087 100.354C166.849 100.615 166.679 100.794 166.633 100.845C166.647 100.863 169.216 102.455 169.005 105.749C169 105.845 168.996 105.941 168.991 106.042C168.987 106.148 168.987 106.253 168.982 106.354C168.982 106.414 168.977 106.473 168.977 106.533C168.977 106.638 168.973 106.753 168.973 106.863C168.973 107.005 168.973 107.148 168.977 107.29C168.996 108.354 169.069 109.565 169.147 110.786L167.872 106.726C167.872 106.721 167.876 106.712 167.876 106.707C167.867 106.684 167.854 106.661 167.844 106.638L167.831 106.588L167.826 106.597C167.509 105.891 166.665 105.469 166.023 105.537C165.56 105.262 165.051 105.019 164.427 104.859V104.556H164.422ZM169.271 117.304L169.037 121.961C169.042 121.965 169.046 121.965 169.051 121.97C169.046 121.997 169.046 122.025 169.042 122.052L169.019 122.438L168.583 130.493C168.202 125.539 167.808 120.777 165.675 117.419C165.716 117.194 165.753 116.974 165.789 116.758C165.803 116.74 165.826 116.722 165.84 116.699C165.913 116.309 165.973 115.928 166.032 115.547C166.051 115.419 166.069 115.295 166.087 115.167C166.124 114.914 166.156 114.662 166.188 114.41C166.207 114.263 166.225 114.116 166.243 113.969C166.271 113.735 166.298 113.501 166.321 113.267C166.335 113.13 166.353 112.992 166.367 112.859C166.454 112.813 166.532 112.754 166.606 112.689C166.624 112.671 166.647 112.657 166.665 112.639C166.739 112.57 166.808 112.497 166.867 112.414C166.876 112.4 166.886 112.382 166.895 112.368C166.95 112.29 166.996 112.203 167.037 112.107C167.046 112.088 167.055 112.07 167.065 112.047C167.106 111.942 167.143 111.822 167.17 111.698C167.175 111.685 167.179 111.675 167.179 111.662L168.083 114.258C168.487 114.928 168.904 115.575 169.326 116.203L169.271 117.304ZM181.515 96.0415C181.63 95.6974 181.708 95.3901 181.772 95.0965L181.864 95.6791C181.877 95.6745 181.896 95.6791 181.914 95.6791C181.776 95.7479 181.721 95.9222 181.721 96.1516C181.662 96.0965 181.588 96.0598 181.506 96.0507C181.506 96.0461 181.51 96.0415 181.515 96.0415ZM182.254 101.757C182.254 101.762 182.258 101.762 182.258 101.767L181.102 102.092L180.662 102.216C179.951 101.739 179.382 101.358 179.198 101.056C179.198 101.051 179.203 101.046 179.203 101.042L179.552 99.9041C179.666 99.7848 179.785 99.661 179.919 99.5142C180.212 99.1976 180.364 98.6059 180.607 97.959C180.625 97.9682 180.689 98.1746 181.015 98.1104C181.286 98.0554 181.611 97.4682 181.795 97.0232C181.813 96.9819 181.822 96.9406 181.836 96.8993C181.942 97.3168 182.052 97.6379 182.299 97.7113C182.359 97.7297 182.423 97.7342 182.483 97.7159C182.501 97.7113 182.52 97.7021 182.533 97.693C182.731 98.349 182.96 98.8582 183.231 99.1931C183.332 99.3169 183.423 99.427 183.51 99.5325L183.602 100.629L182.254 101.757Z" fill="#B6D8FF"/>
<path d="M195.356 51.8888C186.341 53.1965 182.032 53.7686 173.7 54.7902C173.629 57.8755 173.66 59.3057 173.823 61.8087C182.287 60.7462 186.667 60.1435 195.907 58.7949C195.54 56.3533 195.428 54.9434 195.356 51.8888Z" fill="#0077FF"/>
<path d="M173.702 54.79C165.37 55.8117 161.358 56.2509 153.547 56.9967C153.424 60.1126 153.414 61.5633 153.455 64.1174C161.317 63.3307 165.36 62.871 173.824 61.8085C173.661 59.3056 173.63 57.8753 173.702 54.79Z" fill="#0077FF"/>
<path d="M153.547 56.9967C145.869 57.7221 142.152 58.0185 134.821 58.4885C134.719 61.635 134.699 63.1061 134.688 65.7113C142.009 65.2107 145.736 64.8938 153.455 64.1174C153.414 61.5633 153.424 60.1126 153.547 56.9967Z" fill="#0077FF"/>
<path d="M134.821 58.4885C127.235 58.9686 123.528 59.132 116.146 59.3261C116.116 62.5033 116.095 63.9949 116.075 66.6511C123.406 66.4161 127.102 66.222 134.678 65.7112C134.698 63.1061 134.719 61.635 134.821 58.4885Z" fill="#0077FF"/>
<path d="M116.463 59.326C109.082 59.5303 105.447 59.5507 98.1057 59.4792C98.1568 62.6871 98.167 64.1991 98.1568 66.9063C105.437 66.9472 109.051 66.8961 116.392 66.6509C116.412 63.9947 116.433 62.5032 116.463 59.326Z" fill="#0077FF"/>
<path d="M98.422 59.4691C91.0911 59.3976 87.4257 59.2852 79.9825 58.9378C80.1152 62.1763 80.1459 63.7088 80.1561 66.4671C87.5686 66.7838 91.2034 66.8655 98.4832 66.9064C98.4832 64.1991 98.473 62.6871 98.422 59.4691Z" fill="#0077FF"/>
<path d="M80.4222 58.9584C72.9279 58.611 69.1502 58.3658 61.3701 57.7426C61.5641 61.0118 61.6049 62.5646 61.6049 65.3639C69.3748 65.9462 73.1423 66.1709 80.5957 66.4774C80.5855 63.7293 80.5549 62.1969 80.4222 58.9584Z" fill="#0077FF"/>
<path d="M61.8392 57.7732C54.0591 57.15 50.0873 56.772 41.858 55.873C42.0724 59.1728 42.103 60.7461 42.0418 63.5964C50.3324 64.4545 54.3041 64.8121 62.074 65.3944C62.074 62.5952 62.0332 61.0526 61.8392 57.7732Z" fill="#0077FF"/>
<path d="M42.3583 55.9344C34.1902 55.0456 29.9837 54.545 21.203 53.3906C21.3663 56.721 21.3561 58.3147 21.1621 61.2059C30.0756 62.3194 34.323 62.8098 42.5421 63.6578C42.6034 60.8075 42.5727 59.2342 42.3583 55.9344Z" fill="#0077FF"/>
<path d="M21.5402 53.4313C17.2315 52.8694 15.0364 52.5731 10.5541 51.9397C10.6562 55.2804 10.6154 56.8843 10.3295 59.8061C14.9036 60.4191 17.1294 60.7051 21.4994 61.2466C21.6934 58.3554 21.7036 56.7617 21.5402 53.4313Z" fill="#0077FF"/>
<path d="M7.91962 33.9495C12.3508 34.5931 14.5256 34.8996 18.824 35.4717C16.9351 27.9424 15.5976 24.0092 11.9526 16.766C7.4908 16.2041 5.24458 15.9078 0.70108 15.2846C4.58092 22.5074 5.98991 26.4304 7.91962 33.9495Z" fill="#0077FF"/>
<path d="M10.5541 51.9397C15.2304 52.5935 17.5174 52.9104 21.9996 53.4927C21.6729 46.8318 21.1624 43.0416 19.2735 35.5225C14.8015 34.9198 12.5349 34.6031 7.91991 33.939C9.84962 41.4581 10.3397 45.2481 10.5541 51.9397Z" fill="#0077FF"/>
<path d="M175.314 37.3921C166.993 38.3831 162.95 38.8122 154.996 39.5171C155.935 31.9776 156.589 27.932 158.304 20.3414C166.738 19.6058 170.995 19.1665 179.643 18.1552C177.336 25.7866 176.488 29.8526 175.314 37.3921Z" fill="#0077FF"/>
<path d="M153.883 56.9661C146.062 57.7119 142.274 58.0185 134.821 58.4885C135.015 52.1953 135.209 48.4765 135.791 40.937C143.499 40.4977 147.389 40.2117 155.343 39.4863C154.404 47.0258 154.118 50.7343 153.883 56.9661Z" fill="#0077FF"/>
<path d="M116.463 59.326C109.214 59.5201 105.63 59.5507 98.4216 59.4792C98.3195 53.0634 98.2174 49.3141 97.86 41.7849C105.405 41.887 109.152 41.8666 116.718 41.7031C116.596 49.2324 116.545 52.9613 116.463 59.326Z" fill="#0077FF"/>
<path d="M196.694 34.5622C187.893 35.8392 183.635 36.4011 175.314 37.3921C176.488 29.8526 177.335 25.7865 179.653 18.1551C188.301 17.1437 192.681 16.5614 201.615 15.2639C198.879 22.9464 197.919 27.0227 196.694 34.5622Z" fill="#0077FF"/>
<path d="M154.996 39.5171C147.042 40.2322 143.152 40.5181 135.454 40.9472C136.025 33.4077 136.413 29.3723 137.414 21.8328C145.705 21.3731 149.881 21.0666 158.314 20.3311C156.589 27.9319 155.935 31.9776 154.996 39.5171Z" fill="#0077FF"/>
<path d="M173.702 54.79C165.37 55.8117 161.358 56.2509 153.547 56.9967C153.782 50.7649 154.057 47.0566 154.996 39.5171C162.95 38.8019 166.993 38.3831 175.314 37.3921C174.15 44.9316 173.845 48.6195 173.702 54.79Z" fill="#0077FF"/>
<path d="M134.821 58.4885C127.368 58.9584 123.723 59.1216 116.463 59.326C116.535 52.9715 116.585 49.2426 116.718 41.7031C124.284 41.5397 128.082 41.3864 135.78 40.9471C135.209 48.4764 135.015 52.1953 134.821 58.4885Z" fill="#0077FF"/>
<path d="M80.6252 58.9684C73.1208 58.621 69.3329 58.3758 61.5528 57.7527C61.1648 51.2143 60.7666 47.4446 59.4597 39.9153C67.495 40.5691 71.4361 40.8246 79.2571 41.2025C80.0943 48.7318 80.3598 52.4914 80.6252 58.9684Z" fill="#0077FF"/>
<path d="M42.5528 55.9547C34.4358 55.0762 30.2596 54.5755 21.5402 53.4313C21.2135 46.7703 20.7032 42.9803 18.8144 35.4612C27.5134 36.6361 31.7301 37.1469 39.9901 38.0561C41.6441 45.5854 42.1342 49.3551 42.5528 55.9547Z" fill="#0077FF"/>
<path d="M98.422 59.4691C91.2136 59.3976 87.6195 59.2955 80.2988 58.9482C80.0334 52.4711 79.7679 48.7116 78.9205 41.1823C86.5576 41.5501 90.3252 41.6727 97.8602 41.7749C98.2278 49.3144 98.3301 53.0533 98.422 59.4691Z" fill="#0077FF"/>
<path d="M61.8392 57.7732C54.2531 57.1704 50.3835 56.8027 42.3583 55.9344C41.9295 49.3348 41.4496 45.5548 39.7854 38.0255C47.9433 38.9245 51.915 39.3025 59.7564 39.9359C61.053 47.4754 61.4512 51.2349 61.8392 57.7732Z" fill="#0077FF"/>
<path d="M195.357 51.8886C186.342 53.1963 182.033 53.7684 173.702 54.79C173.845 48.6195 174.151 44.9212 175.315 37.3817C183.636 36.3907 187.894 35.8289 196.695 34.5518C195.47 42.1016 195.235 45.7794 195.357 51.8886Z" fill="#0077FF"/>
<path d="M116.729 41.693C109.163 41.8565 105.406 41.8769 97.8708 41.7747C97.5134 34.2352 97.2684 30.2407 96.5945 22.7932C104.814 22.8647 108.918 22.8443 117.137 22.6502C116.943 30.1386 116.862 34.1535 116.729 41.693Z" fill="#0077FF"/>
<path d="M79.0122 41.1924C71.375 40.8246 67.536 40.5692 59.7049 39.9358C58.4082 32.4065 57.5199 28.4324 55.1818 21.0871C63.6051 21.6898 67.7709 21.935 76.0615 22.2721C77.5828 29.6686 78.1647 33.6529 79.0122 41.1924Z" fill="#0077FF"/>
<path d="M39.7343 38.0254C31.5764 37.1264 27.4107 36.6156 18.824 35.4612C16.9351 27.9319 15.5874 23.9987 11.9424 16.7554C20.8558 17.8792 25.2359 18.3798 33.8737 19.2482C36.9265 26.5425 38.07 30.4961 39.7343 38.0254Z" fill="#0077FF"/>
<path d="M135.791 40.937C128.082 41.3763 124.295 41.5296 116.729 41.693C116.862 34.1535 116.943 30.1385 117.137 22.6399C125.367 22.4458 129.481 22.2823 137.772 21.8124C136.761 29.3621 136.373 33.3975 135.791 40.937Z" fill="#0077FF"/>
<path d="M97.8708 41.7747C90.3255 41.6726 86.5577 41.5499 78.9307 41.1821C78.0731 33.6426 77.5013 29.6685 75.9698 22.2721C84.2604 22.6194 88.3754 22.7217 96.5945 22.7932C97.2582 30.2407 97.5032 34.2352 97.8708 41.7747Z" fill="#0077FF"/>
<path d="M59.7044 39.9562C51.8631 39.3228 47.8913 38.9346 39.7335 38.0458C38.0794 30.5165 36.9257 26.5629 33.8729 19.2686C42.5106 20.1369 46.758 20.5047 55.1916 21.1075C57.5195 28.4529 58.4077 32.4167 59.7044 39.9562Z" fill="#0077FF"/>
<mask id="mask1_44_7272" style="mask-type:alpha" maskUnits="userSpaceOnUse" x="0" y="15" width="202" height="52">
<path d="M195.356 51.8888C186.34 53.1965 182.031 53.7686 173.7 54.7902C173.629 57.8755 173.659 59.3057 173.823 61.8087C182.287 60.7462 186.667 60.1435 195.907 58.7949C195.539 56.3533 195.427 54.9434 195.356 51.8888Z" fill="#0054FF"/>
<path d="M173.701 54.79C165.37 55.8117 161.357 56.2509 153.546 56.9967C153.424 60.1126 153.414 61.5633 153.455 64.1174C161.316 63.3307 165.359 62.871 173.824 61.8085C173.66 59.3056 173.63 57.8753 173.701 54.79Z" fill="#0054FF"/>
<path d="M153.546 56.9967C145.868 57.7221 142.151 58.0185 134.821 58.4885C134.719 61.635 134.698 63.1061 134.688 65.7113C142.009 65.2107 145.736 64.8938 153.455 64.1174C153.414 61.5633 153.424 60.1126 153.546 56.9967Z" fill="#0054FF"/>
<path d="M134.821 58.4885C127.234 58.9686 123.528 59.132 116.146 59.3261C116.115 62.5033 116.095 63.9949 116.075 66.6511C123.405 66.4161 127.101 66.222 134.677 65.7112C134.698 63.1061 134.719 61.635 134.821 58.4885Z" fill="#0054FF"/>
<path d="M116.463 59.326C109.081 59.5303 105.446 59.5507 98.1053 59.4792C98.1563 62.6871 98.1665 64.1991 98.1563 66.9063C105.436 66.9472 109.05 66.8961 116.392 66.6509C116.412 63.9947 116.432 62.5032 116.463 59.326Z" fill="#0054FF"/>
<path d="M98.4215 59.4691C91.0906 59.3976 87.4252 59.2852 79.982 58.9378C80.1148 62.1763 80.1454 63.7088 80.1556 66.4671C87.5682 66.7838 91.2029 66.8655 98.4827 66.9064C98.4827 64.1991 98.4725 62.6871 98.4215 59.4691Z" fill="#0054FF"/>
<path d="M80.4217 58.9584C72.9275 58.611 69.1497 58.3658 61.3696 57.7426C61.5636 61.0118 61.6045 62.5646 61.6045 65.3639C69.3744 65.9462 73.1419 66.1709 80.5953 66.4774C80.5851 63.7293 80.5544 62.1969 80.4217 58.9584Z" fill="#0054FF"/>
<path d="M61.8387 57.7732C54.0586 57.15 50.0869 56.772 41.8575 55.873C42.072 59.1728 42.1026 60.7461 42.0413 63.5964C50.3319 64.4545 54.3037 64.8121 62.0736 65.3944C62.0736 62.5952 62.0327 61.0526 61.8387 57.7732Z" fill="#0054FF"/>
<path d="M42.3579 55.9344C34.1898 55.0456 29.9832 54.545 21.2025 53.3906C21.3659 56.721 21.3557 58.3147 21.1617 61.2059C30.0751 62.3194 34.3225 62.8098 42.5416 63.6578C42.6029 60.8075 42.5723 59.2342 42.3579 55.9344Z" fill="#0054FF"/>
<path d="M21.5397 53.4313C17.2311 52.8694 15.0359 52.5731 10.5537 51.9397C10.6558 55.2804 10.6149 56.8843 10.3291 59.8061C14.9032 60.4191 17.129 60.7051 21.4989 61.2466C21.6929 58.3554 21.7031 56.7617 21.5397 53.4313Z" fill="#0054FF"/>
<path d="M7.91917 33.9495C12.3504 34.5931 14.5251 34.8996 18.8236 35.4717C16.9347 27.9424 15.5972 24.0092 11.9522 16.766C7.49034 16.2041 5.24412 15.9078 0.700623 15.2846C4.58046 22.5074 5.98946 26.4304 7.91917 33.9495Z" fill="#0054FF"/>
<path d="M10.5537 51.9397C15.2299 52.5935 17.517 52.9104 21.9992 53.4927C21.6725 46.8318 21.162 43.0416 19.2731 35.5225C14.8011 34.9198 12.5344 34.6031 7.91946 33.939C9.84916 41.4581 10.3393 45.2481 10.5537 51.9397Z" fill="#0054FF"/>
<path d="M175.314 37.3921C166.993 38.3831 162.949 38.8122 154.996 39.5171C155.935 31.9776 156.588 27.932 158.304 20.3414C166.737 19.6058 170.995 19.1665 179.643 18.1552C177.335 25.7866 176.488 29.8526 175.314 37.3921Z" fill="#0054FF"/>
<path d="M153.883 56.9661C146.062 57.7119 142.274 58.0185 134.821 58.4885C135.015 52.1953 135.208 48.4765 135.79 40.937C143.499 40.4977 147.389 40.2117 155.343 39.4863C154.403 47.0258 154.117 50.7343 153.883 56.9661Z" fill="#0054FF"/>
<path d="M116.463 59.326C109.214 59.5201 105.629 59.5507 98.4211 59.4792C98.319 53.0634 98.2169 49.3141 97.8596 41.7849C105.405 41.887 109.152 41.8666 116.718 41.7031C116.595 49.2324 116.545 52.9613 116.463 59.326Z" fill="#0054FF"/>
<path d="M196.693 34.5622C187.892 35.8392 183.635 36.4011 175.314 37.3921C176.488 29.8526 177.335 25.7865 179.652 18.1551C188.3 17.1437 192.681 16.5614 201.614 15.2639C198.878 22.9464 197.918 27.0227 196.693 34.5622Z" fill="#0054FF"/>
<path d="M154.996 39.5171C147.042 40.2322 143.152 40.5181 135.453 40.9472C136.025 33.4077 136.413 29.3723 137.414 21.8328C145.704 21.3731 149.88 21.0666 158.314 20.3311C156.588 27.9319 155.935 31.9776 154.996 39.5171Z" fill="#0054FF"/>
<path d="M173.701 54.79C165.37 55.8117 161.357 56.2509 153.546 56.9967C153.781 50.7649 154.056 47.0566 154.996 39.5171C162.949 38.8019 166.993 38.3831 175.314 37.3921C174.15 44.9316 173.844 48.6195 173.701 54.79Z" fill="#0054FF"/>
<path d="M134.821 58.4885C127.367 58.9584 123.722 59.1216 116.463 59.326C116.534 52.9715 116.585 49.2426 116.718 41.7031C124.283 41.5397 128.082 41.3864 135.78 40.9471C135.208 48.4764 135.015 52.1953 134.821 58.4885Z" fill="#0054FF"/>
<path d="M80.6248 58.9684C73.1203 58.621 69.3324 58.3758 61.5523 57.7527C61.1643 51.2143 60.7661 47.4446 59.4592 39.9153C67.4946 40.5691 71.4357 40.8246 79.2566 41.2025C80.0938 48.7318 80.3593 52.4914 80.6248 58.9684Z" fill="#0054FF"/>
<path d="M42.5524 55.9547C34.4353 55.0762 30.2592 54.5755 21.5397 53.4313C21.213 46.7703 20.7028 42.9803 18.8139 35.4612C27.5129 36.6361 31.7297 37.1469 39.9896 38.0561C41.6437 45.5854 42.1338 49.3551 42.5524 55.9547Z" fill="#0054FF"/>
<path d="M98.4215 59.4691C91.2132 59.3976 87.619 59.2955 80.2984 58.9482C80.0329 52.4711 79.7675 48.7116 78.92 41.1823C86.5572 41.5501 90.3247 41.6727 97.8598 41.7749C98.2273 49.3144 98.3296 53.0533 98.4215 59.4691Z" fill="#0054FF"/>
<path d="M61.8387 57.7732C54.2526 57.1704 50.383 56.8027 42.3579 55.9344C41.929 49.3348 41.4492 45.5548 39.7849 38.0255C47.9428 38.9245 51.9145 39.3025 59.7559 39.9359C61.0526 47.4754 61.4507 51.2349 61.8387 57.7732Z" fill="#0054FF"/>
<path d="M195.357 51.8886C186.341 53.1963 182.033 53.7684 173.701 54.79C173.844 48.6195 174.15 44.9212 175.314 37.3817C183.636 36.3907 187.893 35.8289 196.694 34.5518C195.469 42.1016 195.234 45.7794 195.357 51.8886Z" fill="#0054FF"/>
<path d="M116.728 41.693C109.163 41.8565 105.405 41.8769 97.8703 41.7747C97.5129 34.2352 97.2679 30.2407 96.594 22.7932C104.813 22.8647 108.918 22.8443 117.137 22.6502C116.943 30.1386 116.861 34.1535 116.728 41.693Z" fill="#0054FF"/>
<path d="M79.0117 41.1924C71.3746 40.8246 67.5356 40.5692 59.7044 39.9358C58.4077 32.4065 57.5195 28.4324 55.1813 21.0871C63.6047 21.6898 67.7704 21.935 76.061 22.2721C77.5823 29.6686 78.1643 33.6529 79.0117 41.1924Z" fill="#0054FF"/>
<path d="M39.7338 38.0254C31.576 37.1264 27.4102 36.6156 18.8235 35.4612C16.9347 27.9319 15.5869 23.9987 11.9419 16.7554C20.8553 17.8792 25.2355 18.3798 33.8732 19.2482C36.926 26.5425 38.0696 30.4961 39.7338 38.0254Z" fill="#0054FF"/>
<path d="M135.79 40.937C128.082 41.3763 124.294 41.5296 116.728 41.693C116.861 34.1535 116.943 30.1385 117.137 22.6399C125.366 22.4458 129.481 22.2823 137.772 21.8124C136.761 29.3621 136.372 33.3975 135.79 40.937Z" fill="#0054FF"/>
<path d="M97.8703 41.7747C90.325 41.6726 86.5572 41.5499 78.9303 41.1821C78.0726 33.6426 77.5009 29.6685 75.9693 22.2721C84.2599 22.6194 88.3749 22.7217 96.594 22.7932C97.2577 30.2407 97.5027 34.2352 97.8703 41.7747Z" fill="#0054FF"/>
<path d="M59.704 39.9562C51.8626 39.3228 47.8909 38.9346 39.733 38.0458C38.079 30.5165 36.9252 26.5629 33.8724 19.2686C42.5102 20.1369 46.7576 20.5047 55.1911 21.1075C57.519 28.4529 58.4073 32.4167 59.704 39.9562Z" fill="#0054FF"/>
</mask>
<g mask="url(#mask1_44_7272)">
<rect width="237.887" height="51.7201" transform="translate(-36.7736 15.199)" fill="#0077FF"/>
<g clip-path="url(#clip0_44_7272)">
<path fill-rule="evenodd" clip-rule="evenodd" d="M108.171 34.2243C103.765 27.1998 100.052 17.862 100.052 9.32349H112.026C112.026 14.8188 114.598 21.9378 118.314 27.8616C120.135 30.7641 122.055 33.0929 123.749 34.6164C125.315 36.025 126.096 36.2235 126.091 36.2481C126.089 36.2539 126.045 36.2502 125.958 36.2502V48.224C121.822 48.224 118.233 45.7597 115.742 43.5193C113.012 41.0642 110.411 37.796 108.171 34.2243Z" fill="white"/>
<path fill-rule="evenodd" clip-rule="evenodd" d="M131.408 33.8074C127.016 27.0293 123.352 18.0074 123.352 9.62085H133.948C133.948 15.2681 136.57 22.2889 140.3 28.0452C142.133 30.8732 144.079 33.1526 145.821 34.658C147.467 36.0811 148.386 36.3497 148.551 36.3981C148.58 36.4065 148.586 36.4083 148.569 36.4083V47.0043C144.779 47.0043 141.382 44.8265 138.892 42.6749C136.21 40.357 133.636 37.2465 131.408 33.8074Z" fill="white"/>
<path fill-rule="evenodd" clip-rule="evenodd" d="M154.635 33.3741C150.262 26.8484 146.651 18.1467 146.651 9.91748H155.87C155.87 15.7221 158.544 22.6483 162.293 28.2421C164.14 30.9977 166.115 33.2282 167.908 34.7148C169.853 36.3269 170.969 36.5641 171.179 36.5641V45.7824C167.715 45.7824 164.504 43.8668 162.025 41.8113C159.394 39.6302 156.849 36.6781 154.635 33.3741Z" fill="white"/>
<path fill-rule="evenodd" clip-rule="evenodd" d="M177.852 32.9251C173.503 26.6576 169.949 18.2805 169.949 10.2144H177.79C177.79 16.1821 180.521 23.018 184.294 28.4551C186.158 31.1408 188.166 33.3228 190.013 34.7895C191.977 36.3483 193.273 36.7201 193.788 36.7201V44.5607C190.629 44.5607 187.598 42.8835 185.138 40.9302C182.562 38.8848 180.05 36.0917 177.852 32.9251Z" fill="white"/>
<path fill-rule="evenodd" clip-rule="evenodd" d="M201.06 32.459C196.741 26.4555 193.249 18.4073 193.249 10.5103H199.711C199.711 16.647 202.503 23.3978 206.307 28.6849C208.19 31.3034 210.234 33.4372 212.139 34.8829C214.13 36.3934 215.6 36.8768 216.399 36.8768V43.3396C213.523 43.3396 210.666 41.8775 208.233 40.0312C205.714 38.1201 203.238 35.4857 201.06 32.459Z" fill="white"/>
<path fill-rule="evenodd" clip-rule="evenodd" d="M89.4942 52.4217C79.4653 41.7283 71.186 27.4691 71.186 13.9841H92.3252C92.3252 23.496 98.458 34.8458 107.055 44.0121C111.289 48.5277 115.82 52.1828 119.932 54.6187C124.391 57.2605 126.951 57.6491 127.433 57.6491V72.755C119.488 72.755 112.125 69.6159 106.44 66.2476C100.407 62.6735 94.5719 57.836 89.4942 52.4217Z" fill="white"/>
<path fill-rule="evenodd" clip-rule="evenodd" d="M24.0373 53.8157C13.9331 42.3049 5.41983 27.0032 5.41983 13.0115H32.8777C32.8777 22.0166 38.7767 33.6821 47.2978 43.3894C51.4727 48.1455 55.8751 51.9618 59.7596 54.4582C63.3514 56.7665 65.1432 57.0918 65.1307 57.1321C65.1278 57.1416 65.0262 57.1354 64.8258 57.1354V76.7565C55.3424 76.7565 47.111 72.7183 41.3985 69.0471C35.1386 65.0241 29.175 59.6686 24.0373 53.8157Z" fill="white"/>
<path fill-rule="evenodd" clip-rule="evenodd" d="M-11.1362 65.5058C-25.0501 50.6973 -36.7732 31.0118 -36.7732 13.0115H1.03739C1.03739 24.5965 9.16047 39.6042 20.8944 52.0925C26.6435 58.2112 32.7057 63.1208 38.0547 66.3324C43.0008 69.3021 45.4683 69.7205 45.4511 69.7724C45.447 69.7846 45.3071 69.7767 45.0312 69.7767V95.0191C31.9721 95.0191 20.6372 89.824 12.7709 85.101C4.1507 79.9253 -4.06139 73.0355 -11.1362 65.5058Z" fill="white"/>
<path fill-rule="evenodd" clip-rule="evenodd" d="M57.9545 53.1314C47.8825 42.0251 39.4821 27.2416 39.4821 13.4988H63.7806C63.7806 22.7528 69.7923 34.2568 78.3457 43.6887C82.548 48.3225 87.0113 52.0575 91.0055 54.524C94.782 56.8561 96.8884 57.296 97.2678 57.3753C97.334 57.3891 97.3477 57.3919 97.3084 57.3919V74.7554C88.6179 74.7554 80.8269 71.1871 75.1177 67.6615C68.9676 63.8636 63.0649 58.7667 57.9545 53.1314Z" fill="white"/>
</g>
<g clip-path="url(#clip1_44_7272)">
<path fill-rule="evenodd" clip-rule="evenodd" d="M108.171 55.7499C103.764 48.7255 100.052 39.3876 100.052 30.8491H112.026C112.026 36.3445 114.598 43.4634 118.314 49.3873C120.135 52.2897 122.055 54.6186 123.748 56.142C125.315 57.5507 126.096 57.7491 126.091 57.7738C126.089 57.7795 126.045 57.7758 125.958 57.7758V69.7496C121.822 69.7496 118.233 67.2853 115.742 65.0449C113.012 62.5898 110.411 59.3217 108.171 55.7499Z" fill="white"/>
<path fill-rule="evenodd" clip-rule="evenodd" d="M131.408 55.3326C127.016 48.5549 123.352 39.5333 123.352 31.1467H133.948C133.948 36.794 136.57 43.8143 140.3 49.5701C142.132 52.3979 144.079 54.6772 145.821 56.1824C147.467 57.6056 148.386 57.874 148.551 57.9224C148.58 57.9308 148.586 57.9326 148.569 57.9326V68.5286C144.779 68.5286 141.382 66.3511 138.892 64.1996C136.21 61.8819 133.636 58.7715 131.408 55.3326Z" fill="white"/>
<path fill-rule="evenodd" clip-rule="evenodd" d="M154.635 54.8992C150.262 48.3735 146.651 39.6718 146.651 31.4426H155.87C155.87 37.2473 158.544 44.1735 162.293 49.7672C164.14 52.5228 166.115 54.7534 167.908 56.2399C169.853 57.8521 170.969 58.0892 171.179 58.0892V67.3076C167.715 67.3076 164.504 65.392 162.025 63.3365C159.394 61.1553 156.849 58.2033 154.635 54.8992Z" fill="white"/>
<path fill-rule="evenodd" clip-rule="evenodd" d="M177.852 54.451C173.503 48.1835 169.949 39.8064 169.949 31.7402H177.79C177.79 37.708 180.521 44.5439 184.294 49.981C186.158 52.6667 188.166 54.8487 190.013 56.3154C191.977 57.8742 193.273 58.246 193.788 58.246V66.0866C190.629 66.0866 187.598 64.4094 185.138 62.4561C182.562 60.4107 180.05 57.6176 177.852 54.451Z" fill="white"/>
<path fill-rule="evenodd" clip-rule="evenodd" d="M201.06 53.9848C196.741 47.9814 193.248 39.9332 193.248 32.0361H199.711C199.711 38.1729 202.503 44.9237 206.306 50.2108C208.19 52.8293 210.234 54.9631 212.139 56.4088C214.13 57.9193 215.6 58.4027 216.399 58.4027V64.8655C213.523 64.8655 210.666 63.4034 208.233 61.5571C205.714 59.646 203.238 57.0116 201.06 53.9848Z" fill="white"/>
<path fill-rule="evenodd" clip-rule="evenodd" d="M24.0372 74.7549C13.933 63.2441 5.41977 47.9424 5.41977 33.9507H32.8777C32.8777 42.9558 38.7766 54.6213 47.2977 64.3286C51.4727 69.0847 55.8751 72.901 59.7595 75.3974C63.3513 77.7057 65.1432 78.031 65.1307 78.0713C65.1278 78.0808 65.0261 78.0746 64.8258 78.0746V97.6957C55.3423 97.6957 47.111 93.6576 41.3985 89.9863C35.1385 85.9633 29.1749 80.6078 24.0372 74.7549Z" fill="white"/>
<path fill-rule="evenodd" clip-rule="evenodd" d="M-11.1362 86.4451C-25.0502 71.6365 -36.7732 51.951 -36.7732 33.9507H1.03735C1.03735 45.5357 9.16042 60.5434 20.8943 73.0317C26.6434 79.1504 32.7057 84.06 38.0547 87.2716C43.0008 90.2413 45.4682 90.6597 45.451 90.7116C45.447 90.7238 45.3071 90.7159 45.0311 90.7159V115.958C31.972 115.958 20.6372 110.763 12.7708 106.04C4.15065 100.865 -4.06144 93.9748 -11.1362 86.4451Z" fill="white"/>
<path fill-rule="evenodd" clip-rule="evenodd" d="M57.9545 74.0709C47.8825 62.9645 39.4821 48.1811 39.4821 34.4382H63.7806C63.7806 43.6922 69.7923 55.1963 78.3457 64.6281C82.5479 69.2619 87.0113 72.9969 91.0055 75.4635C94.7819 77.7956 96.8884 78.2355 97.2678 78.3147C97.334 78.3286 97.3476 78.3314 97.3084 78.3314V95.6949C88.6179 95.6949 80.8268 92.1266 75.1177 88.601C68.9675 84.803 63.0649 79.7062 57.9545 74.0709Z" fill="white"/>
<path fill-rule="evenodd" clip-rule="evenodd" d="M89.4941 73.3607C79.4653 62.6672 71.1859 48.408 71.1859 34.9231H92.3251C92.3251 44.435 98.458 55.7848 107.055 64.951C111.289 69.4666 115.82 73.1217 119.932 75.5577C124.391 78.1995 126.951 78.5881 127.433 78.5881V93.6939C119.488 93.6939 112.125 90.5549 106.44 87.1866C100.407 83.6124 94.5719 78.775 89.4941 73.3607Z" fill="white"/>
</g>
<g clip-path="url(#clip2_44_7272)">
<path fill-rule="evenodd" clip-rule="evenodd" d="M108.171 77.2709C103.764 70.2465 100.052 60.9086 100.052 52.3701H112.026C112.026 57.8655 114.598 64.9844 118.314 70.9083C120.135 73.8107 122.055 76.1396 123.748 77.663C125.315 79.0717 126.096 79.2701 126.091 79.2948C126.089 79.3005 126.045 79.2968 125.958 79.2968V91.2706C121.822 91.2706 118.233 88.8063 115.742 86.5659C113.012 84.1108 110.411 80.8426 108.171 77.2709Z" fill="white"/>
<path fill-rule="evenodd" clip-rule="evenodd" d="M131.408 76.8536C127.016 70.0759 123.352 61.0543 123.352 52.6677H133.948C133.948 58.315 136.57 65.3353 140.3 71.0911C142.132 73.9189 144.079 76.1982 145.821 77.7034C147.467 79.1266 148.386 79.395 148.551 79.4434C148.58 79.4518 148.586 79.4536 148.569 79.4536V90.0496C144.779 90.0496 141.382 87.8721 138.892 85.7206C136.21 83.4029 133.636 80.2925 131.408 76.8536Z" fill="white"/>
<path fill-rule="evenodd" clip-rule="evenodd" d="M154.635 76.4207C150.262 69.895 146.651 61.1933 146.651 52.9641H155.87C155.87 58.7688 158.544 65.695 162.293 71.2887C164.14 74.0443 166.115 76.2749 167.908 77.7614C169.853 79.3736 170.969 79.6107 171.179 79.6107V88.8291C167.715 88.8291 164.504 86.9135 162.025 84.8579C159.394 82.6768 156.849 79.7248 154.635 76.4207Z" fill="white"/>
<path fill-rule="evenodd" clip-rule="evenodd" d="M89.4941 94.9293C79.4653 84.2358 71.1859 69.9766 71.1859 56.4917H92.3251C92.3251 66.0036 98.458 77.3534 107.055 86.5196C111.289 91.0352 115.82 94.6903 119.932 97.1263C124.391 99.7681 126.951 100.157 127.433 100.157V115.263C119.488 115.263 112.125 112.123 106.44 108.755C100.407 105.181 94.5719 100.344 89.4941 94.9293Z" fill="white"/>
<path fill-rule="evenodd" clip-rule="evenodd" d="M177.852 75.9705C173.503 69.703 169.949 61.3259 169.949 53.2598H177.79C177.79 59.2275 180.521 66.0634 184.294 71.5005C186.158 74.1862 188.166 76.3682 190.013 77.8349C191.977 79.3937 193.273 79.7655 193.788 79.7655V87.6062C190.629 87.6062 187.598 85.9289 185.138 83.9756C182.562 81.9303 180.05 79.1371 177.852 75.9705Z" fill="white"/>
<path fill-rule="evenodd" clip-rule="evenodd" d="M201.06 75.5063C196.741 69.5029 193.248 61.4547 193.248 53.5576H199.711C199.711 59.6944 202.503 66.4452 206.306 71.7323C208.19 74.3507 210.234 76.4846 212.139 77.9302C214.13 79.4408 215.6 79.9242 216.399 79.9242V86.387C213.523 86.387 210.666 84.9248 208.233 83.0786C205.714 81.1674 203.238 78.5331 201.06 75.5063Z" fill="white"/>
<path fill-rule="evenodd" clip-rule="evenodd" d="M24.0372 96.3237C13.933 84.813 5.41977 69.5113 5.41977 55.5195H32.8777C32.8777 64.5246 38.7766 76.1902 47.2977 85.8974C51.4727 90.6536 55.8751 94.4698 59.7595 96.9662C63.3513 99.2746 65.1432 99.5998 65.1307 99.6402C65.1278 99.6496 65.0261 99.6435 64.8258 99.6435V119.265C55.3423 119.265 47.111 115.226 41.3985 111.555C35.1385 107.532 29.1749 102.177 24.0372 96.3237Z" fill="white"/>
<path fill-rule="evenodd" clip-rule="evenodd" d="M-11.1362 108.014C-25.0502 93.2054 -36.7732 73.5198 -36.7732 55.5195H1.03735C1.03735 67.1045 9.16042 82.1122 20.8943 94.6005C26.6434 100.719 32.7057 105.629 38.0547 108.84C43.0008 111.81 45.4682 112.229 45.451 112.28C45.447 112.293 45.3071 112.285 45.0311 112.285V137.527C31.972 137.527 20.6372 132.332 12.7708 127.609C4.15065 122.433 -4.06144 115.544 -11.1362 108.014Z" fill="white"/>
<path fill-rule="evenodd" clip-rule="evenodd" d="M57.9545 95.6395C47.8825 84.5331 39.4821 69.7497 39.4821 56.0068H63.7806C63.7806 65.2608 69.7923 76.7649 78.3457 86.1967C82.5479 90.8305 87.0113 94.5655 91.0055 97.0321C94.7819 99.3642 96.8884 99.8041 97.2678 99.8833C97.334 99.8972 97.3476 99.9 97.3084 99.9V117.263C88.6179 117.263 80.8268 113.695 75.1177 110.17C68.9675 106.372 63.0649 101.275 57.9545 95.6395Z" fill="white"/>
</g>
</g>
<path d="M184.111 109.764L185.202 109.972C185.704 110.068 185.81 109.566 185.936 108.881L204.245 12.9205C204.37 12.2447 204.394 11.7041 203.926 11.54L203.714 11.5062C203.212 11.4724 203.057 11.9261 202.922 12.6019L184.082 108.384C183.947 109.069 183.609 109.668 184.111 109.764Z" fill="#0077FF"/>
<path d="M20.1822 109.789L19.0913 109.996C18.5893 110.093 18.4831 109.591 18.3576 108.905L0.275757 12.9014C0.150256 12.2256 0.126122 11.685 0.599166 11.5209L0.811552 11.4871C1.31356 11.4533 1.46802 11.9071 1.59835 12.5828L20.2112 108.408C20.3463 109.093 20.6842 109.692 20.1822 109.789Z" fill="#0077FF"/>
<path d="M220.448 112.193C220.572 111.201 220.67 110.204 220.753 109.212H-23.34C-18.7414 124.041 -9.88002 137.976 2.24169 150.01H204.518C213.1 139.015 218.712 126.247 220.448 112.193Z" fill="#2E6AB7"/>
<path d="M226.81 167.735C226.81 193.508 172.972 214.396 106.555 214.396C40.1382 214.396 -13.7001 193.508 -13.7001 167.735C-13.7001 154.728 0.0209646 142.964 22.1508 134.501C24.4491 133.62 26.8346 132.783 29.3072 131.973C50.203 125.171 79.3424 152.492 108.753 152.492C136.488 152.492 159.834 124.717 180.174 130.837C208.548 139.378 226.81 152.726 226.81 167.735Z" fill="#A1C9FF"/>
<path d="M94.0049 184.368C97.9456 184.469 101.96 184.515 106.001 184.515C110.689 184.515 115.309 184.464 119.855 184.331L116.135 177.042H97.5373L94.0049 184.368Z" fill="white"/>
<path d="M87.1096 200.374C93.1524 200.529 99.3078 200.599 105.505 200.599C112.695 200.599 119.779 200.522 126.75 200.318L121.045 189.14H92.5264L87.1096 200.374Z" fill="white"/>
<path d="M76.5761 222.683C85.8304 222.92 95.2571 223.027 104.748 223.027C115.759 223.027 126.607 222.909 137.284 222.597L128.547 205.478H84.8716L76.5761 222.683Z" fill="white"/>
<path d="M228.349 137.136H179.754V148.026H228.349V137.136Z" fill="#4C81BF"/>
<path d="M226.101 133.457H181.699C180.46 133.457 179.451 134.604 179.451 136.017V136.677V138.733H228.349V136.677V136.017C228.344 134.604 227.339 133.457 226.101 133.457Z" fill="#4C81BF"/>
<path d="M181.699 152.266H226.101C227.34 152.266 228.349 151.119 228.349 149.706V149.045V145.729H179.451V149.045V149.706C179.451 151.119 180.456 152.266 181.699 152.266Z" fill="#4C81BF"/>
<path d="M228.344 140.962H179.451V143.508H228.344V140.962Z" fill="#699FDC"/>
<path d="M210.16 117.268H161.882V131.645H210.16V117.268Z" fill="#7BB0ED"/>
<path d="M208.224 115.18H163.822C162.583 115.18 161.574 116.327 161.574 117.74V118.4V120.455H210.472V118.4V117.74C210.472 116.327 209.467 115.18 208.224 115.18Z" fill="#5A93D7"/>
<path d="M163.827 133.989H208.228C209.467 133.989 210.476 132.842 210.476 131.429V130.769V127.452H161.579V130.769V131.429C161.579 132.838 162.583 133.989 163.827 133.989Z" fill="#5A93D7"/>
<path d="M210.472 122.681H161.579V125.227H210.472V122.681Z" fill="#5A93D7"/>
<path d="M32.7485 136.622H-15.8463V148.297H32.7485V136.622Z" fill="#4C81BF"/>
<path d="M-13.599 133.457H30.8028C32.0415 133.457 33.0507 134.604 33.0507 136.017V136.677V138.733H-15.8423V136.677V136.017C-15.8423 134.604 -14.8376 133.457 -13.599 133.457Z" fill="#4C81BF"/>
<path d="M30.8034 152.266H-13.5985C-14.8371 152.266 -15.8463 151.119 -15.8463 149.706V149.045V145.729H33.0512V149.045V149.706C33.0512 151.119 32.0466 152.266 30.8034 152.266Z" fill="#4C81BF"/>
<path d="M33.0466 140.962H-15.8463V143.508H33.0466V140.962Z" fill="#699FDC"/>
<path d="M51.5026 116.749H3.2243V131.126H51.5026V116.749Z" fill="#7BB0ED"/>
<path d="M5.16008 114.662H49.5619C50.8006 114.662 51.8098 115.809 51.8098 117.222V117.883V119.938H2.91223V117.883V117.222C2.91223 115.809 3.92147 114.662 5.16008 114.662Z" fill="#5A93D7"/>
<path d="M49.5619 133.471H5.15544C3.91683 133.471 2.90759 132.324 2.90759 130.911V130.251V126.934H51.8051V130.251V130.911C51.8097 132.32 50.8005 133.471 49.5619 133.471Z" fill="#5A93D7"/>
<path d="M51.8052 122.163H2.91226V124.709H51.8052V122.163Z" fill="#5A93D7"/>
<path d="M114.979 173.285H98.6936L103.648 165.252H110.025L114.979 173.285Z" fill="white"/>
<path d="M163.444 173.042C150.164 172.326 122.937 170.647 106.23 170.647C90.4904 170.647 55.5983 171.863 42.8911 173.239C19.5961 175.762 22.8807 164.514 27.8764 162.381C37.9871 158.064 65.498 154.109 103.56 154.109C143.457 154.109 173.697 157.811 183.313 162.601C189.588 165.72 193.579 174.661 163.444 173.042Z" fill="#66ABFF"/>
<path d="M58.8142 131.356C57.7499 131.356 56.8921 130.494 56.8921 129.434V120.626C56.8921 117.41 59.5069 114.8 62.7181 114.8H77.7145C80.9303 114.8 83.5405 117.415 83.5405 120.626V126.246C83.5405 127.31 82.6781 128.168 81.6184 128.168C80.5541 128.168 79.6962 127.305 79.6962 126.246V120.626C79.6962 119.534 78.8063 118.644 77.7145 118.644H62.7181C61.6263 118.644 60.7363 119.534 60.7363 120.626V129.434C60.7363 130.494 59.8739 131.356 58.8142 131.356Z" fill="#275183"/>
<path d="M154.582 131.356C153.517 131.356 152.66 130.494 152.66 129.434V120.626C152.66 119.534 151.77 118.644 150.678 118.644H135.681C134.59 118.644 133.7 119.534 133.7 120.626V126.246C133.7 127.31 132.837 128.168 131.778 128.168C130.713 128.168 129.855 127.305 129.855 126.246V120.626C129.855 117.41 132.47 114.8 135.681 114.8H150.678C153.894 114.8 156.504 117.415 156.504 120.626V129.434C156.504 130.494 155.646 131.356 154.582 131.356Z" fill="#275183"/>
<path d="M152.729 126.791H60.6677C54.6674 126.791 49.8047 131.654 49.8047 137.654V147.37H163.587V137.654C163.592 131.654 158.729 126.791 152.729 126.791Z" fill="#AD21ED"/>
<path d="M106.634 94.0046L86.4032 104.216C83.7333 105.565 81.4946 107.666 80.0679 110.295C77.2054 115.566 74.9851 121.057 73.5308 126.814C73.0354 134.86 77.9302 136.599 84.738 135.507L85.2196 141.645H128.043L128.525 135.507C135.337 136.599 140.228 134.86 139.732 126.814C138.273 121.057 136.053 115.566 133.195 110.295C131.768 107.666 129.53 105.565 126.86 104.216L106.634 94.0046Z" fill="#0077FF"/>
<path d="M77.9208 151.389H60.0114L62.7226 131.048C63.2502 127.08 66.6357 124.117 70.6405 124.117H72.4296C77.2602 124.117 80.9852 128.369 80.3476 133.159L77.9208 151.389Z" fill="#4B9FFF"/>
<path d="M135.475 151.389H153.385L150.673 131.048C150.146 127.08 146.76 124.117 142.755 124.117H140.966C136.136 124.117 132.411 128.369 133.048 133.159L135.475 151.389Z" fill="#4B9FFF"/>
<path d="M100.597 105.542C99.6474 105.451 98.7345 105.166 97.918 104.712C97.3858 104.418 96.8904 104.051 96.4546 103.62C96.2344 103.409 96.0325 103.18 95.8444 102.937C94.3489 101.01 92.2892 97.2298 90.8579 94.4177C90.4496 93.6149 90.101 92.6791 89.8028 91.6607C89.1835 89.5504 88.7981 87.1053 88.6467 84.8896C88.5963 84.1602 88.5688 83.4492 88.5688 82.7886C88.5688 80.7334 88.9082 78.7608 89.5413 76.9212C91.4955 71.2099 96.2114 66.7921 102.097 65.2554C102.597 65.1223 103.106 65.0122 103.625 64.9251C104.308 64.8058 105.006 64.7278 105.717 64.6957C106.001 64.6773 106.285 64.6682 106.574 64.6682C106.607 64.6636 106.639 64.6636 106.671 64.6636H106.721C106.753 64.6636 106.785 64.6636 106.818 64.6682C107.107 64.6682 107.391 64.6773 107.675 64.6957C108.387 64.7278 109.084 64.8058 109.767 64.9251C110.286 65.0122 110.795 65.1223 111.295 65.2554C117.185 66.7921 121.897 71.2144 123.851 76.9212C124.484 78.7608 124.823 80.7334 124.823 82.7886C124.823 83.4492 124.796 84.1602 124.745 84.8896C124.594 87.1099 124.209 89.555 123.589 91.6607C123.291 92.6791 122.942 93.6149 122.534 94.4177C121.103 97.2344 119.043 101.01 117.548 102.937C117.36 103.18 117.158 103.409 116.937 103.62C116.502 104.051 116.006 104.418 115.474 104.712C114.658 105.166 113.745 105.451 112.795 105.542H100.597Z" fill="white"/>
<path d="M106.698 94.9316C106.217 94.9316 105.735 95.0417 105.304 95.2527L105.125 95.3398C103.845 95.9637 102.418 96.294 100.996 96.294C100.193 96.294 99.395 96.1931 98.6197 95.9913L97.8123 95.7802C94.0185 94.7893 91.1055 91.8121 90.2201 88.0091C89.743 85.9677 89.6054 83.963 89.8118 82.0454C89.9586 80.6876 91.0871 79.6646 92.4358 79.6646C92.601 79.6646 92.7661 79.6783 92.9313 79.7104C97.9362 80.6692 102.056 81.0775 106.698 81.0775C111.341 81.0775 115.46 80.6646 120.465 79.7104C120.63 79.6783 120.795 79.6646 120.961 79.6646C122.309 79.6646 123.438 80.6876 123.585 82.0454C123.791 83.9584 123.653 85.9677 123.176 88.0091C122.286 91.8121 119.378 94.7893 115.584 95.7802L114.777 95.9913C114.001 96.1931 113.203 96.294 112.4 96.294C110.978 96.294 109.552 95.9637 108.272 95.3398L108.093 95.2527C107.662 95.0462 107.18 94.9316 106.698 94.9316Z" fill="#275183"/>
<path d="M106.698 93.5552C106.015 93.5552 105.331 93.7111 104.703 94.0185L104.524 94.1057C102.799 94.9497 100.826 95.147 98.9685 94.6607L98.1611 94.4497C94.881 93.5919 92.3304 90.9954 91.5597 87.697C91.1377 85.8987 90.9817 84.0179 91.179 82.1967C91.257 81.4535 91.9405 80.9259 92.6745 81.0681C97.6197 82.0132 101.891 82.4581 106.698 82.4627C111.506 82.4627 115.777 82.0177 120.722 81.0681C121.456 80.9259 122.135 81.4581 122.218 82.1967C122.415 84.0179 122.254 85.9033 121.837 87.697C121.066 91 118.516 93.5919 115.236 94.4497L114.428 94.6607C112.57 95.147 110.598 94.9497 108.873 94.1057L108.694 94.0185C108.065 93.7111 107.382 93.5552 106.698 93.5552Z" fill="#A5CDFF"/>
<path d="M94.1285 82.2607L94.6652 91.4356C95.179 91.9448 95.757 92.3852 96.3901 92.743L95.7754 82.5268C95.2341 82.4488 94.6836 82.3571 94.1285 82.2607Z" fill="white"/>
<path d="M96.5829 82.6465L97.2435 93.1655C97.6151 93.3215 97.9958 93.4591 98.3949 93.56L99.2023 93.771C99.7895 93.9224 100.395 94.0004 101.001 94.0004C101.239 94.0004 101.473 93.9821 101.712 93.9591L101.299 83.1603C99.7436 83.0456 98.1885 82.8759 96.5829 82.6465Z" fill="white"/>
<path d="M121.305 82.2929C121.286 82.1049 121.135 81.9626 120.961 81.9626C120.938 81.9626 120.919 81.9626 120.896 81.9672C120.557 82.0315 120.227 82.0911 119.892 82.1507L119.598 90.4311C120.227 89.564 120.69 88.5686 120.942 87.4905C121.355 85.7244 121.479 83.9261 121.305 82.2929Z" fill="white"/>
<path d="M102.102 65.2554V76.8478C102.102 77.9901 101.111 78.8892 99.9731 78.7746C96.0141 78.38 93.1423 77.7974 89.5458 76.9212C91.4954 71.2144 96.2113 66.7922 102.102 65.2554Z" fill="#4B9FFF"/>
<path d="M111.295 65.2554V76.8478C111.295 77.9901 112.286 78.8892 113.424 78.7746C117.383 78.38 120.254 77.7974 123.851 76.9212C121.901 71.2144 117.185 66.7922 111.295 65.2554Z" fill="#4B9FFF"/>
<path d="M106.689 78.958C106.152 78.958 105.721 78.5222 105.721 77.9901V65.6361C105.721 65.104 106.148 64.6682 106.675 64.6636C106.684 64.6636 106.693 64.6636 106.698 64.6636C106.707 64.6636 106.716 64.6636 106.721 64.6636C107.253 64.6636 107.675 65.104 107.675 65.6361V77.9901C107.675 78.5268 107.239 78.958 106.707 78.958H106.689Z" fill="#275183"/>
<path d="M100.597 105.542C99.6475 105.45 98.7346 105.166 97.918 104.712C99.8998 100.523 103.088 96.9405 106.698 96.9038C110.309 96.9405 113.497 100.528 115.479 104.712C114.662 105.166 113.749 105.45 112.8 105.542H100.597Z" fill="#4B9FFF"/>
<path opacity="0.2" d="M102.79 102.57V105.542H101.184V102.57C101.184 102.129 101.542 101.776 101.978 101.776H101.996C102.432 101.776 102.79 102.129 102.79 102.57Z" fill="#18191D"/>
<path opacity="0.2" d="M110.607 102.57V105.542H112.212V102.57C112.212 102.129 111.855 101.776 111.419 101.776H111.4C110.965 101.776 110.607 102.129 110.607 102.57Z" fill="#18191D"/>
<path opacity="0.2" d="M105.625 102.57V105.542H104.019V102.57C104.019 102.129 104.372 101.776 104.813 101.776H104.831C105.267 101.776 105.625 102.129 105.625 102.57Z" fill="#18191D"/>
<path opacity="0.2" d="M107.772 102.57V105.542H109.377V102.57C109.377 102.129 109.024 101.776 108.584 101.776H108.565C108.129 101.776 107.772 102.129 107.772 102.57Z" fill="#18191D"/>
<path d="M99.3718 99.0786C98.2295 100.4 97.2524 101.96 96.4542 103.625C96.234 103.414 96.0321 103.184 95.844 102.941C94.3485 101.014 92.2888 97.2344 90.8575 94.4223C90.4492 93.6195 90.1006 92.6837 89.8024 91.6653C91.7841 95.4362 95.477 97.3583 98.8167 97.6932C99.5094 97.7574 99.8259 98.5556 99.3718 99.0786Z" fill="#4B9FFF"/>
<path d="M114.024 99.0786C115.167 100.4 116.144 101.96 116.942 103.625C117.162 103.414 117.364 103.184 117.552 102.941C119.048 101.014 121.107 97.2344 122.539 94.4223C122.947 93.6195 123.296 92.6837 123.594 91.6653C121.612 95.4362 117.919 97.3583 114.579 97.6932C113.887 97.7574 113.57 98.5556 114.024 99.0786Z" fill="#4B9FFF"/>
<path d="M83.8891 115.446L76.8932 125.034C79.1273 119.038 81.4532 113.254 85.6553 111.662L91.1006 109.73L83.8891 115.446Z" fill="#0967D2"/>
<path d="M129.521 115.446L136.517 125.034C134.283 119.038 131.957 113.254 127.755 111.662L122.309 109.73L129.521 115.446Z" fill="#0967D2"/>
<path d="M49.3184 170.363H32.4412C30.8127 170.363 29.4915 169.042 29.4915 167.413V133.122C29.4915 131.493 30.8127 130.172 32.4412 130.172H49.3184C50.947 130.172 52.2681 131.493 52.2681 133.122V167.413C52.2681 169.042 50.947 170.363 49.3184 170.363Z" fill="#275183"/>
<path d="M180.184 170.363H163.307C161.679 170.363 160.357 169.042 160.357 167.413V133.122C160.357 131.493 161.679 130.172 163.307 130.172H180.184C181.813 130.172 183.134 131.493 183.134 133.122V167.413C183.134 169.042 181.813 170.363 180.184 170.363Z" fill="#275183"/>
<path d="M184.497 142.233H152.94L150.357 138.618C147.669 134.856 143.329 132.622 138.705 132.622H74.6962C70.0721 132.622 65.7324 134.856 63.0441 138.618L60.4614 142.233H28.1337C24.7527 142.233 22.4361 145.641 23.6793 148.783L24.4729 150.793C27.4777 158.389 34.8176 163.381 42.9878 163.381H169.633C177.804 163.381 185.144 158.389 188.148 150.793L188.942 148.783C190.19 145.641 187.873 142.233 184.497 142.233Z" fill="white"/>
<path d="M183.997 147.366L183.382 148.903C181.139 154.582 175.753 158.247 169.638 158.247H42.9924C36.8912 158.247 31.4917 154.582 29.2485 148.903L28.6338 147.366H63.0946L67.2096 141.595C67.5949 141.058 68.0307 140.567 68.517 140.145C70.196 138.618 72.3888 137.746 74.6963 137.746H138.696C141.659 137.746 144.453 139.182 146.182 141.59L150.297 147.361H183.997V147.366Z" fill="#AD21ED"/>
<g clip-path="url(#clip3_44_7272)">
<path fill-rule="evenodd" clip-rule="evenodd" d="M78.5066 159.119C77.6012 155.761 77.1244 151.966 77.0642 150.167L80.1814 150.062C80.2328 151.597 80.6699 155.134 81.5092 158.247C81.9307 159.81 82.4243 161.152 82.959 162.062C83.2253 162.515 83.4587 162.785 83.6344 162.928C83.717 162.995 83.7721 163.022 83.7985 163.032C83.82 163.04 83.828 163.04 83.831 163.04L83.8314 163.04L83.9401 166.29C82.1768 166.349 81 164.945 80.3008 163.755C79.5441 162.468 78.9575 160.791 78.5066 159.119Z" fill="white"/>
<path fill-rule="evenodd" clip-rule="evenodd" d="M68.7342 156.934C67.7721 153.581 67.3516 149.731 67.3516 147.581H70.4706C70.4706 149.433 70.8517 152.968 71.7223 156.001C72.1592 157.523 72.687 158.802 73.2754 159.666C73.8739 160.545 74.338 160.727 74.639 160.727V163.979C72.8777 163.979 71.5946 162.815 70.7324 161.549C69.8602 160.268 69.2138 158.604 68.7342 156.934Z" fill="white"/>
<path fill-rule="evenodd" clip-rule="evenodd" d="M58.9959 157.16C57.8594 153.84 57.3681 149.946 57.3681 147.448H60.4871C60.4871 149.621 60.9314 153.14 61.9334 156.067C62.4351 157.532 63.0399 158.739 63.7151 159.551C64.3752 160.345 64.9981 160.65 65.611 160.65V163.902C63.8177 163.902 62.4022 162.937 61.3579 161.68C60.3288 160.442 59.5636 158.818 58.9959 157.16Z" fill="white"/>
<path fill-rule="evenodd" clip-rule="evenodd" d="M50.0415 157.384C48.726 154.097 48.1648 150.157 48.1648 147.316H51.2838C51.2838 149.811 51.7915 153.312 52.92 156.132C54.0941 159.065 55.6265 160.572 57.3621 160.572V163.823C53.5978 163.823 51.3113 160.557 50.0415 157.384Z" fill="white"/>
<path fill-rule="evenodd" clip-rule="evenodd" d="M41.0916 157.607C39.5924 154.353 38.9616 150.366 38.9616 147.184H42.0806C42.0806 150.004 42.6528 153.485 43.9031 156.199C45.1609 158.929 46.8908 160.494 49.1135 160.494V163.746C45.1495 163.746 42.5832 160.844 41.0916 157.607Z" fill="white"/>
<path fill-rule="evenodd" clip-rule="evenodd" d="M137.04 155.928C137.832 152.541 138.182 148.732 138.182 146.932H135.063C135.063 148.467 134.744 152.018 134.01 155.157C133.641 156.733 133.192 158.091 132.688 159.018C132.437 159.48 132.213 159.758 132.042 159.906C131.962 159.976 131.908 160.005 131.882 160.016C131.86 160.025 131.853 160.025 131.849 160.025L131.849 160.025V163.276C133.613 163.276 134.743 161.834 135.402 160.622C136.115 159.31 136.645 157.614 137.04 155.928Z" fill="white"/>
<path fill-rule="evenodd" clip-rule="evenodd" d="M146.003 156.153C146.965 152.801 147.385 148.95 147.385 146.8H144.266C144.266 148.652 143.885 152.187 143.015 155.221C142.578 156.743 142.05 158.021 141.462 158.885C140.863 159.764 140.399 159.946 140.098 159.946V163.198C141.859 163.198 143.142 162.034 144.005 160.768C144.877 159.488 145.523 157.824 146.003 156.153Z" fill="white"/>
<path fill-rule="evenodd" clip-rule="evenodd" d="M154.178 156.379C155.315 153.059 155.806 149.165 155.806 146.668H152.687C152.687 148.84 152.243 152.359 151.241 155.286C150.739 156.751 150.134 157.958 149.459 158.77C148.799 159.564 148.176 159.869 147.563 159.869V163.121C149.356 163.121 150.772 162.156 151.816 160.9C152.845 159.661 153.611 158.037 154.178 156.379Z" fill="white"/>
<path fill-rule="evenodd" clip-rule="evenodd" d="M162.352 156.603C163.668 153.316 164.229 149.376 164.229 146.535H161.11C161.11 149.03 160.602 152.531 159.474 155.351C158.3 158.284 156.767 159.791 155.032 159.791V163.042C158.796 163.042 161.082 159.776 162.352 156.603Z" fill="white"/>
<path fill-rule="evenodd" clip-rule="evenodd" d="M171.302 156.826C172.801 153.572 173.432 149.585 173.432 146.403H170.313C170.313 149.224 169.741 152.705 168.491 155.418C167.233 158.148 165.503 159.714 163.28 159.714V162.965C167.244 162.965 169.81 160.064 171.302 156.826Z" fill="white"/>
</g>
<path d="M88.1101 154.288L63.0948 147.366L62.1085 141.067C62.4938 140.531 67.0812 139.907 67.5675 139.48L88.1101 154.288Z" fill="white"/>
<path d="M125.287 154.288L150.302 147.366L150.063 141.311C149.678 140.774 146.435 139.783 145.944 139.361L125.287 154.288Z" fill="white"/>
<path d="M106.698 133.287C96.413 133.287 88.0455 126.108 88.0455 117.286C88.0455 108.464 96.413 101.285 106.698 101.285C116.983 101.285 125.351 108.464 125.351 117.286C125.351 126.112 116.983 133.287 106.698 133.287ZM106.698 106.418C99.2388 106.418 93.1742 111.295 93.1742 117.291C93.1742 123.286 99.2388 128.163 106.698 128.163C114.157 128.163 120.222 123.286 120.222 117.291C120.222 111.295 114.157 106.418 106.698 106.418Z" fill="#275183"/>
<path d="M90.2016 110.277C91.298 112.038 93.7431 113.768 95.3166 111.424C97.2663 113.85 95.5552 115.415 95.3166 116.938C95.2065 117.631 95.0964 118.328 94.9863 119.021C94.9496 119.264 94.9083 119.511 94.8166 119.741C94.5551 120.392 93.9542 121.209 93.3073 121.479C92.3118 121.897 91.2384 122.08 90.1741 122.259C89.3575 122.397 88.4767 122.131 87.6648 121.993C86.9537 121.874 86.2931 121.544 85.5958 121.351C84.8985 121.158 82.2883 116.286 85.1371 112.295C85.7151 111.483 87.151 110.029 87.9079 109.378C88.885 108.543 90.3392 108.171 91.5962 107.896C91.2063 108.433 90.0686 109.873 90.0961 110.048C90.119 110.135 90.1603 110.208 90.2016 110.277Z" fill="#4B9FFF"/>
<path d="M123.208 110.277C122.112 112.038 119.667 113.768 118.093 111.424C116.144 113.85 117.855 115.415 118.093 116.938C118.203 117.631 118.314 118.328 118.424 119.021C118.46 119.264 118.502 119.511 118.593 119.741C118.855 120.392 119.456 121.209 120.103 121.479C121.098 121.897 122.172 122.08 123.236 122.259C124.052 122.397 124.933 122.131 125.745 121.993C126.456 121.874 127.117 121.544 127.814 121.351C128.511 121.158 131.122 116.286 128.273 112.295C127.695 111.483 126.259 110.029 125.502 109.378C124.525 108.543 123.071 108.171 121.814 107.896C122.204 108.433 123.341 109.873 123.314 110.048C123.291 110.135 123.25 110.208 123.208 110.277Z" fill="#4B9FFF"/>
<path d="M82.536 144.388H130.86L119.451 112.703C118.914 111.212 117.497 110.217 115.91 110.217H97.4819C95.8947 110.217 94.4772 111.212 93.9404 112.703L82.536 144.388Z" fill="#AD21ED"/>
<path d="M92.0692 135.703C92.0692 129.35 92.0692 126.173 94.0372 124.177C96.0052 122.208 99.1821 122.208 105.564 122.208H106.689C113.043 122.208 116.219 122.208 118.216 124.177C120.184 126.145 120.184 129.321 120.184 135.703V136.828C120.184 143.182 120.184 146.359 118.216 148.355C116.248 150.323 113.071 150.323 106.689 150.323H105.564C99.2102 150.323 96.0333 150.323 94.0372 148.355C92.0692 146.387 92.0692 143.21 92.0692 136.828V135.703Z" fill="white"/>
<path d="M107.026 142.451C100.616 142.451 96.9613 138.065 96.8207 130.755H100.026C100.138 136.125 102.5 138.402 104.384 138.852V130.755H107.42V135.394C109.275 135.197 111.215 133.089 111.862 130.755H114.898C114.392 133.623 112.284 135.732 110.794 136.603C112.284 137.306 114.702 139.133 115.601 142.479H112.284C111.581 140.258 109.781 138.543 107.448 138.29V142.451H107.026Z" fill="#AD21ED"/>
<path d="M15.532 163.551H-0.147858V161.119C-0.147858 160.5 0.352173 160 0.971478 160H14.4127C15.032 160 15.532 160.5 15.532 161.119V163.551Z" fill="#FF3985"/>
</g>
<defs>
<clipPath id="clip0_44_7272">
<rect width="294.72" height="20.939" fill="white" transform="translate(-36.7734 15.199)"/>
</clipPath>
<clipPath id="clip1_44_7272">
<rect width="294.72" height="21.5687" fill="white" transform="translate(-36.7734 36.1382)"/>
</clipPath>
<clipPath id="clip2_44_7272">
<rect width="294.72" height="21.5687" fill="white" transform="translate(-36.7734 57.707)"/>
</clipPath>
<clipPath id="clip3_44_7272">
<rect width="154.629" height="10.9334" fill="white" transform="translate(28.8117 147.314)"/>
</clipPath>
</defs>
</svg>
