<svg width="211" height="211" viewBox="0 0 211 211" fill="none" xmlns="http://www.w3.org/2000/svg">
<circle cx="105.732" cy="105.499" r="105" fill="#13CD7E"/>
<mask id="mask0_44_7432" style="mask-type:alpha" maskUnits="userSpaceOnUse" x="0" y="0" width="211" height="211">
<circle cx="105.732" cy="105.499" r="104.999" fill="#FF3985"/>
</mask>
<g mask="url(#mask0_44_7432)">
<path d="M100.702 13.2933C102.137 6.49341 103.519 -0.253345 104.954 -7.05322C115.371 -6.52198 125.841 -5.99074 136.259 -5.4595C134.824 8.08713 131.581 25.5649 123.875 44.7427C110.854 77.3078 91.4546 99.1417 78.6458 111.413C106.602 138.666 125.629 170.753 132.857 209.533H100.756C90.179 166.45 63.9238 135.213 27.7298 111.413C63.8706 87.6669 90.179 56.43 100.702 13.2933Z" fill="#17D685"/>
<path d="M223.74 111.414C252.759 86.2861 270.458 54.7836 278.962 17.8624L279.015 17.5436C279.334 16.1093 279.652 14.6749 279.971 13.1874L280.024 13.0281H235.805L234.795 17.8092C228.099 40.3338 216.565 59.8835 199.186 75.8738C185.208 88.783 168.998 98.1859 151.353 105.092C145.453 107.43 139.394 109.342 133.548 111.467C133.707 111.467 134.026 111.573 134.292 111.626C148.589 115.929 162.354 121.561 175.269 129.157C188.344 136.86 200.036 146.316 209.869 157.95C222.252 172.613 230.597 189.453 235.593 207.94C235.911 209.162 236.337 208.631 237.665 208.631C251.218 208.578 264.824 209.587 278.324 209.587H279.971C271.893 170.647 253.929 137.551 223.74 111.414Z" fill="#17D685"/>
<path d="M154.227 105.413C184.681 131.55 203.761 164.275 211.468 203.533H173.414C173.042 202.152 172.67 200.718 172.244 199.283C164.06 170.278 147.637 146.903 123.72 128.629C111.018 118.96 97.1459 111.416 82.2644 105.413C92.4157 101.376 102.142 96.4885 111.39 90.698C131.108 78.3201 147.477 62.5953 159.276 42.3551C169.055 25.5679 172.085 13.2431 172.935 8.8338C173.945 3.5214 174.317 -0.941022 174.477 -4.02222C186.807 -0.25041 199.137 3.5214 211.415 7.2932C203.708 46.605 184.681 79.3294 154.227 105.413Z" fill="#17D685"/>
<path d="M48.1486 -5.45916C59.0971 -6.89351 70.0457 -8.32786 80.9942 -9.76221C79.0809 9.52182 73.1814 41.1306 53.0382 73.6425C43.4715 89.0485 33.0013 101.055 23.7004 110.033C31.4069 123.632 39.1134 137.71 46.7667 152.372C56.4929 171.019 65.5281 189.294 73.8192 207.037C61.1168 207.94 48.4675 208.843 35.7651 209.693C31.5663 194.925 24.6571 175.8 12.6987 155.294C1.80332 136.541 -10.1019 122.039 -20.1469 111.52C-8.56059 101.161 5.78944 86.0736 18.8639 65.5677C36.2434 38.1557 44.2688 12.2311 48.1486 -5.45916Z" fill="#17D685"/>
<path d="M205.213 193.036C147.094 198.794 88.9246 204.502 30.8059 210.26C14.6958 195.839 -1.46528 181.418 -17.5754 166.945C-17.5754 165.264 -17.5754 163.633 -17.5754 161.952C-5.95164 161.34 5.72308 160.627 17.4998 159.862C60.8849 157.009 103.148 153.187 144.188 148.55C158.463 162.563 172.789 176.627 187.064 190.641C193.13 191.456 199.146 192.221 205.213 193.036Z" fill="white"/>
<path d="M250.006 216.068C181.455 216.852 112.904 217.558 44.2974 218.343C32.0402 201.635 -8.9214 179.859 -21.1785 163.151C43.2684 157.189 143.189 149.567 207.636 143.606C211.241 147.685 208.188 158.648 211.848 163.041C226.435 180.612 239.025 198.575 250.006 216.068Z" fill="#0967D2"/>
<path d="M104.585 177.851C98.7217 174.793 92.8079 171.685 86.894 168.576C84.5999 167.353 82.2547 166.13 79.9606 164.907C86.4352 164.296 92.9608 163.634 99.5374 162.971C109.989 161.901 120.338 160.729 130.534 159.557C138.844 162.971 147.205 166.385 155.515 169.799C138.538 172.449 121.561 175.15 104.585 177.851Z" fill="#2D54A0"/>
<path d="M104.585 175.761C98.7217 172.704 92.8079 169.596 86.894 166.487C84.5999 165.264 82.2547 164.041 79.9606 162.818C86.4352 162.207 92.9608 161.544 99.5374 160.882C109.989 159.812 120.338 158.64 130.534 157.468C138.844 160.882 147.205 164.296 155.515 167.71C138.538 170.36 121.561 173.061 104.585 175.761Z" fill="#0077FF"/>
<path d="M137.977 162.971C134.613 167.659 121.204 165.57 112.64 159.047C108.102 155.582 105.604 151.404 104.279 148.652C103.82 153.238 103.361 157.824 102.851 162.41C103.055 161.493 103.208 160.219 102.545 159.353C101.271 157.671 98.008 159.047 94.3373 159.047C88.6784 159.098 81.8979 159.404 72.8232 157.468C70.1722 156.907 67.98 156.295 66.5525 155.837C66.8074 156.754 67.4192 159.659 65.8898 162.36C65.5329 162.971 64.9211 163.99 63.5956 164.755C62.2701 165.519 60.9446 165.57 60.3838 165.57C52.4307 164.194 45.8031 163.124 41.0109 162.36C36.0147 161.544 31.7323 160.525 25.4616 160.219C21.8929 160.066 17.9683 160.566 15.929 160.668C14.2976 147.215 16.183 135.708 17.5085 127.606C17.9673 124.854 18.4771 122.306 19.1399 119.81C21.9949 108.548 25.1557 96.063 34.6382 91.273C36.7794 90.2029 40.4501 88.8779 46.007 89.3875C46.6188 86.2281 49.1169 84.0879 51.717 84.0879C54.0621 84.0879 55.6425 85.9224 55.8974 86.2281C59.874 86.5339 63.6466 86.8396 67.1643 87.1454C70.4271 87.4002 73.7409 87.7569 77.0037 88.0117C80.8273 88.3174 82.2548 90.6615 84.4979 89.7952C85.5686 89.3875 86.2313 88.6232 86.6901 88.0117C86.8431 88.0626 88.6784 88.4193 89.4431 90.2029C90.1059 91.7316 89.3922 93.1075 89.2902 93.3113C90.1059 93.4642 91.3294 93.719 92.8589 94.0757C96.9374 95.0439 100.098 96.114 100.812 96.4197C107.236 99.0186 109.326 105.185 118.604 120.217C121.357 124.651 123.295 127.912 124.773 130.409C128.648 136.88 130.585 140.142 131.86 142.588C136.397 151.251 140.73 159.149 137.977 162.971Z" fill="#FF3985"/>
<path d="M47.8934 91.5277C45.4972 91.171 43.1521 90.9671 40.9089 90.8143C40.705 90.1518 40.552 89.3874 40.3991 88.5721C40.1952 87.2472 40.1952 86.0752 40.2971 85.107C40.3481 84.2916 40.5011 83.1705 41.1128 81.9475C42.7442 78.6862 50.7993 76.1383 60.2308 75.7816C63.1368 75.6797 67.1643 75.7307 72.0075 76.4441C72.4664 76.8008 72.9252 77.3613 73.333 78.0238C74.6585 80.215 74.1997 82.559 74.0468 83.2725C74.9644 82.8648 78.1253 81.6928 81.2861 83.0686C81.2861 83.0686 82.6116 83.6801 83.6313 84.6483C86.2823 87.3491 85.2117 94.738 81.1842 102.993C72.6193 98.1522 61.4034 93.4641 47.8934 91.5277Z" fill="#FF3985"/>
<path d="M42.2854 82.2023C42.1834 80.9283 44.0188 79.5015 45.0384 78.6862C46.9247 77.2084 48.9639 76.5459 51.0542 76.1383C57.7327 74.9153 65.7878 76.3421 68.031 76.7498C71.8036 80.7755 75.5252 84.8011 79.2978 88.8268C78.737 91.1709 78.1762 93.464 77.5645 95.8081C75.1683 94.3303 72.3644 92.7506 69.1016 91.2728C65.4819 89.6422 62.1171 88.4701 59.1602 87.6548C45.4972 85.8713 42.3874 83.8329 42.2854 82.2023Z" fill="#212121"/>
<path d="M92.5021 71.144C92.5021 71.144 98.9767 69.2586 103.004 61.9206C105.502 57.3344 105.145 51.5251 99.4865 50.0474C99.1297 45.4611 93.5727 43.219 86.7412 46.2765C72.7213 40.2634 60.2309 50.1493 70.3762 66.2011C74.6077 72.8766 92.5021 71.144 92.5021 71.144Z" fill="#FFFF4D"/>
<path d="M68.031 78.4824C65.6859 71.7559 64.0545 62.7873 66.8585 53.5129C67.1134 52.7485 67.3173 51.9842 67.6232 51.2708C72.1605 53.1052 76.6979 54.9907 81.2352 56.8252C76.7998 64.0612 72.4154 71.2973 68.031 78.4824Z" fill="#FFFF4D"/>
<path d="M69.9682 69.3101C75.4232 74.9154 80.8782 80.4699 86.3332 86.0753C86.1293 88.5722 85.6195 91.5787 84.7018 94.7891C84.0901 96.9293 83.3763 98.8657 82.6626 100.598C80.1645 98.3562 76.7997 95.7063 72.5173 93.3113C68.5408 91.0692 64.8191 89.5404 61.7603 88.5722C62.474 87.553 63.2897 86.3301 64.1564 84.9032C64.1564 84.9032 65.3289 82.8649 66.3486 80.6737C68.4898 76.0365 69.6114 71.0936 69.9682 69.3101Z" fill="#FFA9A9"/>
<path d="M68.9487 66.711C70.2742 66.1505 71.4978 68.036 71.6507 68.3417C73.2311 69.5137 74.5057 64.8766 75.6273 62.2777C79.2979 54.0734 83.0705 54.583 87.5059 55.6531C94.2864 57.3348 95.306 61.8191 93.9805 77.2084C93.4197 83.3743 91.6354 89.1836 87.2 91.6295C83.0705 93.8717 78.3293 92.343 77.0038 91.8843C75.8312 91.4767 72.1605 90.1008 69.9174 86.2789C66.5016 80.5207 69.4075 74.2019 69.6625 73.6413C69.4075 73.5394 69.0507 73.4375 68.6428 73.1827C67.4193 72.2655 64.9722 68.4436 68.9487 66.711Z" fill="#FFA9A9"/>
<path d="M84.5489 77.0044C88.4745 77.7688 91.6353 77.0044 91.6353 79.5523C91.6353 82.1002 88.6274 87.0941 83.6822 86.024C77.9723 84.801 76.137 78.5332 77.3605 76.9025C78.5841 75.2718 81.592 76.4439 84.5489 77.0044Z" fill="white"/>
<path d="M85.9765 67.4753C86.7412 67.4244 87.8118 71.501 86.7922 72.6221C85.7726 73.7432 83.4784 73.4374 83.4274 72.8769C83.3764 72.3163 85.4667 72.5202 85.8235 71.3991C86.6392 69.2079 85.3647 67.4753 85.9765 67.4753Z" fill="#E85353"/>
<path d="M80.8272 66.3544C81.6939 66.6092 82.3567 68.138 81.6939 68.6475C81.0822 69.1062 79.0429 68.6985 78.788 68.138C78.5331 67.5265 79.5017 65.9468 80.8272 66.3544Z" fill="#212121"/>
<path d="M91.0746 68.2909C91.8393 68.5457 92.502 69.9725 91.8903 70.4311C91.2785 70.8388 89.4432 70.4821 89.1883 69.9725C88.9333 69.412 89.851 67.8832 91.0746 68.2909Z" fill="#212121"/>
<path d="M83.2234 62.7872C83.7332 64.9784 77.4115 65.3351 77.1566 63.9083C76.9017 62.3796 82.6116 60.0355 83.2234 62.7872Z" fill="#FFFF4D"/>
<path d="M93.9805 67.2204C93.2667 68.5963 88.5765 65.7426 89.5451 64.3158C90.7177 62.4813 94.6942 65.8446 93.9805 67.2204Z" fill="#FFFF4D"/>
<path d="M94.2864 73.7944C93.7256 73.9473 92.9609 74.1511 92.0432 74.304C89.851 74.6097 88.1686 74.5078 86.4353 74.304C82.9175 73.9473 78.941 73.3868 75.2703 71.909C74.5566 71.6542 73.588 71.1956 73.2311 70.2783C72.8742 69.3611 73.2311 68.3419 73.6899 67.068C73.9958 66.2526 74.3017 65.6411 74.5056 65.2335C74.9135 63.4499 75.4743 61.7683 76.239 60.2905C74.5566 62.7365 72.8232 65.1825 71.1409 67.6285C71.2938 67.8833 71.5487 68.24 71.7016 68.7496C71.8036 69.2082 71.9056 69.8197 71.7016 70.7879C71.3958 72.1638 70.733 73.132 70.682 73.2339C70.4781 73.5396 67.929 77.8201 68.5918 82.5083C69.3055 87.5531 73.537 91.8845 78.4822 93.1585C79.3488 93.3623 82.8156 94.2286 86.2823 92.7508C91.9412 90.3048 95.408 82.6102 94.2864 73.7944ZM82.7646 87.2983C76.7488 86.0753 73.7409 76.9029 75.5252 75.1703C75.7292 74.9665 76.0351 74.8136 78.0233 74.9665C81.0822 75.1193 82.8156 75.578 84.8038 75.9347C89.749 76.75 91.8393 76.2404 92.7569 77.8201C93.0118 78.2787 93.0628 78.7374 93.1138 79.2469C93.3177 82.2025 90.7687 84.9542 88.4235 86.2792C87.7608 86.6359 85.4666 87.8589 82.7646 87.2983Z" fill="#FFFF4D"/>
<path d="M89.6471 97.5407C87.6078 100.394 85.2627 102.076 85.1097 101.923C84.9568 101.77 87.2 99.9358 88.4745 96.4706C88.9333 95.1967 89.1373 94.0756 89.2392 93.2603C90.0549 93.4641 90.9216 93.617 91.7373 93.8208C91.3804 94.738 90.6667 96.0629 89.6471 97.5407Z" fill="#212121"/>
<path d="M177.288 50.6018C172.088 50.8566 157.406 52.1815 148.943 62.7808C144.456 68.3862 141.958 76.2337 140.429 81.2276C138.849 86.1705 138.033 90.4001 137.574 93.4066C139.358 91.5721 141.754 89.1261 144.813 86.5272C148.688 83.164 151.747 80.8199 152.511 80.4632C161.229 76.1318 180.092 77.8134 185.802 68.0804C186.363 67.1122 188.198 64.5643 187.485 61.6597C186.822 58.857 184.273 57.2773 183.406 56.8187C183.304 56.1562 182.998 54.5765 181.724 53.0988C179.99 51.0604 177.849 50.7037 177.288 50.6018Z" fill="#07AF68"/>
<path d="M184.375 41.4293C166.174 27.8745 134.77 29.8618 120.597 48.1558C129.621 44.8945 137.472 46.678 147.056 48.5634C152.308 49.6336 158.374 49.9903 163.829 49.5826C170.457 49.073 176.881 47.2895 183.508 48.8692C186.312 49.5316 188.657 51.2133 189.422 47.7991C190.493 43.5186 184.936 40.7669 184.375 41.4293Z" fill="#07AF68"/>
<path d="M146.19 79.087C152.511 73.6854 159.343 68.8954 166.582 64.8187C173.873 60.7421 181.52 57.3788 189.473 54.78C193.908 53.3531 198.395 52.1302 202.932 51.2129C203.085 51.1619 203.034 50.9072 202.881 50.9581C194.775 52.6397 186.822 55.1367 179.175 58.398C171.477 61.6593 164.033 65.736 157.1 70.4241C153.276 73.023 149.555 75.8766 146.037 78.9341C145.833 79.036 146.037 79.1889 146.19 79.087Z" fill="#1D1D1B"/>
<path d="M131.201 42.5504C139.103 39.2891 147.719 38.7285 156.131 39.5439C164.798 40.3592 173.261 42.4994 181.673 44.6906C186.822 46.0156 191.92 47.3405 197.069 48.6654C197.222 48.7163 197.324 48.4615 197.12 48.4106C188.198 46.1175 179.328 43.6205 170.355 41.6332C161.994 39.7477 153.378 38.4228 144.813 39.0852C140.123 39.442 135.433 40.4611 131.099 42.2447C130.946 42.3466 130.997 42.6014 131.201 42.5504Z" fill="#1D1D1B"/>
<path d="M40.909 90.9161C50.4425 91.7314 59.772 94.5341 68.2349 99.0184C70.1722 100.038 72.0076 101.159 73.8429 102.382C73.9958 102.484 74.0978 102.229 73.9958 102.127C66.0937 96.9292 57.223 93.3111 47.9444 91.5786C45.5992 91.1199 43.2541 90.8142 40.909 90.6104C40.756 90.6104 40.756 90.9161 40.909 90.9161Z" fill="#DE0055"/>
<path d="M78.1763 165.264C78.2273 165.264 78.5841 165.468 79.1449 165.774C79.3998 165.876 79.7057 166.029 80.0116 166.181C80.4704 166.385 82.2548 167.099 85.1097 167.353C85.6705 167.404 87.2 167.353 90.2589 167.302C93.4707 167.251 93.9295 167.201 94.7962 167.506C95.1021 167.608 95.306 167.71 95.4589 167.761C96.6825 168.373 95.6629 167.812 96.6825 168.373C97.957 169.086 98.2119 169.239 98.6708 169.443C100.149 170.207 101.016 170.666 102.087 170.615C102.137 170.615 103.667 170.513 103.82 169.901C103.871 169.697 103.769 169.443 102.036 167.914C101.067 167.099 100.608 166.691 99.8433 166.181C99.1296 165.672 98.5688 165.366 97.8041 164.907C97.1413 164.551 96.2237 164.041 95.1531 163.532C95.5609 163.684 96.2237 163.888 97.0903 164.143C99.1296 164.704 99.6904 164.704 100.557 165.213C101.067 165.468 101.577 166.029 102.596 167.15C104.534 169.188 104.89 170.003 105.808 170.054C106.369 170.105 106.981 169.799 107.338 169.443C108.153 168.576 107.44 167.608 108 166.589C108.867 165.009 111.467 165.723 112.232 164.347C112.589 163.735 112.538 162.614 111.059 160.525C110.549 159.964 109.836 159.149 108.765 158.385C107.949 157.773 107.542 157.62 105.502 156.601C101.883 154.818 101.016 154.206 99.4865 154.104C98.5688 154.053 97.6002 154.104 97.6002 154.104C97.3452 154.104 97.0903 154.155 95.4589 154.359C93.8275 154.563 93.7766 154.614 93.4197 154.614C92.655 154.665 92.655 154.563 91.3804 154.614C90.2079 154.614 89.8 154.716 88.0667 154.614C86.0274 154.512 86.0784 154.461 83.3254 154.308C81.2861 154.206 80.6234 154.206 77.6665 153.951C74.5056 153.697 70.3252 153.238 65.38 152.474C64.3603 155.939 63.3917 159.455 62.3721 162.92C73.2311 164.296 77.6665 164.958 78.1763 165.264Z" fill="#FF8481"/>
<path d="M28.6226 159.302C29.2343 159.404 30.6108 159.659 32.3442 160.015C32.3442 160.015 57.5799 165.213 68.388 166.997C69.3566 167.15 71.6508 167.506 73.0273 166.232C73.4351 165.876 73.6391 165.468 73.741 165.162C74.3018 165.264 75.2195 165.366 76.0352 164.958C77.1568 164.398 77.4627 163.277 78.5842 158.334C79.4509 154.461 79.7568 152.881 78.9411 152.168C78.4313 151.76 77.7685 151.913 77.2587 151.302C76.7489 150.639 76.7999 149.671 77.0038 148.958C60.8937 152.372 44.7836 155.837 28.6226 159.302Z" fill="#FF3985"/>
<path d="M46.5678 180.042C46.1599 177.8 45.956 159.913 45.905 153.696C45.905 151.301 67.725 150.792 67.776 153.9C67.776 154.053 67.776 154.155 67.878 154.308C67.929 154.461 68.0309 154.563 68.1329 154.665C68.2348 154.767 68.3368 154.817 68.4898 154.868C68.6427 154.919 68.7447 154.919 68.8976 154.919C70.478 154.767 72.0584 155.021 73.231 155.939C74.9134 157.263 75.3722 160.525 75.4742 162.359C75.5252 163.327 75.984 174.844 69.1525 178.207C68.3878 178.564 67.725 178.768 67.2662 178.87C67.2662 179.328 67.2152 179.634 67.2152 179.787C66.9093 181.52 63.7995 182.08 56.866 182.08C49.2188 182.08 46.7207 181.214 46.5678 180.042ZM71.7526 166.793C72.2114 163.786 72.0075 159.709 70.529 159.149C70.3761 159.098 69.7643 158.945 69.0505 158.843C68.4388 158.792 67.929 158.843 67.5721 158.894C67.4701 161.85 67.4191 164.805 67.3682 167.812C67.3172 170.309 67.3172 172.806 67.2662 175.252C67.725 174.895 68.3368 174.334 68.9996 173.57C71.0898 171.073 71.5486 168.321 71.7526 166.793Z" fill="#8C1D80"/>
<path d="M48.5052 153.442C48.3522 153.849 51.0542 154.155 56.8661 154.257C62.1682 154.359 65.1251 154.308 65.6349 153.594C66.2976 152.677 48.913 152.422 48.5052 153.442Z" fill="#212121"/>
<path d="M54.7758 150.13C54.4699 149.926 55.6934 148.652 55.7954 146.869C55.8973 143.454 51.411 142.384 51.5129 139.378C51.5639 137.237 53.8071 137.085 54.3679 134.18C54.9287 131.173 53.0934 128.626 53.5522 128.422C53.8581 128.269 54.8267 129.39 55.2856 130.562C55.7444 131.683 55.6934 132.702 55.7444 133.467C55.8973 135.913 54.5208 136.932 54.164 139.021C53.5522 142.945 58.2425 144.881 57.2738 147.837C56.713 149.366 55.0816 150.334 54.7758 150.13Z" fill="white"/>
<path d="M61.3014 133.466C60.8936 130.714 58.7013 130.307 58.8033 128.268C58.8543 127.045 59.67 127.045 60.2818 124.752C60.6896 123.173 60.5877 122 60.7916 122C60.9445 122 61.2504 123.122 61.2504 124.294C61.1994 126.332 60.2818 126.638 60.1798 128.064C59.9759 130.612 62.5759 131.428 62.321 134.128C62.1681 135.402 61.4543 136.524 61.2504 136.473C60.9955 136.422 61.5563 135.148 61.3014 133.466Z" fill="white"/>
<path d="M106.165 166.691C105.655 165.926 105.094 165.162 104.483 164.398C103.871 163.684 103.208 162.869 102.443 162.308C101.73 161.748 100.863 161.493 99.9962 161.187C98.9766 160.831 97.957 160.423 96.9374 160.066C96.8354 160.015 96.7844 160.168 96.8864 160.219C97.8041 160.525 98.7217 160.881 99.6394 161.187C100.557 161.544 101.577 161.799 102.341 162.41C103.055 162.971 103.667 163.684 104.228 164.398C104.89 165.162 105.451 165.926 106.012 166.793C106.063 166.844 106.216 166.742 106.165 166.691Z" fill="#D98E8F"/>
<path d="M108.51 163.225C106.726 161.748 104.941 160.219 103.055 158.894C101.628 157.926 99.9963 157.365 98.3139 157.161C98.2119 157.161 98.2119 157.314 98.3139 157.314C100.047 157.467 101.679 158.079 103.055 159.047C104.89 160.372 106.675 161.85 108.408 163.276C108.459 163.429 108.561 163.327 108.51 163.225Z" fill="#D98E8F"/>
<path d="M168.107 129.033C149.397 130.409 130.738 131.836 112.028 133.211C110.804 133.313 109.836 134.231 109.683 135.454C108 149.569 106.267 163.684 104.584 177.8C124.977 176.271 145.421 174.742 165.813 173.265C167.495 159.455 169.178 145.696 170.86 131.887C171.013 130.307 169.688 128.931 168.107 129.033Z" fill="#0077FF"/>
<path d="M50.6973 116.14C49.9835 116.548 48.9129 117.618 49.2188 118.637C49.4737 119.504 50.5443 119.504 50.6973 120.472C50.8502 121.542 49.9326 122.102 49.6776 123.071C49.5247 123.835 49.7286 125.007 50.1875 125.568C50.5443 124.701 50.1365 123.784 50.5953 122.867C50.9522 122.052 51.6659 121.287 51.411 120.268C51.2071 119.453 50.1875 119.147 49.9326 118.433C49.5757 117.516 50.2894 117.007 50.6973 116.14Z" fill="white"/>
<path d="M137.723 165.926C131.911 166.181 129.005 166.334 127.424 164.652C125.844 162.971 126.201 160.066 126.914 154.308L127.067 153.238C127.781 147.479 128.138 144.575 130.228 142.689C132.268 140.804 135.173 140.651 140.985 140.396L142.056 140.345C147.868 140.09 150.774 139.937 152.405 141.619C153.986 143.352 153.629 146.205 152.915 151.964L152.762 153.034C152.048 158.792 151.691 161.697 149.652 163.531C147.613 165.417 144.707 165.518 138.844 165.824L137.723 165.926Z" fill="white"/>
<path d="M139.172 158.758L140.004 154.916C142.095 154.92 143.301 156.371 143.549 158.354L146.602 158.082C146.433 155.078 144.666 153.588 143.431 153.106C144.941 152.206 147.239 150.065 148.25 147.392L145.451 147.658C144.43 149.873 142.233 151.961 140.558 152.304L141.483 148.053L138.633 148.321L137.014 155.748C135.376 155.478 133.6 153.581 134.561 148.667L131.609 148.937C130.281 155.643 132.965 159.355 138.765 158.767L139.172 158.758Z" fill="#0077FF"/>
</g>
</svg>
