<svg width="554" height="546" viewBox="0 0 554 546" fill="none" xmlns="http://www.w3.org/2000/svg">
<g clip-path="url(#clip0_44_7857)">
<path d="M401.902 140.122C433.262 112.809 441.858 89.0417 433.088 73.2791C428.096 64.3069 421.999 64.9787 421.999 57.8487C421.999 50.7186 428.595 41.956 422.982 30.2604C418.72 21.3749 412.724 21.7145 409.061 17.8135C405.399 13.9126 403.564 4.30474 393.313 1.13342C383.85 -1.75616 377.42 6.65975 368.427 9.03643C360.126 11.2036 350.554 5.06326 341.568 10.6113C331.555 16.8022 335.247 27.2263 328.565 33.1283C324.584 36.6392 317.447 32.2976 308.417 41.7971C302.963 47.5762 303.974 58.2605 304.083 64.7042C304.22 73.9798 277.527 72.3255 285.618 101.156C293.709 129.987 420.193 113.358 420.193 113.358L401.902 140.122Z" fill="#212121"/>
<path d="M385.077 88.1428C344.703 79.4307 211.089 144.584 181.803 97.8735C152.517 51.1634 85.724 36.5132 59.4866 45.3048C28.5536 55.6856 90.8241 71.5928 66.5588 189.863C60.1006 221.353 -23.5311 341.769 93.8509 375.887C238.33 417.866 341.539 366.821 369.243 380.28C396.946 393.738 441.287 443.59 480.874 406.38C520.462 369.169 532.331 348.588 551.33 346.219C570.329 343.849 385.077 88.1428 385.077 88.1428Z" fill="#8024C0"/>
<path d="M408.838 86.9306C407.819 91.814 381.206 80.1545 367.372 85.587C326.867 101.48 256 99.9265 205.707 77.3444C155.414 54.7623 73.5523 24.754 54.6616 44.9667C52.8023 46.9885 51.4482 49.422 50.7101 52.0678C76.9764 37.7788 96.3294 123.354 128.671 198.808C171.48 298.665 290.025 252.988 342.197 115.01C346.639 103.25 356.348 90.5065 368.282 89.7263C391.609 88.1803 421.812 109.838 413.793 86.9523C413.736 86.5911 408.903 86.5766 408.838 86.9306Z" fill="#FF3985"/>
<path d="M214.427 141.897C216.342 131.807 217.527 121.593 217.974 111.332C218.246 105.399 218.069 99.4538 217.447 93.5471L229.518 97.6647C230.19 94.1177 230.804 90.3685 231.324 86.5109C225.545 84.8856 219.881 83.029 214.441 80.9485C213.972 84.77 213.416 88.4831 212.802 91.9578L198.484 87.0744C199.929 91.7772 200.969 99.4274 200.543 110.668C200.162 119.231 199.211 127.76 197.696 136.197L183.371 131.307C184.816 136.009 185.864 143.652 185.43 154.907C185.054 163.468 184.108 171.995 182.598 180.43L168.28 175.546C169.725 180.249 170.765 187.892 170.339 199.14C169.964 207.703 169.018 216.232 167.507 224.669L153.19 219.778C154.331 223.455 155.198 228.931 155.357 236.509C160.539 240.876 166.334 244.459 172.557 247.143C172.615 246.11 172.673 245.07 172.709 244.044C172.981 238.108 172.804 232.16 172.181 226.251L184.253 230.369C186.167 220.279 187.353 210.064 187.8 199.804C188.071 193.869 187.895 187.921 187.272 182.012L199.351 186.136C201.257 176.041 202.438 165.822 202.883 155.557C203.153 149.622 202.974 143.674 202.349 137.765L214.427 141.897Z" fill="#8024C0"/>
<path d="M289.44 167.492L306.286 173.271C308.09 161.157 308.042 148.839 306.142 136.74C305.343 131.921 304.117 127.183 302.479 122.581L277.463 114.021C288.906 125.593 291.752 147.46 289.44 167.492Z" fill="#8024C0"/>
<path d="M304.141 95.7988C305.511 104.889 305.642 114.124 304.531 123.25L321.37 128.993C323.033 117.742 323.118 106.314 321.623 95.0403C315.945 95.4882 310.1 95.7482 304.141 95.7988Z" fill="#8024C0"/>
<path d="M291.037 180.948C290.259 176.132 289.05 171.395 287.425 166.796L262.401 158.257C273.851 169.815 276.697 191.697 274.378 211.714L280.287 213.73C284.434 209.709 288.513 205.389 292.525 200.77C292.619 194.131 292.121 187.498 291.037 180.948Z" fill="#8024C0"/>
<path d="M274.66 218.945C274.013 216.255 273.222 213.603 272.291 210.998L247.274 202.51C254.021 209.337 257.785 219.747 259.252 231.24C264.624 227.447 269.77 223.342 274.66 218.945Z" fill="#8024C0"/>
<path d="M214.52 240.706L193.101 233.396C196.504 238.756 198.158 246.233 198.916 252.575C204.742 252.609 210.555 252.015 216.254 250.805C215.872 247.408 215.293 244.036 214.52 240.706Z" fill="#8024C0"/>
<path d="M145.337 167.709L154.837 165.954C156.708 157.682 157.336 152.387 158.665 142.866C159.618 136.441 160.206 129.968 160.428 123.477L168.649 126.28C170.513 118.009 172.427 108.148 173.763 98.6339C174.713 92.2064 175.301 85.7309 175.526 79.2376L183.74 82.0405C184.65 78.0023 185.574 73.574 186.441 69.0012C181.081 66.7762 175.555 64.5368 169.92 62.3696C169.032 67.3686 168.071 72.1292 167.124 76.3986L158.008 73.285C158.29 78.2768 158.008 86.7866 155.79 100.881C154.67 107.96 153.327 114.765 152.034 120.631L142.91 117.517C143.199 122.509 142.91 131.019 140.699 145.113C139.58 152.192 138.236 158.997 136.936 164.87L142.339 166.712L127.819 161.757C128.101 166.749 127.819 175.251 125.601 189.352C125.522 189.865 125.435 190.371 125.356 190.884C126.454 193.542 127.566 196.191 128.693 198.83C130.939 204.084 133.543 209.177 136.488 214.073L138.46 214.745C140.331 206.473 142.238 196.612 143.574 187.098C144.527 180.674 145.115 174.2 145.337 167.709Z" fill="#8024C0"/>
<path d="M259.931 92.6453C259.758 97.6466 259.324 102.636 258.63 107.592L238.403 100.686C242.817 107.642 244.255 118.175 244.702 125.146C245.212 134.057 244.825 142.997 243.547 151.831L223.32 144.925C227.741 151.874 229.178 162.407 229.633 169.385C230.143 178.297 229.755 187.237 228.477 196.071L208.25 189.157C212.664 196.114 214.102 206.646 214.55 213.618C215.063 222.529 214.675 231.469 213.394 240.303L230.175 246.031C232.013 234.952 232.611 223.702 231.959 212.491C231.65 207.095 230.884 201.735 229.669 196.468L245.215 201.792C247.059 190.713 247.66 179.463 247.007 168.251C246.691 162.858 245.923 157.5 244.71 152.236L260.313 157.552C262.151 146.476 262.75 135.228 262.098 124.019C261.789 118.624 261.028 113.264 259.822 107.996L275.419 113.32C276.425 107.173 277.067 100.971 277.34 94.7474C271.525 94.2345 265.71 93.5338 259.931 92.6453Z" fill="#8024C0"/>
<path d="M82.5242 80.6379L92.6378 50.9619L96.3148 40.1765C90.4301 39.1213 84.4761 38.4984 78.5005 38.3127L76.1094 45.3272L70.9803 60.353C74.8885 65.4604 78.6739 72.3737 82.5242 80.6379Z" fill="#8024C0"/>
<path d="M118.832 109.281L123.007 110.726C124.994 103.567 127.342 94.7896 129.466 85.9114C131.43 77.7555 132.926 70.7772 133.923 65.0703L138.098 66.5151C139.29 62.2312 140.598 57.3695 141.92 52.255C136.307 50.3912 130.723 48.643 125.24 47.0537C123.968 52.0021 122.704 56.7049 121.555 60.8659L117.221 59.3778C116.361 64.8463 114.656 73.4212 111.333 86.7277C109.686 93.3304 107.989 99.6802 106.493 105.105L102.159 103.617C101.545 107.525 100.49 113.008 98.7349 120.688C102.173 129.934 105.72 139.679 109.426 149.677C111.044 143.681 112.793 136.956 114.433 130.173C116.34 121.966 117.828 114.988 118.832 109.281Z" fill="#8024C0"/>
<path d="M376.533 182.734C381.452 186.873 384.039 192.847 378.606 203.683C378.606 203.683 445.464 228.194 447.718 206.27C447.718 206.27 450.304 177.54 454.443 169.514C458.583 161.488 422.867 154.257 422.867 154.257L376.533 182.734Z" fill="#2929B2"/>
<path d="M451.929 176.99C443.26 173.501 431.586 166.277 431.586 166.277L415.932 174.946C415.932 174.946 446.995 186.215 447.718 206.284C447.718 206.284 449.762 183.976 451.929 176.99Z" fill="#1A1A66"/>
<path d="M383.215 58.292C377.891 53.1919 371.656 38.065 379.827 26.3694C386.726 16.5304 396.247 20.0412 399.758 21.9989C407.632 26.3694 411.128 36.8586 411.128 36.8586L387.043 60.9216L383.215 58.292Z" fill="#8024C0"/>
<path d="M382.051 87.9071C372.523 86.8235 341.597 93.5345 340.405 112.404C339.213 131.272 357.078 181.696 369.474 186.138C388.256 192.864 426.673 167.269 429.671 166.374C432.669 165.478 461.117 187.937 474.597 178.048C488.077 168.158 485.679 141.205 470.104 120.256C454.529 99.3065 435.227 82.3952 407.667 87.4881C407.667 87.4808 416.495 91.8008 382.051 87.9071Z" fill="#2929B2"/>
<path d="M405.276 135.836C399.107 129.667 398.32 111.614 413.88 107.497C429.441 103.379 459.593 135.829 444.943 149.453C435.075 158.447 414.675 146.701 414.675 146.701L405.276 135.836Z" fill="#00EAFF"/>
<path d="M421.465 112.583C419.255 113.392 406.346 132.225 411.662 132.738C425.063 134.038 426.414 136.415 426.833 139.962C427.692 147.084 425.388 153.391 428.538 152.329C430.791 151.571 440.053 129.899 433.479 127.768C430.365 126.749 421.198 127.703 421.451 125.268C421.949 119.8 424.528 111.492 421.465 112.583Z" fill="white"/>
<path d="M383.987 68.6276C387.802 72.6947 378.931 88.0745 373.31 88.2117C389.853 91.1736 400.61 92.0043 406.129 91.4697C410.015 91.0869 408.816 87.6699 408.816 87.6699C408.816 87.6699 407.422 79.4924 414.061 74.2984C426.341 64.6978 383.987 68.6276 383.987 68.6276Z" fill="#FF8481"/>
<path d="M408.7 87.6101C408.881 81.9176 410.304 77.4965 413.598 74.9465C419.182 70.576 414.039 69.4779 406.122 68.7483L394.621 73.4655C388.603 73.0971 400.451 85.7752 408.7 87.6101Z" fill="#E85353"/>
<path d="M390.287 27.2537C397.763 22.3631 405.139 26.2712 414.949 38.2702C425.785 51.5551 430.582 68.9503 412.912 75.6325C400.4 80.357 385.779 69.7811 385.779 69.7811C385.779 69.7811 375.304 65.8296 379.22 60.5128C381.864 56.9008 386.523 60.2021 385.1 54.8564C383.677 49.5107 381.018 33.3146 390.287 27.2537Z" fill="#FF8481"/>
<path d="M394.961 296.546C428.502 275.206 443.622 260.014 445.334 236.696C445.334 236.696 456.119 266.848 415.846 378.639C415.846 378.639 384.783 408.98 380.297 425.053C380.297 425.053 370.357 431.62 367.481 406.357C365.574 389.526 367.525 353.189 376.295 326.273C380.687 312.785 390.222 299.558 394.961 296.546Z" fill="#212121"/>
<path d="M411.72 284.351C411.72 284.351 411.72 254.104 359.961 229.232C359.961 229.232 338.592 249.734 327.164 296.79C315.736 343.847 317.455 352.949 312.138 365.418C312.138 365.418 322.317 371.703 327.691 374.39C333.066 377.077 342.479 411.362 342.479 411.362L411.72 284.351Z" fill="#2929B2"/>
<path d="M313.077 362.018C321.067 352.374 333.68 350.149 338.874 352.099C344.068 354.05 357.324 368.346 351.877 391.976C346.43 415.605 308.222 496.528 302.992 508.888C297.762 521.248 300.067 536.209 294.172 545.434H231.403C214.882 533.471 259.114 520.981 265.009 509.748C286.753 468.355 301.829 375.577 313.077 362.018Z" fill="#FF3985"/>
<path d="M424.123 355.661C420.193 376.466 383.965 499.967 393.407 509.402C402.849 518.836 454.319 527.418 455.179 532.569C456.039 537.719 457.823 545.435 443.166 545.435H356.413C354.152 545.435 352.729 543.52 352.483 541.274C351.797 535.018 352.519 520.324 353.112 506.721C353.704 492.996 361.723 400.305 368.181 389.563C381.906 365.544 424.123 355.661 424.123 355.661Z" fill="#FF3985"/>
<path d="M422.592 150.276C425.431 152.884 429.028 157.139 429.888 167.866C429.888 167.866 441.8 160.642 447.724 155.795C456.393 148.716 462.685 146.924 465.358 147.408C466.385 147.613 467.44 147.647 468.478 147.509C469.707 146.729 468.218 145.544 463.349 143.847C459.737 142.568 457.57 140.184 450.346 140.957C447.71 140.524 445.824 139.05 443.534 139.476C436.671 140.791 430.964 149.944 422.592 150.276Z" fill="#FF8481"/>
<path d="M378.605 203.697C378.605 203.697 376.243 204.99 374.379 208.855C374.379 208.855 407.227 229.306 432.171 225.759C445.254 223.895 447.298 218.933 447.796 214.345C448.061 211.663 448.035 208.96 447.717 206.283C447.717 206.283 444.77 213.58 431.535 214.873C410.355 216.96 378.605 203.697 378.605 203.697Z" fill="#FF3985"/>
<path d="M466.585 203.554H466.369C476.54 220.992 501.968 334.307 503.42 340.867C504.872 347.426 540.378 328.348 551.322 346.234C561.45 344.955 513.534 271.69 466.585 203.554Z" fill="#FF3985"/>
<path d="M417.932 47.5883C422.209 54.8123 416.538 64.4779 403.889 59.8691C395.747 56.9145 397.597 54.1549 404.315 51.4243C413.843 47.5667 416.516 45.2261 417.932 47.5883Z" fill="white"/>
<path d="M396.701 41.3351C398.031 42.6498 398.016 43.6395 396.275 44.2824C395.199 44.687 394.245 44.2824 393.487 42.8376C392.728 41.3928 394.823 39.4713 396.701 41.3351Z" fill="#212121"/>
<path d="M409.509 35.6408C410.672 36.9122 410.802 37.8513 409.191 38.2486C408.201 38.4942 407.168 37.9597 406.533 36.616C405.897 35.2724 407.862 33.8709 409.509 35.6408Z" fill="#212121"/>
<path d="M386.241 39.777C386.964 36.9452 391.486 31.1082 393.696 34.1784C394.122 34.7708 392.699 36.5551 391.529 37.6459C390.359 38.7367 389.535 39.8131 388.105 40.7233C387.021 41.4168 386.032 40.6944 386.241 39.777Z" fill="#212121"/>
<path d="M409.705 30.686C407.422 32.3186 400.444 33.7562 400.761 30.1081C400.819 29.3857 402.979 29.0028 404.532 28.9522C406.085 28.9017 407.342 28.62 408.953 28.8511C410.167 29.0173 410.456 30.1442 409.705 30.686Z" fill="#212121"/>
<path d="M404.257 46.1273C403.195 45.4049 405.572 44.6825 405.276 43.0283C404.655 39.6113 401.664 38.5566 402.17 38.0293C402.675 37.5019 406.201 40.536 407.169 42.6671C407.681 43.794 405.847 47.1965 404.257 46.1273Z" fill="#E85353"/>
<path d="M353.784 111.563C368.679 103.508 383.127 132.339 365.775 139.736C351.689 145.761 339.632 119.227 353.784 111.563Z" fill="#2929B2"/>
<path d="M430.134 218.227C430.033 214.167 429.975 212.144 430.965 210.858C431.954 209.573 433.594 209.522 436.874 209.414H437.481C440.76 209.327 442.4 209.284 443.455 210.519C444.51 211.754 444.56 213.777 444.669 217.837V218.559C444.777 222.619 444.835 224.642 443.845 225.928C442.855 227.213 441.216 227.257 437.936 227.372H437.329C434.049 227.459 432.41 227.502 431.355 226.274C430.3 225.046 430.25 223.009 430.141 218.957L430.134 218.227Z" fill="white"/>
<path d="M433.919 214.704C433.944 214.707 433.967 214.719 433.984 214.737C434.001 214.756 434.011 214.78 434.013 214.805C434.109 215.539 434.266 216.264 434.482 216.972C434.69 217.764 435.065 218.503 435.58 219.139C435.884 219.484 436.28 219.734 436.722 219.862L436.592 214.761C436.588 214.747 436.588 214.732 436.592 214.718C436.595 214.703 436.601 214.69 436.61 214.678C436.619 214.667 436.63 214.657 436.643 214.65C436.656 214.643 436.671 214.639 436.685 214.639H437.95C438.007 214.639 438.051 214.689 438.051 214.754L438.13 217.875C438.465 217.772 438.773 217.597 439.033 217.362C439.445 216.954 439.763 216.461 439.965 215.917C440.14 215.499 440.278 215.066 440.377 214.624C440.379 214.601 440.389 214.58 440.405 214.563C440.42 214.546 440.441 214.535 440.464 214.53H441.728C441.744 214.532 441.761 214.537 441.775 214.545C441.79 214.554 441.802 214.565 441.812 214.579C441.821 214.593 441.828 214.609 441.831 214.625C441.834 214.642 441.833 214.659 441.829 214.675C441.707 215.383 441.508 216.075 441.237 216.741C440.956 217.459 440.539 218.117 440.008 218.677C440.635 219.092 441.163 219.639 441.554 220.281C441.878 220.799 442.133 221.358 442.313 221.942C442.313 222.022 442.313 222.108 442.226 222.108H440.962C440.942 222.11 440.922 222.105 440.906 222.093C440.89 222.081 440.879 222.063 440.875 222.043C440.763 221.792 440.63 221.55 440.478 221.321C440.222 220.926 439.886 220.589 439.492 220.332C439.097 220.076 438.653 219.906 438.188 219.833L438.246 222.087C438.247 222.115 438.238 222.142 438.221 222.165C438.203 222.187 438.179 222.203 438.152 222.209H437.791C434.02 222.31 432.647 217.304 432.546 214.877C432.543 214.863 432.543 214.848 432.546 214.833C432.549 214.819 432.556 214.806 432.564 214.794C432.573 214.782 432.585 214.773 432.598 214.766C432.611 214.759 432.625 214.755 432.64 214.754L433.919 214.704Z" fill="#0077FF"/>
<path d="M395.393 131.143C394.194 131.331 380.786 137.074 380.945 139.371C381.104 141.668 393.183 138.136 393.183 138.136C393.183 138.136 378.619 146.761 379.739 148.423C380.859 150.084 382.007 149.867 382.007 149.867C382.202 150.989 382.682 152.041 383.401 152.923C384.68 154.628 390.517 151.71 390.517 151.71C390.517 151.71 390.43 152.967 392.684 153.841C394.938 154.715 401.837 148.618 408.093 149.456C413.605 150.178 422.815 150.315 422.815 150.315C422.815 150.315 405.875 129.554 395.393 131.143Z" fill="#FF8481"/>
<path d="M369.626 185.294C386.653 192.171 411.792 175.982 429.917 167.682" stroke="#212121" stroke-width="1.44479" stroke-miterlimit="10" stroke-linecap="round"/>
<path d="M436.867 103.544C444.929 111.179 460.807 122.904 457.477 141.39" stroke="#212121" stroke-width="0.722395" stroke-miterlimit="10"/>
<path d="M480.239 245.677C483.056 242.433 485.83 239.045 488.452 235.563C485.021 230.507 481.546 225.363 478.05 220.241C477.645 220.819 477.226 221.405 476.793 222.004C476.013 223.083 475.216 224.15 474.402 225.204C476.266 231.352 478.238 238.294 480.239 245.677Z" fill="#8024C0"/>
<path d="M504.714 259.901C500.356 267.096 495.335 273.867 489.717 280.128L500.466 294.258C505.815 288.532 510.726 282.413 515.16 275.952C511.798 270.732 508.316 265.381 504.714 259.901Z" fill="#8024C0"/>
<path d="M531.204 301.345C527.777 307.509 523.746 313.317 519.169 318.682L530.005 332.813C534.101 328.262 537.862 323.422 541.26 318.328C538.341 313.185 534.961 307.493 531.204 301.345Z" fill="#8024C0"/>
<path d="M498.667 320.012C501.297 331.332 503.074 339.264 503.421 340.853C503.674 341.987 504.952 342.349 506.946 342.298C509.212 338.576 511.244 334.715 513.029 330.74C515.046 326.296 516.661 321.681 517.854 316.949L501.824 295.949C503.269 303.419 501.868 311.719 498.667 320.012Z" fill="#8024C0"/>
<path d="M231.402 545.434H293.868C295.392 545.434 295.833 543.737 295.76 542.48C266.229 542.039 250.741 538.311 241.4 537.669C232.06 537.026 228.18 535.877 227.761 539.482C227.617 541.476 228.672 543.484 231.402 545.434Z" fill="#212121"/>
<path d="M398.37 541.959C388.589 542.378 362.294 542.501 352.44 540.789L352.483 541.273C352.729 543.52 354.152 545.434 356.413 545.434H443.166C447.746 545.434 454.551 545.297 455.728 538.745C448.678 538.333 424.398 540.833 398.37 541.959Z" fill="#212121"/>
<path d="M300.637 164.463C305.498 180.999 294.41 217.711 277.657 342.447C239.32 424.865 210.388 424.525 210.388 424.525L214.166 330.751L175.958 393.787C175.958 393.787 149.829 368.662 132.297 356.519C132.297 356.519 133.669 356.916 148.912 326.554C166.083 292.334 169.637 243.695 195.651 202.62C207.563 183.794 197.739 168.559 178.732 157.42C160.174 146.533 200.52 128.827 231.272 132.547C269.104 137.127 300.637 164.463 300.637 164.463Z" fill="#00EAFF"/>
<path d="M195.643 202.622C196.729 200.926 197.679 199.145 198.482 197.298L217.806 212.786C217.806 212.786 200.05 245.193 197.868 250.488C195.687 255.783 190.702 257.033 184.468 253.602C179.888 251.088 176.326 249.267 174.759 248.444C179.96 232.854 186.368 217.265 195.643 202.622Z" fill="white"/>
<path d="M206.248 187.45C229.603 182.566 245.207 168.978 248.147 165.944L257.307 151.944C265.744 153.317 270.31 156.343 278.552 160.533C286.136 163.57 293.983 165.904 301.994 167.504C303.049 174.338 301.041 185.08 298.873 202.801C283.039 147.61 225.362 195.093 206.248 187.45Z" fill="#00EAFF"/>
<path d="M191.743 374.951C198.245 355.396 177.353 329.624 166.872 326.479C154.295 326.478 138.055 342.233 138.055 342.233C138.055 342.233 76.7366 497.317 72.5443 503.606C68.352 509.894 6.51501 529.808 3.37076 534C0.226501 538.193 1.27458 545.529 1.27458 545.529H108.179C108.179 545.529 114.468 523.52 117.612 514.087C120.756 504.654 191.743 374.951 191.743 374.951Z" fill="#2929B2"/>
<path d="M278.906 340.747C263.295 344.438 211.355 375.263 207.866 397.31C199.472 450.356 196.217 539.24 196.217 539.24L314.39 545.531C314.39 545.531 320.971 536.422 307.643 531.806C294.315 527.19 252.864 514.266 247.012 499.905C241.161 485.544 278.906 340.747 278.906 340.747Z" fill="#2929B2"/>
<path d="M196.07 534.235C198.374 534.105 201.957 534.524 207.166 535.68C247.793 544.71 290.855 532.212 313.777 536.034L314.362 535.947C318.068 540.441 314.362 545.526 314.362 545.526H200.476C195.737 545.526 195.591 544.48 195.737 541.192C195.817 539.4 195.932 537.045 196.07 534.235Z" fill="#00EAFF"/>
<path d="M196.395 48.5889C200.346 57.3587 207.122 71.5755 196.395 73.2948C185.667 75.0141 132.492 71.5394 146.174 117.505C159.856 163.471 180.127 194.296 212.757 186.35C235.303 180.838 262.949 152.939 262.949 152.939C262.949 152.939 305.621 176.684 319.787 165.523C333.953 154.362 329.46 129.952 311.003 105.918C292.546 81.8841 280.951 75.8738 258.203 77.1596C235.455 78.4455 236.372 49.8531 236.372 49.8531L196.395 48.5889Z" fill="#00EAFF"/>
<path d="M145.726 93.623C153.976 72.8252 188.022 74.6312 196.373 73.2948C207.1 71.5755 200.324 57.3587 196.373 48.5889L236.35 49.8531C236.35 49.8531 235.433 78.4455 258.181 77.1596C272.831 76.3289 282.858 78.5394 293.066 86.6302C276.111 85.0698 257.112 93.1318 249.722 110.78C249.751 110.765 189.069 64.5321 145.726 93.623Z" fill="#2929B2"/>
<path d="M277.837 118.22C274.009 110.13 266.835 91.1162 240.995 93.1389C215.155 95.1616 218.521 113.771 224.734 126.716C234.479 131.498 279.246 125.098 279.246 125.098L277.837 118.22Z" fill="white"/>
<path d="M257.864 101.157C254.851 100.622 228.036 113.373 233.678 117.425C247.909 127.626 247.873 131.187 246.045 135.442C242.361 144.009 235.635 149.586 239.883 150.453C242.917 151.074 267.479 132.747 261.497 126.036C258.658 122.85 247.772 117.96 249.599 115.366C253.695 109.566 261.988 101.879 257.864 101.157Z" fill="#00EAFF"/>
<path d="M205.642 56.7753C206.907 58.2201 211.14 60.3873 218.747 62.4822L237.457 59.5926C239.096 66.7082 243.192 75.3698 253.393 76.9301C201.9 79.7041 204.385 55.3088 205.642 56.7753Z" fill="#1A1A66"/>
<path d="M239.233 25.7067C229.575 13.2093 220.617 3.31244 205.389 7.03278C187.112 11.5405 183.465 27.0475 192.026 44.544C200.586 62.0404 219.071 75.0824 236.38 69.0649C263.607 57.0081 245.843 34.2671 239.233 25.7067Z" fill="#2929B2"/>
<path d="M232.9 21.4858C234.129 23.9458 232.357 27.4484 226.611 26.7281C223.784 26.3736 221.854 24.1386 221.371 22.5337C220.728 20.3954 220.879 17.7499 224.474 17.1402C228.708 16.4258 231.329 18.3416 232.9 21.4858Z" fill="#FF8481"/>
<path d="M215.076 26.5989C213.949 24.988 209.843 21.4833 206.653 24.0633C203.463 26.6433 201.73 31.3949 205.651 35.1113C210.074 39.3036 218.504 31.4987 215.076 26.5989Z" fill="#FF8481"/>
<path d="M246.527 36.1581C242.6 31.2535 229.814 27.7714 227.661 27.7714C223.789 27.3452 220.241 28.8227 217.18 33.0135C211.805 40.3747 206.09 49.32 209.572 60.8205C210.699 64.5408 224.517 74.9372 242.6 66.1084C259.104 56.0717 246.527 36.1581 246.527 36.1581Z" fill="#FF8481"/>
<path d="M163.641 98.5677C143.328 103.762 154.431 142.135 176.442 134.276C194.307 127.89 182.951 93.6265 163.641 98.5677Z" fill="#00EAFF"/>
<path d="M212.037 28.7675C213.728 30.4435 213.706 31.7004 211.495 32.5168C210.13 33.0297 208.909 32.5168 207.948 30.6458C206.988 28.7747 209.646 26.3981 212.037 28.7675Z" fill="#212121"/>
<path d="M228.483 21.7283C229.928 23.332 230.181 25.1236 228.086 25.0369C226.432 24.9646 225.507 24.6685 224.698 22.9636C223.889 21.2587 226.396 19.4455 228.483 21.7283Z" fill="#212121"/>
<path d="M240.02 40.0082C243.745 42.5979 240.948 49.5269 236.05 51.7322C227.621 55.5282 217.593 48.2175 220.249 46.7912C229.99 41.5672 237.787 38.4577 240.02 40.0082Z" fill="white"/>
<path d="M227.061 14.0192C224.503 12.6106 217.106 11.9821 217.886 15.7096C218.038 16.432 220.314 16.5837 221.925 16.432C223.535 16.2803 224.872 16.432 226.512 15.9986C227.747 15.688 227.906 14.4888 227.061 14.0192Z" fill="#1A1A66"/>
<path d="M200.369 25.0844C200.867 22.1948 204.999 16.0472 207.426 18.9801C207.889 19.5436 206.588 21.4218 205.476 22.5921C204.363 23.7624 203.627 24.8821 202.269 25.8934C201.235 26.6592 200.202 26.0379 200.369 25.0844Z" fill="#1A1A66"/>
<path d="M227.331 38.0181C225.662 37.4474 228.566 35.5836 227.598 33.5175C225.561 29.1832 222.963 29.7045 223.468 28.8232C223.974 27.9419 227.952 29.8622 229.989 32.3689C231.095 33.6981 229.838 38.8633 227.331 38.0181Z" fill="#E85353"/>
<path d="M243.127 126.947C234.162 130.595 224.027 133.506 216.109 136.02C214.586 136.505 212.936 136.403 211.484 135.735C210.031 135.067 208.88 133.88 208.257 132.408C204.053 122.338 196.923 105.954 189.518 94.6555" stroke="white" stroke-width="0.722395" stroke-miterlimit="10" stroke-linecap="round"/>
<path d="M302.327 168.186C291.361 167.03 259.33 151.354 259.33 151.354" stroke="white" stroke-width="0.722395" stroke-miterlimit="10"/>
<path d="M255.334 122.702C255.334 122.702 214.158 108.536 208.256 132.375C208.256 132.375 208.978 138.681 220.269 134.787L255.334 122.702Z" fill="#FF3985"/>
<path d="M251.752 266.803C251.752 266.803 202.572 350.847 195.817 363.511" stroke="#8024C0" stroke-width="0.722395" stroke-miterlimit="10"/>
<path d="M276.024 96.8867C283.42 105.492 289.284 115.302 293.362 125.891" stroke="white" stroke-width="0.722395" stroke-miterlimit="10" stroke-linecap="round"/>
<path d="M200.223 191.272C200.223 191.272 222.141 214.309 263.303 221.793C295.088 227.572 297.978 210.061 297.978 210.061C297.978 210.061 299.307 224.451 294.438 230.404C294.438 230.404 290.956 239.968 264.242 236.905C227.587 232.679 199.905 203.74 198.446 197.174C197.377 192.478 200.223 191.272 200.223 191.272Z" fill="#2929B2"/>
<path d="M284.889 228.033C285.041 222.391 285.113 219.574 283.56 217.775C282.007 215.977 279.428 215.919 274.277 215.781H273.323C268.173 215.651 265.601 215.579 263.932 217.291C262.263 219.003 262.213 221.821 262.061 227.463V228.503C261.917 234.145 261.837 236.962 263.398 238.761C264.958 240.56 267.522 240.617 272.68 240.755H273.627C278.777 240.885 281.356 240.957 283.018 239.245C284.679 237.533 284.737 234.715 284.889 229.074V228.033Z" fill="white"/>
<path d="M267.967 223.122C268.004 223.122 268.041 223.136 268.069 223.162C268.097 223.187 268.115 223.222 268.118 223.26C268.268 224.274 268.509 225.273 268.841 226.243C269.185 227.351 269.772 228.368 270.56 229.219C271.049 229.726 271.669 230.086 272.352 230.26L272.164 223.166C272.163 223.145 272.166 223.124 272.173 223.104C272.18 223.085 272.191 223.067 272.205 223.051C272.219 223.036 272.236 223.023 272.255 223.014C272.274 223.006 272.295 223.001 272.315 223L274.302 222.949C274.323 222.948 274.344 222.951 274.364 222.959C274.384 222.967 274.402 222.978 274.417 222.993C274.432 223.008 274.443 223.026 274.451 223.046C274.459 223.066 274.462 223.087 274.461 223.108L274.577 227.442C275.101 227.3 275.592 227.054 276.021 226.72C276.641 226.179 277.135 225.508 277.466 224.755C277.74 224.175 277.958 223.57 278.116 222.949C278.121 222.916 278.138 222.885 278.163 222.863C278.188 222.84 278.22 222.828 278.253 222.826L280.247 222.776C280.271 222.777 280.295 222.784 280.316 222.795C280.337 222.807 280.355 222.823 280.37 222.842C280.384 222.861 280.394 222.883 280.399 222.907C280.404 222.93 280.404 222.954 280.399 222.978C280.197 223.974 279.882 224.943 279.46 225.868C278.999 226.889 278.338 227.807 277.517 228.569C278.48 229.123 279.308 229.883 279.944 230.794C280.446 231.505 280.845 232.283 281.129 233.106C281.138 233.13 281.141 233.155 281.139 233.18C281.136 233.206 281.128 233.23 281.115 233.252C281.102 233.273 281.084 233.291 281.062 233.305C281.041 233.319 281.017 233.327 280.991 233.33L278.998 233.38C278.968 233.382 278.939 233.375 278.915 233.36C278.89 233.344 278.871 233.321 278.86 233.294C278.692 232.927 278.486 232.578 278.246 232.253C277.814 231.686 277.271 231.211 276.65 230.859C276.029 230.506 275.344 230.283 274.634 230.202L274.714 233.33C274.716 233.35 274.714 233.371 274.707 233.391C274.701 233.41 274.691 233.428 274.677 233.444C274.664 233.46 274.647 233.472 274.629 233.481C274.61 233.49 274.59 233.495 274.569 233.496H274.006C268.089 233.655 265.951 226.698 265.799 223.325C265.797 223.282 265.812 223.24 265.84 223.207C265.869 223.175 265.908 223.155 265.951 223.151L267.967 223.122Z" fill="#0077FF"/>
<path d="M243.163 126.663C243.163 126.663 270.838 112.056 283.906 114.382C296.974 116.708 304.653 126.663 304.653 126.663C304.653 126.663 297.429 126.432 283.083 137.311C265.695 150.495 247.772 166.633 247.772 166.633L243.163 126.663Z" fill="#FF3985"/>
<path d="M197.327 45.0332C197.327 45.0332 188.066 44.7587 191.15 50.6535C194.235 56.5482 202.073 56.5193 202.073 56.5193L197.327 45.0332Z" fill="#2929B2"/>
<path d="M81.9765 538.191C65.2072 538.191 11.7549 531.902 3.37021 533.998C0.0163438 537.352 -0.123418 543.781 0.225944 545.528H109.227L111.323 535.047C107.131 536.095 95.392 538.191 81.9765 538.191Z" fill="#00EAFF"/>
<path d="M408.838 86.9305C407.82 91.8139 381.207 80.1545 367.373 85.5869C356.371 89.9213 343.129 92.9336 328.674 94.6024C328.19 96.8455 327.947 99.1342 327.952 101.429C327.952 110.401 331.715 118.701 338.065 125.47C339.51 122.041 340.897 118.55 342.226 114.996C346.669 103.235 356.378 90.4919 368.312 89.7118C391.638 88.1658 421.841 109.823 413.823 86.9378C413.736 86.591 408.903 86.5766 408.838 86.9305Z" fill="#FF3985"/>
<path d="M348.677 102.824C353.199 96.4888 359.151 91.367 365.935 90.0089C365.848 88.7448 365.747 87.4878 365.617 86.238C360.053 88.2864 354.357 89.9589 348.568 91.2442C348.821 95.0992 348.858 98.9653 348.677 102.824Z" fill="#8024C0"/>
</g>
<defs>
<clipPath id="clip0_44_7857">
<rect width="553.389" height="545.004" fill="white" transform="translate(0.225098 0.524414)"/>
</clipPath>
</defs>
</svg>
