<svg width="591" height="617" viewBox="0 0 591 617" fill="none" xmlns="http://www.w3.org/2000/svg">
<g clip-path="url(#clip0_44_8355)">
<path d="M160.589 627.157C166.582 600.798 120.991 494.389 119.622 484.866C118.253 475.342 104.364 438.814 99.3595 440.914C94.3553 443.014 103.719 460.796 102.509 464.671C101.3 468.545 61.53 443.076 58.1529 446.023C54.7758 448.97 68.3701 460.047 68.3701 460.047C68.3701 460.047 45.6516 446.901 45.6516 453.109C37.8598 452.943 46.7016 460.244 46.7016 460.244C46.7016 460.244 40.7702 461.072 43.9569 464.628C64.2808 487.346 90.5668 490.109 96.6394 502.807C104.259 518.771 102.976 626.003 125.498 626.126C134.929 626.175 160.589 627.157 160.589 627.157Z" fill="#FF8481"/>
<path d="M180.973 588.876C195.279 636.486 221.731 597.091 224.752 577.271C206.159 520.69 185.805 475.787 177.792 459.264C170.946 445.141 158.266 422.097 149.032 408.638C147.03 405.728 143.37 407.692 145.176 412.463C150.493 426.5 153.158 430.147 151.985 430.067C149.768 429.92 133.786 411.684 128.161 409.123C124.311 407.367 120.099 407.146 119.344 409.872C118.036 410.603 113.818 408.589 112.645 409.872C109.133 413.728 124.729 428.575 124.729 428.575C124.729 428.575 109.133 420.845 107.438 423.952C104.608 429.134 142.818 450.815 142.112 455.211C141.62 458.25 117.416 450.244 117.152 455.211C116.802 461.652 145.145 465.471 152.851 472.459C160.09 479.023 176.674 582.502 180.973 588.876Z" fill="#FF8481"/>
<path d="M204.24 521.632C204.24 521.632 188.134 544.965 168.627 537.443C167.915 537.898 164.329 540.212 164.495 545.935C164.802 559.382 175.51 625.198 178.003 626.653C180.496 628.109 247.454 625.364 247.454 625.364C247.454 625.364 220.161 518.077 204.24 521.632Z" fill="#FFEF5F"/>
<path d="M147.263 563.535C147.263 563.535 123.316 584.252 105.35 573.5C104.57 573.826 101.015 576.73 100.18 583.429C99.3449 590.128 95.2678 625.421 97.4722 627.276C99.6765 629.13 171.645 627.945 171.645 627.945C171.645 627.945 152.905 557.395 147.263 563.535Z" fill="#FFEF5F"/>
<path d="M364.569 615.229C375.622 608.014 402.638 473.471 405.328 460.092C408.017 446.713 412.217 423.208 408.048 422.993C403.504 422.76 398.414 447.554 394.908 446.848C388.191 445.454 377.912 409.362 371.575 410.787C368.327 411.517 369.96 416.736 374.031 427.144C375.972 432.136 378.587 437.687 377.807 438.196C376.696 438.89 361.499 412.936 357.649 414.452C353.8 415.969 356.323 419.978 356.323 419.978C356.323 419.978 350.963 419.242 353.173 423.81C356.808 431.338 363.519 442.709 363.519 442.709C363.519 442.709 350.079 428.206 350.68 434.42C351.282 440.634 378.28 468.848 375.032 482.313C371.784 495.778 326.126 572.205 325.389 581.974C324.652 591.743 352.234 623.278 364.569 615.229Z" fill="#FF8481"/>
<path d="M369.444 494.929C367.952 493.087 359.62 498.355 358.773 508.376C358.773 508.376 349.778 511.035 343.423 528.946C337.068 546.856 298.164 627.065 298.164 627.065L387.81 628.066C387.81 628.066 394.048 602.48 398.635 566.615C403.221 530.751 404.707 517.236 399.384 514.129C399.384 514.129 402.454 511.851 401.134 504.575C400.563 501.395 397.235 499.553 396.885 500.547C396.234 502.426 377.703 505.281 369.444 494.929Z" fill="#231F20"/>
<path d="M293.412 437.446C293.412 437.446 313.779 486.334 330.155 474.496C346.53 462.658 309.843 396.7 309.843 396.7L293.412 437.446Z" fill="#231F20"/>
<path d="M72.3541 204.834C72.3541 204.834 58.7415 256.957 79.0101 261.372C100.089 265.971 107.396 219.521 104.08 206.258C100.765 192.995 72.3541 204.834 72.3541 204.834Z" fill="#231F20"/>
<path d="M98.3279 167.175C93.9192 165.063 85.1757 160.998 85.1757 160.998C85.1757 160.998 82.1056 179.48 82.2407 179.843C82.3758 180.205 95.6999 206.153 95.6999 206.153L101.085 204.44L98.3279 167.175Z" fill="#FFA9A9"/>
<path d="M96.6997 165.438C96.6997 165.438 116.287 273.505 73.4224 258.031C73.4224 261.102 80.4161 264.786 171.978 299.962C179.862 302.996 184.51 310.444 185.284 318.856C190.847 379.029 191.559 444.907 262.649 439.202L248.153 271.92L171.732 199.356L96.6997 165.438Z" fill="#811AC7"/>
<path d="M184.603 237.138C184.529 237.139 184.457 237.113 184.401 237.065C170.039 224.097 101.583 194.79 100.895 194.495C100.857 194.48 100.823 194.457 100.794 194.428C100.765 194.399 100.742 194.365 100.727 194.327C100.712 194.289 100.704 194.249 100.704 194.208C100.705 194.167 100.713 194.127 100.729 194.09C100.763 194.016 100.824 193.958 100.899 193.928C100.975 193.898 101.059 193.899 101.134 193.93C101.306 194.004 118.615 201.403 137.478 210.312C162.824 222.285 178.746 231.133 184.812 236.604C184.841 236.633 184.864 236.667 184.879 236.704C184.895 236.741 184.903 236.782 184.903 236.822C184.903 236.863 184.895 236.903 184.879 236.94C184.864 236.978 184.841 237.011 184.812 237.04C184.786 237.069 184.753 237.093 184.718 237.11C184.682 237.127 184.643 237.136 184.603 237.138Z" fill="#231F20"/>
<path d="M346.387 228.462C346.559 221.917 343.931 130.275 343.931 122.98C343.931 113.193 344.023 100.158 342.261 93.9744C338.307 80.0793 327.586 58.7853 324.989 55.795C322.238 52.6206 320.028 54.4933 321.612 60.0931C323.196 65.6929 326.966 74.8295 324.62 75.4435C323.122 75.7935 312.567 64.686 299.9 54.6652C295.725 51.3618 291.206 52.0127 295.197 56.5441C300.999 63.1264 308.527 70.1814 307.895 71.2805C307.262 72.3795 297.837 64.4096 292.194 60.4861C285.053 55.5249 283.77 58.3493 284.003 59.4668C284.47 61.7018 287.423 64.2746 287.073 64.643C286.723 65.0114 282.124 64.029 282.708 66.1719C284.495 72.7234 303.271 83.7695 302.927 84.6291C302.516 85.6668 288.805 74.9277 287.651 77.746C285.379 83.2722 318.609 100.379 317.123 114.384C307.041 210.57 306.323 221.088 308.398 245.482C310.474 269.877 346.387 228.462 346.387 228.462Z" fill="#FFA9A9"/>
<path d="M350.79 242.736C350.79 242.736 349.648 224.451 347.364 223.702C345.08 222.953 295.627 237.038 298.495 274.88C300.257 298.366 301.276 315.276 301.276 315.276L369.493 277.403L350.79 242.736Z" fill="#231F20"/>
<path d="M362.022 247.539C362.022 247.539 359.068 247.251 366.645 241.903C374.222 236.555 371.072 231.649 372.171 231.096C373.27 230.543 373.172 219.528 380.89 219.037C386.03 218.717 388.836 222.052 391.574 223.181C395.547 224.815 397.371 219.153 403.161 222.211C408.515 225.036 406.648 230.549 408.478 232.649C411.376 236.026 416.018 233.3 418.916 236.997C422.809 241.909 417.848 246.551 418.216 248.202C418.585 249.854 426.843 258.106 422.435 264.897C418.026 271.688 385.557 295.174 385.557 295.174L366.836 278.295L362.022 247.539Z" fill="#FFEF5F"/>
<path d="M405.426 260.414C402.7 259.014 371.533 278.073 365.902 282.31C356.416 289.451 352.265 263.441 341.956 267.31C302.929 282.003 298.766 317.69 278 338.235C240.355 375.481 276.956 398.69 276.956 398.69C276.956 398.69 308.031 412.813 322.712 428.967C334.059 471.709 330.13 474.497 330.13 474.497C330.13 474.497 335.429 480.551 359.259 424.19C373.006 391.678 382.131 365.245 384.224 358.577C386.171 352.394 409.092 350.312 409.399 344.835C409.399 344.835 396.769 347.752 394.049 320.588C390.168 281.758 408.152 261.808 405.426 260.414Z" fill="#0077FF"/>
<path d="M323.405 277.52C318.494 286.702 311.538 294.633 303.075 300.699L302.627 301.406H320.967C321.495 300.865 322.017 300.313 322.533 299.754C330.913 290.553 337.17 279.624 340.862 267.739C334.613 270.165 328.736 273.457 323.405 277.52Z" fill="#2929B2"/>
<path d="M318.757 350.741L318.641 350.631L318.757 350.526C329.478 340.186 341.893 323.866 345.891 301.405H329.767C325.966 318.419 316.258 331.001 307.791 339.149C303.3 343.488 298.36 347.337 293.055 350.631C298.359 353.926 303.299 357.775 307.791 362.113C316.246 370.261 325.966 382.848 329.761 399.856H345.885C341.857 377.42 329.447 361.075 318.757 350.741Z" fill="#2929B2"/>
<path d="M320.968 399.855H302.057C315.737 409.066 328.158 425.761 331.959 449.081H344.374C341.2 426.362 331.179 410.932 322.534 401.513C322.018 400.948 321.496 400.402 320.968 399.855Z" fill="#2929B2"/>
<path d="M322.443 428.931C322.443 428.931 302.273 440.118 279.333 444.023C248.491 449.279 209.9 434.899 214.204 368.383C216.2 337.572 220.725 323.032 215.776 306.331C210.637 289.071 157.887 244.794 151.078 228.449C151.078 228.449 169.038 248.595 192.364 215.266C204.436 198.019 215.193 159.557 215.193 159.557C215.193 159.557 285.037 252.887 291.159 282.145C297.281 311.402 297.299 394.7 297.532 400.815C298.177 416.933 321.737 416 322.443 428.931Z" fill="#FF0084"/>
<path d="M297.533 400.816C297.459 398.87 297.404 389.076 297.171 375.697C294.893 387.891 290.674 444.565 260.974 444.639C267.085 445.285 273.255 445.078 279.309 444.025C302.249 440.119 322.419 428.932 322.419 428.932C321.737 416.001 298.178 416.934 297.533 400.816Z" fill="#811AC7"/>
<path d="M216.042 160.397C218.283 151.979 163.556 178.928 155.255 199.94C146.953 220.951 148.722 231.776 158.012 234.392C177.194 239.777 200.416 219.091 216.042 160.397Z" fill="#231F20"/>
<path d="M202.249 162.627L180.894 200.359C180.894 200.359 189.723 208.298 194.261 213.541C203.569 199.223 210.225 182.362 216.04 160.399C216.832 157.494 210.796 158.833 202.249 162.627Z" fill="#FFA9A9"/>
<path d="M82.5031 151.825C82.5031 151.825 81.2198 150.928 76.0069 146.188C68.1413 139.035 48.7078 102.268 36.6547 93.6162C24.6016 84.9648 7.36004 85.7937 3.0558 101.457C-1.24844 117.121 3.8356 137.469 9.73628 156.061C15.637 174.654 29.6672 186.148 31.3373 199.767C33.0074 213.386 27.291 228.81 40.5475 230.32C53.8041 231.831 62.8178 227.164 78.5059 218.912C86.7705 214.565 94.2369 214 96.3798 210.985C99.6279 206.411 91.3265 199.718 88.9073 173.659C95.6246 159.205 96.6991 145.801 82.5031 151.825Z" fill="#FF0084"/>
<path d="M82.5043 151.825C82.5043 151.825 80.9631 150.597 76.0633 145.513C68.3328 137.531 62.8435 127.707 54.1122 114.776C54.1122 115.85 55.9543 118.558 56.5683 119.86C73.1467 155.055 89.4795 154.674 88.9085 173.66C95.6258 159.206 96.7003 145.802 82.5043 151.825Z" fill="white"/>
<path d="M46.8289 180.751C37.9195 151.045 44.115 141.313 50.9244 132.508C57.7338 123.703 57.4391 119.7 57.4391 119.7C57.4391 119.7 51.9129 104.251 41.8001 95.6856C26.8059 83.0062 7.36004 85.7938 3.0558 101.457C-1.24844 117.121 3.8356 137.469 9.73628 156.062C15.637 174.654 29.6672 186.148 31.3373 199.767C33.0074 213.386 27.291 228.81 40.5475 230.32C50.3104 231.432 57.7399 229.197 67.251 224.659C65.7344 215.553 56.5242 213.054 46.8289 180.751Z" fill="#2929B2"/>
<path d="M405.425 260.414C409.318 254.888 416.348 342.618 407.586 347.469C392.205 355.998 387.447 286.019 405.425 260.414Z" fill="#231F20"/>
<path d="M539.943 145.127C537.776 144.046 515.002 159.323 510.084 164.972C505.165 170.621 467.453 205.908 448.246 224.347C431.999 239.949 408.833 255.091 403.534 262.655C398.235 270.22 393.924 294.394 393.709 310.696C393.525 324.308 395.662 332.186 396.11 333.721C402.907 327.686 456.382 265.67 461.38 260.009C471.683 248.306 509.985 203.655 518.661 197.926C532.17 188.937 567.33 194.852 568.663 190.579C569.393 188.245 559.962 186.925 556.309 186.158C547.663 184.316 549.088 182.977 558.507 183.296C572.494 183.769 575.193 182.913 575.359 180.364C575.47 178.639 573.139 178.83 573.513 177.903C574.748 177.288 576.338 177.328 576.356 174.203C576.356 169.843 552.944 172.017 551.053 170.519C549.162 169.021 575.276 164.035 572.893 158.275C571.469 154.831 531.206 165.064 528.94 163.553C526.674 162.043 547.508 148.909 539.943 145.127Z" fill="#FFA9A9"/>
<path d="M287.392 628.337C287.392 628.337 285.495 545.69 286.92 521.971C288.08 502.617 295.356 487.942 298.119 481.784C300.532 476.399 305.543 476.583 304.615 482.336C302.773 493.677 299.74 512.951 307.808 508.205C321.01 500.437 339.627 486.837 345.325 483.988C351.023 481.139 347.903 486.978 347.903 486.978C347.903 486.978 351.195 485.234 352.987 487.488C353.958 488.716 353.884 491.375 353.884 491.375C353.884 491.375 354.645 492.363 351.766 496.95C339.055 517.212 317.166 532.857 315.152 542.27C312.327 555.441 342.003 628.337 342.003 628.337H287.392Z" fill="#FFA9A9"/>
<path d="M390.438 579.902C390.438 579.902 440.848 488.899 453.38 456.719C461.571 435.67 457.574 404.435 464.31 404.626C467.908 404.73 467.822 432.398 473.047 429.07C478.272 425.742 507.156 405.436 512.854 404.012C515.703 403.3 516.415 405.185 515.009 407.561C513.603 409.937 510.097 412.798 510.539 413.087C511.466 413.701 522.752 405.449 525.036 408.789C526.73 411.245 520.738 416.194 520.873 416.654C521.008 417.115 528.044 414.696 527.688 418.294C527.203 423.108 518.251 428.063 518.865 429.297C519.405 430.384 521.628 427.67 522.107 430.998C522.586 434.326 496.515 452.022 489.865 456.786C483.215 461.551 481.471 460.679 474.981 480.573C466.06 507.903 452.164 576.095 449.807 584.642C447.449 593.189 379.545 603.646 390.438 579.902Z" fill="#FF8481"/>
<path d="M202.654 626.766C202.654 626.766 238.782 533.799 238.653 517.546C238.531 502.005 202.887 482.049 200.91 475.51C200.044 472.655 201.143 471.605 201.143 471.605C201.143 471.605 199.197 469.413 195.138 464.759C193.683 463.089 193.45 460.663 196.649 459.57C196.772 458.183 195.82 456.267 197.091 454.836C199.135 452.54 201.524 453.332 211.072 460.098C221.965 467.823 225.968 471.059 226.987 470.002C228.829 468.093 211.139 450.194 216.801 448.512C222.462 446.83 246.071 478.758 251.026 481.135C255.981 483.511 246.685 457.084 252.057 457.084C258.928 457.084 266.591 492.838 265.111 520.327C263.834 544.065 255.287 626.797 255.287 626.797L202.654 626.766Z" fill="#FFA9A9"/>
<path d="M217.79 147.037C217.79 147.037 215.948 145.446 217.04 142.204C219.325 135.536 228.817 93.5191 225.213 79.1266C221.609 64.7341 206.793 56.052 193.407 65.2131C180.022 74.3742 169.872 81.2941 162.344 99.2847C154.816 117.275 150.794 128.972 144.243 143.365C138.563 155.835 124.03 177.381 139.503 186.039C153.588 193.923 159.992 193.929 171.1 197.177C175.975 198.602 181.876 207.492 190.055 205.448C197.595 203.563 211.471 164.008 211.95 162.952C213.326 159.949 218.391 162.104 220.896 159.704C222.456 158.218 221.228 151.986 217.79 147.037Z" fill="#FF0084"/>
<path d="M193.408 65.2131C179.998 74.3742 169.873 81.2941 162.345 99.2848C154.817 117.275 151.158 132.607 144.606 146.994C138.926 159.464 124.031 177.381 139.504 186.039C153.589 193.923 159.993 193.929 171.101 197.177C171.834 197.402 172.548 197.683 173.238 198.018C180.747 193.677 177.1 183.828 183.289 164.972C199.302 116.207 219.282 108.937 223.703 107.15C224.035 107.015 224.201 106.628 224.446 106.364C229.414 95.8156 229.426 86.2738 227.952 80.3793C224.354 65.9868 206.824 56.052 193.408 65.2131Z" fill="#2929B2"/>
<path d="M198.822 58.3912C180.887 55.5422 171.192 78.93 162.344 99.2846C154.558 117.165 147.165 132.607 140.614 146.993C135.161 158.961 124.981 175.6 137.752 184.921C149.284 190.386 158.629 181.108 171.136 164.468C193.241 134.996 212.558 94.3356 216.371 85.6964C220.184 77.0573 223.739 62.3516 198.822 58.3912Z" fill="white"/>
<path d="M217.789 147.036C217.789 147.036 215.947 145.446 217.04 142.204C217.654 140.399 218.809 135.996 220.11 130.255C216.125 140.81 209.058 152.734 216.426 161.073C218.072 160.95 219.785 160.815 220.945 159.703C222.456 158.218 221.228 151.985 217.789 147.036Z" fill="white"/>
<path d="M198.822 58.3912C180.887 55.5422 171.192 78.93 162.344 99.2846C154.558 117.165 147.165 132.607 140.614 146.993C135.161 158.961 124.981 175.6 137.752 184.921C149.284 190.386 158.629 181.108 171.136 164.468C193.241 134.996 212.558 94.3356 216.371 85.6964C220.184 77.0573 223.739 62.3516 198.822 58.3912Z" fill="white"/>
<path d="M199.952 55.381C182.146 51.6601 171.21 78.9284 162.344 99.283C154.558 117.163 147.165 132.606 140.614 146.992C135.161 158.959 124.981 175.599 137.752 184.92C149.284 190.384 158.629 181.107 171.136 164.467C193.241 134.994 212.558 94.3341 216.371 85.6949C220.184 77.0557 220.792 59.7405 199.952 55.381Z" fill="#EFECEC"/>
<path d="M41.0028 230.113C51.306 229.002 41.4572 198.719 35.5504 159.305C31.3198 131.061 29.312 106.04 22.4166 95.2759C18.7325 89.5226 15.4291 88.491 12.1073 89.8234C4.12511 93.0286 -4.82101 104.419 3.72606 137.796C15.8344 185.051 23.3254 232.011 41.0028 230.113Z" fill="#EFECEC"/>
<path d="M286.313 429.551C279.098 429.551 273.191 426.893 268.912 421.624C254.237 403.591 260.052 361.15 264.294 330.136C266.137 316.659 267.733 305.017 266.941 299.497C264.35 281.359 207.167 191.553 206.589 190.651C206.546 190.582 206.531 190.499 206.548 190.42C206.565 190.34 206.613 190.271 206.681 190.227C206.75 190.183 206.833 190.168 206.912 190.186C206.992 190.203 207.061 190.251 207.105 190.319C207.253 190.546 221.719 213.247 236.326 237.905C255.975 271.062 266.456 291.73 267.549 299.411C268.353 305.017 266.83 316.137 264.902 330.216C260.672 361.095 254.882 403.382 269.385 421.213C284.465 439.756 314.49 418.868 314.822 418.653C314.855 418.629 314.892 418.612 314.932 418.603C314.971 418.594 315.012 418.593 315.052 418.6C315.092 418.607 315.13 418.621 315.164 418.643C315.199 418.665 315.228 418.693 315.252 418.726C315.297 418.793 315.315 418.874 315.301 418.953C315.287 419.032 315.243 419.103 315.178 419.15C309.857 422.726 304.073 425.558 297.985 427.568C294.218 428.819 290.282 429.488 286.313 429.551Z" fill="#231F20"/>
<path d="M166.389 243.634C163.03 243.634 161.323 242.688 161.176 242.602C161.108 242.56 161.058 242.493 161.037 242.415C161.017 242.338 161.027 242.255 161.066 242.185C161.108 242.114 161.176 242.064 161.255 242.043C161.334 242.022 161.418 242.033 161.489 242.074C161.563 242.117 169.054 246.219 184.441 236.548C197.599 228.296 206.325 211.889 211.329 199.584C217.315 184.848 219.925 171.186 219.753 166.599C219.751 166.559 219.758 166.519 219.772 166.481C219.786 166.443 219.807 166.408 219.834 166.379C219.862 166.349 219.895 166.325 219.931 166.308C219.968 166.291 220.007 166.282 220.048 166.28C220.13 166.278 220.209 166.309 220.269 166.365C220.329 166.422 220.364 166.499 220.367 166.581C220.514 171.358 217.985 184.829 211.894 199.811C206.859 212.208 198.066 228.731 184.766 237.07C176.336 242.375 170.263 243.634 166.389 243.634Z" fill="#231F20"/>
<path d="M220.879 159.79C217.766 162.7 214.739 155.031 211.951 162.952C214.088 158.955 216.71 165.009 220.879 159.79Z" fill="#2929B2"/>
<path d="M88.9148 266.191C87.9419 266.189 86.9707 266.108 86.0105 265.952C85.931 265.938 85.86 265.894 85.8129 265.828C85.7658 265.763 85.7464 265.681 85.7588 265.602C85.7648 265.562 85.7786 265.523 85.7994 265.489C85.8203 265.454 85.8478 265.424 85.8803 265.4C85.9128 265.376 85.9497 265.359 85.9889 265.349C86.0281 265.34 86.0688 265.338 86.1088 265.344C91.291 266.179 95.6936 264.73 99.1996 261.113C115.06 244.639 109.282 185.59 106.23 170.337C106.222 170.298 106.222 170.258 106.23 170.219C106.237 170.18 106.253 170.142 106.275 170.109C106.297 170.076 106.326 170.048 106.359 170.026C106.393 170.004 106.43 169.989 106.469 169.981C106.509 169.972 106.55 169.971 106.59 169.979C106.63 169.986 106.668 170.001 106.702 170.024C106.736 170.046 106.764 170.075 106.787 170.109C106.809 170.143 106.824 170.181 106.832 170.221C108.005 176.078 110.43 194.419 110.454 213.711C110.454 230.388 108.612 252.222 99.6417 261.537C98.2784 263.02 96.6194 264.2 94.7717 265.001C92.9241 265.803 90.9289 266.208 88.9148 266.191Z" fill="#231F20"/>
<path d="M346.39 272.646C347.329 273.318 348.11 274.186 348.678 275.191C349.247 276.196 349.589 277.313 349.681 278.464C349.773 279.615 349.612 280.772 349.21 281.854C348.808 282.937 348.174 283.918 347.354 284.73C341.048 291.282 334.779 295.168 339.175 295.727C346.193 296.611 370.078 280.641 379.988 273.125C376.839 264.443 346.39 272.646 346.39 272.646Z" fill="#FFA9A9"/>
<path d="M342.955 289.444C358.858 288.388 382.19 274.395 378.512 271.552L367.313 269.176C357.746 269.575 346.381 272.645 346.381 272.645C347.32 273.316 348.101 274.185 348.67 275.19C349.238 276.195 349.58 277.312 349.672 278.463C349.764 279.614 349.603 280.771 349.201 281.853C348.799 282.935 348.166 283.917 347.345 284.729C345.73 286.405 344.226 287.995 342.955 289.444Z" fill="#FF8481"/>
<path d="M396.34 235.221C392.269 226.152 379.246 225.79 355.649 234.797C331.887 243.873 329.081 257.657 339.12 269.151C347.299 278.515 357.743 278.976 370.336 273.935C370.336 273.935 376.747 275.85 379.939 273.222C385.097 268.973 379.154 268.255 379.055 265.24C378.969 262.6 402.99 250.031 396.34 235.221Z" fill="#FFA9A9"/>
<path d="M339.119 269.151C345.928 276.949 355.151 278.976 365.043 276.372C377.194 272.271 375.278 264.295 373.768 260.162C371.312 253.494 359.032 235.485 355.667 234.791C331.886 243.873 329.08 257.688 339.119 269.151Z" fill="#FFEF5F"/>
<path d="M399.888 270.811C396.382 281.55 393.871 298.386 393.699 310.721C393.515 324.334 395.652 332.212 396.1 333.747C397.635 332.384 401.559 328.159 406.759 322.375C396.646 315.302 396.739 287.641 399.888 270.811Z" fill="#FF8481"/>
<path d="M353.36 238.732C349.117 240.003 342.259 246.585 346.569 253.56C350.879 260.535 361.182 260.419 365.1 257.858C368.17 255.881 366.807 253.143 361.704 246.032C357.689 240.457 356.903 237.669 353.36 238.732Z" fill="#FFA9A9"/>
<path d="M354.371 240.692C351.872 241.196 346.18 246.679 349.047 251.321C351.915 255.963 359.424 256.196 363.17 253.85C365.22 252.567 362.599 249.878 359.148 245.561C356.409 242.147 355.636 240.44 354.371 240.692Z" fill="white"/>
<path d="M376.796 244.862C374.954 245.378 374.463 246.268 375.697 247.723C376.464 248.626 377.539 248.736 378.939 247.803C380.339 246.87 379.424 244.137 376.796 244.862Z" fill="#2929B2"/>
<path d="M367.001 232.475C365.294 233.034 364.846 233.525 366.111 234.704C366.505 235.129 367.049 235.385 367.628 235.418C368.207 235.451 368.777 235.259 369.217 234.882C370.482 233.986 369.414 231.677 367.001 232.475Z" fill="#2929B2"/>
<path d="M385.631 247.92C386.533 244.654 385.256 236.125 381.253 238.01C380.485 238.372 380.915 240.988 381.505 242.775C382.094 244.562 382.303 246.097 383.236 247.834C383.936 249.142 385.336 249.001 385.631 247.92Z" fill="#FFEF5F"/>
<path d="M378 230.837C378.166 230.321 377.288 229.523 376.195 228.823C375.271 228.358 374.218 228.219 373.206 228.429C372.194 228.638 371.282 229.184 370.619 229.977C373.303 232.139 377.091 233.741 378 230.837Z" fill="#FFEF5F"/>
<path d="M365.747 243.29C367.215 243.475 366.22 241.596 367.448 240.122C369.345 237.832 373.791 238.618 373.735 237.764C373.68 236.911 368.289 236.899 365.821 238.041C364.513 238.655 363.58 243.008 365.747 243.29Z" fill="#FF8481"/>
<path d="M372.619 257.596C374.854 262.816 380.712 263.988 386.889 258.131C393.066 252.273 383.377 270.165 380.712 267.955C378.047 265.744 375.929 268.096 372.534 271.885C369.242 275.495 372.619 257.596 372.619 257.596Z" fill="#FFEF5F"/>
<path d="M443.76 477.794C442.458 475.786 433.745 479.335 431.916 489.227C431.916 489.227 424.216 492.524 416.166 509.735C408.116 526.946 357.166 627.841 357.166 627.841L451.325 627.564C451.325 627.564 459.368 587.844 467.443 552.587C475.517 517.33 478.538 504.08 473.54 500.463C473.54 500.463 477.531 497.94 476.935 490.572C476.677 487.348 473.386 486.329 472.944 487.287C472.109 489.092 450.981 488.895 443.76 477.794Z" fill="#2929B2"/>
<path d="M436.372 492.143H436.28C436.242 492.131 436.207 492.111 436.176 492.086C436.146 492.06 436.121 492.029 436.102 491.993C436.084 491.958 436.073 491.919 436.07 491.879C436.067 491.84 436.071 491.8 436.084 491.762C438.847 483.135 443.863 480.869 444.066 480.777C444.103 480.76 444.143 480.751 444.184 480.749C444.224 480.748 444.265 480.755 444.303 480.77C444.341 480.785 444.375 480.808 444.404 480.836C444.433 480.865 444.456 480.899 444.471 480.937C444.502 481.011 444.503 481.094 444.473 481.169C444.443 481.244 444.385 481.304 444.312 481.336C444.262 481.336 439.332 483.608 436.661 491.946C436.638 492.004 436.599 492.054 436.547 492.089C436.496 492.124 436.435 492.143 436.372 492.143Z" fill="#231F20"/>
<path d="M439.474 494.813H439.382C439.343 494.801 439.307 494.782 439.276 494.756C439.245 494.73 439.219 494.698 439.201 494.662C439.183 494.625 439.172 494.586 439.169 494.546C439.166 494.505 439.172 494.465 439.185 494.426C441.948 485.83 446.965 483.54 447.167 483.448C447.241 483.415 447.326 483.412 447.402 483.441C447.478 483.47 447.539 483.527 447.573 483.601C447.589 483.638 447.598 483.678 447.598 483.719C447.599 483.759 447.592 483.799 447.577 483.837C447.562 483.875 447.54 483.909 447.512 483.938C447.484 483.967 447.45 483.99 447.413 484.007C447.364 484.007 442.433 486.278 439.762 494.617C439.739 494.674 439.699 494.724 439.648 494.759C439.597 494.794 439.536 494.813 439.474 494.813Z" fill="#231F20"/>
<path d="M434.481 489.729H434.389C434.311 489.704 434.247 489.649 434.209 489.577C434.171 489.505 434.163 489.421 434.186 489.343C436.949 480.716 441.966 478.45 442.168 478.358C442.243 478.327 442.326 478.326 442.401 478.356C442.475 478.386 442.535 478.444 442.568 478.518C442.585 478.554 442.595 478.594 442.596 478.634C442.598 478.675 442.591 478.715 442.577 478.753C442.563 478.791 442.541 478.825 442.513 478.854C442.485 478.884 442.451 478.907 442.414 478.923C442.365 478.923 437.434 481.188 434.763 489.527C434.742 489.585 434.704 489.636 434.654 489.672C434.603 489.708 434.543 489.728 434.481 489.729Z" fill="#231F20"/>
<path d="M444.748 496.657C444.72 496.663 444.69 496.663 444.662 496.657C444.623 496.647 444.587 496.63 444.555 496.605C444.523 496.581 444.496 496.55 444.477 496.515C444.457 496.48 444.445 496.441 444.441 496.401C444.437 496.361 444.441 496.321 444.453 496.283C445.658 492.453 447.416 488.821 449.672 485.5C449.72 485.435 449.792 485.39 449.872 485.376C449.953 485.363 450.035 485.381 450.102 485.427C450.135 485.45 450.164 485.48 450.185 485.514C450.207 485.548 450.222 485.586 450.229 485.626C450.235 485.666 450.234 485.707 450.225 485.747C450.216 485.786 450.199 485.824 450.176 485.857C447.955 489.116 446.225 492.685 445.043 496.448C445.023 496.51 444.983 496.564 444.93 496.602C444.877 496.639 444.813 496.659 444.748 496.657Z" fill="#231F20"/>
<path d="M448.794 498.468H448.708C448.629 498.446 448.564 498.393 448.524 498.321C448.485 498.25 448.476 498.166 448.499 498.088C449.705 494.267 451.464 490.643 453.718 487.33C453.741 487.297 453.771 487.269 453.805 487.247C453.839 487.225 453.878 487.21 453.918 487.204C453.958 487.197 453.998 487.198 454.038 487.207C454.078 487.216 454.115 487.233 454.148 487.256C454.181 487.28 454.209 487.309 454.231 487.343C454.253 487.378 454.267 487.416 454.274 487.456C454.281 487.496 454.28 487.537 454.271 487.576C454.262 487.616 454.245 487.653 454.222 487.686C452.002 490.947 450.272 494.515 449.088 498.278C449.065 498.337 449.024 498.386 448.972 498.421C448.919 498.455 448.856 498.471 448.794 498.468Z" fill="#231F20"/>
<path d="M454.003 499.192C453.952 499.191 453.901 499.179 453.856 499.155C453.821 499.136 453.789 499.111 453.764 499.08C453.739 499.049 453.72 499.013 453.708 498.975C453.697 498.937 453.693 498.896 453.697 498.857C453.702 498.817 453.714 498.778 453.733 498.743C455.575 495.28 457.878 488.502 457.896 488.434C457.908 488.395 457.929 488.359 457.955 488.328C457.982 488.297 458.014 488.271 458.051 488.253C458.088 488.235 458.128 488.224 458.168 488.221C458.209 488.219 458.25 488.224 458.289 488.238C458.366 488.265 458.428 488.322 458.464 488.395C458.499 488.469 458.505 488.553 458.479 488.631C458.479 488.698 456.134 495.52 454.273 499.026C454.248 499.076 454.209 499.117 454.161 499.146C454.114 499.176 454.059 499.191 454.003 499.192Z" fill="#231F20"/>
<path d="M463.254 500.51C463.202 500.511 463.152 500.498 463.106 500.473C463.036 500.433 462.983 500.367 462.96 500.289C462.938 500.212 462.946 500.128 462.983 500.056C465.347 495.758 466.054 489.55 466.054 489.489C466.057 489.448 466.069 489.409 466.088 489.373C466.107 489.337 466.133 489.306 466.165 489.28C466.196 489.254 466.232 489.235 466.271 489.224C466.31 489.212 466.351 489.208 466.391 489.212C466.472 489.222 466.545 489.262 466.596 489.326C466.646 489.389 466.67 489.47 466.661 489.55C466.661 489.814 465.968 495.942 463.542 500.351C463.515 500.402 463.473 500.445 463.422 500.474C463.371 500.502 463.312 500.515 463.254 500.51Z" fill="#231F20"/>
<path d="M459.369 500.253C459.318 500.253 459.267 500.24 459.222 500.216C459.151 500.176 459.099 500.11 459.076 500.032C459.053 499.954 459.061 499.87 459.099 499.798C461.463 495.5 462.138 489.293 462.169 489.231C462.172 489.191 462.183 489.152 462.202 489.116C462.22 489.08 462.245 489.049 462.276 489.023C462.307 488.997 462.343 488.978 462.382 488.966C462.42 488.955 462.46 488.951 462.5 488.955C462.541 488.959 462.58 488.971 462.616 488.99C462.652 489.009 462.683 489.035 462.709 489.066C462.735 489.098 462.754 489.134 462.766 489.173C462.777 489.211 462.781 489.252 462.777 489.293C462.777 489.551 462.083 495.684 459.658 500.093C459.63 500.144 459.588 500.187 459.537 500.215C459.486 500.243 459.427 500.256 459.369 500.253Z" fill="#231F20"/>
<path d="M469.969 500.837C469.897 500.836 469.828 500.81 469.773 500.763C469.742 500.738 469.716 500.706 469.697 500.671C469.679 500.635 469.667 500.596 469.664 500.556C469.66 500.516 469.665 500.476 469.677 500.438C469.69 500.399 469.71 500.364 469.736 500.333C471.032 498.841 471.93 497.045 472.344 495.112C472.758 493.18 472.677 491.174 472.106 489.281C472.078 489.205 472.081 489.122 472.115 489.048C472.148 488.975 472.209 488.917 472.284 488.888C472.322 488.873 472.363 488.866 472.403 488.867C472.444 488.868 472.484 488.877 472.521 488.894C472.558 488.91 472.592 488.934 472.619 488.964C472.647 488.993 472.669 489.028 472.683 489.066C473.291 491.06 473.384 493.175 472.955 495.215C472.525 497.255 471.587 499.153 470.227 500.733C470.196 500.769 470.156 500.798 470.111 500.816C470.066 500.834 470.018 500.841 469.969 500.837Z" fill="#231F20"/>
<path d="M472.555 500.501C472.483 500.5 472.413 500.474 472.359 500.427C472.328 500.401 472.302 500.37 472.283 500.334C472.264 500.299 472.253 500.26 472.25 500.22C472.246 500.18 472.251 500.139 472.263 500.101C472.276 500.063 472.296 500.028 472.322 499.997C473.617 498.504 474.513 496.708 474.927 494.776C475.342 492.843 475.261 490.838 474.692 488.945C474.677 488.907 474.67 488.867 474.671 488.826C474.672 488.785 474.681 488.745 474.698 488.708C474.714 488.671 474.738 488.638 474.768 488.61C474.797 488.582 474.832 488.56 474.87 488.546C474.947 488.518 475.031 488.522 475.105 488.557C475.178 488.591 475.235 488.654 475.263 488.73C475.874 490.724 475.969 492.84 475.54 494.88C475.11 496.92 474.17 498.818 472.807 500.396C472.776 500.432 472.737 500.46 472.694 500.479C472.65 500.497 472.603 500.504 472.555 500.501Z" fill="#231F20"/>
<path d="M467.044 500.932C466.972 500.93 466.902 500.904 466.847 500.858C466.816 500.832 466.79 500.801 466.772 500.765C466.753 500.73 466.741 500.691 466.738 500.651C466.734 500.611 466.739 500.57 466.752 500.532C466.764 500.494 466.784 500.459 466.81 500.428C468.106 498.936 469.004 497.14 469.418 495.207C469.833 493.274 469.751 491.268 469.18 489.376C469.153 489.299 469.157 489.215 469.191 489.141C469.226 489.068 469.288 489.011 469.365 488.983C469.44 488.955 469.524 488.958 469.598 488.991C469.671 489.025 469.729 489.086 469.757 489.161C470.367 491.155 470.461 493.27 470.032 495.31C469.602 497.35 468.663 499.248 467.301 500.827C467.27 500.864 467.23 500.892 467.185 500.91C467.14 500.928 467.092 500.936 467.044 500.932Z" fill="#231F20"/>
<path d="M513.838 585.185C513.838 585.185 517.522 581.826 516.183 597.613C515.393 607.675 515.393 617.784 516.183 627.847L451.325 627.564L449.004 612.06L513.838 585.185Z" fill="#FF0084"/>
<path d="M513.8 589.868C513.996 596.242 462.443 626.243 450.654 616.56C435.574 604.163 513.143 568.894 513.8 589.868Z" fill="#231F20"/>
<path d="M465.194 617.133C468.614 600.88 489.533 521.715 494.402 504.676C499.615 486.421 510.919 458.975 515.69 459.202C520.252 459.417 507.561 484.334 511.202 485.5C514.456 486.544 536.284 459.208 542.351 457.409C546.999 456.034 542.928 463.224 542.928 463.224C542.928 463.224 550.99 457.452 551.61 463.605C555.141 463.912 551.457 471.439 551.457 471.439C551.457 471.439 554.68 475.124 544.088 485.562C540.042 489.547 517.207 509.263 515.696 524.429C512.319 558.286 514.045 581.575 513.775 589.778C513.541 596.625 483.522 614.548 465.194 617.133Z" fill="#FFA9A9"/>
<path d="M273.181 597.288C270.54 597.288 268.692 596.575 267.796 595.157C264.83 590.454 272.303 580.617 285.602 571.781C285.738 571.693 285.903 571.661 286.061 571.693C286.22 571.725 286.359 571.819 286.449 571.953C286.539 572.088 286.572 572.253 286.541 572.411C286.51 572.57 286.417 572.71 286.284 572.801C275.52 579.972 266.058 590.055 268.87 594.506C270.049 596.348 273.899 596.582 279.437 595.077C285.283 593.487 292.332 590.202 299.27 585.818C306.208 581.434 312.214 576.497 316.168 571.904C319.907 567.557 321.381 563.99 320.202 562.123C319.888 561.653 319.441 561.287 318.919 561.073C318.845 561.04 318.778 560.994 318.722 560.935C318.667 560.877 318.623 560.808 318.594 560.733C318.565 560.657 318.551 560.577 318.553 560.497C318.555 560.416 318.573 560.336 318.605 560.263C318.638 560.189 318.685 560.122 318.743 560.066C318.802 560.011 318.87 559.967 318.946 559.938C319.021 559.909 319.101 559.895 319.182 559.897C319.263 559.899 319.342 559.917 319.416 559.949C320.17 560.256 320.812 560.785 321.258 561.466C322.768 563.855 321.295 567.852 317.113 572.709C313.085 577.387 306.988 582.416 299.921 586.831C292.854 591.246 285.713 594.617 279.751 596.238C277.616 596.873 275.407 597.226 273.181 597.288Z" fill="white"/>
<path d="M394.895 446.846C392.366 446.318 389.332 440.872 386.195 434.357C388.362 443.389 389.596 449.155 391.003 450.567C393.459 452.992 396.854 447.792 398.635 441.486C397.284 444.752 396.019 447.073 394.895 446.846Z" fill="#E85353"/>
<path d="M324.61 514.265L324.23 513.786C324.991 513.172 342.92 498.822 348.072 499.602C348.315 499.623 348.551 499.696 348.763 499.817C348.975 499.938 349.158 500.103 349.3 500.302L348.79 500.646C348.699 500.52 348.581 500.416 348.445 500.339C348.31 500.263 348.159 500.217 348.004 500.204C343.092 499.461 324.795 514.117 324.61 514.265Z" fill="#FF8481"/>
<path d="M378.63 350.631C382.277 351.689 385.862 352.95 389.369 354.407C396.737 351.061 409.208 348.881 409.435 344.835C409.435 344.835 404.99 345.86 400.839 341.028C399.161 342.059 397.421 343.04 395.62 343.969C390.181 346.725 384.492 348.955 378.63 350.631Z" fill="#2929B2"/>
<path d="M370.255 350.633C380.567 341.936 388.667 330.915 393.888 318.477C393.412 312.793 393.4 307.08 393.851 301.395H379.974C375.91 317.924 366.417 331.359 351.613 341.471C346.211 345.139 340.426 348.206 334.359 350.62C340.423 353.034 346.205 356.104 351.601 359.775C361.867 366.781 369.567 375.396 374.688 385.527C378.231 376.09 380.914 368.482 382.609 363.496C378.934 358.804 374.795 354.494 370.255 350.633Z" fill="#2929B2"/>
<path d="M369.198 399.855H346.781C351.017 401.847 355.027 404.289 358.742 407.138C360.7 408.658 362.562 410.299 364.317 412.05C366.036 407.825 367.67 403.748 369.198 399.855Z" fill="#2929B2"/>
<path d="M373.67 277.152C369.829 283.713 364.761 289.475 358.743 294.123C355.029 296.975 351.016 299.417 346.776 301.405H372.859C383.298 291.777 390.598 279.522 394.774 264.767C388.142 268.291 379.835 273.271 373.67 277.152Z" fill="#2929B2"/>
<path d="M521.794 264.793C523.857 274.427 540.46 264.793 536.629 257.609C532.797 250.425 520.358 258.088 521.794 264.793Z" fill="white"/>
<path d="M520.358 305.476C522.814 311.818 550.513 293.987 547.645 288.246C544.778 282.505 517.006 296.861 520.358 305.476Z" fill="#FFEF5F"/>
<path d="M524.182 350.478C529.395 354.383 536.628 345.688 532.778 342.815C528.928 339.941 520.356 347.604 524.182 350.478Z" fill="#00DC7F"/>
<path d="M443.287 134.106C450.772 141.56 481.104 100.593 476.315 98.6586C471.525 96.7244 460.037 93.8693 467.221 90.5168C474.405 87.1642 487.803 73.7665 482.571 70.8683C477.34 67.9702 454.806 86.6608 447.143 92.8869C439.48 99.113 454.327 104.854 456.721 106.77C459.116 108.685 441.371 132.19 443.287 134.106Z" fill="#FF0084"/>
<path d="M384.402 117.349C392.999 116.778 392.999 131.711 386.797 133.148C380.596 134.585 377.225 117.828 384.402 117.349Z" fill="white"/>
<path d="M392.064 32.1432C396.59 32.4625 389.191 66.6078 384.401 65.65C379.612 64.6921 385.359 31.6643 392.064 32.1432Z" fill="#00DC7F"/>
<path d="M326.961 7.73027C332.757 8.25833 331.259 17.7817 326.003 17.3028C320.747 16.8238 321.693 7.25134 326.961 7.73027Z" fill="white"/>
<path d="M233.611 0.0668945C238.965 0.0668945 259.94 29.7483 252.762 33.1009C245.584 36.4534 244.166 35.9683 248.464 46.5048C252.762 57.0413 255.642 68.0444 253.253 69.4812C250.865 70.918 238.891 49.8327 234.102 45.5346C229.313 41.2365 233.144 31.1729 238.891 25.8862C244.639 20.5995 236.018 11.0455 233.623 7.69909C231.228 4.35271 230.737 0.0668945 233.611 0.0668945Z" fill="#FFEF5F"/>
<path d="M2.87855 326.544C0.348809 334.974 37.8282 360.05 42.1324 352.872C46.4367 345.695 5.75214 316.965 2.87855 326.544Z" fill="#00DC7F"/>
<path d="M75.1677 329.411C84.8016 330.486 81.3876 342.336 74.2098 340.427C67.032 338.517 70.8573 328.914 75.1677 329.411Z" fill="#FFEF5F"/>
<path d="M1.44192 413.089C-0.43696 419.481 29.2077 429.84 32.0812 424.578C34.9548 419.315 3.83658 404.947 1.44192 413.089Z" fill="#FF0084"/>
<path d="M76.8363 475.153H76.7687C67.7182 473.01 60.571 468.589 54.83 465.04C51.7047 463.106 49.003 461.436 46.6513 460.539C46.5764 460.508 46.5164 460.449 46.4833 460.375C46.4503 460.301 46.4467 460.217 46.4733 460.14C46.5046 460.066 46.5637 460.006 46.6381 459.974C46.7125 459.942 46.7965 459.94 46.8723 459.968C49.2793 460.883 51.9994 462.566 55.1493 464.518C60.8596 468.049 67.9576 472.439 76.9099 474.557C76.9888 474.576 77.0569 474.626 77.0995 474.695C77.1421 474.764 77.1556 474.847 77.1371 474.926C77.1194 474.992 77.0802 475.05 77.0257 475.091C76.9712 475.132 76.9045 475.154 76.8363 475.153Z" fill="#E85353"/>
<path d="M498.468 439.369C498.402 439.369 498.339 439.348 498.286 439.309C498.233 439.27 498.194 439.216 498.173 439.154C498.161 439.115 498.157 439.074 498.16 439.033C498.164 438.992 498.176 438.953 498.196 438.917C498.215 438.881 498.242 438.849 498.274 438.823C498.306 438.798 498.342 438.779 498.382 438.767C502.459 437.539 513.659 432.308 518.7 429.041C518.768 428.997 518.851 428.983 518.93 429C519.01 429.017 519.079 429.065 519.123 429.133C519.146 429.167 519.161 429.205 519.169 429.245C519.176 429.284 519.176 429.325 519.167 429.365C519.159 429.404 519.142 429.442 519.119 429.475C519.095 429.508 519.066 429.536 519.031 429.557C513.953 432.848 502.668 438.123 498.56 439.381C498.529 439.383 498.497 439.379 498.468 439.369Z" fill="#E85353"/>
</g>
<defs>
<clipPath id="clip0_44_8355">
<rect width="590.12" height="625.81" fill="white" transform="translate(0.31543 0.0668945)"/>
</clipPath>
</defs>
</svg>
