<svg width="1440" height="219" viewBox="0 0 1440 219" fill="none" xmlns="http://www.w3.org/2000/svg">
<path d="M0 0H1440V217.832H0V0Z" fill="#0077FF"/>
<mask id="mask0_103_415" style="mask-type:alpha" maskUnits="userSpaceOnUse" x="2" y="7" width="1438" height="212">
<rect x="2" y="7" width="1437.92" height="211.247" fill="#E9F1FE"/>
</mask>
<g mask="url(#mask0_103_415)">
<path d="M641.131 1422.7L856.266 1298.49C1072.12 1173.87 1287.96 1049.25 1503.81 924.63C1643 844.269 1782.19 763.908 1921.38 683.547L1968.69 765.487C1966.12 766.97 1963.56 768.452 1960.97 769.945L1335.14 1131.27C1259.92 1174.7 1184.7 1218.12 1109.48 1261.55C970.949 1341.53 832.409 1421.52 693.863 1501.51C692.03 1502.57 690.288 1503.83 688.355 1505.08L641.131 1422.7ZM510.114 1196.35C576.888 1151.52 643.954 1109.07 711.892 1067.51L717.744 1076.71C752.63 1053.99 787.209 1031.46 821.973 1009.2C856.737 986.944 891.747 965.111 926.761 943.018L933.16 953.032C1002.1 906.207 1072.25 862.004 1143.37 818.372L1148.59 827.419C1218.72 782.558 1288.45 737.951 1358.47 693.177L1365.27 703.526C1433.8 656.916 1503.53 613.107 1574.03 569.702L1580.28 579.316C1591.82 571.673 1602.87 564.24 1614.03 556.95C1636.22 542.436 1658.41 527.904 1680.7 513.546C1699.25 501.601 1717.88 489.778 1736.61 478.076C1752.81 467.977 1769.2 458.156 1785.5 448.23L1832.27 529.245C1831.25 530.015 1830.28 530.882 1829.18 531.567C1809.98 543.554 1790.7 555.405 1771.57 567.527C1745.57 584.007 1719.6 600.544 1693.78 617.332C1673.41 630.557 1653.32 644.215 1633.11 657.679C1630.89 659.171 1628.71 660.759 1625.98 662.67L1619.57 651.559C1549.64 696.408 1480.28 740.902 1410.59 785.586L1404.19 775.882C1334.04 820.883 1264.36 865.587 1194.53 910.379L1188.24 900.589C1118.15 945.526 1048.48 990.23 978.52 1035.12L972.213 1025.31C902.555 1070 833.233 1114.47 763.429 1159.23L757.492 1150.1C690.065 1192.19 622.989 1233.65 557.787 1278.39L510.114 1196.35ZM376.252 964.496L379.192 969.588C442.629 919.872 508.588 875.103 575.98 831.077L587.45 850.945C652.902 799.011 721.278 752.59 790.991 706.966L802.517 726.93C868.106 674.789 936.849 628.155 1006.98 582.237L1018.49 602.163C1084.21 549.993 1152.92 503.332 1223.17 457.396L1234.65 477.283C1300.1 425.35 1368.5 378.917 1438.19 333.304L1449.65 353.153C1460.67 344.684 1471.1 336.4 1481.76 328.521C1503.43 312.562 1525.02 296.679 1546.9 281.087C1564.25 268.703 1581.84 256.693 1599.51 244.769C1615.95 233.657 1632.62 222.9 1649.19 212.001L1696.51 293.96C1627.79 338.775 1560.1 385.005 1495.99 437.427L1483.8 416.306C1414.16 462.194 1345.57 508.429 1280.97 561.469L1268.78 540.367C1198.8 586.506 1129.87 632.911 1065.03 686.295L1052.78 665.077C982.72 711.26 913.719 757.759 848.947 811.049L836.697 789.831C766.931 835.897 698.321 882.093 633.706 935.164L621.723 914.409C620.861 914.795 620.02 915.229 619.206 915.709C584.372 939.318 549.191 962.459 514.836 986.717C486.566 1006.72 459.341 1028.17 431.464 1048.71C427.283 1051.77 427.854 1053.96 430.056 1057.73L376.252 964.496ZM244.765 736.798L247.916 742.257C308.159 688.033 372.742 640.613 439.283 594.891L456.355 624.461C518.402 567.343 585.378 518.362 654.437 470.671L671.588 500.377C733.722 443.054 801.185 393.713 870.48 345.939L887.586 375.568C949.618 318.381 1017.02 269.104 1086.44 221.202L1102.79 249.519C1135.43 222.958 1167.22 196.169 1199.98 170.49C1232.74 144.81 1266.53 120.805 1301.62 97.2008L1318.6 126.617C1320.33 125.155 1321.56 124.113 1322.81 123.079C1350.04 100.239 1376.89 76.9915 1404.58 54.7319C1425.5 37.9205 1447.37 22.309 1468.99 6.35355C1483.34 -4.14311 1498.13 -14.0175 1512.79 -24.0735L1560.11 57.8862C1492.41 105.224 1425.6 153.677 1366.11 212.786L1347.32 180.227C1278.48 228.662 1210.86 277.193 1151.02 336.713L1132.31 304.307C1063.15 352.882 995.152 401.706 935.082 461.489L916.339 429.025C847.068 477.686 779.135 526.526 718.952 586.426L700.153 553.866C631.434 602.234 563.812 650.766 503.965 710.266L485.734 678.689C481.956 680.611 478.284 682.731 474.731 685.042C445.571 706.352 416.314 727.539 387.427 749.233C356.989 771.92 327.944 796.419 300.451 822.595C297.419 825.503 297.13 827.676 299.312 831.457L244.765 736.798ZM113.536 509.415C114.427 510.958 115.461 512.393 116.616 514.17C173.313 455.588 236.704 405.924 302.728 358.237L325.235 397.221C383.384 335.358 449.318 283.814 517.913 234.026L540.52 273.183C598.891 210.858 665.145 159.155 733.898 109.327L756.538 148.542C785.337 117.624 816.238 88.7317 849.022 62.0724C881.492 35.1727 914.86 9.42671 949.921 -15.2139L972.339 23.6149C1030.51 -38.2592 1096.44 -89.8029 1165.04 -139.591L1187.61 -100.492C1188.6 -101.4 1189.03 -101.725 1189.4 -102.117C1217.81 -132.592 1248.34 -161.028 1280.75 -187.211C1302.94 -205.396 1325.66 -222.915 1348.36 -240.492C1357.41 -247.496 1367.01 -253.833 1376.37 -260.446L1423.69 -178.486C1356.4 -128.937 1290.57 -77.739 1236.49 -12.0794L1210.88 -56.4445C1142.74 -5.42631 1075.74 45.5231 1021.39 111.828L995.876 67.636C927.342 118.778 859.994 170.057 805.293 236.822L779.679 192.457C711.237 243.623 643.855 294.845 589.318 361.67L563.704 317.305C495.553 368.174 428.545 419.284 374.044 485.728L348.697 441.826C347.421 442.691 346.629 443.148 345.905 443.72C316.913 466.168 287.521 488.102 259.076 511.186C226.93 536.848 197.132 565.319 170.034 596.26C167.296 599.41 166.554 601.69 168.934 605.768L113.536 509.415ZM-18.4489 280.899L-15.4086 286.165C38.1304 223.183 100.194 170.865 166.016 121.623L193.779 169.711C248.059 103.241 312.74 48.9482 381.124 -2.54362L409.021 45.7754C463.635 -21.2739 528.59 -75.6725 597.028 -127.247L624.869 -79.0245C679.512 -145.936 744.466 -200.514 813.225 -252.069L840.988 -203.981C895.279 -270.432 959.941 -324.713 1028.15 -376.055L1055.99 -327.832C1057.43 -329.356 1058.43 -330.394 1059.38 -331.46C1078.37 -352.067 1096.52 -373.272 1116.24 -393.015C1146.46 -423.322 1179.39 -450.669 1213 -477.168C1221.7 -483.99 1230.97 -490.119 1239.94 -496.608L1287.26 -414.649C1285.26 -413.31 1283.14 -412.115 1281.26 -410.644C1247.58 -384.874 1215.31 -357.32 1184.58 -328.102C1156.32 -300.728 1129.29 -272.291 1109.22 -238.095C1108.57 -237.333 1107.83 -236.649 1107.03 -236.056L1074.34 -292.67C1040 -266.944 1007.1 -239.361 975.776 -210.045C944.499 -180.543 914.876 -149.603 892.16 -111.515L859.073 -168.823C791.11 -114.821 723.63 -61.4076 675.852 13.1138L643.289 -43.2877C642.71 -43.1241 642.154 -42.8896 641.633 -42.5891C611.744 -17.7714 581.183 6.32834 552.186 32.2001C517.675 62.8757 485.576 95.9905 461.818 136.197C461.307 136.759 460.73 137.257 460.099 137.679L427.191 80.6792C359.475 134.486 292.384 187.726 244.737 261.761L212.307 205.591C211.597 205.828 210.909 206.13 210.254 206.493C176.097 232.233 143.313 259.745 112.038 288.917C85.3955 314.098 59.9999 340.591 39.1317 371.003C38.0228 372.31 37.3897 373.954 37.3361 375.667C37.2824 377.38 37.8112 379.059 38.8361 380.432L-18.4489 280.899ZM-150.579 52.1325C-149.621 53.7913 -148.528 55.3724 -147.196 57.4577C-122.629 24.1638 -95.0728 -6.81951 -64.871 -35.1062C-35.0819 -63.6922 -3.53685 -90.3916 29.5799 -115.048L62.2325 -58.4921C112.817 -129.49 176.061 -186.45 244.665 -239.433L277.562 -182.453C328.194 -253.813 391.701 -310.899 460.368 -363.995L493.265 -307.015C544.021 -378.472 607.632 -435.644 676.415 -488.807L709.246 -431.942C759.827 -502.99 823.08 -559.981 891.625 -612.93L924.478 -556.027C925.606 -557.372 926.217 -558.008 926.764 -558.71C936.343 -571.184 945.6 -584.039 955.573 -596.098C988.785 -636.156 1026.64 -671.515 1066.42 -704.874C1078.32 -714.853 1090.82 -724.1 1103.02 -733.719L1150.33 -651.779C1148.82 -650.42 1147.37 -648.966 1145.78 -647.712C1109.43 -619.329 1075.44 -588.043 1044.15 -554.163C1018.47 -525.986 994.673 -496.456 979.872 -460.751C979.412 -460.129 978.863 -459.578 978.242 -459.116L938.15 -528.557C937.27 -528.282 936.421 -527.913 935.62 -527.456C933.669 -526.021 931.801 -524.531 929.914 -523.03C891.508 -493.06 855.761 -459.832 823.071 -423.718C801.932 -400.016 782.412 -375.116 768.58 -346.246C766.972 -342.746 765.441 -339.29 763.269 -334.538L722.865 -404.519C721.125 -403.66 719.442 -402.688 717.827 -401.611C682.083 -373.026 647.666 -342.946 616.547 -309.291C589.293 -279.821 563.912 -248.888 548.19 -211.391C548.083 -211.175 547.592 -211.046 546.604 -210.707L506.512 -280.148C503.44 -277.757 500.957 -275.861 498.516 -273.937C461.441 -244.968 426.827 -212.983 395.027 -178.309C370.098 -150.697 347.076 -121.743 332.65 -86.9491C332.159 -86.3661 331.583 -85.8599 330.942 -85.4485L290.583 -155.352C287.577 -153.025 285.091 -151.179 282.65 -149.255C246.173 -120.742 212.067 -89.3191 180.669 -55.2958C155.269 -27.3854 131.861 1.97151 117 37.1707C116.896 37.4365 116.421 37.505 115.572 37.9954L75.8028 -30.8862C73.9925 -29.9994 72.2448 -28.9903 70.5717 -27.866C34.5436 0.984851 -0.107227 31.3297 -31.4371 65.2866C-54.3961 90.1155 -75.6862 116.141 -91.5579 146.291C-92.4124 147.659 -92.8435 149.248 -92.797 150.86C-92.7505 152.471 -92.2286 154.032 -91.2966 155.347L-150.579 52.1325ZM-282.935 -176.58C-282.067 -175.076 -281.024 -173.672 -279.806 -171.829C-233.473 -242.79 -173.679 -299.842 -107.538 -352.097L-69.8292 -286.783C-46.9631 -324.701 -19.6386 -358.017 10.3928 -389.141C40.6511 -420.446 73.1653 -449.49 107.673 -476.04L145.348 -410.785C192.087 -486.481 254.521 -546.138 323.4 -600.873L361.264 -535.29C384.251 -573.534 411.759 -607.111 442.025 -638.498C472.352 -669.921 504.986 -699.035 539.652 -725.598L577.194 -660.574C623.83 -735.825 685.961 -795.204 754.696 -849.831L792.36 -784.594C799.712 -795.577 806.322 -806.106 813.569 -816.155C856.329 -875.562 908.794 -925.426 965.909 -970.669L1013.8 -887.725C1007.91 -882.939 1001.92 -878.296 996.154 -873.347C958.308 -840.823 922.966 -805.836 893.38 -765.427C875.414 -740.91 859.779 -715.165 852.071 -685.407C851.712 -684.068 851.25 -682.773 850.377 -680.006L800.83 -765.823C798.775 -764.122 797.359 -762.919 795.94 -761.766C756.994 -729.944 720.655 -695.436 689.251 -656.035C665.91 -626.742 645.304 -595.787 635.707 -558.87C635.634 -558.596 635.128 -558.535 634.329 -557.868L585.818 -641.892C581.669 -638.468 578.099 -635.558 574.57 -632.62C535.61 -600.199 499.315 -565.124 468.276 -524.957C447.122 -497.493 428.816 -468.483 419.904 -434.302C419.798 -433.906 419.269 -433.575 418.49 -432.739L369.734 -517.187C364.131 -512.538 358.957 -508.393 353.925 -504.047C316.251 -472.163 281.039 -437.842 251.124 -398.402C230.472 -371.227 212.402 -342.611 204.141 -308.908C204.035 -308.512 203.453 -308.227 202.679 -307.472L154.024 -391.746C153.306 -391.563 153.084 -391.59 152.941 -391.482C147.933 -387.407 142.841 -383.387 137.919 -379.208C100.292 -347.196 65.0468 -312.934 35.0993 -273.551C14.8406 -246.809 -2.92731 -218.65 -11.3375 -185.607C-11.4437 -185.211 -12.0257 -184.926 -13.0006 -184.029L-61.5563 -268.13C-65.5617 -264.815 -68.9471 -261.986 -72.363 -259.165C-109.929 -227.985 -144.862 -194.16 -175.331 -155.994C-193.596 -132.975 -209.687 -108.511 -220.824 -81.1713C-221.909 -78.9791 -222.401 -76.5413 -222.252 -74.1008C-222.103 -71.6604 -221.317 -69.302 -219.973 -67.2598L-282.935 -176.58ZM-412.646 -401.291C-391.702 -438.107 -366.482 -472.325 -337.511 -503.232C-308.898 -534.271 -277.821 -562.947 -244.586 -588.98L-202.434 -515.971C-159.734 -595.276 -98.6638 -657.205 -29.6108 -713.199L12.8306 -639.688C55.6384 -719.519 117.006 -781.825 186.564 -838.059L228.883 -764.76C271.65 -844.438 333.084 -906.629 402.76 -962.88L444.935 -889.832C487.621 -969.027 548.771 -1030.95 617.844 -1086.96L660.163 -1013.66C660.698 -1014.26 661.19 -1014.89 661.636 -1015.56C686.654 -1063.26 719.588 -1105.14 757.694 -1142.83C780.642 -1165.49 805.224 -1186.22 829.095 -1207.82L876.982 -1124.87C868.039 -1117.14 859.038 -1109.37 850.319 -1101.38C813.861 -1067.7 780.57 -1031.3 754.774 -988.603C741.273 -966.251 730.324 -942.776 725.472 -916.853C724.621 -912.221 724.013 -907.523 723.319 -902.751L722.182 -902.403L664.271 -1002.71C655.21 -994.774 646.72 -987.635 638.658 -980.202C600.969 -945.892 566.675 -908.732 539.921 -865.021C526.586 -843.228 515.837 -820.253 510.52 -795.091C509.442 -789.916 508.794 -784.707 507.551 -777.945L449.34 -878.77C441.498 -871.979 434.149 -865.807 427.041 -859.44C391.197 -827.327 358.309 -792.547 331.66 -752.266C311.926 -722.431 296.298 -690.879 292.188 -654.711C292.277 -654.557 291.647 -654.399 290.798 -653.909L233.288 -753.518C231.732 -752.337 230.668 -751.594 229.717 -750.788C226.456 -748.056 223.183 -745.344 219.944 -742.573C181.839 -709.385 146.692 -673.302 118.325 -631.359C100.011 -604.326 84.8123 -575.773 78.5477 -543.248C77.6576 -538.594 77.0689 -533.907 76.0674 -527.439L17.2438 -629.325C7.00932 -620.304 -2.7804 -612.029 -12.1484 -603.379C-48.365 -569.996 -81.441 -533.848 -107.172 -491.575C-122.921 -465.714 -135.302 -438.48 -138.681 -407.955C-138.758 -407.242 -139.347 -406.568 -140.101 -405.155L-197.722 -504.957C-201.083 -502.219 -204.106 -499.831 -207.011 -497.331C-244.879 -464.846 -279.612 -429.695 -308.448 -388.923C-327.193 -362.412 -342.983 -334.392 -350.886 -302.567C-351.585 -299.72 -351.299 -299.937 -349.726 -293.335L-412.646 -401.291Z" fill="#0066DE"/>
</g>
</svg>
