<svg width="1440" height="501" viewBox="0 0 1440 501" fill="none" xmlns="http://www.w3.org/2000/svg">
<rect x="0.224121" y="0.605469" width="1442" height="500" fill="#0077FF"/>
<mask id="mask0_103_411" style="mask-type:alpha" maskUnits="userSpaceOnUse" x="-2" y="0" width="1441" height="501">
<rect x="-1.20898" y="0.942383" width="1440" height="500" fill="#E9F1FE"/>
</mask>
<g mask="url(#mask0_103_411)">
<path d="M619.313 1607.87L834.449 1483.66C1050.3 1359.04 1266.15 1234.42 1482 1109.8C1621.19 1029.44 1760.38 949.078 1899.57 868.717L1946.87 950.657C1944.31 952.14 1941.74 953.622 1939.15 955.115L1313.32 1316.44C1238.1 1359.87 1162.88 1403.29 1087.66 1446.72C949.132 1526.7 810.592 1606.69 672.046 1686.68C670.212 1687.74 668.47 1689 666.538 1690.25L619.313 1607.87ZM488.296 1381.52C555.071 1336.69 622.137 1294.24 690.075 1252.68L695.926 1261.88C730.813 1239.16 765.391 1216.63 800.155 1194.37C834.92 1172.11 869.93 1150.28 904.944 1128.19L911.343 1138.2C980.284 1091.38 1050.43 1047.17 1121.55 1003.54L1126.77 1012.59C1196.9 967.728 1266.63 923.121 1336.66 878.347L1343.45 888.696C1411.98 842.086 1481.71 798.278 1552.21 754.872L1558.46 764.486C1570 756.843 1581.05 749.41 1592.21 742.12C1614.41 727.607 1636.59 713.074 1658.88 698.716C1677.43 686.771 1696.07 674.948 1714.79 663.246C1730.99 653.147 1747.38 643.326 1763.68 633.4L1810.45 714.415C1809.43 715.185 1808.46 716.052 1807.37 716.737C1788.16 728.724 1768.88 740.575 1749.76 752.698C1723.75 769.177 1697.78 785.714 1671.96 802.502C1651.59 815.727 1631.5 829.385 1611.3 842.849C1609.07 844.341 1606.9 845.929 1604.17 847.84L1597.75 836.729C1527.82 881.578 1458.46 926.072 1388.77 970.756L1382.37 961.052C1312.22 1006.05 1242.55 1050.76 1172.71 1095.55L1166.42 1085.76C1096.34 1130.7 1026.66 1175.4 956.703 1220.29L950.396 1210.48C880.737 1255.17 811.416 1299.64 741.611 1344.4L735.675 1335.27C668.248 1377.36 601.172 1418.82 535.97 1463.56L488.296 1381.52ZM354.434 1149.67L357.374 1154.76C420.811 1105.04 486.771 1060.27 554.162 1016.25L565.633 1036.11C631.084 984.181 699.461 937.76 769.173 892.136L780.7 912.1C846.289 859.959 915.032 813.325 985.166 767.407L996.67 787.333C1062.4 735.163 1131.1 688.502 1201.35 642.566L1212.83 662.453C1278.29 610.52 1346.68 564.087 1416.37 518.474L1427.83 538.323C1438.85 529.854 1449.28 521.57 1459.94 513.691C1481.61 497.732 1503.2 481.849 1525.08 466.257C1542.43 453.873 1560.03 441.863 1577.7 429.939C1594.14 418.827 1610.81 408.07 1627.37 397.171L1674.69 479.13C1605.98 523.945 1538.29 570.175 1474.17 622.597L1461.98 601.476C1392.34 647.364 1323.75 693.599 1259.15 746.639L1246.96 725.537C1176.98 771.676 1108.06 818.081 1043.21 871.465L1030.96 850.247C960.902 896.43 891.901 942.929 827.13 996.219L814.88 975.001C745.114 1021.07 676.504 1067.26 611.889 1120.33L599.906 1099.58C599.043 1099.97 598.203 1100.4 597.388 1100.88C562.555 1124.49 527.373 1147.63 493.018 1171.89C464.748 1191.89 437.524 1213.34 409.646 1233.88C405.466 1236.94 406.036 1239.13 408.238 1242.9L354.434 1149.67ZM222.947 921.969L226.099 927.428C286.341 873.203 350.924 825.783 417.465 780.061L434.538 809.631C496.585 752.513 563.56 703.532 632.62 655.841L649.77 685.547C711.905 628.224 779.368 578.884 848.662 531.109L865.768 560.738C927.801 503.551 995.198 454.274 1064.62 406.372L1080.97 434.689C1113.61 408.128 1145.4 381.339 1178.16 355.66C1210.93 329.98 1244.71 305.975 1279.8 282.371L1296.79 311.787C1298.52 310.325 1299.74 309.283 1301 308.249C1328.22 285.409 1355.08 262.161 1382.76 239.902C1403.68 223.091 1425.56 207.479 1447.18 191.524C1461.53 181.027 1476.31 171.153 1490.97 161.097L1538.29 243.056C1470.6 290.394 1403.78 338.848 1344.3 397.957L1325.5 365.397C1256.66 413.832 1189.04 462.363 1129.2 521.883L1110.49 489.477C1041.33 538.052 973.335 586.876 913.265 646.659L894.522 614.195C825.25 662.856 757.318 711.696 697.134 771.596L678.336 739.036C609.616 787.404 541.995 835.936 482.147 895.436L463.916 863.859C460.139 865.781 456.466 867.901 452.914 870.212C423.754 891.523 394.497 912.709 365.609 934.403C335.172 957.09 306.127 981.589 278.633 1007.77C275.602 1010.67 275.312 1012.85 277.495 1016.63L222.947 921.969ZM91.7187 694.585C92.6096 696.128 93.6439 697.563 94.7984 699.34C151.496 640.758 214.886 591.094 280.911 543.407L303.418 582.391C361.567 520.528 427.501 468.984 496.096 419.196L518.703 458.353C577.074 396.028 643.328 344.325 712.08 294.497L734.721 333.712C763.52 302.794 794.421 273.902 827.204 247.242C859.674 220.343 893.043 194.597 928.104 169.956L950.522 208.785C1008.69 146.911 1074.62 95.3672 1143.22 45.5792L1165.79 84.6784C1166.79 83.7701 1167.22 83.4447 1167.58 83.0534C1195.99 52.5778 1226.52 24.1424 1258.93 -2.04057C1281.12 -20.2259 1303.84 -37.7451 1326.54 -55.3221C1335.59 -62.3257 1345.19 -68.6632 1354.55 -75.2758L1401.87 6.68376C1334.58 56.2335 1268.75 107.431 1214.68 173.091L1189.06 128.726C1120.92 179.744 1053.92 230.693 999.573 296.998L974.059 252.806C905.525 303.948 838.177 355.227 783.476 421.992L757.862 377.627C689.419 428.793 622.038 480.015 567.5 546.84L541.886 502.475C473.735 553.344 406.727 604.454 352.227 670.898L326.88 626.996C325.604 627.861 324.812 628.318 324.087 628.89C295.095 651.339 265.703 673.272 237.258 696.356C205.112 722.018 175.314 750.489 148.216 781.43C145.479 784.58 144.736 786.86 147.117 790.938L91.7187 694.585ZM-40.2664 466.069L-37.2261 471.335C16.3129 408.353 78.3766 356.035 144.199 306.793L171.962 354.881C226.241 288.411 290.923 234.118 359.306 182.626L387.203 230.945C441.817 163.896 506.772 109.498 575.211 57.9226L603.052 106.146C657.694 39.2343 722.648 -15.3443 791.407 -66.8987L819.171 -18.8109C873.461 -85.2618 938.123 -139.543 1006.34 -190.885L1034.18 -142.662C1035.61 -144.186 1036.61 -145.224 1037.57 -146.29C1056.55 -166.897 1074.71 -188.102 1094.42 -207.845C1124.64 -238.152 1157.58 -265.499 1191.18 -291.998C1199.88 -298.82 1209.16 -304.949 1218.12 -311.438L1265.44 -229.479C1263.44 -228.14 1261.32 -226.945 1259.44 -225.474C1225.77 -199.704 1193.49 -172.15 1162.76 -142.932C1134.5 -115.558 1107.48 -87.1209 1087.4 -52.9248C1086.75 -52.1628 1086.02 -51.4786 1085.21 -50.886L1052.52 -107.5C1018.19 -81.7739 985.283 -54.1911 953.958 -24.8751C922.682 4.62731 893.059 35.567 870.343 73.6552L837.256 16.3472C769.292 70.3488 701.812 123.762 654.035 198.284L621.471 141.882C620.893 142.046 620.336 142.28 619.816 142.581C589.927 167.399 559.366 191.498 530.369 217.37C495.857 248.046 463.758 281.161 440 321.368C439.49 321.929 438.913 322.427 438.282 322.849L405.373 265.849C337.657 319.656 270.567 372.896 222.919 446.931L190.49 390.761C189.779 390.998 189.092 391.3 188.437 391.663C154.28 417.403 121.496 444.915 90.2203 474.087C63.5781 499.268 38.1825 525.761 17.3142 556.173C16.2053 557.48 15.5723 559.124 15.5186 560.837C15.4649 562.55 15.9938 564.229 17.0186 565.602L-40.2664 466.069ZM-172.396 237.303C-171.439 238.961 -170.346 240.542 -169.013 242.628C-144.446 209.334 -116.89 178.351 -86.6885 150.064C-56.8993 121.478 -25.3543 94.7784 7.76244 70.122L40.4151 126.678C90.9991 55.6801 154.243 -1.2803 222.847 -54.2626L255.744 2.71725C306.377 -68.6429 369.883 -125.729 438.55 -178.825L471.448 -121.845C522.204 -193.302 585.815 -250.474 654.598 -303.637L687.428 -246.772C738.01 -317.82 801.262 -374.811 869.808 -427.76L902.661 -370.857C903.789 -372.202 904.4 -372.838 904.947 -373.54C914.526 -386.014 923.782 -398.868 933.755 -410.928C966.967 -450.986 1004.82 -486.345 1044.61 -519.704C1056.5 -529.683 1069 -538.93 1081.2 -548.549L1128.51 -466.608C1127.01 -465.25 1125.55 -463.796 1123.96 -462.542C1087.61 -434.159 1053.62 -402.873 1022.34 -368.993C996.652 -340.816 972.855 -311.286 958.054 -275.581C957.594 -274.959 957.045 -274.408 956.425 -273.946L916.333 -343.387C915.452 -343.112 914.604 -342.743 913.803 -342.286C911.851 -340.851 909.983 -339.361 908.096 -337.86C869.691 -307.89 833.944 -274.662 801.253 -238.547C780.114 -214.846 760.594 -189.946 746.763 -161.076C745.155 -157.576 743.624 -154.12 741.451 -149.368L701.048 -219.349C699.307 -218.49 697.624 -217.518 696.01 -216.441C660.265 -187.856 625.848 -157.775 594.73 -124.121C567.475 -94.6514 542.095 -63.7182 526.373 -26.2214C526.266 -26.0054 525.774 -25.8757 524.786 -25.5366L484.694 -94.9776C481.622 -92.5866 479.139 -90.6905 476.698 -88.7668C439.624 -59.7982 405.01 -27.813 373.21 6.86062C348.281 34.4731 325.258 63.4273 310.832 98.221C310.342 98.8039 309.766 99.3101 309.125 99.7216L268.766 29.8177C265.76 32.1448 263.274 33.991 260.833 35.9148C224.355 64.4279 190.25 95.851 158.852 129.874C133.451 157.785 110.044 187.142 95.1825 222.341C95.0786 222.607 94.6034 222.675 93.7541 223.165L53.9853 154.284C52.1751 155.171 50.4274 156.18 48.7543 157.304C12.7261 186.155 -21.9247 216.5 -53.2546 250.457C-76.2136 275.286 -97.5036 301.311 -113.375 331.461C-114.23 332.829 -114.661 334.418 -114.614 336.03C-114.568 337.641 -114.046 339.202 -113.114 340.517L-172.396 237.303ZM-304.753 8.58975C-303.884 10.0943 -302.842 11.4981 -301.623 13.3409C-255.291 -57.6202 -195.497 -114.672 -129.355 -166.927L-91.6467 -101.613C-68.7805 -139.531 -41.4561 -172.847 -11.4247 -203.971C18.8336 -235.276 51.3479 -264.32 85.8557 -290.87L123.531 -225.615C170.27 -301.311 232.704 -360.968 301.582 -415.703L339.447 -350.12C362.433 -388.364 389.942 -421.941 420.207 -453.328C450.535 -484.751 483.168 -513.865 517.835 -540.428L555.376 -475.404C602.012 -550.655 664.143 -610.034 732.879 -664.661L770.543 -599.424C777.894 -610.407 784.504 -620.936 791.752 -630.984C834.512 -690.392 886.977 -740.256 944.092 -785.499L991.979 -702.555C986.094 -697.769 980.102 -693.125 974.337 -688.177C936.491 -655.653 901.149 -620.666 871.562 -580.257C853.597 -555.74 837.961 -529.995 830.253 -500.237C829.894 -498.898 829.432 -497.603 828.559 -494.836L779.012 -580.653C776.957 -578.952 775.542 -577.749 774.123 -576.596C735.177 -544.774 698.838 -510.266 667.434 -470.865C644.092 -441.572 623.486 -410.617 613.89 -373.7C613.816 -373.426 613.311 -373.365 612.512 -372.698L564.001 -456.722C559.852 -453.298 556.282 -450.388 552.753 -447.45C513.793 -415.029 477.497 -379.954 446.459 -339.787C425.304 -312.323 406.998 -283.313 398.087 -249.132C397.981 -248.736 397.452 -248.405 396.673 -247.569L347.917 -332.017C342.314 -327.368 337.139 -323.223 332.107 -318.877C294.433 -286.993 259.221 -252.672 229.307 -213.232C208.655 -186.057 190.585 -157.441 182.324 -123.738C182.218 -123.342 181.636 -123.057 180.862 -122.302L132.206 -206.576C131.488 -206.393 131.267 -206.42 131.124 -206.312C126.115 -202.237 121.024 -198.217 116.101 -194.038C78.4749 -162.026 43.2293 -127.763 13.2819 -88.3808C-6.97683 -61.6389 -24.7447 -33.4802 -33.155 -0.436572C-33.2611 -0.0409773 -33.8432 0.243652 -34.818 1.14077L-83.3737 -82.9602C-87.3791 -79.6446 -90.7645 -76.8155 -94.1804 -73.9946C-131.747 -42.8154 -166.679 -8.99047 -197.149 29.1762C-215.413 52.1949 -231.505 76.6593 -242.642 103.999C-243.727 106.191 -244.219 108.629 -244.069 111.069C-243.92 113.51 -243.135 115.868 -241.791 117.91L-304.753 8.58975ZM-434.464 -216.121C-413.519 -252.937 -388.3 -287.155 -359.329 -318.062C-330.715 -349.101 -299.639 -377.777 -266.403 -403.81L-224.251 -330.801C-181.552 -410.106 -120.481 -472.035 -51.4283 -528.029L-8.98682 -454.518C33.821 -534.349 95.1884 -596.655 164.746 -652.889L207.065 -579.59C249.832 -659.268 311.266 -721.459 380.943 -777.71L423.117 -704.662C465.803 -783.857 526.954 -845.781 596.026 -901.785L638.345 -828.486C638.881 -829.086 639.373 -829.723 639.819 -830.392C664.837 -878.09 697.77 -919.969 735.876 -957.658C758.825 -980.32 783.407 -1001.05 807.278 -1022.65L855.165 -939.702C846.222 -931.967 837.22 -924.198 828.502 -916.207C792.043 -882.529 758.753 -846.129 732.957 -803.433C719.455 -781.081 708.506 -757.606 703.655 -731.683C702.803 -727.051 702.195 -722.353 701.502 -717.581L700.364 -717.233L642.454 -817.536C633.393 -809.604 624.903 -802.465 616.84 -795.032C579.151 -760.722 544.857 -723.562 518.104 -679.851C504.768 -658.058 494.019 -635.083 488.703 -609.921C487.624 -604.746 486.977 -599.537 485.733 -592.775L427.522 -693.6C419.681 -686.809 412.331 -680.637 405.223 -674.27C369.38 -642.157 336.492 -607.377 309.843 -567.096C290.108 -537.261 274.48 -505.709 270.37 -469.541C270.459 -469.387 269.83 -469.229 268.981 -468.739L211.471 -568.348C209.914 -567.167 208.85 -566.424 207.9 -565.618C204.638 -562.886 201.366 -560.174 198.126 -557.403C160.021 -524.215 124.874 -488.132 96.5076 -446.189C78.1933 -419.156 62.9948 -390.603 56.7303 -358.078C55.8401 -353.424 55.2515 -348.737 54.25 -342.269L-4.57369 -444.155C-14.8081 -435.134 -24.5979 -426.859 -33.9658 -418.209C-70.1825 -384.826 -103.258 -348.678 -128.99 -306.405C-144.738 -280.544 -157.12 -253.31 -160.498 -222.785C-160.576 -222.072 -161.164 -221.398 -161.919 -219.985L-219.54 -319.787C-222.901 -317.049 -225.923 -314.661 -228.829 -312.161C-266.697 -279.676 -301.43 -244.525 -330.266 -203.752C-349.011 -177.242 -364.8 -149.222 -372.704 -117.397C-373.402 -114.55 -373.116 -114.767 -371.544 -108.165L-434.464 -216.121Z" fill="#0066DE"/>
</g>
</svg>
