<svg width="555" height="534" viewBox="0 0 555 534" fill="none" xmlns="http://www.w3.org/2000/svg">
<g clip-path="url(#clip0_44_8258)">
<path d="M105.405 51.7232C88.1126 53.6881 69.2768 56.1518 58.29 75.3629C46.0925 96.6648 57.9167 121.383 48.8367 139.581C41.0784 155.079 14.706 155.875 6.1759 179.837C-2.93435 205.432 15.6797 243.209 26.0611 243.657C39.1767 244.226 73.9277 198.569 93.7977 220.582C118.773 248.262 88.6878 127.021 140.948 115.846C206.43 101.849 173.232 212.656 293.033 211.165C282.898 154.847 263.73 175.716 258.347 147.783C241.67 61.175 184.255 57.2149 184.255 57.2149C184.255 57.2149 187.473 23.8815 150.23 17.9464C108.865 11.3563 105.405 51.7232 105.405 51.7232Z" fill="#212121"/>
<path d="M473.477 115.306L412.475 113.714C410.757 113.668 409.124 112.955 407.925 111.725C406.725 110.495 406.054 108.846 406.053 107.129V76.3604C406.053 74.6135 406.748 72.938 407.984 71.7023C409.22 70.4666 410.897 69.7717 412.646 69.7703H473.649C475.398 69.7717 477.075 70.4666 478.311 71.7023C479.547 72.938 480.242 74.6135 480.242 76.3604V108.716C480.243 109.596 480.067 110.467 479.725 111.278C479.384 112.089 478.883 112.823 478.252 113.438C477.622 114.052 476.874 114.534 476.054 114.855C475.234 115.176 474.358 115.329 473.477 115.306Z" fill="white"/>
<mask id="mask0_44_8258" style="mask-type:alpha" maskUnits="userSpaceOnUse" x="406" y="69" width="75" height="47">
<path d="M473.477 115.307L412.475 113.714C410.757 113.668 409.124 112.955 407.925 111.725C406.726 110.495 406.054 108.846 406.053 107.129V76.3605C406.053 74.6135 406.748 72.9381 407.984 71.7024C409.22 70.4666 410.897 69.7717 412.646 69.7704H473.649C475.398 69.7717 477.075 70.4666 478.311 71.7024C479.547 72.9381 480.242 74.6135 480.242 76.3605V108.716C480.243 109.596 480.067 110.467 479.726 111.278C479.384 112.089 478.883 112.823 478.252 113.438C477.622 114.052 476.874 114.534 476.054 114.855C475.234 115.176 474.358 115.329 473.477 115.307Z" fill="white"/>
</mask>
<g mask="url(#mask0_44_8258)">
<path d="M464.281 85.4092C468.978 87.092 474.083 89.0569 475.848 95.1532C477.826 101.915 481.039 105.265 482.361 110.953C483.486 115.795 482.628 120.526 483.405 127.791C484.232 135.54 476.509 144.841 473.583 144.272C469.891 143.556 463.242 128.492 456.225 133.308C447.403 139.354 463.913 107.537 450.076 100.932C432.744 92.6341 434.585 125.791 401.256 117.372C400.827 100.675 418.311 102.197 419.92 94.196C423.452 76.7635 441.899 81.6708 441.899 81.6708C441.899 81.6708 443.231 72.1585 454.006 72.9898C466.012 73.9118 464.281 85.4092 464.281 85.4092Z" fill="#212121"/>
<path d="M457.088 88.9561C456.528 92.3267 456.129 102.383 460.71 105.23C460.71 105.23 437.934 98.0402 441.46 98.8816C444.986 99.723 450.197 91.2687 450.197 91.2687L457.088 88.9561Z" fill="#FF8481"/>
<path d="M443.69 92.231L452.2 96.4128C453.209 95.6671 453.208 96.6748 452.613 97.6119C452.215 98.2568 450.348 101.491 447.76 100.635C444.835 99.5869 438.433 97.0275 442.025 98.1157C444.497 98.8866 443.69 92.231 443.69 92.231Z" fill="#E85353"/>
<path d="M443.1 83.666C440.875 93.1531 441.748 96.0602 444.416 97.4659C449.42 100.096 455.615 95.1281 457.027 89.1829C457.244 88.276 459.328 86.6184 458.001 85.3135C456.674 84.0086 455.59 86.5176 454.808 86.2708C454.026 86.0239 452.684 79.328 446.136 79.3129C443.67 79.3028 443.1 83.666 443.1 83.666Z" fill="#FF8481"/>
<path d="M452.074 89.339C451.953 88.4372 450.808 87.4597 449.173 88.4321C445.471 90.644 444.472 90.8203 444.366 91.3594C444.24 92.0194 445.319 93.2336 447.241 93.5208C450.162 93.9592 452.361 91.435 452.074 89.339Z" fill="white"/>
<path d="M464.281 85.4092C461.618 84.4821 453.355 79.8671 446.409 80.9956C442.757 81.5801 441.914 81.6708 441.914 81.6708C441.622 81.2944 441.409 80.8629 441.289 80.4022C441.168 79.9416 441.142 79.4613 441.213 78.9904C441.359 77.3227 443.029 76.4259 443.029 76.4259C443.029 76.4259 444.82 70.3044 449.42 68.3646C453.224 66.7473 459.59 68.5107 462.369 71.9166C464.483 74.5063 464.104 78.6125 464.261 80.4263C464.316 81.041 465.27 81.5146 465.315 83.1268C465.349 83.5635 465.272 84.0016 465.092 84.4006C464.911 84.7996 464.632 85.1466 464.281 85.4092Z" fill="#0077FF"/>
</g>
<path d="M473.649 69.7704H412.646C411.182 69.7742 409.762 70.2673 408.611 71.171C409.41 70.8384 410.267 70.6672 411.133 70.6672H472.13C473.879 70.6672 475.557 71.3608 476.794 72.5956C478.031 73.8304 478.727 75.5053 478.729 77.2522V109.618C478.731 110.616 478.505 111.602 478.068 112.5C477.631 113.397 476.994 114.183 476.206 114.798C477.41 114.299 478.438 113.455 479.162 112.372C479.886 111.29 480.272 110.018 480.272 108.716V76.3605C480.272 75.4929 480.101 74.6339 479.767 73.8327C479.434 73.0315 478.946 72.3039 478.331 71.6916C477.715 71.0794 476.985 70.5945 476.181 70.2648C475.378 69.9351 474.517 69.7671 473.649 69.7704Z" fill="#212121"/>
<path d="M193.955 193.612C193.955 193.612 393.251 394.922 470.895 477.646C459.545 488.543 468.559 504.313 468.756 506.092C469.764 515.267 441.4 521.549 441.4 521.549C343.119 457.18 239.713 385.102 167.522 324.209L193.955 193.612Z" fill="#2929B2"/>
<path d="M227.228 293.264L226.083 620.774L179.644 626.281L108.79 298.786L227.228 293.264Z" fill="#2929B2"/>
<path d="M126.899 69.5739C126.062 81.4542 119.232 115.866 101.405 121.801C101.405 121.801 184.426 115.896 171.795 115.896C159.164 115.896 148.368 83.016 148.368 83.016L126.899 69.5739Z" fill="#FF8481"/>
<path d="M169.646 91.5509L137.402 98.8212C134.577 95.4606 133.81 98.9018 135.031 102.55C135.863 105.069 139.571 117.528 149.004 116.803C159.759 115.619 183.538 112.137 170.488 112.913C161.504 113.442 169.646 91.5509 169.646 91.5509Z" fill="#E85353"/>
<path d="M68.8782 159.694C60.9433 195.919 55.5004 226.895 52.7814 253.981C46.6222 315.307 104.694 316.959 104.694 316.959L128.14 505.734H153.408C153.408 505.734 111.615 298.912 126.93 298.912C142.244 298.912 192.154 395.023 240.102 427.389C250.468 427.389 310.335 335.188 319.521 320.914C326.926 309.412 246.377 234.044 233.08 191.934C231.344 186.432 235.506 181.409 241.252 180.85C271.922 177.867 334.215 166.264 362.247 156.933C343.795 109.981 354.58 65.9312 354.58 65.9312C354.58 65.9312 132.07 115.961 106.53 120.234C86.5943 123.574 73.2063 139.994 68.8782 159.694Z" fill="#00EAFF"/>
<path d="M165 284.316C168.834 288.014 172.738 291.506 176.663 294.761L232.51 282.744C228.953 281.714 225.516 280.308 222.259 278.547C212.917 273.69 202.278 265.71 192.306 256.087C175.841 240.201 162.614 221.62 154.664 203.688L115.635 212.087C125.24 237.158 142.537 262.636 165 284.316Z" fill="white"/>
<path d="M352.673 118.44C339.255 104.64 328.51 88.8756 321.781 73.282C313.71 75.0858 304.489 77.1515 294.496 79.3784C303.732 103.215 320.389 126.895 342.044 146.418C346.805 150.731 351.791 154.789 356.981 158.575C358.842 158.016 360.603 157.462 362.247 156.918C357.43 144.551 354.212 131.621 352.673 118.44Z" fill="white"/>
<path d="M266.514 145.244C250.14 129.948 236.934 111.78 228.923 93.9642C217.734 96.4431 206.556 98.9118 195.731 101.29C205.255 125.302 222.027 149.375 243.703 169.624C247.35 173.035 251.068 176.245 254.801 179.242C269.596 177.267 287.913 174.204 305.8 170.677C302.7 169.705 299.683 168.484 296.781 167.025C287.121 162.248 276.659 154.721 266.514 145.244Z" fill="white"/>
<path d="M96.8799 123.06C106.661 147.31 123.545 171.816 145.256 192.765C149.09 196.468 152.994 199.955 156.919 203.21L212.781 191.198C209.224 190.167 205.788 188.758 202.531 186.996C193.188 182.139 182.55 174.164 172.577 164.541C156.762 149.28 143.939 131.535 135.904 114.279C121.567 117.327 111.024 119.483 106.545 120.234C103.222 120.788 99.9774 121.737 96.8799 123.06Z" fill="white"/>
<path d="M233.079 191.919C232.539 190.258 232.553 188.467 233.12 186.815L214.662 190.79C224.03 215.478 241.135 240.347 263.427 261.17C268.017 265.463 272.709 269.448 277.43 273.081L286.686 271.091C265.197 244.826 240.021 213.861 233.079 191.919Z" fill="white"/>
<path d="M106.454 205.996C97.1321 200.575 87.0079 192.423 77.1965 182.427C73.4535 178.623 69.8922 174.688 66.5276 170.667C62.3962 190.221 59.0466 208.203 56.5194 224.834L118.687 211.462C115.988 210.712 111.892 209.145 106.454 205.996Z" fill="white"/>
<path d="M96.9304 273.952C81.6357 258.394 69.2515 240.664 61.5335 223.736L56.4891 224.814C54.9354 235.026 53.6895 244.73 52.7613 253.98C48.7813 293.622 71.6376 308.324 88.2993 313.765L123.777 306.137C124.196 301.512 125.194 298.907 126.909 298.907C128.973 298.907 131.661 300.65 134.89 303.744L138.421 302.988C135.732 302.262 131.651 300.696 126.198 297.521C116.876 292.1 106.752 283.948 96.9304 273.952Z" fill="white"/>
<path d="M252.254 374.275C248.699 373.241 245.264 371.833 242.008 370.073C232.661 365.216 222.022 357.24 212.049 347.617C195.589 331.726 182.358 313.15 174.408 295.219L135.379 303.618C135.495 303.92 135.616 304.227 135.737 304.53C149.478 318.284 172.319 354.666 197.92 385.959L252.254 374.275Z" fill="white"/>
<path d="M306.002 328.341C289.058 312.51 275.508 293.602 267.574 275.202L234.406 282.336C243.774 307.024 260.88 331.898 283.171 352.721C286.359 355.7 289.589 358.525 292.861 361.196C299.999 350.676 306.542 340.795 311.49 333.248C309.654 331.676 307.825 330.04 306.002 328.341Z" fill="white"/>
<path d="M287.317 366.748L254.145 373.887C257.467 382.56 261.517 390.936 266.252 398.927C273.233 389.536 280.79 378.799 287.988 368.31C287.771 367.791 287.539 367.272 287.317 366.748Z" fill="white"/>
<path d="M116.674 365.504C114.313 363.1 112.028 360.637 109.809 358.143L115.473 403.724L134.002 399.734C132.821 392.519 131.681 385.319 130.612 378.281C125.74 374.275 121.087 370.009 116.674 365.504Z" fill="white"/>
<path d="M127.061 497.023L150.684 491.944C149.357 485.153 147.632 476.2 145.695 465.861C142.593 463.125 139.49 460.178 136.418 457.049C130.428 450.952 124.839 444.475 119.686 437.657L127.061 497.023Z" fill="white"/>
<path d="M440.885 521.015C437.677 518.34 461.512 467.766 470.874 477.328C477.901 484.503 485.569 496.217 498.845 502.469C503.274 504.55 526.474 476.86 532.331 477.359C555.752 479.374 523.987 494.937 539.564 489.753C555.141 484.568 547.867 561.256 521.909 561.256C495.95 561.256 444.098 523.686 440.885 521.015Z" fill="#FF8481"/>
<path d="M178.605 62.9938C178.438 96.957 173.111 106.101 162.922 108.696C143.828 113.553 126.874 91.6869 126.864 70.38C126.864 67.1353 121.144 59.8247 126.698 56.4843C132.251 53.144 133.891 62.5303 136.746 62.3137C139.601 62.097 149.594 40.518 171.795 45.7679C180.219 47.7631 178.605 62.9938 178.605 62.9938Z" fill="#FF8481"/>
<path d="M143.586 74.9447C144.726 71.9973 149.408 69.6041 154.149 74.2343C164.899 84.719 168.148 86.1297 168.062 88.0443C167.961 90.3871 163.315 93.6217 156.566 93.0372C146.315 92.1303 140.913 81.827 143.586 74.9447Z" fill="white"/>
<path d="M499.935 555.764C499.935 551.638 505.232 537.768 514.06 522.794C518.06 516.017 529.274 495.718 525.778 495.26C522.282 494.801 515.048 509.1 506.432 508.415C497.917 507.734 490.553 501.673 490.623 498.338C490.694 494.857 499.865 502.968 507.164 494.549C518.216 481.807 528.421 451.472 533.778 443.617C541.819 431.822 554.506 439.36 554.148 457.246C553.79 475.132 552.271 557.467 552.155 563.302C552.069 567.997 511.305 564.723 499.935 555.764Z" fill="white"/>
<path d="M544.2 437.964C539.131 437.637 537.042 439.531 536.901 440.226C538.298 443.572 547.08 445.38 547.494 456.243C548.115 472.366 544.553 505.795 545.159 565.332C549.487 565.388 552.221 565.095 552.246 563.488C552.362 557.654 553.88 475.318 554.239 457.432C554.44 446.242 551.262 438.418 544.2 437.964Z" fill="#212121"/>
<path d="M140.328 259.256C135.137 263.07 119.141 250.187 104.583 230.416C90.0245 210.646 82.4528 191.576 87.6435 187.762C92.8342 183.948 115.953 203.225 130.521 222.97C145.09 242.715 145.518 255.437 140.328 259.256Z" fill="#2929B2"/>
<path d="M362.192 157.064C355.77 157.618 351.725 147.894 349.581 122.99C347.437 98.0855 348.718 66.4148 355.13 65.8606C361.541 65.3064 370.672 96.0904 372.826 120.985C374.98 145.879 368.619 156.51 362.192 157.064Z" fill="#2929B2"/>
<path d="M86.1655 190.931C86.1655 190.931 88.5767 168.395 88.9349 161.578C89.293 154.761 96.1888 148.055 113.91 142.307C116.846 141.36 120.73 144.826 123.963 144.826C136.756 144.826 152.404 143.566 154.316 143.566C160.056 143.566 159.204 148.665 154.966 149.612C150.583 150.62 143.536 152.801 139.152 154.217C138.05 154.573 137.108 155.305 136.494 156.286C135.879 157.266 135.631 158.432 135.793 159.578L137.694 173.116C137.773 173.897 137.686 174.685 137.441 175.431C137.195 176.176 136.796 176.862 136.269 177.444C135.742 178.026 135.099 178.491 134.381 178.809C133.663 179.128 132.886 179.293 132.1 179.293L120.175 179.122C117.098 178.94 114.994 180.749 114.994 185.268L121.704 249.9C121.704 249.9 110.934 240.891 96.315 218.718C83.3962 199.119 86.1655 190.931 86.1655 190.931Z" fill="#FF8481"/>
<path d="M354.58 65.9311C354.58 65.9311 402.613 58.1772 412.929 57.3207C423.245 56.4642 440.754 69.7199 440.754 69.7199C440.754 69.7199 420.228 69.8408 414.477 69.8408C408.727 69.8408 405.246 73.2518 408.722 75.5895C411.582 77.5142 419.426 79.5799 426.761 81.963C432.748 83.9128 431.492 88.0845 428.501 88.7042C419.456 87.883 378.607 86.3362 371.206 87.1575C363.806 87.9787 348.627 102.837 348.627 102.837C348.627 102.837 347.75 69.0246 354.58 65.9311Z" fill="#FF8481"/>
<path d="M113.91 142.307C110.105 143.508 106.389 144.971 102.787 146.685C97.6467 152.388 114.717 144.856 123.974 144.846C120.74 144.846 116.856 141.359 113.91 142.307Z" fill="#E85353"/>
<path d="M161.05 60.4394C160.5 63.15 159.36 62.2633 156.419 61.0037C154.104 59.996 153.897 58.8372 156.026 57.0436C157.837 55.5019 161.832 56.701 161.05 60.4394Z" fill="#212121"/>
<path d="M166.014 73.7506C165.686 72.6573 167.562 73.3123 168.354 71.8965C169.419 69.987 167.194 63.8352 168.425 63.7546C170.413 63.6639 170.735 69.2262 171.023 72.3802C171.21 74.4459 166.513 75.4082 166.014 73.7506Z" fill="#E85353"/>
<path d="M144.913 51.1488C144.636 52.353 148.303 52.5041 155.214 53.5067C160.056 54.207 163.789 54.1617 164.501 51.9952C165.509 48.9722 161.721 47.5212 158.689 47.2643C155.849 47.0123 145.942 46.6546 144.913 51.1488Z" fill="#212121"/>
<path d="M186.378 72.3802C186.953 71.5539 183.684 59.1949 180.436 55.4414C177.798 52.3882 174.726 51.3654 173.303 52.5746C171.311 54.2675 173.454 56.7363 175.366 58.3284C181.551 63.4876 184.739 67.8104 186.378 72.3802Z" fill="#212121"/>
<path d="M177.747 66.7171C175.396 65.8959 174.171 63.8302 173.207 64.8328C172.405 65.6641 173.646 67.75 176.234 68.7173C177.22 69.0729 178.271 69.2138 179.316 69.1305C179.316 68.6267 179.316 67.8155 179.361 67.1504C178.813 67.0483 178.273 66.9034 177.747 66.7171Z" fill="#212121"/>
<path d="M480.257 102.146L480.383 82.2703H478.764C477.165 82.2703 476.615 82.8951 476.615 84.0488L476.297 100.171C476.297 101.325 477.165 102.101 478.764 102.101L480.257 102.146Z" fill="#212121"/>
<path d="M348.627 102.832C348.627 102.832 351.654 99.8742 355.654 96.5288C352.088 85.7115 352.552 68.6922 354.58 65.9261C347.75 69.0247 348.627 102.832 348.627 102.832Z" fill="#E85353"/>
<path d="M429.131 513.448C429.084 513.453 429.037 513.453 428.99 513.448C428.802 513.409 428.637 513.298 428.531 513.138C428.424 512.979 428.384 512.784 428.42 512.596C435.018 479.726 456.961 464.153 457.173 463.997C457.251 463.935 457.341 463.89 457.437 463.864C457.533 463.838 457.633 463.832 457.731 463.847C457.83 463.861 457.924 463.895 458.008 463.948C458.093 464 458.166 464.069 458.222 464.15C458.279 464.232 458.318 464.324 458.338 464.421C458.357 464.519 458.357 464.619 458.336 464.716C458.315 464.813 458.275 464.905 458.217 464.986C458.159 465.067 458.086 465.135 458.001 465.186C457.784 465.337 436.309 480.608 429.832 512.878C429.796 513.038 429.708 513.181 429.58 513.284C429.453 513.387 429.295 513.445 429.131 513.448Z" fill="#0077FF"/>
<path d="M433.49 498.323C433.321 498.323 433.156 498.268 433.021 498.167L278.459 383.48C278.376 383.418 278.305 383.34 278.251 383.251C278.197 383.162 278.162 383.063 278.146 382.96C278.131 382.857 278.136 382.752 278.161 382.651C278.186 382.55 278.231 382.455 278.293 382.372C278.355 382.288 278.433 382.217 278.522 382.163C278.611 382.11 278.71 382.074 278.813 382.059C278.916 382.043 279.021 382.048 279.122 382.073C279.224 382.099 279.319 382.143 279.403 382.205L433.964 496.892C434.1 496.991 434.201 497.13 434.252 497.29C434.304 497.449 434.303 497.621 434.251 497.78C434.198 497.94 434.096 498.078 433.959 498.176C433.822 498.273 433.658 498.325 433.49 498.323Z" fill="#0077FF"/>
<path d="M96.315 218.702C106.828 236.145 121.658 249.884 121.658 249.884L119.383 228.698C97.6064 229.202 86.0899 196.771 86.1403 190.911C86.1655 190.931 84.2033 198.615 96.315 218.702Z" fill="#E85353"/>
<path d="M25.5969 245.405C12.8295 241.375 -1.80941 259.276 0.460588 282.386C2.73058 305.497 9.08142 317.735 17.2484 313.201C25.4153 308.666 59.3543 256.006 25.5969 245.405Z" fill="#212121"/>
<path d="M290.319 207.588C281.627 217.75 292.377 238.201 314.562 245.159C336.748 252.116 350.504 251.058 349.525 241.778C348.547 232.497 313.291 180.704 290.319 207.588Z" fill="#212121"/>
<path d="M35.6947 244.421C36.3133 241.227 32.4444 237.794 27.0533 236.752C21.6621 235.71 16.7902 237.455 16.1716 240.648C15.5529 243.842 19.4218 247.275 24.813 248.317C30.2041 249.359 35.0761 247.614 35.6947 244.421Z" fill="white"/>
<path d="M293.151 209.947C296.402 205.527 296.909 200.382 294.285 198.457C291.66 196.531 286.897 198.553 283.646 202.973C280.395 207.393 279.888 212.538 282.512 214.463C285.137 216.389 289.9 214.367 293.151 209.947Z" fill="white"/>
<path d="M105.405 51.7231C115.196 50.7508 146.946 41.843 169.57 51.2647C181.47 56.2173 184.255 57.2149 184.255 57.2149C184.255 57.2149 187.907 54.8519 188.795 48.6901C189.647 42.9263 184.724 38.5178 184.724 38.5178C184.724 38.5178 183.624 16.319 169.626 5.95526C158.059 -2.60984 135.061 -1.79364 122.864 7.46675C113.597 14.5204 111.539 28.7536 109.536 34.7642C108.855 36.7796 105.294 37.6461 103.765 43.0724C102.237 48.4986 105.405 51.7231 105.405 51.7231Z" fill="#2929B2"/>
<path d="M108.502 51.0329C108.46 51.0328 108.418 51.0216 108.38 51.0004C108.343 50.9792 108.312 50.9487 108.291 50.912C103.423 42.1806 110.409 36.1901 110.48 36.1347C110.502 36.1121 110.529 36.0942 110.558 36.082C110.588 36.0698 110.619 36.0635 110.651 36.0635C110.683 36.0635 110.715 36.0698 110.744 36.082C110.774 36.0942 110.8 36.1121 110.823 36.1347C110.863 36.1845 110.883 36.2481 110.877 36.3121C110.871 36.3761 110.841 36.4353 110.793 36.4773C109.593 37.5768 108.633 38.9111 107.973 40.3971C106.505 43.6871 106.752 47.1383 108.714 50.65C108.745 50.7055 108.753 50.7711 108.736 50.8324C108.719 50.8937 108.679 50.9458 108.623 50.9775C108.588 51.0059 108.547 51.0249 108.502 51.0329Z" fill="#00EAFF"/>
<path d="M120.997 48.6448C120.947 48.6442 120.898 48.6278 120.857 48.598C120.817 48.5682 120.786 48.5264 120.77 48.4785C117.85 39.853 123.333 34.5124 123.388 34.462C123.435 34.4177 123.496 34.3929 123.56 34.3929C123.624 34.3929 123.685 34.4177 123.731 34.462C123.754 34.484 123.772 34.5103 123.784 34.5393C123.796 34.5682 123.802 34.5994 123.802 34.6308C123.802 34.6622 123.796 34.6933 123.784 34.7223C123.772 34.7512 123.754 34.7775 123.731 34.7996C123.681 34.8499 118.42 39.989 121.24 48.3173C121.25 48.3471 121.254 48.3786 121.252 48.41C121.25 48.4414 121.241 48.472 121.227 48.5002C121.213 48.5283 121.194 48.5534 121.17 48.5739C121.146 48.5944 121.118 48.6099 121.088 48.6196C121.06 48.6342 121.029 48.6428 120.997 48.6448Z" fill="#00EAFF"/>
<path d="M114.258 50.0354C114.207 50.0361 114.158 50.021 114.116 49.9921C114.074 49.9631 114.043 49.9219 114.026 49.8741C112.818 46.4702 112.758 42.7652 113.854 39.3239C114.302 37.8737 114.995 36.5105 115.902 35.2933C115.944 35.245 116.002 35.2148 116.065 35.2092C116.128 35.2035 116.191 35.2229 116.24 35.2631C116.265 35.2827 116.286 35.307 116.301 35.3347C116.317 35.3624 116.326 35.3929 116.329 35.4244C116.333 35.4559 116.33 35.4877 116.32 35.5179C116.311 35.5482 116.296 35.5763 116.276 35.6006C116.23 35.6561 111.66 41.3745 114.485 49.7079C114.495 49.738 114.5 49.7698 114.497 49.8016C114.495 49.8333 114.487 49.8644 114.473 49.8929C114.459 49.9215 114.44 49.9469 114.416 49.9679C114.392 49.9889 114.364 50.005 114.334 50.0152L114.258 50.0354Z" fill="#00EAFF"/>
<path d="M132.932 47.0829C132.873 47.082 132.816 47.0594 132.773 47.0195C132.729 46.9796 132.701 46.925 132.695 46.8662C131.712 38.3616 134.607 34.5073 134.713 34.3461C134.732 34.3208 134.756 34.2997 134.784 34.284C134.812 34.2683 134.842 34.2582 134.874 34.2545C134.905 34.2507 134.937 34.2533 134.968 34.2621C134.998 34.2709 135.026 34.2858 135.051 34.3058C135.102 34.3447 135.135 34.402 135.143 34.4652C135.152 34.5284 135.135 34.5924 135.096 34.6433C135.066 34.6786 132.196 38.5228 133.154 46.8158C133.161 46.8793 133.143 46.9429 133.103 46.9929C133.064 47.043 133.006 47.0753 132.943 47.0829H132.932Z" fill="#00EAFF"/>
<path d="M126.869 47.9193C126.81 47.9196 126.754 47.8981 126.71 47.859C126.666 47.8199 126.638 47.766 126.632 47.7076C125.648 39.2131 128.544 34.5577 128.65 34.3662C128.684 34.3123 128.738 34.274 128.801 34.2599C128.863 34.2457 128.928 34.2568 128.983 34.2907C129.037 34.3249 129.075 34.379 129.089 34.4413C129.103 34.5036 129.092 34.569 129.058 34.6232C129.028 34.6685 126.132 39.339 127.096 47.6522C127.103 47.7156 127.085 47.7793 127.045 47.8293C127.005 47.8793 126.948 47.9117 126.884 47.9193H126.869Z" fill="#00EAFF"/>
<path d="M145.014 46.6546H144.984C144.92 46.647 144.862 46.6147 144.823 46.5647C144.783 46.5147 144.765 46.451 144.772 46.3876C145.695 38.0945 145.206 34.2957 145.201 34.2453C145.195 34.2137 145.196 34.1812 145.203 34.15C145.211 34.1188 145.225 34.0894 145.244 34.0638C145.263 34.0383 145.288 34.017 145.316 34.0014C145.344 33.9858 145.375 33.9762 145.407 33.9732C145.439 33.9683 145.471 33.9697 145.502 33.9775C145.533 33.9853 145.562 33.9992 145.588 34.0185C145.613 34.0378 145.634 34.0621 145.65 34.0898C145.666 34.1175 145.676 34.1481 145.68 34.1798C145.68 34.2151 146.184 38.0794 145.251 46.443C145.244 46.5009 145.216 46.5542 145.172 46.5931C145.129 46.632 145.072 46.6539 145.014 46.6546Z" fill="#00EAFF"/>
<path d="M151.133 46.8612H151.077C151.047 46.8541 151.018 46.841 150.992 46.8227C150.967 46.8044 150.945 46.7812 150.929 46.7545C150.913 46.7277 150.902 46.698 150.897 46.6671C150.892 46.6361 150.893 46.6045 150.901 46.574C152.606 39.465 151.334 34.331 151.324 34.2806C151.316 34.2501 151.314 34.2183 151.318 34.1871C151.322 34.1558 151.333 34.1256 151.349 34.0984C151.365 34.0712 151.386 34.0474 151.411 34.0285C151.436 34.0096 151.465 33.996 151.496 33.9884C151.558 33.9728 151.624 33.982 151.679 34.0139C151.735 34.0459 151.776 34.0981 151.794 34.1597C151.794 34.2151 153.105 39.4549 151.37 46.6849C151.355 46.7363 151.324 46.7815 151.281 46.8134C151.239 46.8453 151.186 46.8621 151.133 46.8612Z" fill="#00EAFF"/>
<path d="M139.283 46.8108C139.221 46.8109 139.161 46.7868 139.116 46.7436C139.071 46.7004 139.044 46.6414 139.041 46.5791C138.837 42.4314 139.176 38.2749 140.05 34.2151C140.066 34.153 140.105 34.0996 140.16 34.0666C140.215 34.0335 140.28 34.0235 140.343 34.0388C140.404 34.0554 140.457 34.095 140.49 34.1495C140.523 34.2039 140.533 34.2689 140.519 34.331C139.649 38.3453 139.31 42.4564 139.51 46.5589C139.512 46.5904 139.508 46.622 139.498 46.6519C139.487 46.6817 139.471 46.7092 139.45 46.7326C139.429 46.7561 139.403 46.7751 139.375 46.7886C139.346 46.802 139.315 46.8096 139.283 46.8108Z" fill="#00EAFF"/>
<path d="M157.231 47.5061C157.205 47.5114 157.177 47.5114 157.151 47.5061C157.121 47.496 157.093 47.4799 157.069 47.4588C157.045 47.4377 157.026 47.4121 157.012 47.3834C156.999 47.3547 156.991 47.3236 156.99 47.2919C156.988 47.2602 156.993 47.2285 157.004 47.1988C159.355 40.7094 156.5 34.8197 156.445 34.7592C156.43 34.7309 156.421 34.6999 156.419 34.6682C156.417 34.6364 156.421 34.6045 156.431 34.5744C156.442 34.5443 156.458 34.5166 156.479 34.493C156.501 34.4693 156.527 34.4502 156.556 34.4368C156.612 34.4085 156.678 34.4038 156.739 34.4236C156.799 34.4434 156.849 34.4861 156.878 34.5426C156.909 34.603 159.905 40.6742 157.459 47.365C157.438 47.4078 157.406 47.4439 157.366 47.4689C157.326 47.4939 157.279 47.5068 157.231 47.5061Z" fill="#00EAFF"/>
<path d="M163.587 48.675H163.507C163.477 48.6648 163.449 48.6487 163.425 48.6276C163.401 48.6066 163.382 48.5809 163.368 48.5523C163.355 48.5236 163.347 48.4925 163.346 48.4607C163.344 48.429 163.349 48.3974 163.36 48.3676C165.716 41.5307 162.831 35.3386 162.8 35.2681C162.774 35.2098 162.772 35.1436 162.793 35.0835C162.815 35.0233 162.859 34.9739 162.917 34.9456C162.975 34.9194 163.041 34.9169 163.101 34.9385C163.162 34.9601 163.211 35.0042 163.239 35.0615C163.27 35.1219 166.236 41.4954 163.814 48.5188C163.797 48.5648 163.766 48.6044 163.725 48.6323C163.685 48.6602 163.637 48.6751 163.587 48.675Z" fill="#00EAFF"/>
<path d="M168.894 50.3477C168.852 50.3484 168.81 50.338 168.773 50.3175C168.718 50.2848 168.677 50.2318 168.66 50.1697C168.643 50.1076 168.651 50.0413 168.682 49.985C172.541 43.1027 168.445 36.2506 168.4 36.18C168.368 36.1257 168.359 36.0611 168.374 35.9999C168.389 35.9388 168.427 35.8859 168.481 35.8525C168.535 35.8187 168.6 35.8076 168.663 35.8217C168.725 35.8359 168.779 35.8741 168.814 35.9281C168.859 35.9987 173.101 43.0875 169.101 50.2218C169.081 50.2597 169.052 50.2916 169.015 50.3138C168.979 50.3361 168.937 50.3478 168.894 50.3477Z" fill="#00EAFF"/>
<path d="M174.383 52.5545C174.326 52.5538 174.271 52.5343 174.226 52.499C174.178 52.4571 174.147 52.3978 174.141 52.3339C174.136 52.2699 174.155 52.2063 174.196 52.1564C179.72 45.6067 174.12 37.2431 174.06 37.1625C174.025 37.1087 174.012 37.0434 174.024 36.9804C174.036 36.9174 174.073 36.8616 174.125 36.8249C174.151 36.807 174.181 36.7945 174.212 36.7881C174.243 36.7817 174.275 36.7815 174.306 36.7876C174.337 36.7937 174.366 36.8059 174.392 36.8236C174.419 36.8413 174.441 36.864 174.458 36.8904C174.519 36.9761 180.33 45.6117 174.569 52.4688C174.546 52.4954 174.517 52.5167 174.485 52.5315C174.453 52.5462 174.418 52.5541 174.383 52.5545Z" fill="#00EAFF"/>
<path d="M179.129 54.8469C179.074 54.8454 179.021 54.826 178.978 54.7915C178.953 54.7719 178.932 54.7475 178.917 54.7198C178.902 54.6921 178.892 54.6616 178.889 54.6301C178.886 54.5987 178.889 54.5669 178.898 54.5366C178.907 54.5063 178.922 54.4782 178.943 54.4539C185.45 46.4934 179.286 38.543 179.225 38.4674C179.186 38.4163 179.168 38.3519 179.176 38.2879C179.183 38.2239 179.216 38.1653 179.266 38.1248C179.316 38.0857 179.38 38.0681 179.443 38.0756C179.506 38.0832 179.564 38.1153 179.604 38.1651C179.669 38.2457 186.076 46.4934 179.316 54.7562C179.294 54.7848 179.266 54.8078 179.233 54.8236C179.201 54.8393 179.166 54.8473 179.129 54.8469Z" fill="#00EAFF"/>
<path d="M182.277 55.9503C182.243 55.9511 182.21 55.9442 182.18 55.9303C182.149 55.9163 182.122 55.8956 182.101 55.8696C182.078 55.8476 182.06 55.8213 182.048 55.7924C182.036 55.7634 182.03 55.7323 182.03 55.7009C182.03 55.6695 182.036 55.6383 182.048 55.6094C182.06 55.5804 182.078 55.5541 182.101 55.5321C185.501 52.4587 186.747 48.7052 185.803 44.3773C185.351 42.3552 184.519 40.4371 183.352 38.7243C183.314 38.6728 183.298 38.6084 183.307 38.5451C183.317 38.4819 183.351 38.4249 183.402 38.3868C183.427 38.3673 183.456 38.3531 183.487 38.3451C183.518 38.3371 183.55 38.3354 183.582 38.3401C183.613 38.3448 183.644 38.3558 183.671 38.3725C183.698 38.3892 183.722 38.4112 183.74 38.4371C183.811 38.5329 190.883 48.2669 182.439 55.8898C182.394 55.9295 182.337 55.9511 182.277 55.9503Z" fill="#00EAFF"/>
<path d="M413.201 112.671L420.516 101.869C422.315 99.2112 424.959 97.2357 428.02 96.2613C431.081 95.287 434.381 95.3705 437.389 96.4985C448.744 100.761 465.497 107.054 467.908 108.021C473.689 110.339 472.705 114.233 472.705 114.233L413.201 112.671Z" fill="white"/>
<path d="M433.929 108.011C433.929 108.011 441.723 107.507 443.009 107.21C444.295 106.913 444.563 105.376 446.54 105.517C448.517 105.658 454.737 110.601 455.443 111.165C456.15 111.729 456.452 113.85 456.452 113.85L440.688 113.347C440.688 113.347 440.689 111.225 439.997 110.943C439.306 110.661 434.201 110.308 433.172 110.208C432.143 110.107 431.866 108.253 433.929 108.011Z" fill="#FF8481"/>
<path d="M476.055 80.1492C476.732 80.1492 477.281 79.6011 477.281 78.9249C477.281 78.2488 476.732 77.7006 476.055 77.7006C475.378 77.7006 474.829 78.2488 474.829 78.9249C474.829 79.6011 475.378 80.1492 476.055 80.1492Z" fill="#17D685"/>
</g>
<defs>
<clipPath id="clip0_44_8258">
<rect width="554" height="534" fill="white" transform="translate(0.228523)"/>
</clipPath>
</defs>
</svg>
