<svg width="1440" height="1340" viewBox="0 0 1440 1340" fill="none" xmlns="http://www.w3.org/2000/svg">
<rect width="1510.14" height="627.229" transform="matrix(1 0 0 -1 -24.6693 627.798)" fill="url(#paint0_linear_103_403)"/>
<g opacity="0.5">
<mask id="mask0_103_403" style="mask-type:alpha" maskUnits="userSpaceOnUse" x="-277" y="257" width="1993" height="1083">
<path d="M97.704 944.021V942.538C97.704 920.115 97.7196 897.695 97.7508 875.277C97.7828 874.294 98.1903 873.361 98.8893 872.67C131.323 846.137 167.601 827.026 208.378 816.85C212.839 815.734 217.378 814.93 221.885 814.001C222.402 813.935 222.923 813.901 223.445 813.9C223.445 814.571 223.523 815.148 223.523 815.718C223.523 830.405 223.523 845.092 223.523 859.778C223.523 861.183 223.187 861.729 221.721 862.12C184.055 871.172 151.06 889.129 122.121 914.733C112.522 923.178 104.286 933.057 97.704 944.021Z" fill="white"/>
<path d="M97.7042 1076.24V1074.09C97.7042 1055.18 97.7042 1036.27 97.7042 1017.36C97.6706 1016.79 97.7742 1016.22 98.0061 1015.69C98.2381 1015.17 98.5917 1014.71 99.0377 1014.35C132.111 985.31 169.683 964.888 212.722 954.977C216.247 954.196 219.819 953.557 223.593 952.807V954.953C223.593 966.659 223.531 978.365 223.648 990.071C223.648 991.983 223.032 992.552 221.308 992.95C180.601 1002.46 145.664 1022.42 116.163 1051.89C109.141 1058.76 103.175 1066.64 98.4606 1075.26C98.3203 1075.41 98.1643 1075.58 97.7042 1076.24Z" fill="white"/>
<path d="M97.7038 1207.43V1205.78C97.7038 1190.45 97.7038 1175.11 97.7584 1159.74C97.81 1158.63 98.258 1157.57 99.0217 1156.75C132.165 1124.8 170.845 1103.06 215.997 1093.32C217.643 1092.96 219.312 1092.7 220.973 1092.4C221.752 1092.27 222.532 1092.15 223.421 1092.01V1122.66C215.763 1124.82 208.121 1126.61 200.728 1129.13C169.997 1139.54 142.078 1156.9 119.141 1179.86C110.796 1188.05 103.585 1197.32 97.7038 1207.43Z" fill="white"/>
<path d="M223.46 1231.08V1253.33C215.709 1255.46 207.996 1257.23 200.51 1259.69C172.88 1268.81 148.502 1283.54 127.049 1303.16C117.036 1312.32 108.115 1322.4 101.026 1334.03C99.9809 1335.73 99.0295 1337.5 97.8052 1339.63C97.7584 1338.75 97.7116 1338.29 97.7116 1337.82C97.7116 1326.11 97.7116 1314.41 97.7506 1302.7C97.7788 1301.7 98.1475 1300.74 98.7956 1299.98C130.699 1265.64 169.23 1242.72 215.132 1232.57C217.845 1232.01 220.598 1231.6 223.46 1231.08Z" fill="white"/>
<path d="M98.9285 731.14C98.7642 731.266 98.6174 731.413 98.4918 731.577L98.4918 811.426C102.734 803.661 108.216 797.184 114.221 791.136C125.334 779.922 137.803 770.425 151.131 762.012C173.177 748.106 196.634 737.5 222.026 731.382C223.585 731.023 223.585 730.266 223.585 729.088C223.585 711.607 223.585 694.124 223.585 676.638V674.617C221.066 675.07 218.758 675.397 216.481 675.912C173.021 685.269 134.122 704.295 98.9285 731.14Z" fill="white"/>
<path d="M98.8191 679.174C98.9503 678.841 99.104 678.518 99.2792 678.206C103.958 669.841 110.47 662.911 117.535 656.551C144.463 632.289 175.539 615.261 209.915 604.125C214.391 602.673 218.961 601.526 223.468 600.223V535.435C177.739 543.973 136.782 563.069 98.8191 589.82L98.8191 679.174Z" fill="white"/>
<path d="M98.819 308.086L98.819 415.467C99.4053 413.822 100.236 412.275 101.283 410.878C107.194 402.77 114.486 396.051 122.237 389.808C142.349 373.615 164.637 361.113 188.344 351.062C199.727 346.215 211.457 342.231 223.437 339.146V257.291C200.939 261.318 179.399 268.092 158.43 276.801C137.673 285.443 117.725 295.913 98.819 308.086Z" fill="white"/>
<path d="M98.8191 547.071C99.0517 546.5 99.3308 545.95 99.6535 545.424C105.05 536.684 112.256 529.575 119.992 523.004C143.636 502.917 170.33 488.043 199.34 477.289C207.224 474.371 215.311 472.022 223.468 469.361V396.324C178.105 404.854 137.101 423.326 98.8191 448.829L98.8191 547.071Z" fill="white"/>
<path d="M-26.921 944.021V942.538C-26.921 920.115 -26.9028 897.695 -26.8664 875.277C-26.8416 874.292 -26.433 873.357 -25.7278 872.67C6.70557 846.137 42.9757 827.026 83.7534 816.85C88.214 815.734 92.7605 814.93 97.268 814.001C97.7851 813.934 98.3061 813.9 98.8276 813.9C98.8276 814.571 98.9056 815.148 98.9056 815.718C98.9056 830.405 98.9056 845.092 98.9056 859.778C98.9056 861.183 98.5781 861.729 97.1042 862.12C59.4381 871.172 26.451 889.129 -2.49651 914.733C-12.096 923.179 -20.3346 933.058 -26.921 944.021Z" fill="white"/>
<path d="M-26.9208 1076.24V1074.09C-26.9208 1055.18 -26.9208 1036.27 -26.9208 1017.36C-26.9543 1016.79 -26.8508 1016.22 -26.6189 1015.69C-26.3869 1015.17 -26.0332 1014.71 -25.5872 1014.35C7.48563 985.31 45.0581 964.888 88.0973 954.977C91.6222 954.196 95.1938 953.557 98.9682 952.807V954.953C98.9682 966.659 98.9059 978.365 99.0228 990.071C99.0228 991.983 98.4068 992.552 96.6833 992.95C55.968 1002.46 21.0392 1022.42 -8.46983 1051.89C-15.4917 1058.76 -21.4573 1066.64 -26.1721 1075.26C-26.4036 1075.6 -26.6535 1075.93 -26.9208 1076.24Z" fill="white"/>
<path d="M-26.9212 1207.43V1205.78C-26.9212 1190.45 -26.9212 1175.11 -26.8666 1159.74C-26.8129 1158.63 -26.362 1157.57 -25.5955 1156.75C7.53978 1124.8 46.2197 1103.06 91.38 1093.32C93.0255 1092.96 94.6943 1092.7 96.3554 1092.4C97.1352 1092.27 97.9151 1092.15 98.8041 1092.01V1122.66C91.1461 1124.82 83.5037 1126.61 76.1108 1129.13C45.3798 1139.54 17.4609 1156.9 -5.47571 1179.86C-13.8243 1188.05 -21.0371 1197.32 -26.9212 1207.43Z" fill="white"/>
<path d="M98.8431 1231.08V1253.33C91.0448 1255.46 83.3712 1257.23 75.8926 1259.69C48.2551 1268.81 23.8774 1283.54 2.42413 1303.16C-7.58898 1312.32 -16.5103 1322.4 -23.599 1334.03C-24.644 1335.73 -25.5954 1337.5 -26.8197 1339.63C-26.8665 1338.75 -26.9133 1338.29 -26.9133 1337.82C-26.9133 1326.11 -26.9133 1314.41 -26.9133 1302.7C-26.8852 1301.7 -26.5165 1300.74 -25.8683 1299.98C6.03479 1265.64 44.5665 1242.72 90.4677 1232.57C93.2205 1232.01 95.9733 1231.6 98.8431 1231.08Z" fill="white"/>
<path d="M-25.6966 731.14C-25.8592 731.268 -26.0058 731.414 -26.1333 731.577L-26.1333 811.426C-21.8831 803.661 -16.4009 797.184 -10.404 791.136C0.70871 779.922 13.1783 770.425 26.5057 762.012C48.5517 748.106 72.0092 737.5 97.4007 731.382C98.9603 731.023 98.9603 730.266 98.9603 729.088C98.9603 711.607 98.9603 694.124 98.9603 676.638V674.617C96.4415 675.07 94.1331 675.397 91.856 675.912C48.4035 685.269 9.52087 704.295 -25.6966 731.14Z" fill="white"/>
<path d="M-25.806 679.174C-25.6747 678.841 -25.521 678.518 -25.3458 678.206C-20.6668 669.841 -14.1552 662.911 -7.08989 656.551C19.8457 632.289 50.9144 615.261 85.2896 604.125C89.7658 602.673 94.3357 601.526 98.851 600.223V535.435C53.1135 543.973 12.1565 563.069 -25.806 589.82L-25.806 679.174Z" fill="white"/>
<path d="M-25.806 308.086L-25.806 415.467C-25.2196 413.822 -24.3888 412.275 -23.3416 410.878C-17.4305 402.77 -10.139 396.051 -2.38744 389.808C17.7245 373.615 40.0122 361.113 63.7193 351.062C75.102 346.216 86.8326 342.232 98.8119 339.146V257.291C76.3214 261.318 54.7745 268.092 33.8047 276.801C13.0483 285.443 -6.90022 295.913 -25.806 308.086Z" fill="white"/>
<path d="M-25.8059 547.071C-25.5733 546.5 -25.2942 545.95 -24.9715 545.424C-19.575 536.684 -12.3693 529.575 -4.63335 523.004C19.0113 502.917 45.7051 488.043 74.7228 477.289C82.5992 474.371 90.6938 472.022 98.8431 469.361V396.324C53.4801 404.854 12.4762 423.326 -25.8059 448.829L-25.8059 547.071Z" fill="white"/>
<path d="M594.704 944.021V942.538C594.704 920.115 594.72 897.695 594.751 875.277C594.783 874.294 595.19 873.361 595.889 872.67C628.323 846.137 664.601 827.026 705.378 816.85C709.839 815.734 714.378 814.93 718.885 814.001C719.402 813.935 719.923 813.901 720.445 813.9C720.445 814.571 720.523 815.148 720.523 815.718C720.523 830.405 720.523 845.092 720.523 859.778C720.523 861.183 720.187 861.729 718.721 862.12C681.055 871.172 648.06 889.129 619.121 914.733C609.522 923.178 601.286 933.057 594.704 944.021Z" fill="white"/>
<path d="M594.704 1076.24V1074.09C594.704 1055.18 594.704 1036.27 594.704 1017.36C594.671 1016.79 594.774 1016.22 595.006 1015.69C595.238 1015.17 595.592 1014.71 596.038 1014.35C629.111 985.31 666.683 964.888 709.722 954.977C713.247 954.196 716.819 953.557 720.593 952.807V954.953C720.593 966.659 720.531 978.365 720.648 990.071C720.648 991.983 720.032 992.552 718.308 992.95C677.601 1002.46 642.664 1022.42 613.163 1051.89C606.141 1058.76 600.175 1066.64 595.461 1075.26C595.32 1075.41 595.164 1075.58 594.704 1076.24Z" fill="white"/>
<path d="M594.704 1207.43V1205.78C594.704 1190.45 594.704 1175.11 594.758 1159.74C594.81 1158.63 595.258 1157.57 596.022 1156.75C629.165 1124.8 667.845 1103.06 712.997 1093.32C714.643 1092.96 716.312 1092.7 717.973 1092.4C718.752 1092.27 719.532 1092.15 720.421 1092.01V1122.66C712.763 1124.82 705.121 1126.61 697.728 1129.13C666.997 1139.54 639.078 1156.9 616.141 1179.86C607.796 1188.05 600.585 1197.32 594.704 1207.43Z" fill="white"/>
<path d="M720.46 1231.08V1253.33C712.709 1255.46 704.996 1257.23 697.51 1259.69C669.88 1268.81 645.502 1283.54 624.049 1303.16C614.036 1312.32 605.115 1322.4 598.026 1334.03C596.981 1335.73 596.03 1337.5 594.805 1339.63C594.758 1338.75 594.712 1338.29 594.712 1337.82C594.712 1326.11 594.712 1314.41 594.751 1302.7C594.779 1301.7 595.147 1300.74 595.796 1299.98C627.699 1265.64 666.23 1242.72 712.132 1232.57C714.845 1232.01 717.598 1231.6 720.46 1231.08Z" fill="white"/>
<path d="M595.928 731.14C595.764 731.266 595.617 731.413 595.492 731.577V811.426C599.734 803.661 605.216 797.184 611.221 791.136C622.334 779.922 634.803 770.425 648.131 762.012C670.177 748.106 693.634 737.5 719.026 731.382C720.585 731.023 720.585 730.266 720.585 729.088C720.585 711.607 720.585 694.124 720.585 676.638V674.617C718.066 675.07 715.758 675.397 713.481 675.912C670.021 685.269 631.122 704.295 595.928 731.14Z" fill="white"/>
<path d="M595.819 679.174C595.95 678.841 596.104 678.518 596.279 678.206C600.958 669.841 607.47 662.911 614.535 656.551C641.463 632.289 672.539 615.261 706.915 604.125C711.391 602.673 715.961 601.526 720.468 600.223V535.435C674.739 543.973 633.782 563.069 595.819 589.82V679.174Z" fill="white"/>
<path d="M595.819 308.086V415.467C596.405 413.822 597.236 412.275 598.283 410.878C604.194 402.77 611.486 396.051 619.237 389.808C639.349 373.615 661.637 361.113 685.344 351.062C696.727 346.215 708.457 342.231 720.437 339.146V257.291C697.939 261.318 676.399 268.092 655.43 276.801C634.673 285.443 614.725 295.913 595.819 308.086Z" fill="white"/>
<path d="M595.819 547.071C596.052 546.5 596.331 545.95 596.654 545.424C602.05 536.684 609.256 529.575 616.992 523.004C640.636 502.917 667.33 488.043 696.34 477.289C704.224 474.371 712.311 472.022 720.468 469.361V396.324C675.105 404.854 634.101 423.326 595.819 448.829V547.071Z" fill="white"/>
<path d="M470.079 944.021V942.538C470.079 920.115 470.097 897.695 470.134 875.277C470.158 874.292 470.567 873.357 471.272 872.67C503.706 846.137 539.976 827.026 580.753 816.85C585.214 815.734 589.76 814.93 594.268 814.001C594.785 813.934 595.306 813.9 595.828 813.9C595.828 814.571 595.906 815.148 595.906 815.718C595.906 830.405 595.906 845.092 595.906 859.778C595.906 861.183 595.578 861.729 594.104 862.12C556.438 871.172 523.451 889.129 494.503 914.733C484.904 923.179 476.665 933.058 470.079 944.021Z" fill="white"/>
<path d="M470.079 1076.24V1074.09C470.079 1055.18 470.079 1036.27 470.079 1017.36C470.046 1016.79 470.149 1016.22 470.381 1015.69C470.613 1015.17 470.967 1014.71 471.413 1014.35C504.486 985.31 542.058 964.888 585.097 954.977C588.622 954.196 592.194 953.557 595.968 952.807V954.953C595.968 966.659 595.906 978.365 596.023 990.071C596.023 991.983 595.407 992.552 593.683 992.95C552.968 1002.46 518.039 1022.42 488.53 1051.89C481.508 1058.76 475.543 1066.64 470.828 1075.26C470.596 1075.6 470.346 1075.93 470.079 1076.24Z" fill="white"/>
<path d="M470.079 1207.43V1205.78C470.079 1190.45 470.079 1175.11 470.133 1159.74C470.187 1158.63 470.638 1157.57 471.405 1156.75C504.54 1124.8 543.22 1103.06 588.38 1093.32C590.025 1092.96 591.694 1092.7 593.355 1092.4C594.135 1092.27 594.915 1092.15 595.804 1092.01V1122.66C588.146 1124.82 580.504 1126.61 573.111 1129.13C542.38 1139.54 514.461 1156.9 491.524 1179.86C483.176 1188.05 475.963 1197.32 470.079 1207.43Z" fill="white"/>
<path d="M595.843 1231.08V1253.33C588.045 1255.46 580.371 1257.23 572.893 1259.69C545.255 1268.81 520.877 1283.54 499.424 1303.16C489.411 1312.32 480.49 1322.4 473.401 1334.03C472.356 1335.73 471.405 1337.5 470.18 1339.63C470.133 1338.75 470.087 1338.29 470.087 1337.82C470.087 1326.11 470.087 1314.41 470.087 1302.7C470.115 1301.7 470.484 1300.74 471.132 1299.98C503.035 1265.64 541.567 1242.72 587.468 1232.57C590.221 1232.01 592.973 1231.6 595.843 1231.08Z" fill="white"/>
<path d="M471.303 731.14C471.141 731.268 470.994 731.414 470.867 731.577V811.426C475.117 803.661 480.599 797.184 486.596 791.136C497.709 779.922 510.178 770.425 523.506 762.012C545.552 748.106 569.009 737.5 594.401 731.382C595.96 731.023 595.96 730.266 595.96 729.088C595.96 711.607 595.96 694.124 595.96 676.638V674.617C593.441 675.07 591.133 675.397 588.856 675.912C545.404 685.269 506.521 704.295 471.303 731.14Z" fill="white"/>
<path d="M471.194 679.174C471.325 678.841 471.479 678.518 471.654 678.206C476.333 669.841 482.845 662.911 489.91 656.551C516.846 632.289 547.914 615.261 582.29 604.125C586.766 602.673 591.336 601.526 595.851 600.223V535.435C550.114 543.973 509.156 563.069 471.194 589.82V679.174Z" fill="white"/>
<path d="M471.194 308.086V415.467C471.78 413.822 472.611 412.275 473.658 410.878C479.57 402.77 486.861 396.051 494.613 389.808C514.725 373.615 537.012 361.113 560.719 351.062C572.102 346.216 583.833 342.232 595.812 339.146V257.291C573.321 261.318 551.775 268.092 530.805 276.801C510.048 285.443 490.1 295.913 471.194 308.086Z" fill="white"/>
<path d="M471.194 547.071C471.427 546.5 471.706 545.95 472.028 545.424C477.425 536.684 484.631 529.575 492.367 523.004C516.011 502.917 542.705 488.043 571.723 477.289C579.599 474.371 587.694 472.022 595.843 469.361V396.324C550.48 404.854 509.476 423.326 471.194 448.829V547.071Z" fill="white"/>
<path d="M346.274 944.021V942.538C346.274 920.115 346.29 897.695 346.321 875.277C346.35 874.293 346.758 873.359 347.46 872.67C379.893 846.137 416.171 827.026 456.949 816.85C461.409 815.734 465.948 814.93 470.456 814.001C470.973 813.935 471.494 813.901 472.015 813.9C472.015 814.571 472.093 815.148 472.093 815.718C472.093 830.405 472.093 845.092 472.093 859.778C472.093 861.183 471.758 861.729 470.292 862.12C432.626 871.172 399.631 889.129 370.691 914.733C361.092 923.178 352.856 933.057 346.274 944.021Z" fill="white"/>
<path d="M346.274 1076.24V1074.09C346.274 1055.18 346.274 1036.27 346.274 1017.36C346.244 1016.79 346.35 1016.22 346.583 1015.69C346.817 1015.17 347.17 1014.71 347.616 1014.35C380.689 985.31 418.261 964.888 461.3 954.977C464.825 954.196 468.397 953.557 472.164 952.807V954.953C472.164 966.659 472.109 978.365 472.226 990.071C472.226 991.983 471.61 992.552 469.886 992.95C429.179 1002.46 394.242 1022.42 364.741 1051.89C357.719 1058.76 351.754 1066.64 347.039 1075.26C346.891 1075.41 346.703 1075.58 346.274 1076.24Z" fill="white"/>
<path d="M346.274 1207.43V1205.78C346.274 1190.45 346.274 1175.11 346.329 1159.74C346.38 1158.63 346.828 1157.57 347.592 1156.75C380.727 1124.8 419.415 1103.06 464.568 1093.32C466.213 1092.96 467.882 1092.7 469.543 1092.4C470.323 1092.27 471.103 1092.15 471.984 1092.01V1122.66C464.334 1124.82 456.683 1126.61 449.29 1129.13C418.561 1139.54 390.643 1156.9 367.704 1179.86C359.363 1188.05 352.156 1197.32 346.274 1207.43Z" fill="white"/>
<path d="M472.031 1231.08V1253.33C464.279 1255.46 456.559 1257.23 449.08 1259.69C421.45 1268.81 397.073 1283.54 375.619 1303.16C365.606 1312.32 356.685 1322.4 349.596 1334.03C348.551 1335.73 347.6 1337.5 346.376 1339.63C346.329 1338.75 346.274 1338.29 346.274 1337.82C346.274 1326.11 346.274 1314.41 346.321 1302.7C346.349 1301.7 346.718 1300.74 347.366 1299.98C379.269 1265.64 417.801 1242.72 463.702 1232.57C466.416 1232.01 469.137 1231.6 472.031 1231.08Z" fill="white"/>
<path d="M347.481 731.14C347.321 731.268 347.177 731.415 347.052 731.577V811.426C351.295 803.661 356.777 797.184 362.782 791.136C373.886 779.922 386.364 770.425 399.691 762.012C421.737 748.106 445.195 737.5 470.586 731.382C472.146 731.023 472.146 730.266 472.146 729.088C472.146 711.607 472.146 694.124 472.146 676.638V674.617C469.627 675.07 467.327 675.397 465.049 675.912C421.566 685.269 382.714 704.295 347.481 731.14Z" fill="white"/>
<path d="M347.382 679.174C347.519 678.843 347.675 678.52 347.849 678.206C352.528 669.841 359.04 662.911 366.098 656.551C393.033 632.289 424.11 615.261 458.485 604.125C462.961 602.673 467.531 601.526 472.038 600.223V535.435C426.309 543.973 385.344 563.069 347.382 589.82V679.174Z" fill="white"/>
<path d="M347.382 308.086V415.467C347.974 413.823 348.807 412.277 349.854 410.878C355.765 402.77 363.056 396.051 370.808 389.808C390.912 373.615 413.208 361.113 436.915 351.062C448.297 346.215 460.028 342.231 472.007 339.146V257.291C449.509 261.318 427.97 268.092 407 276.801C386.242 285.445 366.291 295.914 347.382 308.086Z" fill="white"/>
<path d="M347.382 547.071C347.62 546.502 347.902 545.951 348.224 545.424C353.612 536.684 360.826 529.575 368.562 523.004C392.207 502.917 418.9 488.043 447.91 477.289C455.795 474.371 463.881 472.022 472.038 469.361V396.324C426.675 404.854 385.672 423.326 347.382 448.829V547.071Z" fill="white"/>
<path d="M221.647 944.021V942.538C221.647 920.115 221.666 897.695 221.702 875.277C221.727 874.292 222.135 873.357 222.841 872.67C255.274 846.137 291.544 827.026 332.322 816.85C336.782 815.734 341.329 814.93 345.836 814.001C346.354 813.934 346.875 813.9 347.396 813.9C347.396 814.571 347.474 815.148 347.474 815.718C347.474 830.405 347.474 845.092 347.474 859.778C347.474 861.183 347.146 861.729 345.673 862.12C308.006 871.172 275.019 889.129 246.072 914.733C236.472 923.179 228.234 933.058 221.647 944.021Z" fill="white"/>
<path d="M221.648 1076.24V1074.09C221.648 1055.18 221.648 1036.27 221.648 1017.36C221.614 1016.79 221.718 1016.22 221.949 1015.69C222.181 1015.17 222.535 1014.71 222.981 1014.35C256.054 985.31 293.626 964.888 336.666 954.977C340.191 954.196 343.762 953.557 347.537 952.807V954.953C347.537 966.659 347.474 978.365 347.591 990.071C347.591 991.983 346.975 992.552 345.252 992.95C304.536 1002.46 269.607 1022.42 240.098 1051.89C233.077 1058.76 227.111 1066.64 222.396 1075.26C222.264 1075.41 222.108 1075.58 221.648 1076.24Z" fill="white"/>
<path d="M221.647 1207.43V1205.78C221.647 1190.45 221.647 1175.11 221.702 1159.74C221.75 1158.62 222.202 1157.56 222.973 1156.75C256.108 1124.8 294.788 1103.06 339.948 1093.32C341.594 1092.96 343.263 1092.7 344.924 1092.4C345.704 1092.27 346.483 1092.15 347.372 1092.01V1122.66C339.714 1124.82 332.072 1126.61 324.679 1129.13C293.948 1139.54 266.029 1156.9 243.093 1179.86C234.744 1188.05 227.531 1197.32 221.647 1207.43Z" fill="white"/>
<path d="M347.411 1231.08V1253.33C339.652 1255.46 331.94 1257.23 324.461 1259.69C296.823 1268.81 272.446 1283.54 250.992 1303.16C240.979 1312.32 232.058 1322.4 224.969 1334.03C223.924 1335.73 222.973 1337.5 221.749 1339.63C221.702 1338.75 221.655 1338.29 221.655 1337.82C221.655 1326.11 221.655 1314.41 221.694 1302.7C221.722 1301.7 222.091 1300.74 222.739 1299.98C254.642 1265.64 293.174 1242.72 339.075 1232.57C341.789 1232.01 344.542 1231.6 347.411 1231.08Z" fill="white"/>
<path d="M222.872 731.14C222.708 731.266 222.561 731.413 222.435 731.577V811.426C226.685 803.661 232.16 797.184 238.164 791.136C249.277 779.922 261.747 770.425 275.074 762.012C297.12 748.106 320.578 737.5 345.969 731.382C347.529 731.023 347.529 730.266 347.529 729.088C347.529 711.607 347.529 694.124 347.529 676.638V674.617C345.01 675.07 342.702 675.397 340.424 675.912C296.972 685.269 258.089 704.295 222.872 731.14Z" fill="white"/>
<path d="M222.762 679.174C222.894 678.841 223.047 678.518 223.223 678.206C227.902 669.841 234.413 662.911 241.479 656.551C268.414 632.289 299.483 615.261 333.858 604.125C338.334 602.673 342.904 601.526 347.419 600.223V535.435C301.682 543.973 260.725 563.069 222.762 589.82V679.174Z" fill="white"/>
<path d="M222.762 308.086V415.467C223.349 413.822 224.18 412.275 225.227 410.878C231.138 402.77 238.429 396.051 246.181 389.808C266.293 373.615 288.581 361.113 312.288 351.062C323.67 346.215 335.401 342.231 347.38 339.146V257.291C324.89 261.318 303.343 268.092 282.373 276.801C261.617 285.443 241.668 295.913 222.762 308.086Z" fill="white"/>
<path d="M222.762 547.071C222.995 546.5 223.274 545.95 223.597 545.424C228.993 536.684 236.199 529.575 243.935 523.004C267.58 502.917 294.273 488.043 323.283 477.289C331.168 474.371 339.254 472.022 347.411 469.361V396.324C302.048 404.854 261.045 423.326 222.762 448.829V547.071Z" fill="white"/>
<path d="M1092.87 944.021V942.538C1092.87 920.115 1092.88 897.695 1092.91 875.277C1092.95 874.294 1093.35 873.361 1094.05 872.67C1126.49 846.137 1162.76 827.026 1203.54 816.85C1208 815.734 1212.54 814.93 1217.05 814.001C1217.57 813.935 1218.09 813.901 1218.61 813.9C1218.61 814.571 1218.69 815.148 1218.69 815.718C1218.69 830.405 1218.69 845.092 1218.69 859.778C1218.69 861.183 1218.35 861.729 1216.88 862.12C1179.22 871.172 1146.22 889.129 1117.28 914.733C1107.68 923.178 1099.45 933.057 1092.87 944.021Z" fill="white"/>
<path d="M1092.87 1076.24V1074.09C1092.87 1055.18 1092.87 1036.27 1092.87 1017.36C1092.83 1016.79 1092.94 1016.22 1093.17 1015.69C1093.4 1015.17 1093.75 1014.71 1094.2 1014.35C1127.27 985.31 1164.85 964.888 1207.88 954.977C1211.41 954.196 1214.98 953.557 1218.76 952.807V954.953C1218.76 966.659 1218.69 978.365 1218.81 990.071C1218.81 991.983 1218.19 992.552 1216.47 992.95C1175.76 1002.46 1140.83 1022.42 1111.33 1051.89C1104.3 1058.76 1098.34 1066.64 1093.62 1075.26C1093.48 1075.41 1093.33 1075.58 1092.87 1076.24Z" fill="white"/>
<path d="M1092.87 1207.43V1205.78C1092.87 1190.45 1092.87 1175.11 1092.92 1159.74C1092.97 1158.63 1093.42 1157.57 1094.18 1156.75C1127.33 1124.8 1166.01 1103.06 1211.16 1093.32C1212.81 1092.96 1214.47 1092.7 1216.14 1092.4C1216.92 1092.27 1217.69 1092.15 1218.58 1092.01V1122.66C1210.93 1124.82 1203.28 1126.61 1195.89 1129.13C1165.16 1139.54 1137.24 1156.9 1114.3 1179.86C1105.96 1188.05 1098.75 1197.32 1092.87 1207.43Z" fill="white"/>
<path d="M1218.62 1231.08V1253.33C1210.87 1255.46 1203.16 1257.23 1195.67 1259.69C1168.04 1268.81 1143.66 1283.54 1122.21 1303.16C1112.2 1312.32 1103.28 1322.4 1096.19 1334.03C1095.14 1335.73 1094.19 1337.5 1092.97 1339.63C1092.92 1338.75 1092.87 1338.29 1092.87 1337.82C1092.87 1326.11 1092.87 1314.41 1092.91 1302.7C1092.94 1301.7 1093.31 1300.74 1093.96 1299.98C1125.86 1265.64 1164.39 1242.72 1210.29 1232.57C1213.01 1232.01 1215.76 1231.6 1218.62 1231.08Z" fill="white"/>
<path d="M1094.09 731.14C1093.93 731.266 1093.78 731.413 1093.65 731.577V811.426C1097.9 803.661 1103.38 797.184 1109.38 791.136C1120.5 779.922 1132.97 770.425 1146.29 762.012C1168.34 748.106 1191.8 737.5 1217.19 731.382C1218.75 731.023 1218.75 730.266 1218.75 729.088C1218.75 711.607 1218.75 694.124 1218.75 676.638V674.617C1216.23 675.07 1213.92 675.397 1211.64 675.912C1168.18 685.269 1129.29 704.295 1094.09 731.14Z" fill="white"/>
<path d="M1093.98 679.174C1094.11 678.841 1094.27 678.518 1094.44 678.206C1099.12 669.841 1105.63 662.911 1112.7 656.551C1139.63 632.289 1170.7 615.261 1205.08 604.125C1209.55 602.673 1214.12 601.526 1218.63 600.223V535.435C1172.9 543.973 1131.94 563.069 1093.98 589.82V679.174Z" fill="white"/>
<path d="M1093.98 308.086V415.467C1094.57 413.822 1095.4 412.275 1096.45 410.878C1102.36 402.77 1109.65 396.051 1117.4 389.808C1137.51 373.615 1159.8 361.113 1183.51 351.062C1194.89 346.215 1206.62 342.231 1218.6 339.146V257.291C1196.1 261.318 1174.56 268.092 1153.59 276.801C1132.84 285.443 1112.89 295.913 1093.98 308.086Z" fill="white"/>
<path d="M1093.98 547.071C1094.21 546.5 1094.49 545.95 1094.82 545.424C1100.21 536.684 1107.42 529.575 1115.15 523.004C1138.8 502.917 1165.49 488.043 1194.5 477.289C1202.39 474.371 1210.47 472.022 1218.63 469.361V396.324C1173.27 404.854 1132.26 423.326 1093.98 448.829V547.071Z" fill="white"/>
<path d="M968.242 944.021V942.538C968.242 920.115 968.26 897.695 968.296 875.277C968.321 874.292 968.73 873.357 969.435 872.67C1001.87 846.137 1038.14 827.026 1078.92 816.85C1083.38 815.734 1087.92 814.93 1092.43 814.001C1092.95 813.934 1093.47 813.9 1093.99 813.9C1093.99 814.571 1094.07 815.148 1094.07 815.718C1094.07 830.405 1094.07 845.092 1094.07 859.778C1094.07 861.183 1093.74 861.729 1092.27 862.12C1054.6 871.172 1021.61 889.129 992.666 914.733C983.067 923.179 974.828 933.058 968.242 944.021Z" fill="white"/>
<path d="M968.242 1076.24V1074.09C968.242 1055.18 968.242 1036.27 968.242 1017.36C968.208 1016.79 968.312 1016.22 968.544 1015.69C968.776 1015.17 969.129 1014.71 969.575 1014.35C1002.65 985.31 1040.22 964.888 1083.26 954.977C1086.78 954.196 1090.36 953.557 1094.13 952.807V954.953C1094.13 966.659 1094.07 978.365 1094.19 990.071C1094.19 991.983 1093.57 992.552 1091.85 992.95C1051.13 1002.46 1016.2 1022.42 986.693 1051.89C979.671 1058.76 973.705 1066.64 968.99 1075.26C968.759 1075.6 968.509 1075.93 968.242 1076.24Z" fill="white"/>
<path d="M968.241 1207.43V1205.78C968.241 1190.45 968.241 1175.11 968.296 1159.74C968.35 1158.63 968.801 1157.57 969.567 1156.75C1002.7 1124.8 1041.38 1103.06 1086.54 1093.32C1088.19 1092.96 1089.86 1092.7 1091.52 1092.4C1092.3 1092.27 1093.08 1092.15 1093.97 1092.01V1122.66C1086.31 1124.82 1078.67 1126.61 1071.27 1129.13C1040.54 1139.54 1012.62 1156.9 989.687 1179.86C981.338 1188.05 974.125 1197.32 968.241 1207.43Z" fill="white"/>
<path d="M1094.01 1231.08V1253.33C1086.21 1255.46 1078.53 1257.23 1071.06 1259.69C1043.42 1268.81 1019.04 1283.54 997.587 1303.16C987.574 1312.32 978.652 1322.4 971.564 1334.03C970.519 1335.73 969.567 1337.5 968.343 1339.63C968.296 1338.75 968.249 1338.29 968.249 1337.82C968.249 1326.11 968.249 1314.41 968.249 1302.7C968.277 1301.7 968.646 1300.74 969.294 1299.98C1001.2 1265.64 1039.73 1242.72 1085.63 1232.57C1088.38 1232.01 1091.14 1231.6 1094.01 1231.08Z" fill="white"/>
<path d="M969.466 731.14C969.303 731.268 969.157 731.414 969.029 731.577V811.426C973.279 803.661 978.762 797.184 984.759 791.136C995.871 779.922 1008.34 770.425 1021.67 762.012C1043.71 748.106 1067.17 737.5 1092.56 731.382C1094.12 731.023 1094.12 730.266 1094.12 729.088C1094.12 711.607 1094.12 694.124 1094.12 676.638V674.617C1091.6 675.07 1089.3 675.397 1087.02 675.912C1043.57 685.269 1004.68 704.295 969.466 731.14Z" fill="white"/>
<path d="M969.357 679.174C969.488 678.841 969.642 678.518 969.817 678.206C974.496 669.841 981.007 662.911 988.073 656.551C1015.01 632.289 1046.08 615.261 1080.45 604.125C1084.93 602.673 1089.5 601.526 1094.01 600.223V535.435C1048.28 543.973 1007.32 563.069 969.357 589.82V679.174Z" fill="white"/>
<path d="M969.357 308.086V415.467C969.943 413.822 970.774 412.275 971.821 410.878C977.732 402.77 985.024 396.051 992.775 389.808C1012.89 373.615 1035.17 361.113 1058.88 351.062C1070.26 346.216 1082 342.232 1093.97 339.146V257.291C1071.48 261.318 1049.94 268.092 1028.97 276.801C1008.21 285.443 988.262 295.913 969.357 308.086Z" fill="white"/>
<path d="M969.357 547.071C969.589 546.5 969.868 545.95 970.191 545.424C975.588 536.684 982.793 529.575 990.529 523.004C1014.17 502.917 1040.87 488.043 1069.89 477.289C1077.76 474.371 1085.86 472.022 1094.01 469.361V396.324C1048.64 404.854 1007.64 423.326 969.357 448.829V547.071Z" fill="white"/>
<path d="M843.437 944.021V942.538C843.437 920.115 843.453 897.695 843.484 875.277C843.513 874.293 843.921 873.359 844.622 872.67C877.056 846.137 913.334 827.026 954.111 816.85C958.572 815.734 963.111 814.93 967.618 814.001C968.135 813.935 968.656 813.901 969.178 813.9C969.178 814.571 969.256 815.148 969.256 815.718C969.256 830.405 969.256 845.092 969.256 859.778C969.256 861.183 968.92 861.729 967.454 862.12C929.788 871.172 896.793 889.129 867.854 914.733C858.255 923.178 850.019 933.057 843.437 944.021Z" fill="white"/>
<path d="M843.437 1076.24V1074.09C843.437 1055.18 843.437 1036.27 843.437 1017.36C843.407 1016.79 843.513 1016.22 843.746 1015.69C843.979 1015.17 844.333 1014.71 844.778 1014.35C877.851 985.31 915.424 964.888 958.463 954.977C961.988 954.196 965.56 953.557 969.326 952.807V954.953C969.326 966.659 969.272 978.365 969.389 990.071C969.389 991.983 968.772 992.552 967.049 992.95C926.342 1002.46 891.405 1022.42 861.904 1051.89C854.882 1058.76 848.916 1066.64 844.201 1075.26C844.053 1075.41 843.866 1075.58 843.437 1076.24Z" fill="white"/>
<path d="M843.437 1207.43V1205.78C843.437 1190.45 843.437 1175.11 843.491 1159.74C843.543 1158.63 843.991 1157.57 844.755 1156.75C877.89 1124.8 916.578 1103.06 961.73 1093.32C963.376 1092.96 965.044 1092.7 966.705 1092.4C967.485 1092.27 968.265 1092.15 969.146 1092.01V1122.66C961.496 1124.82 953.846 1126.61 946.453 1129.13C915.724 1139.54 887.806 1156.9 864.867 1179.86C856.525 1188.05 849.318 1197.32 843.437 1207.43Z" fill="white"/>
<path d="M969.193 1231.08V1253.33C961.442 1255.46 953.721 1257.23 946.243 1259.69C918.613 1268.81 894.235 1283.54 872.782 1303.16C862.769 1312.32 853.848 1322.4 846.759 1334.03C845.714 1335.73 844.763 1337.5 843.538 1339.63C843.491 1338.75 843.437 1338.29 843.437 1337.82C843.437 1326.11 843.437 1314.41 843.484 1302.7C843.512 1301.7 843.88 1300.74 844.529 1299.98C876.432 1265.64 914.963 1242.72 960.865 1232.57C963.578 1232.01 966.3 1231.6 969.193 1231.08Z" fill="white"/>
<path d="M844.644 731.14C844.484 731.268 844.34 731.415 844.215 731.577V811.426C848.457 803.661 853.939 797.184 859.944 791.136C871.049 779.922 883.526 770.425 896.854 762.012C918.9 748.106 942.357 737.5 967.749 731.382C969.308 731.023 969.308 730.266 969.308 729.088C969.308 711.607 969.308 694.124 969.308 676.638V674.617C966.79 675.07 964.489 675.397 962.212 675.912C918.728 685.269 879.877 704.295 844.644 731.14Z" fill="white"/>
<path d="M844.544 679.174C844.681 678.843 844.837 678.52 845.012 678.206C849.691 669.841 856.203 662.911 863.26 656.551C890.196 632.289 921.272 615.261 955.648 604.125C960.124 602.673 964.694 601.526 969.201 600.223V535.435C923.471 543.973 882.507 563.069 844.544 589.82V679.174Z" fill="white"/>
<path d="M844.544 308.086V415.467C845.136 413.823 845.97 412.277 847.016 410.878C852.927 402.77 860.219 396.051 867.97 389.808C888.075 373.615 910.37 361.113 934.077 351.062C945.459 346.215 957.19 342.231 969.17 339.146V257.291C946.672 261.318 925.132 268.092 904.163 276.801C883.404 285.445 863.453 295.914 844.544 308.086Z" fill="white"/>
<path d="M844.544 547.071C844.783 546.502 845.064 545.951 845.386 545.424C850.775 536.684 857.989 529.575 865.725 523.004C889.369 502.917 916.063 488.043 945.073 477.289C952.957 474.371 961.044 472.022 969.201 469.361V396.324C923.838 404.854 882.834 423.326 844.544 448.829V547.071Z" fill="white"/>
<path d="M718.81 944.021V942.538C718.81 920.115 718.828 897.695 718.865 875.277C718.889 874.292 719.298 873.357 720.003 872.67C752.437 846.137 788.707 827.026 829.484 816.85C833.945 815.734 838.492 814.93 842.999 814.001C843.516 813.934 844.037 813.9 844.559 813.9C844.559 814.571 844.637 815.148 844.637 815.718C844.637 830.405 844.637 845.092 844.637 859.778C844.637 861.183 844.309 861.729 842.835 862.12C805.169 871.172 772.182 889.129 743.234 914.733C733.635 923.179 725.396 933.058 718.81 944.021Z" fill="white"/>
<path d="M718.81 1076.24V1074.09C718.81 1055.18 718.81 1036.27 718.81 1017.36C718.777 1016.79 718.88 1016.22 719.112 1015.69C719.344 1015.17 719.698 1014.71 720.144 1014.35C753.217 985.31 790.789 964.888 833.828 954.977C837.353 954.196 840.925 953.557 844.699 952.807V954.953C844.699 966.659 844.637 978.365 844.754 990.071C844.754 991.983 844.138 992.552 842.414 992.95C801.699 1002.46 766.77 1022.42 737.261 1051.89C730.239 1058.76 724.274 1066.64 719.559 1075.26C719.426 1075.41 719.27 1075.58 718.81 1076.24Z" fill="white"/>
<path d="M718.81 1207.43V1205.78C718.81 1190.45 718.81 1175.11 718.864 1159.74C718.913 1158.62 719.364 1157.56 720.135 1156.75C753.271 1124.8 791.951 1103.06 837.111 1093.32C838.756 1092.96 840.425 1092.7 842.086 1092.4C842.866 1092.27 843.646 1092.15 844.535 1092.01V1122.66C836.877 1124.82 829.235 1126.61 821.842 1129.13C791.111 1139.54 763.192 1156.9 740.255 1179.86C731.907 1188.05 724.694 1197.32 718.81 1207.43Z" fill="white"/>
<path d="M844.574 1231.08V1253.33C836.815 1255.46 829.102 1257.23 821.624 1259.69C793.986 1268.81 769.608 1283.54 748.155 1303.16C738.142 1312.32 729.221 1322.4 722.132 1334.03C721.087 1335.73 720.136 1337.5 718.911 1339.63C718.864 1338.75 718.818 1338.29 718.818 1337.82C718.818 1326.11 718.818 1314.41 718.857 1302.7C718.885 1301.7 719.253 1300.74 719.902 1299.98C751.805 1265.64 790.336 1242.72 836.238 1232.57C838.951 1232.01 841.704 1231.6 844.574 1231.08Z" fill="white"/>
<path d="M720.034 731.14C719.87 731.266 719.723 731.413 719.598 731.577V811.426C723.848 803.661 729.322 797.184 735.327 791.136C746.44 779.922 758.909 770.425 772.237 762.012C794.283 748.106 817.74 737.5 843.132 731.382C844.691 731.023 844.691 730.266 844.691 729.088C844.691 711.607 844.691 694.124 844.691 676.638V674.617C842.172 675.07 839.864 675.397 837.587 675.912C794.134 685.269 755.252 704.295 720.034 731.14Z" fill="white"/>
<path d="M719.925 679.174C720.056 678.841 720.21 678.518 720.385 678.206C725.064 669.841 731.576 662.911 738.641 656.551C765.577 632.289 796.645 615.261 831.021 604.125C835.497 602.673 840.067 601.526 844.582 600.223V535.435C798.844 543.973 757.887 563.069 719.925 589.82V679.174Z" fill="white"/>
<path d="M719.925 308.086V415.467C720.511 413.822 721.342 412.275 722.389 410.878C728.3 402.77 735.592 396.051 743.343 389.808C763.455 373.615 785.743 361.113 809.45 351.062C820.833 346.215 832.563 342.231 844.543 339.146V257.291C822.052 261.318 800.506 268.092 779.536 276.801C758.779 285.443 738.831 295.913 719.925 308.086Z" fill="white"/>
<path d="M719.925 547.071C720.158 546.5 720.437 545.95 720.759 545.424C726.156 536.684 733.362 529.575 741.098 523.004C764.742 502.917 791.436 488.043 820.446 477.289C828.33 474.371 836.417 472.022 844.574 469.361V396.324C799.211 404.854 758.207 423.326 719.925 448.829V547.071Z" fill="white"/>
<path d="M1341.44 944.021V942.538C1341.44 920.115 1341.45 897.695 1341.48 875.277C1341.51 874.293 1341.92 873.359 1342.62 872.67C1375.06 846.137 1411.33 827.026 1452.11 816.85C1456.57 815.734 1461.11 814.93 1465.62 814.001C1466.14 813.935 1466.66 813.901 1467.18 813.9C1467.18 814.571 1467.26 815.148 1467.26 815.718C1467.26 830.405 1467.26 845.092 1467.26 859.778C1467.26 861.183 1466.92 861.729 1465.45 862.12C1427.79 871.172 1394.79 889.129 1365.85 914.733C1356.25 923.178 1348.02 933.057 1341.44 944.021Z" fill="white"/>
<path d="M1341.44 1076.24V1074.09C1341.44 1055.18 1341.44 1036.27 1341.44 1017.36C1341.41 1016.79 1341.51 1016.22 1341.75 1015.69C1341.98 1015.17 1342.33 1014.71 1342.78 1014.35C1375.85 985.31 1413.42 964.888 1456.46 954.977C1459.99 954.196 1463.56 953.557 1467.33 952.807V954.953C1467.33 966.659 1467.27 978.365 1467.39 990.071C1467.39 991.983 1466.77 992.552 1465.05 992.95C1424.34 1002.46 1389.4 1022.42 1359.9 1051.89C1352.88 1058.76 1346.92 1066.64 1342.2 1075.26C1342.05 1075.41 1341.87 1075.58 1341.44 1076.24Z" fill="white"/>
<path d="M1341.44 1207.43V1205.78C1341.44 1190.45 1341.44 1175.11 1341.49 1159.74C1341.54 1158.63 1341.99 1157.57 1342.75 1156.75C1375.89 1124.8 1414.58 1103.06 1459.73 1093.32C1461.38 1092.96 1463.04 1092.7 1464.71 1092.4C1465.49 1092.27 1466.27 1092.15 1467.15 1092.01V1122.66C1459.5 1124.82 1451.85 1126.61 1444.45 1129.13C1413.72 1139.54 1385.81 1156.9 1362.87 1179.86C1354.53 1188.05 1347.32 1197.32 1341.44 1207.43Z" fill="white"/>
<path d="M1467.19 1231.08V1253.33C1459.44 1255.46 1451.72 1257.23 1444.24 1259.69C1416.61 1268.81 1392.24 1283.54 1370.78 1303.16C1360.77 1312.32 1351.85 1322.4 1344.76 1334.03C1343.71 1335.73 1342.76 1337.5 1341.54 1339.63C1341.49 1338.75 1341.44 1338.29 1341.44 1337.82C1341.44 1326.11 1341.44 1314.41 1341.48 1302.7C1341.51 1301.7 1341.88 1300.74 1342.53 1299.98C1374.43 1265.64 1412.96 1242.72 1458.86 1232.57C1461.58 1232.01 1464.3 1231.6 1467.19 1231.08Z" fill="white"/>
<path d="M1342.64 731.14C1342.48 731.268 1342.34 731.415 1342.21 731.577V811.426C1346.46 803.661 1351.94 797.184 1357.94 791.136C1369.05 779.922 1381.53 770.425 1394.85 762.012C1416.9 748.106 1440.36 737.5 1465.75 731.382C1467.31 731.023 1467.31 730.266 1467.31 729.088C1467.31 711.607 1467.31 694.124 1467.31 676.638V674.617C1464.79 675.07 1462.49 675.397 1460.21 675.912C1416.73 685.269 1377.88 704.295 1342.64 731.14Z" fill="white"/>
<path d="M1342.54 679.174C1342.68 678.843 1342.84 678.52 1343.01 678.206C1347.69 669.841 1354.2 662.911 1361.26 656.551C1388.2 632.289 1419.27 615.261 1453.65 604.125C1458.12 602.673 1462.69 601.526 1467.2 600.223V535.435C1421.47 543.973 1380.51 563.069 1342.54 589.82V679.174Z" fill="white"/>
<path d="M1342.54 308.086V415.467C1343.14 413.823 1343.97 412.277 1345.02 410.878C1350.93 402.77 1358.22 396.051 1365.97 389.808C1386.07 373.615 1408.37 361.113 1432.08 351.062C1443.46 346.215 1455.19 342.231 1467.17 339.146V257.291C1444.67 261.318 1423.13 268.092 1402.16 276.801C1381.4 285.445 1361.45 295.914 1342.54 308.086Z" fill="white"/>
<path d="M1342.54 547.071C1342.78 546.502 1343.06 545.951 1343.39 545.424C1348.78 536.684 1355.99 529.575 1363.72 523.004C1387.37 502.917 1414.06 488.043 1443.07 477.289C1450.96 474.371 1459.04 472.022 1467.2 469.361V396.324C1421.84 404.854 1380.83 423.326 1342.54 448.829V547.071Z" fill="white"/>
<path d="M1216.81 944.021V942.538C1216.81 920.115 1216.83 897.695 1216.86 875.277C1216.89 874.292 1217.3 873.357 1218 872.67C1250.44 846.137 1286.71 827.026 1327.48 816.85C1331.95 815.734 1336.49 814.93 1341 814.001C1341.52 813.934 1342.04 813.9 1342.56 813.9C1342.56 814.571 1342.64 815.148 1342.64 815.718C1342.64 830.405 1342.64 845.092 1342.64 859.778C1342.64 861.183 1342.31 861.729 1340.84 862.12C1303.17 871.172 1270.18 889.129 1241.23 914.733C1231.63 923.179 1223.4 933.058 1216.81 944.021Z" fill="white"/>
<path d="M1216.81 1076.24V1074.09C1216.81 1055.18 1216.81 1036.27 1216.81 1017.36C1216.78 1016.79 1216.88 1016.22 1217.11 1015.69C1217.34 1015.17 1217.7 1014.71 1218.14 1014.35C1251.22 985.31 1288.79 964.888 1331.83 954.977C1335.35 954.196 1338.92 953.557 1342.7 952.807V954.953C1342.7 966.659 1342.64 978.365 1342.75 990.071C1342.75 991.983 1342.14 992.552 1340.41 992.95C1299.7 1002.46 1264.77 1022.42 1235.26 1051.89C1228.24 1058.76 1222.27 1066.64 1217.56 1075.26C1217.43 1075.41 1217.27 1075.58 1216.81 1076.24Z" fill="white"/>
<path d="M1216.81 1207.43V1205.78C1216.81 1190.45 1216.81 1175.11 1216.86 1159.74C1216.91 1158.62 1217.36 1157.56 1218.14 1156.75C1251.27 1124.8 1289.95 1103.06 1335.11 1093.32C1336.76 1092.96 1338.43 1092.7 1340.09 1092.4C1340.87 1092.27 1341.65 1092.15 1342.54 1092.01V1122.66C1334.88 1124.82 1327.23 1126.61 1319.84 1129.13C1289.11 1139.54 1261.19 1156.9 1238.26 1179.86C1229.91 1188.05 1222.69 1197.32 1216.81 1207.43Z" fill="white"/>
<path d="M1342.57 1231.08V1253.33C1334.81 1255.46 1327.1 1257.23 1319.62 1259.69C1291.99 1268.81 1267.61 1283.54 1246.16 1303.16C1236.14 1312.32 1227.22 1322.4 1220.13 1334.03C1219.09 1335.73 1218.14 1337.5 1216.91 1339.63C1216.86 1338.75 1216.82 1338.29 1216.82 1337.82C1216.82 1326.11 1216.82 1314.41 1216.86 1302.7C1216.88 1301.7 1217.25 1300.74 1217.9 1299.98C1249.8 1265.64 1288.34 1242.72 1334.24 1232.57C1336.95 1232.01 1339.7 1231.6 1342.57 1231.08Z" fill="white"/>
<path d="M1218.03 731.14C1217.87 731.266 1217.72 731.413 1217.6 731.577V811.426C1221.85 803.661 1227.32 797.184 1233.33 791.136C1244.44 779.922 1256.91 770.425 1270.24 762.012C1292.28 748.106 1315.74 737.5 1341.13 731.382C1342.69 731.023 1342.69 730.266 1342.69 729.088C1342.69 711.607 1342.69 694.124 1342.69 676.638V674.617C1340.17 675.07 1337.86 675.397 1335.59 675.912C1292.13 685.269 1253.25 704.295 1218.03 731.14Z" fill="white"/>
<path d="M1217.93 679.174C1218.06 678.841 1218.21 678.518 1218.39 678.206C1223.06 669.841 1229.58 662.911 1236.64 656.551C1263.58 632.289 1294.65 615.261 1329.02 604.125C1333.5 602.673 1338.07 601.526 1342.58 600.223V535.435C1296.84 543.973 1255.89 563.069 1217.93 589.82V679.174Z" fill="white"/>
<path d="M1217.93 308.086V415.467C1218.51 413.822 1219.34 412.275 1220.39 410.878C1226.3 402.77 1233.59 396.051 1241.34 389.808C1261.46 373.615 1283.74 361.113 1307.45 351.062C1318.83 346.215 1330.56 342.231 1342.54 339.146V257.291C1320.05 261.318 1298.51 268.092 1277.54 276.801C1256.78 285.443 1236.83 295.913 1217.93 308.086Z" fill="white"/>
<path d="M1217.93 547.071C1218.16 546.5 1218.44 545.95 1218.76 545.424C1224.16 536.684 1231.36 529.575 1239.1 523.004C1262.74 502.917 1289.44 488.043 1318.45 477.289C1326.33 474.371 1334.42 472.022 1342.57 469.361V396.324C1297.21 404.854 1256.21 423.326 1217.93 448.829V547.071Z" fill="white"/>
</mask>
<g mask="url(#mask0_103_403)">
<rect width="1510.14" height="381.337" transform="matrix(1 0 0 -1 -35.3452 573.953)" fill="white"/>
</g>
</g>
<defs>
<linearGradient id="paint0_linear_103_403" x1="755.071" y1="0" x2="755.071" y2="627.229" gradientUnits="userSpaceOnUse">
<stop stop-color="#E4E8EF" stop-opacity="0"/>
<stop offset="0.897522" stop-color="#E4E8EF"/>
</linearGradient>
</defs>
</svg>
