<svg width="61" height="61" viewBox="0 0 61 61" fill="none" xmlns="http://www.w3.org/2000/svg">
<circle cx="30.6644" cy="30.2523" r="29.8572" fill="#0077FF"/>
<path d="M30.6699 16.912C36.2448 16.912 40.5106 21.5841 40.5106 27.4965L40.5048 29.8179C40.5052 30.3068 40.7872 30.8112 41.5181 31.6715C41.6051 31.7738 41.5152 31.6696 41.8639 32.073C43.1745 33.5894 43.6869 34.4525 43.6869 35.7643C43.6869 36.0025 43.6796 36.1647 43.6474 36.385C43.599 36.7157 43.5041 37.0366 43.3473 37.3448C42.7631 38.494 41.5019 39.1461 39.5577 39.1461H36.0117L35.9808 39.2618C35.1877 42.0808 33.3635 43.5929 30.6641 43.5929C27.9281 43.5929 26.0913 42.0396 25.3157 39.1468L21.7704 39.1461C19.7693 39.1461 18.4966 38.4774 17.9388 37.291C17.8003 36.9964 17.7173 36.6914 17.6754 36.3752C17.6474 36.1638 17.6412 36.0088 17.6412 35.7643C17.6412 34.453 18.1527 33.59 19.4608 32.0737C19.8088 31.6702 19.7191 31.7744 19.8059 31.6721C20.536 30.8111 20.8175 30.3066 20.8175 29.8168V27.4941C20.8175 21.5863 25.0932 16.912 30.6699 16.912ZM34.0221 39.1467H27.3061C27.9049 40.8952 28.9826 41.6871 30.6641 41.6871C32.3455 41.6871 33.4232 40.8952 34.0221 39.1467ZM30.6699 18.8178C26.1856 18.8178 22.7233 22.6028 22.7233 27.4941V29.8168C22.7233 30.8971 22.2645 31.7196 21.2594 32.9048C21.2053 32.9685 21.1487 33.0346 21.0804 33.1139C20.9916 33.2169 20.9916 33.2169 20.9038 33.3186C19.8892 34.4946 19.547 35.0721 19.547 35.7643C19.547 36.0949 19.5724 36.2864 19.6635 36.4801C19.8781 36.9367 20.4561 37.2403 21.7704 37.2403H39.5577C40.8311 37.2403 41.4164 36.9377 41.6485 36.4812C41.7519 36.2778 41.7811 36.0781 41.7811 35.7643C41.7811 35.0725 41.4383 34.4951 40.422 33.3192C40.3341 33.2176 40.3341 33.2176 40.245 33.1145C40.1766 33.0352 40.12 32.9692 40.0658 32.9054C39.0587 31.7201 38.599 30.8976 38.599 29.8168L38.6048 27.4941C38.6048 22.5999 35.1516 18.8178 30.6699 18.8178Z" fill="white"/>
</svg>
