<svg width="528" height="496" viewBox="0 0 528 496" fill="none" xmlns="http://www.w3.org/2000/svg">
<g clip-path="url(#clip0_44_8092)">
<path d="M433.318 432.165C439.144 437.991 448.326 456.541 449.299 464.337C449.299 464.337 484.29 467.553 478.429 457.409C467.226 437.921 461.126 412.642 461.126 412.642L433.318 432.165Z" fill="#FFA9A9"/>
<path d="M388.475 457.49C388.353 449.101 387.741 427.195 387.741 426.612C387.741 426.029 353.292 417.29 353.292 417.29C353.292 417.29 362.409 449.334 359.572 461.265C358.302 466.631 387.339 463.497 387.339 463.497L388.475 457.49Z" fill="#FFA9A9"/>
<path d="M357.807 436.353C364.087 438.683 382.434 441.969 388.16 442.96C387.957 434.861 387.741 426.967 387.741 426.606L356.35 429.455C356.84 431.616 357.341 433.947 357.807 436.353Z" fill="#FF8481"/>
<path d="M331.264 94.0741L434.28 37.783C438.358 35.5399 434.373 26.4863 436.47 30.3198L421.631 3.10641C420.931 1.82723 419.752 0.878479 418.352 0.468781C416.953 0.0590823 415.448 0.221976 414.168 0.921646L311.152 57.207C310.519 57.5539 309.823 57.7725 309.104 57.8502C308.386 57.9279 307.66 57.8632 306.966 57.6597C306.273 57.4562 305.627 57.118 305.064 56.6644C304.502 56.2108 304.035 55.6508 303.689 55.0164L298.119 44.8441C297.598 43.89 296.805 43.112 295.841 42.6084C294.877 42.1049 293.786 41.8983 292.704 42.0149C291.623 42.1315 290.601 42.566 289.767 43.2635C288.932 43.961 288.323 44.8902 288.017 45.9336L272.869 97.6338C272.666 98.327 272.601 99.0535 272.678 99.7718C272.755 100.49 272.973 101.186 273.319 101.82C273.665 102.454 274.133 103.014 274.696 103.467C275.258 103.921 275.905 104.259 276.598 104.462L328.298 119.61C329.344 119.923 330.46 119.918 331.503 119.595C332.546 119.273 333.47 118.648 334.157 117.799C334.844 116.95 335.263 115.917 335.361 114.829C335.459 113.742 335.231 112.65 334.707 111.692L329.149 101.52C328.448 100.251 328.276 98.756 328.672 97.3613C329.069 95.9666 330 94.785 331.264 94.0741Z" fill="#0077FF"/>
<path d="M411.301 106.413C415.379 103.616 432.572 151.302 427.929 156.365C423.285 161.428 410.27 135.846 410.27 135.846L411.301 106.413Z" fill="#212121"/>
<path d="M349.196 133.719C346.499 132.962 335.796 124.182 344.099 112.495C353.566 99.1708 362.684 91.2241 373.438 98.2386C381.595 97.5337 385.009 102.562 387.578 117.639C389.006 126.087 389.588 140.204 371.801 136.923C356.071 134.028 349.196 133.719 349.196 133.719Z" fill="#2929B2"/>
<path d="M318.254 268.301L346.86 431.89C346.86 431.89 367.537 439.341 389.588 436.37C393.614 435.828 390.986 306.642 390.986 306.642L332.679 269.384L318.254 268.301Z" fill="#FF3985"/>
<path d="M385.347 238.781C385.347 238.781 469.947 414.768 468.513 416.598C463.468 423.006 446.858 433.779 425.366 435.241C422.523 435.433 321.808 277.938 321.808 277.938L385.347 238.781Z" fill="#FF3985"/>
<path d="M363.371 457.997C358.302 455.62 359.112 455.958 348.031 463.904C339.74 469.853 327.558 476.786 322.07 481.074C320.702 482.128 319.765 483.645 319.433 485.34C319.102 487.035 319.399 488.793 320.27 490.285C322.099 493.367 325.292 496.466 330.71 496.466H389.931C393.008 496.466 394.278 494.474 393.678 484.132C393.136 474.712 390.945 458.253 388.492 457.49C370.315 451.856 366.138 453.814 363.371 457.997Z" fill="#2929B2"/>
<path d="M349.196 133.72C352.692 139.162 349.709 148.728 348.777 150.249C343.661 158.563 347.437 171.974 356.997 168.711C366.558 165.449 375.775 145.809 375.775 145.809C375.775 145.809 373.444 140.84 377.575 132.934C381.705 125.028 349.196 133.72 349.196 133.72Z" fill="#FFA9A9"/>
<path d="M355.92 140.519C355.67 140.522 355.427 140.594 355.215 140.727C355.004 140.859 354.832 141.046 354.72 141.269C354.607 141.491 354.557 141.74 354.575 141.989C354.594 142.238 354.68 142.477 354.824 142.68C356.514 145.069 360.347 147.219 365.072 146.374C373.858 144.795 375.722 138.345 375.722 138.345L355.92 140.519Z" fill="#FF8481"/>
<path d="M329.842 142.209C340.067 139.971 348.841 148.769 359.718 150.761C371.114 152.847 409.478 106.204 411.302 106.431C409.816 115.339 418.293 153.703 427.929 156.383C420.419 170.861 391.347 186.679 389.769 198.214C385.69 228.148 398.933 252.029 398.42 258.723C398.269 260.763 397.133 259.766 395.711 259.615C371.119 232.232 363.144 295.422 335.668 295.923C319.856 296.208 317.939 292.8 316.693 276.563C315.446 260.326 311.006 220.575 310.36 209.563C309.725 198.838 292.048 186.638 296.604 177.986C301.16 169.335 316.057 145.226 329.842 142.209Z" fill="#2929B2"/>
<path d="M404.846 112.728L400.623 117.249C402.606 123.397 405.772 129.097 409.944 134.028C412.229 136.769 414.828 139.233 417.687 141.369H417.891C416.778 138.328 415.764 135.054 414.885 131.75C409.972 126.369 406.517 119.821 404.846 112.728Z" fill="#0077FF"/>
<path d="M379.684 253.731C376.008 248.538 373.612 242.549 372.693 236.253H367.408V236.201C359.089 236.201 343.399 222.282 341.057 204.623H335.773V204.571C327.453 204.571 311.764 190.647 309.428 172.988H304.138V172.936C302.724 172.891 301.33 172.589 300.024 172.044L299.442 172.988H304.103C305.396 184.267 311.333 192.901 315.05 197.306C317.33 200.035 319.919 202.49 322.764 204.623H335.732C337.026 215.903 342.968 224.537 346.685 228.941C348.962 231.671 351.551 234.125 354.399 236.253H367.368C368.352 244.835 372.028 251.873 375.361 256.697C376.643 255.494 378.1 254.494 379.684 253.731Z" fill="#0077FF"/>
<path d="M372.692 204.617H367.408V204.565C359.088 204.565 343.399 190.641 341.057 172.982H335.773V172.93C329.539 172.93 319.174 165.117 313.377 153.774C312.136 155.143 310.925 156.57 309.754 158.027C311.295 160.728 313.077 163.284 315.079 165.665C317.361 168.393 319.951 170.849 322.798 172.982H335.761C337.054 184.261 342.997 192.896 346.714 197.3C348.993 200.03 351.581 202.486 354.428 204.617H367.396C368.69 215.897 374.632 224.531 378.344 228.935C380.624 231.664 383.215 234.118 386.063 236.247H392.501C392.303 235.472 392.11 234.674 391.918 233.864C383.855 229.192 374.44 217.977 372.692 204.617Z" fill="#0077FF"/>
<path d="M373.147 144.033C371.55 145.309 370.012 146.456 368.556 147.418C370.479 154.125 373.81 160.346 378.326 165.665C380.609 168.395 383.201 170.851 386.051 172.982H399.014C399.416 176.383 400.236 179.722 401.455 182.922C402.819 181.692 404.246 180.451 405.708 179.193C405.061 177.168 404.593 175.09 404.31 172.982H399.026V172.93C391.132 172.93 376.613 160.398 373.147 144.033Z" fill="#0077FF"/>
<path d="M341.425 143.596C339.627 142.883 337.758 142.368 335.849 142.057C337.306 152.987 343.062 161.353 346.697 165.665C348.978 168.395 351.569 170.85 354.417 172.982H367.38C368.673 184.261 374.616 192.895 378.327 197.3C380.609 200.029 383.199 202.484 386.046 204.617H389.152C389.233 203.301 389.338 201.978 389.484 200.638C382.05 195.29 374.266 185.007 372.675 172.982H367.391V172.93C359.427 172.93 344.728 160.176 341.425 143.596Z" fill="#0077FF"/>
<path d="M404.311 141.369H399.026V141.316C395.204 141.316 389.827 138.374 384.904 133.486C383.638 134.713 382.375 135.918 381.117 137.098C382.655 138.641 384.304 140.068 386.052 141.369H399.015C400.308 152.648 406.251 161.282 409.962 165.687C411.569 167.591 413.322 169.367 415.205 171C416.534 169.835 417.827 168.605 419.056 167.411C412.31 161.76 405.755 152.252 404.311 141.369Z" fill="#0077FF"/>
<path d="M341.04 236.246H335.755V236.194C328.182 236.194 314.415 224.583 310.307 209.109C310.307 209.266 310.348 209.423 310.36 209.581C310.54 212.645 311.012 217.953 311.636 224.361C312.692 225.948 313.836 227.475 315.061 228.935C317.339 231.664 319.927 234.118 322.775 236.246H335.744C337.037 247.531 342.98 256.166 346.697 260.564C348.977 263.295 351.568 265.75 354.416 267.882H366.377C366.4 267.843 366.426 267.807 366.453 267.771C357.941 266.81 343.294 253.264 341.04 236.246Z" fill="#0077FF"/>
<path d="M309.025 204.617C309.265 205.147 309.477 205.69 309.66 206.242C309.567 205.706 309.48 205.159 309.41 204.617H309.025Z" fill="#0077FF"/>
<path d="M341.04 267.883H335.755V267.83C329.819 267.83 320.136 260.746 314.199 250.271C314.56 253.888 314.916 257.442 315.242 260.804C317.471 263.44 319.993 265.815 322.757 267.883H335.72C337.008 279.104 342.892 287.691 346.609 292.125C348.036 291.123 349.383 290.011 350.635 288.798C345.98 283.263 342.112 275.952 341.04 267.883Z" fill="#0077FF"/>
<path d="M325.729 295.177C322.991 293.103 320.522 290.698 318.376 288.016C319.611 292.031 321.715 294.175 325.729 295.177Z" fill="#0077FF"/>
<path d="M369.628 101.805C378.111 104.433 380.575 103.932 379.171 124.148C379.066 125.663 382.818 124.463 382.906 127.924C382.946 129.712 381.799 132.037 378.827 131.844C376.695 140.211 371.254 144.901 360.767 142.459C349.319 139.785 346.161 132.777 347.949 124.107C348.142 123.164 345.345 120.979 347.705 117.874C350.064 114.768 351.783 118.602 352.366 117.408C360.534 101.695 362.684 99.6498 369.628 101.805Z" fill="#FFA9A9"/>
<path d="M360.405 112.118C359.648 113.399 359.98 113.999 361.431 114.256C362.328 114.413 363.272 114.093 363.178 112.467C363.144 111.156 361.285 110.609 360.405 112.118Z" fill="#212121"/>
<path d="M374.33 115.828C374.435 117.314 373.875 117.704 372.46 117.29C371.586 117.034 370.881 116.329 371.667 114.908C372.297 113.754 374.202 114.086 374.33 115.828Z" fill="#212121"/>
<path d="M359.905 106.488C361.868 105.248 368.061 104.333 367.286 107.269C367.053 108.166 365.393 108.195 364.105 108.166C362.818 108.137 361.775 108.306 360.441 108.044C359.444 107.846 359.258 106.902 359.905 106.488Z" fill="#2929B2"/>
<path d="M377.692 112.24C375.46 112.322 369.995 110.032 372.005 107.929C372.629 107.277 373.98 107.882 375.035 108.512C376.086 109.142 377.079 109.865 378 110.673C378.729 111.337 378.426 112.24 377.692 112.24Z" fill="#2929B2"/>
<path d="M367.711 119.528C368.049 118.946 367.164 119.225 366.296 118.241C365.311 117.128 368.009 112.828 367.461 112.601C366.913 112.374 364.845 116.056 364.647 117.693C364.426 119.674 367.146 120.495 367.711 119.528Z" fill="#FF8481"/>
<path d="M357.586 121.257C355.43 122.16 355.354 130.416 362.188 132.56C369.424 134.826 373.1 127.503 371.923 126.011C371.3 125.213 358.512 120.873 357.586 121.257Z" fill="white"/>
<path d="M424.911 37.8752C426.03 37.2518 420.95 22.7275 423.012 20.4262C423.938 19.3834 425.255 21.8245 425.628 20.6767C426.869 16.8199 427.743 17.822 429.607 19.5581C434.157 15.4799 440.199 34.1232 440.094 41.2951C440.047 44.0566 429.665 50.0982 430.574 52.8889C436.884 72.2954 448.215 90.2396 443.502 106.622C440.28 117.838 425.867 142.406 421.107 149.013C410.76 129.717 410.562 107.287 410.562 107.287C410.562 107.287 417.064 100.004 418.072 94.5567C419.103 88.9753 412.211 55.1144 412.712 50.8964C412.869 49.5273 412.088 49.5447 418.485 46.2938C421.282 44.8781 412.828 30.7558 416.155 27.9243C418.8 25.658 423.787 38.4927 424.911 37.8752Z" fill="#FFA9A9"/>
<path d="M282.774 168.355C285.25 168.425 293.354 194.095 296.471 194.31C299.588 194.526 312.784 125.709 313.11 124.672C315.86 116.014 311.647 114.727 311.647 114.727C311.647 114.727 307.995 113.527 305.239 112.74C302.483 111.954 308.233 102.358 307.628 99.1189C307.208 96.905 305.122 96.9982 304.173 98.5363C303.06 100.371 299.413 109.367 298.498 109.285C297.583 109.204 301.487 98.7984 300.566 95.4951C299.879 93.0132 297.583 94.4114 296.71 94.6678C296.127 94.8426 296.389 93.7939 295.871 93.1763C295.672 92.9621 295.427 92.7959 295.154 92.6902C294.882 92.5845 294.589 92.5421 294.298 92.5662C294.007 92.5903 293.725 92.6804 293.473 92.8295C293.222 92.9785 293.008 93.1828 292.847 93.4268C291.862 94.6911 287.603 105.079 286.607 105.551C285.611 106.023 290.196 94.19 287.027 94.6853C284.976 95.0115 280.035 109.833 282.028 114.15C284.02 118.467 296.867 121.299 296.139 125.336C293.534 139.907 276.563 168.198 282.774 168.355Z" fill="#FFA9A9"/>
<path d="M24.8202 222.246C23.9987 224.14 44.7393 232.057 43.6324 235.454C37.381 254.563 28.2575 293.871 34.9516 312.084C42.8401 333.535 65.5092 323.631 76.3806 315.707C87.2519 307.784 68.8766 243.465 68.8766 243.465L68.1367 213.921C68.1367 213.921 29.1489 212.313 24.8202 222.246Z" fill="#8024C0"/>
<path d="M68.7017 225.026C70.8049 220.808 71.3525 192.709 61.8736 194.568C52.3946 196.426 29.708 205.054 10.4996 217.942C1.41096 224.03 0.46132 233.759 8.75176 235.21C12.7426 235.909 22.1517 235.589 29.9353 236.224C36.6061 236.766 41.1795 240.739 42.2923 239.871C44.6984 237.989 42.4437 223.558 47.1512 222.166C51.8586 220.773 61.7279 229.157 68.7017 225.026Z" fill="white"/>
<path d="M68.9233 203.021C67.7872 197.778 65.6083 193.834 61.8738 194.568C52.4007 196.42 35.5576 200.883 10.0221 216.345C4.23106 219.841 2.00551 226.104 3.03089 230.299C3.27831 231.475 3.87296 232.551 4.73795 233.386C8.81618 231.691 13.809 218.751 36.4374 208.201C46.8718 203.33 65.3927 196.263 68.9233 203.021Z" fill="#212121"/>
<path d="M213.374 431.773C213.625 433.276 216.386 448.267 214.883 450.271C213.38 452.275 219.637 472.048 219.637 472.048L237.418 470.551L239.469 454.99L239.667 436.748L213.374 431.773Z" fill="#FFA9A9"/>
<path d="M266.659 431.773C266.408 433.276 263.653 448.267 265.156 450.271C266.659 452.275 260.396 472.048 260.396 472.048L242.621 470.551L240.651 457.151L240.366 436.76L266.659 431.773Z" fill="#FFA9A9"/>
<path d="M225.399 116.621C225.399 116.621 222.561 109.938 223.208 92.3728C223.255 91.2076 223.395 89.8967 224.641 88.8772C227.589 86.5468 228.859 88.3703 230.788 87.409C232.716 86.4477 233.817 83.3308 237.126 83.459C240.436 83.5872 241.548 85.568 243.203 85.4282C244.858 85.2884 246.25 84.0066 248.446 84.1465C250.643 84.2863 251.901 87.7411 253.83 87.8809C255.758 88.0208 257.325 86.9546 259.038 88.6849C260.39 90.0366 260.262 91.464 260.244 92.6059C260.116 100.18 259.475 112.059 257.034 116.97C250.928 129.316 225.399 116.621 225.399 116.621Z" fill="#FF3985"/>
<path d="M128.704 346.516C128.704 346.516 105.93 415.764 101.718 449.421C97.5059 483.078 90.0369 480.736 90.0369 480.736L78.3499 455.976C78.3499 455.976 73.7765 414.489 79.2413 380.121C83.3196 354.614 93.6433 339.974 93.6433 329.219C93.6433 318.464 128.704 346.516 128.704 346.516Z" fill="#8024C0"/>
<path d="M160.042 150.616C160.042 150.616 135.311 154.921 125.669 154.444C116.027 153.966 97.7038 217.778 97.7038 217.778C97.663 217.959 62.8117 249.006 53.6765 268.523C48.8117 278.905 42.9274 312.987 60.6036 330.448C64.6294 334.416 66.8141 336.897 71.0904 333.21L85.0088 322.624C85.0088 322.624 79.7655 333.07 84.2632 337.189C88.7609 341.308 112.228 352.488 133.516 350.251C133.516 350.251 152.544 254.704 155.533 248.01C158.522 241.316 176.559 210.968 176.122 190.687C175.685 170.407 160.042 150.616 160.042 150.616Z" fill="#212121"/>
<path d="M93.8702 252.408C91.4649 252.442 89.0671 252.13 86.7507 251.481C86.6051 251.432 86.4848 251.327 86.416 251.19C86.3473 251.052 86.3356 250.893 86.3837 250.747C86.408 250.675 86.4465 250.607 86.4969 250.549C86.5473 250.492 86.6086 250.444 86.6774 250.41C86.7461 250.376 86.8209 250.356 86.8975 250.351C86.9741 250.346 87.0509 250.356 87.1236 250.38C91.8712 251.657 96.8837 251.558 101.578 250.097C106.272 248.635 110.454 245.871 113.638 242.125C113.688 242.067 113.75 242.019 113.819 241.985C113.888 241.951 113.964 241.931 114.041 241.926C114.118 241.921 114.195 241.931 114.268 241.957C114.34 241.982 114.408 242.021 114.465 242.072C114.581 242.174 114.651 242.318 114.661 242.472C114.671 242.626 114.619 242.778 114.518 242.894C107.608 250.73 99.5331 252.408 93.8702 252.408Z" fill="#0077FF"/>
<path d="M49.9306 286.292C49.8072 286.293 49.6868 286.254 49.5869 286.181C49.5248 286.136 49.4721 286.079 49.432 286.014C49.392 285.949 49.3652 285.876 49.3533 285.8C49.3414 285.724 49.3446 285.647 49.3627 285.572C49.3808 285.498 49.4133 285.428 49.4586 285.366C57.2014 274.757 63.5401 269.379 90.2409 246.745C102.644 236.217 109.741 215.156 109.811 214.946C109.834 214.873 109.872 214.805 109.922 214.747C109.973 214.688 110.034 214.64 110.103 214.606C110.171 214.571 110.246 214.55 110.323 214.545C110.4 214.539 110.477 214.549 110.55 214.574C110.623 214.598 110.691 214.636 110.748 214.687C110.806 214.737 110.854 214.798 110.888 214.867C110.922 214.936 110.942 215.011 110.947 215.087C110.952 215.164 110.942 215.241 110.918 215.313C110.848 215.529 103.647 236.87 90.9924 247.631C64.4024 270.195 58.0812 275.555 50.4199 286.053C50.364 286.13 50.2902 286.192 50.2049 286.233C50.1196 286.275 50.0254 286.295 49.9306 286.292Z" fill="#0077FF"/>
<path d="M157.869 139.755C157.869 139.755 200.487 61.0398 205.386 52.4638C210.286 43.8879 213.793 28.6237 216.403 27.6915C222.107 25.6524 215.197 43.8296 217.639 44.1967C224.904 45.2862 246.734 37.153 248.569 38.3707C249.868 39.2387 249.192 40.736 248.686 41.5458C248.647 41.6042 248.623 41.6712 248.617 41.7409C248.61 41.8106 248.621 41.8808 248.648 41.9454C248.675 42.0099 248.718 42.0668 248.772 42.1109C248.826 42.155 248.891 42.1851 248.959 42.1984C249.921 42.4197 251.435 43.0723 251.348 45.0473C251.179 48.8925 239.923 53.128 235.618 55.3128C235.56 55.3388 235.513 55.3856 235.488 55.444C235.462 55.5024 235.459 55.5682 235.48 55.6286C235.5 55.689 235.542 55.7397 235.598 55.7707C235.654 55.8017 235.719 55.8108 235.781 55.7963C239.999 55.0273 249.996 52.0094 250.031 55.3302C250.066 59.257 221.624 66.0443 215.565 72.517C208.725 79.8112 192.89 146.613 186.359 158.125C181.401 166.858 157.869 139.755 157.869 139.755Z" fill="#FF8481"/>
<path d="M158.691 136.464C158.691 136.464 175.295 137.535 187.238 153.446C187.986 154.464 188.451 155.661 188.586 156.917C188.721 158.173 188.521 159.442 188.007 160.595C184.972 167.545 178.447 182.786 176.128 190.669C176.128 190.669 163.62 153.481 150.581 152.322C137.542 151.163 158.691 136.464 158.691 136.464Z" fill="white"/>
<path d="M133.784 156.318C140.432 164.533 142.523 177.962 142.785 188.781C142.972 196.739 147.487 200.666 158.766 199.314C167.843 198.225 167.931 192.714 166.34 185.186C163.899 173.482 156.599 155.328 149.305 152.974C142.011 150.62 133.784 156.318 133.784 156.318Z" fill="white"/>
<path d="M155.061 145.238C153.418 148.536 154.368 159.39 154.368 166.684C154.368 173.978 152.958 178.447 147.778 177.27C142.599 176.093 137.292 157.176 131.419 154.408C131.419 154.408 134.099 145.436 131.058 142.646C128.017 139.855 155.061 145.238 155.061 145.238Z" fill="#FF8481"/>
<path d="M131.646 102.958C129.939 103.47 111.529 99.5087 108.552 114.744C105.575 129.979 108.674 146.204 133.196 144.148C157.718 142.091 170.22 123.436 160.1 106.057C149.981 88.6781 132.84 102.602 131.646 102.958Z" fill="#212121"/>
<path d="M151.927 147.807L152.34 147.65C144.184 150.487 139.29 148.483 137.775 147.97C136.558 147.557 136.476 149.299 139.418 152.084C144.737 157.117 152.317 155.876 154.566 146.392C153.919 146.461 152.131 148.104 151.927 147.807Z" fill="#E85353"/>
<path d="M134.862 111.349C139.779 109.601 143.432 107.766 155.044 124.376C155.626 125.191 157.048 123.327 159.058 124.865C160.45 125.931 160.619 128.553 158.988 131.052C160.608 138.667 157.392 146.462 149.666 149.148C143.205 151.391 134.064 148.315 130.93 142.157C130.493 141.295 125.686 141.091 125.849 137.193C126.013 133.295 130.603 134.577 130.359 133.255C127.417 117.42 129.631 113.201 134.862 111.349Z" fill="#FF8481"/>
<path d="M133.907 124.363C134.023 125.848 134.635 126.151 135.975 125.528C136.797 125.143 137.391 124.363 136.4 123.052C135.602 122.003 133.767 122.621 133.907 124.363Z" fill="#212121"/>
<path d="M147.05 119.282C147.936 120.378 147.714 120.984 146.392 121.426C145.576 121.7 144.644 121.537 144.487 120.011C144.353 118.776 146.007 118.001 147.05 119.282Z" fill="#212121"/>
<path d="M130.365 121.136C131.262 118.992 135.025 115.31 135.899 117.058C136.226 117.926 135.223 118.381 134.151 119.097C133.079 119.814 132.112 120.845 131.238 121.701C130.33 122.144 130.067 121.847 130.365 121.136Z" fill="#212121"/>
<path d="M147.551 113.959C145.256 114.157 140.523 115.019 140.683 113.959C140.817 113.068 142.273 112.794 143.508 112.718C144.729 112.633 145.956 112.658 147.173 112.794C148.157 112.904 148.134 113.516 147.551 113.959Z" fill="#212121"/>
<path d="M142.646 127.894C142.098 127.516 142.966 127.271 143.345 126.013C143.77 124.585 141.323 123.496 141.719 123.059C142.116 122.622 143.764 123.542 144.632 124.946C145.687 126.642 143.566 128.553 142.646 127.894Z" fill="#E85353"/>
<path d="M144.801 131.214C140.898 132.898 137.612 132.502 137.175 133.486C136.15 135.817 142.092 143.175 148.903 140.343C156.11 137.349 153.61 128.295 151.635 127.771C150.586 127.497 149.584 129.134 144.801 131.214Z" fill="white"/>
<path d="M88.8075 107.578C81.2803 123.11 101.753 133.696 110.457 119.579C118.718 106.162 95.2453 94.2767 88.8075 107.578Z" fill="#212121"/>
<path d="M143.677 82.526C136.144 98.0582 156.623 108.644 165.327 94.5276C173.582 81.1336 150.138 69.2543 143.677 82.526Z" fill="#212121"/>
<path d="M125.669 154.444C113.527 151.606 104.963 155.387 84.2515 189.272L83.3135 209.039L96.0725 203.72C96.0725 203.72 119.085 214.999 123.169 214.656C129.928 205.369 147.808 159.623 125.669 154.444Z" fill="white"/>
<path d="M97.0687 194.014C104.101 197.509 125.203 212.5 123.047 214.988C120.891 217.475 100.582 206.249 100.582 206.249L97.0687 194.014Z" fill="#0077FF"/>
<path d="M96.6083 193.611C96.6083 193.611 113.044 203.515 117.075 208.176C117.075 208.176 102.51 248.661 88.2946 239.608C74.0791 230.554 78.5942 203.375 78.5942 203.375L96.6083 193.611Z" fill="#FF8481"/>
<path d="M117.075 208.189C113.044 203.528 96.6084 193.624 96.6084 193.624L96.1773 193.863L94.9421 198.034C98.933 199.625 110.672 212.5 112.42 219.136C115.31 213.106 117.075 208.189 117.075 208.189Z" fill="#E85353"/>
<path d="M83.0923 198.972C82.5097 192.662 90.2466 173.43 92.6469 172.755C97.6165 171.415 99.3353 210.624 92.8392 213.088C86.3432 215.553 83.0923 198.972 83.0923 198.972Z" fill="#8024C0"/>
<path d="M113.05 255.07C112.912 255.071 112.777 255.039 112.654 254.977C112.532 254.915 112.426 254.825 112.345 254.714C90.5727 225.147 81.286 193.139 77.3301 171.49C73.0422 148.034 73.9103 131.325 73.9219 131.156C73.9355 130.925 74.0399 130.709 74.2125 130.555C74.385 130.401 74.6115 130.322 74.8424 130.334C74.957 130.34 75.0692 130.369 75.1727 130.419C75.2761 130.468 75.3688 130.538 75.4451 130.623C75.5215 130.709 75.5802 130.809 75.6178 130.917C75.6553 131.026 75.671 131.14 75.6639 131.255C75.6639 131.418 74.7958 147.964 79.0605 171.227C82.9872 192.679 92.1924 224.396 113.749 253.677C113.817 253.77 113.866 253.875 113.894 253.987C113.921 254.098 113.927 254.214 113.909 254.328C113.892 254.441 113.852 254.551 113.793 254.649C113.733 254.747 113.655 254.833 113.562 254.901C113.413 255.009 113.234 255.068 113.05 255.07Z" fill="#8024C0"/>
<path d="M103.681 249.734C103.492 249.734 103.307 249.674 103.156 249.56C103.005 249.446 102.894 249.286 102.842 249.104C83.9659 184.33 51.3926 135.91 51.0663 135.427C51.0012 135.332 50.9554 135.226 50.9315 135.114C50.9077 135.002 50.9063 134.886 50.9274 134.773C50.9485 134.661 50.9918 134.553 51.0546 134.458C51.1175 134.362 51.1986 134.279 51.2935 134.215C51.4854 134.085 51.7211 134.035 51.9492 134.078C52.1772 134.12 52.3792 134.251 52.5112 134.442C52.8375 134.926 85.5622 183.567 104.52 248.632C104.586 248.853 104.561 249.091 104.452 249.294C104.343 249.497 104.158 249.649 103.938 249.716C103.853 249.734 103.767 249.74 103.681 249.734Z" fill="#8024C0"/>
<path d="M92.9323 219.473C92.7724 219.472 92.6158 219.427 92.4792 219.344C92.3427 219.261 92.2315 219.142 92.1574 219.001C75.1512 186.375 48.13 165.162 47.8795 164.953C47.6977 164.81 47.5797 164.601 47.5513 164.372C47.5229 164.143 47.5864 163.912 47.728 163.729C47.8697 163.546 48.078 163.427 48.3073 163.398C48.5366 163.368 48.7682 163.431 48.9515 163.572C49.2253 163.787 76.5436 185.239 93.7304 218.191C93.8336 218.395 93.8529 218.631 93.7843 218.848C93.7157 219.066 93.5646 219.248 93.3634 219.356C93.2312 219.429 93.0833 219.469 92.9323 219.473Z" fill="#8024C0"/>
<path d="M64.9381 165.087C69.127 161.055 91.5514 206.86 84.5835 211.695C77.6155 216.531 57.9177 171.839 64.9381 165.087Z" fill="#8024C0"/>
<path d="M89.3552 138.934C95.0705 137.885 88.1317 192.283 79.649 192.469C71.1663 192.656 79.7772 140.688 89.3552 138.934Z" fill="#8024C0"/>
<path d="M67.2979 186.917C65.1772 187.156 62.6953 191.234 70.9683 206.032C75.8855 214.824 82.4106 217.457 87.0423 216.321C93.1713 214.818 98.3507 210.326 96.1892 209.068C94.5171 208.095 88.2541 211.054 87.2753 210.076C85.446 208.246 98.9274 200.02 98.2632 196.431C98.1357 195.543 97.6651 194.739 96.9524 194.194C96.9524 194.194 98.7002 192.726 96.8184 190.611C94.9366 188.496 82.7835 198.185 82.0786 196.32C81.3736 194.456 90.3515 187.092 87.9046 184.901C84.5663 181.889 73.2288 198.214 71.516 195.86C69.9313 193.658 67.2979 186.917 67.2979 186.917Z" fill="#FF8481"/>
<path d="M101.106 443.462C106.53 441.329 113.405 456.279 123.432 464.383C135.2 473.874 141.673 475.103 149.247 480.952C150.607 482.004 151.539 483.514 151.872 485.201C152.204 486.889 151.913 488.639 151.053 490.128C149.241 493.257 146.037 496.467 140.519 496.467H79.4393C73.5609 496.467 71.9878 449.952 77.3769 449.952C82.766 449.952 85.6965 468.56 91.5749 465.618C97.4534 462.676 91.4467 447.237 101.106 443.462Z" fill="white"/>
<path d="M263.961 444.073C267.981 442.413 276.033 450.866 287.58 459.803C299.78 469.213 313.553 478.546 313.553 478.546C313.553 478.546 310.057 496.49 299.285 496.49H239.696C233.817 496.49 236.556 456.873 240.541 450.016C245.93 450.016 250.736 468.583 256.615 465.641C262.493 462.699 254.372 448.047 263.961 444.073Z" fill="#212121"/>
<path d="M216.555 444.073C210.239 441.958 208.398 446.503 194.509 459.081C185.618 467.115 176.705 474.677 170.622 478.522C167.995 487.209 176.448 496.467 184.156 496.467H242.189C248.068 496.467 241.711 455.201 239.579 450.051C234.19 450.051 229.751 468.56 223.878 465.618C218.005 462.676 226.406 447.376 216.555 444.073Z" fill="#212121"/>
<path d="M288.675 258.362C288.198 272.63 274.85 431.837 266.787 435.799C263.752 437.291 251.674 438.473 240.086 437.384C225.719 440.04 211.253 437.576 209.179 432.63C204.064 405.154 191.759 289.274 196.531 276.347C201.302 263.419 288.675 258.362 288.675 258.362Z" fill="#212121"/>
<path d="M229.774 139.528C229.774 139.528 206.528 143.344 194.235 157.589C185.729 167.493 177.34 176.815 173.331 203.911C170.168 225.153 181.75 233.176 200.317 235.623C200.317 235.623 190.238 256.124 197.404 269.571C210.186 271.633 223.093 272.822 236.037 273.131C258.758 273.672 276.819 270.497 281.544 267.252C286.269 264.007 283.333 237.574 283.333 237.574C283.333 237.574 304.306 238.215 311.746 216.886C319.186 195.557 292.561 162.255 286.543 157.158C265.435 139.26 250.433 140.204 250.433 140.204L229.774 139.528Z" fill="#8024C0"/>
<path d="M206.453 263.518H206.383C204.175 263.244 202.887 263.052 202.887 263.046C202.811 263.035 202.739 263.009 202.673 262.969C202.607 262.929 202.55 262.877 202.505 262.816C202.459 262.754 202.426 262.684 202.408 262.609C202.39 262.535 202.386 262.458 202.398 262.382C202.422 262.23 202.506 262.094 202.63 262.003C202.754 261.913 202.91 261.875 203.062 261.898C203.062 261.898 204.32 262.091 206.505 262.359C206.581 262.368 206.655 262.392 206.722 262.43C206.788 262.468 206.847 262.519 206.894 262.58C206.941 262.64 206.976 262.71 206.996 262.784C207.016 262.858 207.022 262.935 207.012 263.011C206.994 263.148 206.928 263.275 206.825 263.367C206.723 263.46 206.591 263.514 206.453 263.518Z" fill="#0077FF"/>
<path d="M240.127 265.616H239.317C239.163 265.616 239.015 265.554 238.905 265.445C238.796 265.336 238.735 265.188 238.735 265.033C238.735 264.879 238.796 264.73 238.905 264.621C239.015 264.512 239.163 264.45 239.317 264.45H240.127C242.23 264.45 244.328 264.421 246.361 264.369C246.516 264.369 246.664 264.43 246.773 264.54C246.882 264.649 246.944 264.797 246.944 264.951C246.944 265.106 246.882 265.254 246.773 265.363C246.664 265.473 246.516 265.534 246.361 265.534C244.351 265.587 242.242 265.616 240.127 265.616ZM236.375 265.587C234.045 265.552 231.714 265.482 229.302 265.383C229.148 265.383 229 265.321 228.89 265.212C228.781 265.103 228.72 264.955 228.72 264.8C228.727 264.651 228.792 264.51 228.9 264.407C229.009 264.304 229.153 264.246 229.302 264.247C231.674 264.34 234.045 264.41 236.346 264.445C236.501 264.445 236.649 264.506 236.758 264.615C236.867 264.725 236.929 264.873 236.929 265.027C236.923 265.175 236.861 265.314 236.756 265.418C236.651 265.522 236.511 265.582 236.364 265.587H236.375ZM249.315 265.429C249.165 265.429 249.021 265.372 248.913 265.269C248.804 265.166 248.74 265.025 248.732 264.876C248.732 264.721 248.794 264.573 248.903 264.464C249.012 264.355 249.16 264.293 249.315 264.293C251.703 264.194 254.069 264.054 256.341 263.88C256.418 263.873 256.495 263.882 256.568 263.906C256.641 263.929 256.709 263.967 256.767 264.017C256.826 264.066 256.874 264.127 256.909 264.196C256.943 264.264 256.964 264.339 256.97 264.416C256.981 264.569 256.931 264.721 256.831 264.838C256.731 264.955 256.588 265.027 256.434 265.039C254.145 265.219 251.773 265.359 249.361 265.453L249.315 265.429ZM226.378 265.249C224.047 265.126 221.67 264.975 219.317 264.794C219.163 264.782 219.02 264.71 218.92 264.593C218.819 264.476 218.769 264.324 218.781 264.171C218.792 264.017 218.865 263.875 218.982 263.774C219.098 263.674 219.25 263.624 219.404 263.635C221.734 263.81 224.117 263.961 226.442 264.083C226.595 264.092 226.739 264.162 226.842 264.276C226.944 264.391 226.997 264.542 226.99 264.695C226.986 264.772 226.967 264.847 226.934 264.916C226.901 264.985 226.855 265.047 226.798 265.099C226.742 265.15 226.675 265.19 226.603 265.216C226.531 265.241 226.454 265.253 226.378 265.249ZM259.295 264.765C259.15 264.766 259.01 264.712 258.902 264.616C258.794 264.519 258.727 264.385 258.712 264.241C258.698 264.087 258.745 263.934 258.843 263.815C258.941 263.696 259.083 263.62 259.237 263.606C261.631 263.378 263.979 263.105 266.228 262.79C266.381 262.768 266.536 262.808 266.659 262.901C266.783 262.994 266.864 263.132 266.886 263.285C266.908 263.438 266.868 263.594 266.775 263.717C266.682 263.84 266.544 263.922 266.391 263.944C264.13 264.258 261.765 264.526 259.353 264.765H259.295ZM216.398 264.555H216.351C213.962 264.351 211.591 264.113 209.308 263.856C209.155 263.839 209.015 263.761 208.919 263.641C208.823 263.521 208.778 263.368 208.795 263.215C208.812 263.063 208.89 262.923 209.01 262.827C209.13 262.731 209.283 262.686 209.436 262.703C211.714 262.953 214.096 263.192 216.427 263.396C216.581 263.409 216.723 263.483 216.822 263.601C216.921 263.719 216.97 263.871 216.957 264.025C216.944 264.166 216.881 264.298 216.778 264.396C216.675 264.494 216.54 264.55 216.398 264.555ZM269.217 263.507C269.077 263.508 268.941 263.46 268.834 263.37C268.727 263.28 268.656 263.155 268.634 263.017C268.609 262.865 268.645 262.709 268.734 262.584C268.824 262.458 268.96 262.373 269.112 262.347C271.495 261.963 273.813 261.514 276.01 261.019C276.084 261.002 276.162 260.999 276.237 261.012C276.313 261.025 276.385 261.052 276.45 261.093C276.515 261.133 276.571 261.186 276.616 261.248C276.66 261.311 276.692 261.381 276.709 261.456C276.726 261.531 276.728 261.609 276.715 261.684C276.702 261.76 276.674 261.833 276.633 261.898C276.592 261.963 276.538 262.019 276.475 262.063C276.412 262.107 276.341 262.139 276.266 262.155C274.046 262.656 271.704 263.105 269.275 263.501L269.217 263.507Z" fill="#0077FF"/>
<path d="M279.01 261.479C278.877 261.483 278.748 261.442 278.642 261.363C278.536 261.283 278.46 261.17 278.427 261.042C278.408 260.968 278.403 260.89 278.414 260.815C278.425 260.739 278.45 260.665 278.489 260.599C278.528 260.533 278.58 260.476 278.641 260.43C278.703 260.384 278.772 260.35 278.847 260.331C280.012 260.04 281.119 259.749 282.197 259.405C282.27 259.382 282.348 259.375 282.425 259.383C282.501 259.391 282.576 259.414 282.643 259.451C282.711 259.488 282.771 259.538 282.819 259.598C282.868 259.658 282.903 259.727 282.925 259.801C282.968 259.949 282.952 260.107 282.879 260.243C282.805 260.378 282.682 260.479 282.534 260.523C281.433 260.85 280.291 261.164 279.138 261.461C279.096 261.472 279.053 261.478 279.01 261.479Z" fill="#0077FF"/>
<path d="M229.716 126.135C231.336 130.54 226.22 138.987 227.858 141.772C229.495 144.557 236.666 147.779 242.696 147.779C248.726 147.779 255.45 143.118 255.45 140.595C255.45 138.073 252.432 135.859 253.119 123.117C253.807 110.376 229.716 126.135 229.716 126.135Z" fill="#FFA9A9"/>
<path d="M253.067 128.034C251.529 128.349 249.373 129.968 249.373 129.968L234.132 134.315C233.457 134.315 231.074 134.315 234.715 138.346C239.073 143.135 249.129 142.617 253.358 133.208V133.167C253.218 131.635 253.102 129.933 253.067 128.034Z" fill="#FF8481"/>
<path d="M240.96 95.7633C247.433 95.7633 252.105 95.3438 255.333 115.35C255.577 116.848 259.557 114.482 260.431 117.838C260.528 118.415 260.509 119.005 260.375 119.574C260.242 120.144 259.996 120.681 259.653 121.154C259.31 121.628 258.875 122.028 258.376 122.332C257.876 122.636 257.321 122.837 256.743 122.924C256.574 131.558 252.321 137.367 241.595 137.367C229.832 137.367 225.166 131.256 224.938 122.412C224.938 121.444 220.441 120.279 222.025 116.72C223.61 113.16 226.913 116.411 227.269 115.106C231.598 97.9539 233.689 95.7633 240.96 95.7633Z" fill="#FFA9A9"/>
<path d="M234.178 108.232C233.736 109.653 234.179 110.16 235.664 110.079C236.567 110.026 237.412 109.496 236.981 107.935C236.626 106.67 234.691 106.56 234.178 108.232Z" fill="#212121"/>
<path d="M248.726 108.353C249.163 109.775 248.726 110.287 247.235 110.2C246.332 110.153 245.487 109.617 245.918 108.062C246.267 106.792 248.208 106.687 248.726 108.353Z" fill="#212121"/>
<path d="M231.12 103.832C232.745 102.177 238.548 99.8878 238.484 102.917C238.484 103.844 236.853 104.251 235.571 104.514C234.289 104.776 233.328 105.184 231.976 105.224C230.997 105.248 230.601 104.38 231.12 103.832Z" fill="#FF3985"/>
<path d="M251.132 104.864C248.983 105.447 243.139 104.462 244.619 101.951C245.073 101.176 246.53 101.456 247.701 101.852C248.869 102.222 250.001 102.7 251.08 103.279C251.942 103.745 251.843 104.666 251.132 104.864Z" fill="#FF3985"/>
<path d="M240.861 114.843C240.663 114.208 241.444 114.674 242.527 113.911C243.745 113.049 242.475 110.264 243.052 110.165C243.628 110.066 244.427 112.105 244.217 113.748C244.03 115.735 241.193 115.915 240.861 114.843Z" fill="#FF8481"/>
<path d="M203.039 220.901C203.301 218.058 210.91 217.895 212.978 217.895C215.046 217.895 237.564 217.551 237.564 217.551C237.564 217.551 240.634 218.804 236.934 221.455C232.309 224.775 219.858 227.671 212.174 226.249C196.397 223.348 203.039 220.901 203.039 220.901Z" fill="#FFA9A9"/>
<path d="M284.859 220.9C284.597 218.057 279.616 215.977 277.576 215.977H251.697C251.697 215.977 246.454 224.244 275.001 227.046C290.959 228.59 284.859 220.9 284.859 220.9Z" fill="#FFA9A9"/>
<path d="M254.814 218.145L251.319 217.743C251.499 220.225 254.517 224.676 272.601 226.779C271.518 225.445 269.846 223.785 267.993 223.283C264.777 222.479 255.187 219.805 254.814 218.145Z" fill="#FF8481"/>
<path d="M206.021 158.992H272.858C274.094 158.992 275.279 159.483 276.153 160.357C277.027 161.231 277.518 162.417 277.518 163.653V204.395H201.349V163.671C201.346 163.056 201.466 162.447 201.7 161.879C201.934 161.311 202.278 160.794 202.712 160.359C203.146 159.925 203.662 159.58 204.23 159.345C204.798 159.111 205.407 158.991 206.021 158.992Z" fill="#212121"/>
<path d="M238.812 193.274C234.353 193.274 232.112 193.274 230.727 191.896C229.325 190.511 229.325 188.269 229.325 183.795V182.972C229.325 178.497 229.325 176.256 230.727 174.87C232.112 173.477 234.353 173.477 238.812 173.477H239.636C244.11 173.477 246.335 173.477 247.737 174.87C249.123 176.264 249.123 178.497 249.123 182.972V183.795C249.123 188.269 249.123 190.511 247.737 191.896C246.335 193.274 244.11 193.274 239.636 193.274H238.812Z" fill="#0077FF"/>
<path d="M240.198 187.755V184.809C241.821 184.975 243.033 186.187 243.532 187.755H245.876C245.242 185.411 243.595 184.112 242.565 183.621C243.587 183.011 245.036 181.522 245.377 179.511H243.247C242.803 181.15 241.473 182.631 240.198 182.773V179.503H238.036V185.213C236.721 184.88 235.003 183.28 234.924 179.503H232.667C232.77 184.65 235.478 187.747 239.944 187.747L240.198 187.755Z" fill="white"/>
<path d="M197.061 215.687C189.697 215.448 191.357 221.863 191.357 229.705V305.251C191.357 310.71 202.759 303.113 203.714 296.459C204.67 289.806 201.442 222.999 204.046 220.004C206.441 217.26 278.305 217.977 280.198 219.783C282.616 222.113 280.863 284.58 281.101 291.233C281.34 297.887 287.965 307.861 290.848 307.861C293.732 307.861 294.699 297.852 294.699 290.045C294.699 260.6 294.222 243.093 294.222 225.085C294.222 218.466 292.841 216.054 285.885 216.054C270.23 216.054 197.061 215.687 197.061 215.687Z" fill="white"/>
<path d="M203.831 278.892C200.155 281.864 199.024 281.223 197.247 281.444C195.674 281.642 193.752 290.882 191.357 293.16V302.272C198.628 300.367 196.729 290.51 199.968 290.725C201.376 290.762 202.761 290.355 203.924 289.56C203.93 286.647 203.895 282.994 203.831 278.892Z" fill="#2929B2"/>
<path d="M287.539 282.558C284.778 282.098 282.436 279.645 281.177 277.402C281.131 281.352 281.096 284.737 281.078 287.231C282.127 287.301 283.245 287.376 284.195 287.458C286.869 287.679 287.318 291.023 290.435 293.698C291.579 294.736 292.992 295.43 294.513 295.702C294.63 293.802 294.688 291.862 294.688 290.045C294.688 289.427 294.688 288.827 294.688 288.227C291.507 287.446 291.128 283.152 287.539 282.558Z" fill="#2929B2"/>
<path d="M191.712 311.951C191.635 311.951 191.561 311.92 191.506 311.866C191.452 311.811 191.421 311.737 191.421 311.66V305.362C191.421 305.284 191.452 305.21 191.506 305.156C191.561 305.101 191.635 305.07 191.712 305.07C191.79 305.07 191.864 305.101 191.918 305.156C191.973 305.21 192.004 305.284 192.004 305.362V311.66C192.004 311.737 191.973 311.811 191.918 311.866C191.864 311.92 191.79 311.951 191.712 311.951Z" fill="white"/>
<path d="M202.887 304.952C202.81 304.952 202.736 304.922 202.681 304.867C202.626 304.812 202.596 304.738 202.596 304.661V298.363C202.596 298.286 202.626 298.212 202.681 298.157C202.736 298.102 202.81 298.072 202.887 298.072C202.964 298.072 203.038 298.102 203.093 298.157C203.148 298.212 203.178 298.286 203.178 298.363V304.661C203.178 304.738 203.148 304.812 203.093 304.867C203.038 304.922 202.964 304.952 202.887 304.952Z" fill="white"/>
<path d="M201.716 306.829C201.639 306.829 201.564 306.799 201.51 306.744C201.455 306.689 201.425 306.615 201.425 306.538V300.211C201.425 300.134 201.455 300.06 201.51 300.005C201.564 299.95 201.639 299.92 201.716 299.92C201.793 299.92 201.867 299.95 201.922 300.005C201.976 300.06 202.007 300.134 202.007 300.211V306.509C202.01 306.549 202.005 306.59 201.992 306.628C201.979 306.667 201.958 306.702 201.931 306.732C201.903 306.762 201.87 306.786 201.833 306.803C201.796 306.82 201.756 306.829 201.716 306.829Z" fill="white"/>
<path d="M200.148 308.758C200.071 308.758 199.997 308.727 199.942 308.672C199.888 308.618 199.857 308.544 199.857 308.466V302.168C199.857 302.091 199.888 302.017 199.942 301.963C199.997 301.908 200.071 301.877 200.148 301.877C200.226 301.877 200.3 301.908 200.354 301.963C200.409 302.017 200.44 302.091 200.44 302.168V308.466C200.44 308.544 200.409 308.618 200.354 308.672C200.3 308.727 200.226 308.758 200.148 308.758Z" fill="white"/>
<path d="M198.494 310.366C198.417 310.364 198.344 310.333 198.29 310.279C198.236 310.224 198.204 310.151 198.203 310.074V303.776C198.203 303.699 198.234 303.625 198.288 303.57C198.343 303.516 198.417 303.485 198.494 303.485C198.571 303.485 198.646 303.516 198.7 303.57C198.755 303.625 198.786 303.699 198.786 303.776V310.074C198.786 310.152 198.755 310.226 198.7 310.28C198.646 310.335 198.571 310.366 198.494 310.366Z" fill="white"/>
<path d="M193.927 313.283C193.849 313.283 193.775 313.253 193.721 313.198C193.666 313.143 193.635 313.069 193.635 312.992V306.694C193.635 306.617 193.666 306.543 193.721 306.488C193.775 306.434 193.849 306.403 193.927 306.403C194.004 306.403 194.078 306.434 194.133 306.488C194.187 306.543 194.218 306.617 194.218 306.694V312.992C194.218 313.069 194.187 313.143 194.133 313.198C194.078 313.253 194.004 313.283 193.927 313.283Z" fill="white"/>
<path d="M195.908 312.399C195.831 312.397 195.757 312.366 195.703 312.312C195.649 312.258 195.618 312.184 195.616 312.108V305.81C195.616 305.732 195.647 305.658 195.702 305.604C195.756 305.549 195.83 305.518 195.908 305.518C195.985 305.518 196.059 305.549 196.114 305.604C196.168 305.658 196.199 305.732 196.199 305.81V312.108C196.199 312.185 196.168 312.259 196.114 312.314C196.059 312.368 195.985 312.399 195.908 312.399Z" fill="white"/>
<path d="M197.014 311.827C196.937 311.827 196.863 311.796 196.808 311.742C196.754 311.687 196.723 311.613 196.723 311.536V305.238C196.723 305.161 196.754 305.086 196.808 305.032C196.863 304.977 196.937 304.947 197.014 304.947C197.091 304.948 197.164 304.979 197.219 305.034C197.273 305.088 197.304 305.161 197.306 305.238V311.536C197.306 311.613 197.275 311.687 197.22 311.742C197.166 311.796 197.092 311.827 197.014 311.827Z" fill="white"/>
<path d="M293.237 309.562C293.16 309.562 293.086 309.531 293.031 309.477C292.977 309.422 292.946 309.348 292.946 309.271V302.973C292.946 302.895 292.977 302.821 293.031 302.767C293.086 302.712 293.16 302.681 293.237 302.681C293.315 302.681 293.389 302.712 293.443 302.767C293.498 302.821 293.529 302.895 293.529 302.973V309.271C293.527 309.347 293.496 309.421 293.442 309.475C293.387 309.529 293.314 309.56 293.237 309.562Z" fill="white"/>
<path d="M282.057 302.558C281.98 302.558 281.906 302.527 281.851 302.473C281.797 302.418 281.766 302.344 281.766 302.267V295.969C281.767 295.892 281.798 295.819 281.853 295.764C281.907 295.71 281.98 295.679 282.057 295.677C282.134 295.677 282.209 295.708 282.263 295.763C282.318 295.817 282.349 295.891 282.349 295.969V302.267C282.349 302.344 282.318 302.418 282.263 302.473C282.209 302.527 282.134 302.558 282.057 302.558Z" fill="white"/>
<path d="M283.234 304.406C283.157 304.406 283.082 304.375 283.028 304.321C282.973 304.266 282.943 304.192 282.943 304.115V297.817C282.943 297.74 282.973 297.665 283.028 297.611C283.082 297.556 283.157 297.526 283.234 297.526C283.311 297.527 283.384 297.558 283.438 297.612C283.493 297.667 283.524 297.74 283.525 297.817V304.115C283.525 304.192 283.494 304.266 283.44 304.321C283.385 304.375 283.311 304.406 283.234 304.406Z" fill="white"/>
<path d="M284.795 306.363C284.718 306.363 284.644 306.333 284.589 306.278C284.534 306.224 284.504 306.149 284.504 306.072V299.774C284.504 299.697 284.534 299.623 284.589 299.568C284.644 299.514 284.718 299.483 284.795 299.483C284.872 299.483 284.946 299.514 285.001 299.568C285.056 299.623 285.086 299.697 285.086 299.774V306.072C285.086 306.149 285.056 306.224 285.001 306.278C284.946 306.333 284.872 306.363 284.795 306.363Z" fill="white"/>
<path d="M286.467 307.995C286.39 307.995 286.316 307.964 286.261 307.909C286.207 307.855 286.176 307.781 286.176 307.703V301.382C286.177 301.305 286.209 301.232 286.263 301.178C286.317 301.124 286.39 301.092 286.467 301.091C286.544 301.091 286.618 301.122 286.673 301.176C286.728 301.231 286.758 301.305 286.758 301.382V307.68C286.762 307.72 286.757 307.761 286.743 307.799C286.73 307.837 286.709 307.872 286.682 307.901C286.654 307.931 286.621 307.955 286.584 307.971C286.547 307.987 286.507 307.995 286.467 307.995Z" fill="white"/>
<path d="M291.023 310.907C290.946 310.907 290.872 310.876 290.817 310.822C290.763 310.767 290.732 310.693 290.732 310.616V304.3C290.732 304.223 290.763 304.149 290.817 304.094C290.872 304.039 290.946 304.009 291.023 304.009C291.1 304.01 291.173 304.041 291.228 304.096C291.282 304.15 291.313 304.223 291.315 304.3V310.604C291.315 310.643 291.308 310.682 291.294 310.718C291.28 310.754 291.259 310.788 291.232 310.816C291.205 310.844 291.172 310.866 291.137 310.882C291.101 310.898 291.062 310.906 291.023 310.907Z" fill="white"/>
<path d="M289.037 310.005C288.959 310.005 288.885 309.974 288.831 309.919C288.776 309.865 288.745 309.791 288.745 309.714V303.416C288.745 303.338 288.776 303.264 288.831 303.21C288.885 303.155 288.959 303.124 289.037 303.124C289.114 303.124 289.188 303.155 289.243 303.21C289.297 303.264 289.328 303.338 289.328 303.416V309.743C289.321 309.815 289.287 309.882 289.233 309.93C289.179 309.979 289.109 310.005 289.037 310.005Z" fill="white"/>
<path d="M287.936 309.439C287.858 309.439 287.784 309.409 287.73 309.354C287.675 309.299 287.644 309.225 287.644 309.148V302.85C287.644 302.773 287.675 302.699 287.73 302.644C287.784 302.589 287.858 302.559 287.936 302.559C288.013 302.559 288.087 302.589 288.142 302.644C288.196 302.699 288.227 302.773 288.227 302.85V309.16C288.224 309.235 288.192 309.306 288.138 309.358C288.083 309.41 288.011 309.439 287.936 309.439Z" fill="white"/>
<path d="M68.8824 101.817C60.9182 103.285 55.8612 111.331 59.6248 121.864C63.1204 131.629 71.2186 134.845 76.7475 133.301C82.2765 131.757 86.6518 123.869 85.4866 114.075C84.3214 104.282 77.3942 100.256 68.8824 101.817Z" fill="#FF3985"/>
<path d="M36.0993 114.098C28.0769 119.481 32.1901 128.5 35.5167 132.159C38.8434 135.817 47.0698 138.357 51.8296 134.943C56.5895 131.529 55.4767 122.656 53.1113 118.281C50.746 113.906 44.1043 108.744 36.0993 114.098Z" fill="#FF3985"/>
<path d="M32.5863 154.361C27.0399 165.238 31.6833 172.556 37.8297 174.228C43.9762 175.9 48.7652 171.274 51.0956 167.003C53.426 162.733 53.595 153.295 48.6079 149.706C43.6208 146.117 36.2858 147.096 32.5863 154.361Z" fill="#FF3985"/>
<path d="M46.6503 148.554C41.8497 146.439 35.8255 148.006 32.5863 154.38C28.9392 161.528 29.6733 167.144 32.394 170.623C38.2783 165.921 45.7706 155.172 46.6503 148.554Z" fill="white"/>
<path d="M192.895 211.037H285.628V213.478C285.628 214.158 285.358 214.81 284.877 215.291C284.397 215.771 283.745 216.042 283.065 216.042H195.459C194.779 216.042 194.127 215.771 193.646 215.291C193.165 214.81 192.895 214.158 192.895 213.478V211.019V211.037Z" fill="#212121"/>
<path d="M201.597 203.456L192.878 211.036L193.642 211.915L202.361 204.336L201.597 203.456Z" fill="#212121"/>
<path d="M277.201 203.493L276.427 204.364L284.879 211.876L285.653 211.005L277.201 203.493Z" fill="#212121"/>
<path d="M264.089 207.22H215.122V208.386H264.089V207.22Z" fill="#212121"/>
<path d="M224.95 203.315L220.732 211.148L221.758 211.701L225.976 203.868L224.95 203.315Z" fill="#212121"/>
<path d="M254.785 203.567L253.722 204.045L257.117 211.602L258.18 211.125L254.785 203.567Z" fill="#212121"/>
<path d="M217.743 203.266L211.428 211.234L212.342 211.958L218.656 203.99L217.743 203.266Z" fill="#212121"/>
<path d="M239.444 203.44L239.049 211.511L240.213 211.568L240.608 203.497L239.444 203.44Z" fill="#212121"/>
<path d="M247.787 203.834L246.644 204.061L248.137 211.57L249.279 211.342L247.787 203.834Z" fill="#212121"/>
<path d="M232.056 203.308L230.148 211.585L231.283 211.847L233.191 203.569L232.056 203.308Z" fill="#212121"/>
<path d="M261.916 203.519L260.977 204.209L266.482 211.703L267.421 211.013L261.916 203.519Z" fill="#212121"/>
<path d="M241.181 164.82C241.818 164.82 242.335 164.303 242.335 163.666C242.335 163.029 241.818 162.513 241.181 162.513C240.544 162.513 240.028 163.029 240.028 163.666C240.028 164.303 240.544 164.82 241.181 164.82Z" fill="#8024C0"/>
<path d="M241.95 118.578C237.185 118.723 233.951 117.15 233.083 117.908C231.05 119.656 234.103 128.732 242.358 128.581C251.097 128.424 252.309 119.085 250.515 117.879C249.513 117.232 247.776 118.403 241.95 118.578Z" fill="white"/>
<path d="M223.657 225.952C227.735 224.024 231.86 222.078 234.878 221.408L237.89 220.738C237.89 220.738 239.568 221.857 237.441 223.068C235.315 224.28 228.312 225.847 223.657 225.952Z" fill="#FF8481"/>
<path d="M229.745 432.304C219.759 432.304 208.463 429.554 205.957 427.166L206.761 426.321C210.001 429.409 229.966 433.195 239.777 429.816L239.923 429.764H240.075C240.267 429.799 259.487 433.26 272.118 427.09L272.631 428.139C265.826 431.454 257.273 432.036 251.296 431.931C247.515 431.871 243.743 431.538 240.011 430.935C237.15 431.908 233.544 432.304 229.745 432.304Z" fill="#0077FF"/>
<path d="M184.191 496.467H242.225C245.289 496.467 246.058 490.059 240.663 490.525C223.389 492.127 200.056 492.803 194.83 489.779C189.295 486.569 180.731 476.088 170.658 478.523L170.372 479.688C168.811 488.019 176.862 496.467 184.191 496.467Z" fill="white"/>
<path d="M300.03 496.465H241.997C238.933 496.465 239.282 490.476 240.366 490.534C252.787 491.164 280.839 492.509 289.392 489.777C295.486 487.825 303.491 476.086 313.564 478.521L313.85 479.686C315.411 488.017 307.36 496.465 300.03 496.465Z" fill="white"/>
<path d="M186.842 487.027L186.644 486.48C203.79 480.357 221.454 461.154 221.6 453.901H222.183C222.014 461.311 204.157 480.84 186.842 487.027Z" fill="white"/>
<path d="M240.022 497.34C239.868 497.34 239.719 497.279 239.61 497.169C239.501 497.06 239.44 496.912 239.44 496.757C239.364 477.188 238.752 305.448 240.226 302.168C240.257 302.098 240.301 302.035 240.357 301.982C240.412 301.929 240.478 301.888 240.549 301.86C240.62 301.832 240.697 301.819 240.773 301.821C240.85 301.823 240.925 301.84 240.995 301.871C241.136 301.934 241.245 302.051 241.3 302.195C241.354 302.339 241.349 302.499 241.286 302.64C240.174 306.135 240.354 431.162 240.605 496.781C240.605 496.935 240.543 497.083 240.434 497.193C240.325 497.302 240.177 497.363 240.022 497.363V497.34Z" fill="#0077FF"/>
<path d="M301.324 486.271C277.041 479.525 258.84 459.675 258.648 453.337H259.231C259.417 459.547 277.437 479.047 301.481 485.724L301.324 486.271Z" fill="white"/>
<path d="M61.6988 151.542C58.2031 147.499 40.929 139.308 37.5207 141.318C34.1125 143.328 68.6201 165.921 67.0238 161.767C65.4274 157.613 61.6988 151.542 61.6988 151.542Z" fill="#8024C0"/>
<path d="M84.3039 109.326C81.7579 103.011 75.862 100.587 68.8882 101.846C66.5196 102.246 64.3169 103.322 62.5446 104.943C60.7722 106.564 59.5055 108.663 58.8965 110.987C60.825 114.092 65.5965 116.556 73.4616 115.84C80.4645 115.152 83.3018 112.292 84.3039 109.326Z" fill="white"/>
<path d="M50.4373 114.931C47.2039 111.936 42.0478 110.107 36.0995 114.098C31.258 117.343 30.856 121.916 32.0212 125.837C35.8256 126.123 41.1157 124.485 44.3724 121.939C46.9533 119.906 49.4586 117.384 50.4373 114.931Z" fill="white"/>
<path d="M82.9523 325.921C82.8743 325.921 82.7969 325.906 82.7248 325.876C82.6528 325.846 82.5874 325.802 82.5328 325.746C82.4782 325.692 82.4349 325.627 82.4053 325.556C82.3757 325.485 82.3605 325.409 82.3605 325.332C82.3605 325.255 82.3757 325.179 82.4053 325.108C82.4349 325.037 82.4782 324.973 82.5328 324.919C102.615 305.285 110.41 296.954 122.307 283.321C122.409 283.205 122.553 283.134 122.707 283.125C122.861 283.115 123.013 283.166 123.129 283.268C123.244 283.37 123.315 283.514 123.325 283.668C123.335 283.822 123.283 283.974 123.181 284.09C111.267 297.746 103.454 306.095 83.3485 325.752C83.2428 325.857 83.1011 325.917 82.9523 325.921Z" fill="#0077FF"/>
<path d="M74.3356 331.525C74.2356 331.525 74.1372 331.499 74.0502 331.45C73.4676 331.123 59.858 323.188 55.7156 295.672C52.7502 275.968 57.5392 263.006 60.6503 257.028C60.7222 256.891 60.8454 256.789 60.9929 256.743C61.1403 256.697 61.3 256.712 61.4368 256.783C61.505 256.818 61.5656 256.867 61.6151 256.925C61.6646 256.984 61.7021 257.051 61.7254 257.125C61.7487 257.198 61.7572 257.275 61.7507 257.351C61.7442 257.427 61.7227 257.502 61.6873 257.57C58.6345 263.396 53.9562 276.12 56.8692 295.497C58.984 309.567 63.7031 318.318 67.2861 323.183C71.1663 328.426 74.592 330.413 74.6211 330.436C74.7554 330.512 74.8541 330.638 74.8956 330.786C74.9371 330.935 74.918 331.094 74.8425 331.228C74.7919 331.318 74.7184 331.393 74.6293 331.445C74.5402 331.498 74.4389 331.525 74.3356 331.525Z" fill="#0077FF"/>
<path d="M131.454 340.218C105.965 340.218 82.7076 327.01 82.4571 326.865C82.3903 326.827 82.3318 326.776 82.2848 326.715C82.2378 326.654 82.2032 326.585 82.1832 326.511C82.1632 326.436 82.158 326.359 82.1681 326.283C82.1781 326.207 82.203 326.133 82.2415 326.067C82.2801 326 82.3314 325.942 82.3924 325.896C82.4534 325.85 82.523 325.816 82.5971 325.796C82.6713 325.777 82.7485 325.772 82.8245 325.782C82.9004 325.793 82.9735 325.818 83.0397 325.857C83.3077 326.008 110.492 341.436 138.09 338.732C138.244 338.718 138.397 338.765 138.516 338.863C138.635 338.962 138.71 339.103 138.725 339.257C138.74 339.411 138.692 339.564 138.594 339.683C138.496 339.802 138.354 339.877 138.201 339.892C135.946 340.113 133.691 340.218 131.454 340.218Z" fill="#0077FF"/>
<path d="M138.09 198.517C136.793 198.522 135.532 198.089 134.513 197.288C133.823 196.764 133.303 196.047 133.02 195.228C132.737 194.408 132.703 193.524 132.922 192.685C132.958 192.536 133.052 192.406 133.183 192.326C133.314 192.245 133.472 192.219 133.621 192.254C133.697 192.271 133.768 192.303 133.83 192.348C133.893 192.393 133.947 192.45 133.987 192.515C134.028 192.581 134.055 192.654 134.067 192.73C134.08 192.806 134.076 192.884 134.058 192.959C133.89 193.58 133.911 194.238 134.119 194.847C134.326 195.456 134.711 195.99 135.224 196.379C135.866 196.891 136.637 197.216 137.452 197.319C138.267 197.421 139.094 197.298 139.844 196.962C141.277 196.257 142.052 194.672 142.011 192.499C142.011 192.344 142.072 192.196 142.181 192.087C142.291 191.978 142.439 191.916 142.593 191.916C142.748 191.916 142.896 191.978 143.005 192.087C143.115 192.196 143.176 192.344 143.176 192.499C143.24 196.07 141.428 197.498 140.356 198.028C139.648 198.362 138.873 198.529 138.09 198.517Z" fill="#0077FF"/>
<path d="M171.456 195.354C170.897 195.353 170.344 195.24 169.83 195.021C169.067 194.664 168.417 194.103 167.953 193.4C167.488 192.696 167.226 191.879 167.197 191.037C167.19 190.96 167.198 190.883 167.22 190.809C167.243 190.736 167.28 190.668 167.329 190.609C167.379 190.55 167.439 190.501 167.508 190.465C167.576 190.43 167.65 190.408 167.727 190.401C167.881 190.389 168.033 190.437 168.151 190.537C168.269 190.636 168.343 190.778 168.356 190.932C168.371 191.564 168.559 192.179 168.9 192.712C169.241 193.244 169.722 193.672 170.29 193.95C170.773 194.16 171.303 194.236 171.825 194.17C172.347 194.103 172.842 193.896 173.256 193.571C174.31 192.744 174.73 191.287 174.421 189.493C174.396 189.34 174.432 189.184 174.521 189.059C174.611 188.933 174.747 188.848 174.899 188.823C175.051 188.797 175.207 188.833 175.332 188.923C175.458 189.013 175.543 189.148 175.569 189.3C175.942 191.52 175.359 193.419 173.967 194.503C173.248 195.058 172.364 195.358 171.456 195.354Z" fill="#0077FF"/>
<path d="M30.4248 153.254C27.8263 157.589 35.2837 159.15 36.3265 156.75C37.3694 154.349 33.5475 148.051 30.4248 153.254Z" fill="#FF3985"/>
<path d="M36.3267 109.537C33.1573 111.518 36.3267 116.476 39.0999 115.783C41.8731 115.089 39.0999 107.801 36.3267 109.537Z" fill="#FF3985"/>
<path d="M72.0693 97.0452C68.9465 97.0452 67.9037 103.291 71.7197 103.984C75.5358 104.677 76.2291 97.0452 72.0693 97.0452Z" fill="#FF3985"/>
<path d="M151.053 490.127C151.541 489.284 151.85 488.349 151.961 487.38C152.071 486.412 151.98 485.431 151.694 484.5C145.908 484.5 138.445 490.063 127.376 490.728C97.1677 492.545 82.5676 486.865 75.2618 485.606C76.1765 491.893 77.5922 496.466 79.4391 496.466H140.519C146.06 496.466 149.241 493.262 151.053 490.127Z" fill="#212121"/>
<path d="M94.453 194.811C91.2953 196.99 87.8928 198.983 84.5895 201.057" stroke="#E85353" stroke-miterlimit="10" stroke-linecap="round"/>
<path d="M421.095 149.013C422.417 147.178 423.944 144.736 425.348 142.505C416.929 137.914 410.864 112.891 410.585 107.677C410.666 110.672 411.54 131.156 421.095 149.013Z" fill="#FF8481"/>
<path d="M335.925 481.988C343.236 481.674 356.595 464.813 363.354 457.996C358.285 455.619 359.095 455.957 348.014 463.904C339.723 469.852 327.541 476.785 322.053 481.073C326.633 481.85 331.282 482.156 335.925 481.988Z" fill="#212121"/>
<path d="M393.666 484.134C393.287 477.58 392.111 467.629 390.607 461.919C382.789 463.795 374.65 469.493 372.203 475.395C369.57 481.763 371.999 489.645 393.759 485.468C393.713 485.037 393.666 484.6 393.666 484.134Z" fill="#212121"/>
<path d="M357.376 485.927C346.685 483.731 331.485 481.15 322.053 481.074C320.685 482.129 319.747 483.645 319.416 485.34C319.085 487.035 319.382 488.793 320.252 490.285C322.082 493.367 325.275 496.467 330.693 496.467H389.914C392.827 496.467 394.144 494.643 393.73 485.461C388.86 486.941 377.208 490 357.376 485.927Z" fill="white"/>
<path d="M460.246 423.023C459.978 423.024 459.714 422.95 459.484 422.81C459.255 422.671 459.069 422.47 458.947 422.23C432.147 370.035 412.49 327.347 400.739 300.728C387.998 271.872 381.513 255.14 381.432 254.977C381.362 254.798 381.328 254.607 381.333 254.416C381.337 254.224 381.379 254.035 381.456 253.86C381.534 253.684 381.645 253.526 381.784 253.394C381.922 253.261 382.086 253.158 382.265 253.089C382.625 252.952 383.025 252.962 383.377 253.118C383.729 253.274 384.006 253.563 384.147 253.922C384.403 254.586 410.276 321.154 461.522 420.902C461.698 421.246 461.73 421.645 461.612 422.013C461.494 422.381 461.236 422.687 460.893 422.865C460.692 422.965 460.471 423.019 460.246 423.023Z" fill="white"/>
<path d="M393.194 390.857C393.087 390.857 392.981 390.827 392.89 390.77C392.798 390.714 392.724 390.633 392.676 390.537C383.68 372.546 347.052 312.171 346.685 311.565C346.606 311.433 346.582 311.274 346.619 311.125C346.656 310.975 346.751 310.846 346.883 310.767C347.015 310.687 347.172 310.662 347.322 310.698C347.471 310.734 347.601 310.828 347.681 310.959C348.048 311.571 384.7 371.981 393.707 390.012C393.776 390.151 393.787 390.311 393.737 390.457C393.688 390.603 393.583 390.724 393.445 390.793C393.367 390.833 393.282 390.855 393.194 390.857Z" fill="#0077FF"/>
<path d="M444.353 456.75C446.258 454.524 450.697 457.065 451.653 458.02C452.608 458.976 456.11 454.396 464.045 452.491C471.98 450.586 476.279 450.936 483.521 457.968C495.092 469.229 504.868 478.941 504.868 482.769C504.868 489.242 502.963 496.466 493.443 496.466H450.995C445.279 496.466 441.789 483.404 442.11 475.154C442.43 466.905 444.353 456.75 444.353 456.75Z" fill="#2929B2"/>
<path d="M476.542 487.436C485.962 487.04 504.676 485.852 504.676 485.852C504.793 484.821 504.849 483.784 504.845 482.746C504.845 478.936 495.069 469.207 483.498 457.945C476.28 450.913 471.951 450.563 464.022 452.468C456.092 454.374 452.579 458.947 451.63 457.997C456.908 470.966 467.115 487.85 476.542 487.436Z" fill="#212121"/>
<path d="M472.848 486.888C465.857 489.533 453.663 491.403 444.301 488.898C445.85 493.197 448.152 496.471 451.012 496.471H493.437C502.957 496.471 504.862 489.247 504.862 482.774C497.201 479.279 488.048 481.102 472.848 486.888Z" fill="white"/>
</g>
<defs>
<clipPath id="clip0_44_8092">
<rect width="527.942" height="494.945" fill="white" transform="translate(0 0.245605)"/>
</clipPath>
</defs>
</svg>
