<svg width="1440" height="500" viewBox="0 0 1440 500" fill="none" xmlns="http://www.w3.org/2000/svg">
<rect x="-0.334473" y="0.800537" width="1440" height="500" fill="#17D685"/>
<g opacity="0.5">
<mask id="mask0_103_409" style="mask-type:alpha" maskUnits="userSpaceOnUse" x="-277" y="185" width="1993" height="1083">
<path d="M97.631 871.773V870.29C97.631 847.867 97.6466 825.447 97.6778 803.029C97.7098 802.046 98.1173 801.113 98.8163 800.422C131.25 773.889 167.528 754.778 208.305 744.602C212.766 743.486 217.305 742.682 221.812 741.753C222.329 741.687 222.85 741.653 223.372 741.652C223.372 742.323 223.45 742.9 223.45 743.47C223.45 758.157 223.45 772.844 223.45 787.531C223.45 788.935 223.114 789.482 221.648 789.872C183.982 798.924 150.987 816.881 122.048 842.485C112.449 850.93 104.213 860.809 97.631 871.773Z" fill="white"/>
<path d="M97.6312 1003.99V1001.85C97.6312 982.93 97.6312 964.019 97.6312 945.113C97.5976 944.541 97.7012 943.969 97.9331 943.445C98.1651 942.921 98.5187 942.46 98.9647 942.1C132.038 913.062 169.61 892.64 212.649 882.729C216.174 881.949 219.746 881.309 223.52 880.56V882.706C223.52 894.411 223.458 906.117 223.575 917.823C223.575 919.735 222.959 920.304 221.235 920.702C180.528 930.215 145.591 950.17 116.09 979.645C109.068 986.515 103.103 994.389 98.3876 1003.01C98.2473 1003.16 98.0913 1003.33 97.6312 1003.99Z" fill="white"/>
<path d="M97.6308 1135.18V1133.54C97.6308 1118.2 97.6308 1102.87 97.6854 1087.49C97.737 1086.38 98.185 1085.32 98.9487 1084.5C132.092 1052.56 170.772 1030.81 215.924 1021.07C217.57 1020.71 219.239 1020.45 220.9 1020.15C221.679 1020.02 222.459 1019.9 223.348 1019.76V1050.41C215.69 1052.57 208.048 1054.36 200.655 1056.89C169.924 1067.29 142.005 1084.65 119.068 1107.61C110.723 1115.8 103.512 1125.07 97.6308 1135.18Z" fill="white"/>
<path d="M223.387 1158.84V1181.09C215.636 1183.22 207.923 1184.99 200.437 1187.44C172.807 1196.56 148.429 1211.29 126.976 1230.91C116.963 1240.07 108.042 1250.16 100.953 1261.78C99.908 1263.49 98.9566 1265.25 97.7322 1267.38C97.6854 1266.51 97.6386 1266.04 97.6386 1265.57C97.6386 1253.86 97.6386 1242.16 97.6776 1230.45C97.7058 1229.45 98.0745 1228.49 98.7226 1227.73C130.626 1193.39 169.157 1170.47 215.059 1160.33C217.772 1159.76 220.525 1159.35 223.387 1158.84Z" fill="white"/>
<path d="M98.8555 658.892C98.6912 659.018 98.5444 659.165 98.4188 659.329L98.4188 739.178C102.661 731.413 108.143 724.936 114.148 718.888C125.261 707.674 137.73 698.177 151.058 689.764C173.104 675.858 196.561 665.252 221.953 659.134C223.512 658.775 223.512 658.018 223.512 656.84C223.512 639.359 223.512 621.876 223.512 604.39V602.369C220.993 602.822 218.685 603.149 216.408 603.665C172.948 613.021 134.049 632.047 98.8555 658.892Z" fill="white"/>
<path d="M98.7461 606.926C98.8773 606.594 99.0311 606.27 99.2062 605.959C103.885 597.593 110.397 590.663 117.462 584.303C144.39 560.041 175.466 543.013 209.842 531.877C214.318 530.425 218.888 529.278 223.395 527.975V463.188C177.666 471.725 136.709 490.821 98.7461 517.572L98.7461 606.926Z" fill="white"/>
<path d="M98.746 235.838L98.746 343.219C99.3324 341.574 100.163 340.027 101.21 338.63C107.121 330.522 114.413 323.803 122.164 317.56C142.276 301.367 164.564 288.866 188.271 278.814C199.654 273.967 211.384 269.983 223.364 266.898V185.043C200.866 189.07 179.326 195.844 158.357 204.553C137.6 213.195 117.652 223.665 98.746 235.838Z" fill="white"/>
<path d="M98.7461 474.823C98.9787 474.252 99.2578 473.702 99.5805 473.177C104.977 464.436 112.183 457.327 119.919 450.756C143.563 430.669 170.257 415.795 199.267 405.041C207.151 402.123 215.238 399.774 223.395 397.113V324.077C178.032 332.606 137.028 351.078 98.7461 376.581L98.7461 474.823Z" fill="white"/>
<path d="M-26.994 871.773V870.29C-26.994 847.867 -26.9758 825.447 -26.9394 803.029C-26.9146 802.045 -26.506 801.109 -25.8008 800.422C6.63258 773.889 42.9027 754.778 83.6804 744.602C88.141 743.486 92.6875 742.682 97.195 741.753C97.7122 741.686 98.2331 741.652 98.7546 741.652C98.7546 742.323 98.8326 742.9 98.8326 743.47C98.8326 758.157 98.8326 772.844 98.8326 787.531C98.8326 788.935 98.5051 789.482 97.0312 789.872C59.3651 798.924 26.378 816.881 -2.56951 842.485C-12.169 850.931 -20.4076 860.81 -26.994 871.773Z" fill="white"/>
<path d="M-26.9938 1003.99V1001.85C-26.9938 982.93 -26.9938 964.019 -26.9938 945.113C-27.0273 944.541 -26.9238 943.969 -26.6919 943.445C-26.4599 942.921 -26.1062 942.46 -25.6602 942.1C7.41263 913.062 44.9851 892.64 88.0243 882.729C91.5492 881.949 95.1208 881.309 98.8952 880.56V882.706C98.8952 894.411 98.8329 906.117 98.9498 917.823C98.9498 919.735 98.3338 920.304 96.6103 920.702C55.8951 930.215 20.9662 950.17 -8.54282 979.645C-15.5647 986.515 -21.5303 994.389 -26.2451 1003.01C-26.4766 1003.35 -26.7265 1003.68 -26.9938 1003.99Z" fill="white"/>
<path d="M-26.9942 1135.18V1133.54C-26.9942 1118.2 -26.9942 1102.87 -26.9396 1087.49C-26.8859 1086.38 -26.435 1085.32 -25.6685 1084.5C7.46678 1052.56 46.1467 1030.81 91.307 1021.07C92.9525 1020.71 94.6213 1020.45 96.2824 1020.15C97.0622 1020.02 97.8421 1019.9 98.7311 1019.76V1050.41C91.0731 1052.57 83.4307 1054.36 76.0378 1056.89C45.3068 1067.29 17.3879 1084.65 -5.54871 1107.61C-13.8973 1115.8 -21.1101 1125.07 -26.9942 1135.18Z" fill="white"/>
<path d="M98.7701 1158.84V1181.09C90.9718 1183.22 83.2982 1184.99 75.8196 1187.44C48.1821 1196.56 23.8044 1211.29 2.35113 1230.91C-7.66198 1240.07 -16.5833 1250.16 -23.672 1261.78C-24.717 1263.49 -25.6684 1265.25 -26.8927 1267.38C-26.9395 1266.51 -26.9863 1266.04 -26.9863 1265.57C-26.9863 1253.86 -26.9863 1242.16 -26.9863 1230.45C-26.9582 1229.45 -26.5895 1228.49 -25.9413 1227.73C5.96179 1193.39 44.4935 1170.47 90.3947 1160.33C93.1475 1159.76 95.9003 1159.35 98.7701 1158.84Z" fill="white"/>
<path d="M-25.7696 658.892C-25.9322 659.02 -26.0788 659.167 -26.2063 659.329L-26.2063 739.178C-21.9561 731.413 -16.4739 724.936 -10.477 718.888C0.635712 707.674 13.1053 698.177 26.4327 689.764C48.4787 675.858 71.9362 665.252 97.3277 659.134C98.8873 658.775 98.8873 658.018 98.8873 656.84C98.8873 639.359 98.8873 621.876 98.8873 604.39V602.369C96.3685 602.822 94.0602 603.149 91.783 603.665C48.3305 613.021 9.44788 632.047 -25.7696 658.892Z" fill="white"/>
<path d="M-25.879 606.926C-25.7477 606.594 -25.594 606.27 -25.4188 605.959C-20.7398 597.593 -14.2282 590.663 -7.16289 584.303C19.7727 560.041 50.8414 543.013 85.2166 531.877C89.6928 530.425 94.2627 529.278 98.778 527.975V463.188C53.0405 471.725 12.0835 490.821 -25.879 517.572L-25.879 606.926Z" fill="white"/>
<path d="M-25.879 235.838L-25.879 343.219C-25.2926 341.574 -24.4618 340.027 -23.4146 338.63C-17.5035 330.522 -10.212 323.803 -2.46044 317.56C17.6515 301.367 39.9392 288.866 63.6463 278.814C75.029 273.968 86.7596 269.985 98.7389 266.898V185.043C76.2484 189.07 54.7015 195.844 33.7317 204.553C12.9753 213.195 -6.97322 223.665 -25.879 235.838Z" fill="white"/>
<path d="M-25.8789 474.823C-25.6463 474.252 -25.3672 473.702 -25.0445 473.177C-19.648 464.436 -12.4423 457.327 -4.70635 450.756C18.9383 430.669 45.6321 415.795 74.6498 405.041C82.5262 402.123 90.6209 399.774 98.7701 397.113V324.077C53.4071 332.606 12.4032 351.078 -25.8789 376.581L-25.8789 474.823Z" fill="white"/>
<path d="M594.631 871.773V870.29C594.631 847.867 594.647 825.447 594.678 803.029C594.71 802.046 595.117 801.113 595.816 800.422C628.25 773.889 664.528 754.778 705.305 744.602C709.766 743.486 714.305 742.682 718.812 741.753C719.329 741.687 719.85 741.653 720.372 741.652C720.372 742.323 720.45 742.9 720.45 743.47C720.45 758.157 720.45 772.844 720.45 787.531C720.45 788.935 720.114 789.482 718.648 789.872C680.982 798.924 647.987 816.881 619.048 842.485C609.449 850.93 601.213 860.809 594.631 871.773Z" fill="white"/>
<path d="M594.631 1003.99V1001.85C594.631 982.93 594.631 964.019 594.631 945.113C594.598 944.541 594.701 943.969 594.933 943.445C595.165 942.921 595.519 942.46 595.965 942.1C629.038 913.062 666.61 892.64 709.649 882.729C713.174 881.949 716.746 881.309 720.52 880.56V882.706C720.52 894.411 720.458 906.117 720.575 917.823C720.575 919.735 719.959 920.304 718.235 920.702C677.528 930.215 642.591 950.17 613.09 979.645C606.068 986.515 600.103 994.389 595.388 1003.01C595.247 1003.16 595.091 1003.33 594.631 1003.99Z" fill="white"/>
<path d="M594.631 1135.18V1133.54C594.631 1118.2 594.631 1102.87 594.685 1087.49C594.737 1086.38 595.185 1085.32 595.949 1084.5C629.092 1052.56 667.772 1030.81 712.924 1021.07C714.57 1020.71 716.239 1020.45 717.9 1020.15C718.679 1020.02 719.459 1019.9 720.348 1019.76V1050.41C712.69 1052.57 705.048 1054.36 697.655 1056.89C666.924 1067.29 639.005 1084.65 616.068 1107.61C607.723 1115.8 600.512 1125.07 594.631 1135.18Z" fill="white"/>
<path d="M720.387 1158.84V1181.09C712.636 1183.22 704.923 1184.99 697.437 1187.44C669.807 1196.56 645.429 1211.29 623.976 1230.91C613.963 1240.07 605.042 1250.16 597.953 1261.78C596.908 1263.49 595.957 1265.25 594.732 1267.38C594.685 1266.51 594.639 1266.04 594.639 1265.57C594.639 1253.86 594.639 1242.16 594.678 1230.45C594.706 1229.45 595.074 1228.49 595.723 1227.73C627.626 1193.39 666.157 1170.47 712.059 1160.33C714.772 1159.76 717.525 1159.35 720.387 1158.84Z" fill="white"/>
<path d="M595.855 658.892C595.691 659.018 595.544 659.165 595.419 659.329V739.178C599.661 731.413 605.143 724.936 611.148 718.888C622.261 707.674 634.73 698.177 648.058 689.764C670.104 675.858 693.561 665.252 718.953 659.134C720.512 658.775 720.512 658.018 720.512 656.84C720.512 639.359 720.512 621.876 720.512 604.39V602.369C717.993 602.822 715.685 603.149 713.408 603.665C669.948 613.021 631.049 632.047 595.855 658.892Z" fill="white"/>
<path d="M595.746 606.926C595.877 606.594 596.031 606.27 596.206 605.959C600.885 597.593 607.397 590.663 614.462 584.303C641.39 560.041 672.466 543.013 706.842 531.877C711.318 530.425 715.888 529.278 720.395 527.975V463.188C674.666 471.725 633.709 490.821 595.746 517.572V606.926Z" fill="white"/>
<path d="M595.746 235.838V343.219C596.332 341.574 597.163 340.027 598.21 338.63C604.121 330.522 611.413 323.803 619.164 317.56C639.276 301.367 661.564 288.866 685.271 278.814C696.654 273.967 708.384 269.983 720.364 266.898V185.043C697.866 189.07 676.326 195.844 655.357 204.553C634.6 213.195 614.652 223.665 595.746 235.838Z" fill="white"/>
<path d="M595.746 474.823C595.979 474.252 596.258 473.702 596.581 473.177C601.977 464.436 609.183 457.327 616.919 450.756C640.563 430.669 667.257 415.795 696.267 405.041C704.151 402.123 712.238 399.774 720.395 397.113V324.077C675.032 332.606 634.028 351.078 595.746 376.581V474.823Z" fill="white"/>
<path d="M470.006 871.773V870.29C470.006 847.867 470.024 825.447 470.061 803.029C470.085 802.045 470.494 801.109 471.199 800.422C503.633 773.889 539.903 754.778 580.68 744.602C585.141 743.486 589.688 742.682 594.195 741.753C594.712 741.686 595.233 741.652 595.755 741.652C595.755 742.323 595.833 742.9 595.833 743.47C595.833 758.157 595.833 772.844 595.833 787.531C595.833 788.935 595.505 789.482 594.031 789.872C556.365 798.924 523.378 816.881 494.43 842.485C484.831 850.931 476.592 860.81 470.006 871.773Z" fill="white"/>
<path d="M470.006 1003.99V1001.85C470.006 982.93 470.006 964.019 470.006 945.113C469.973 944.541 470.076 943.969 470.308 943.445C470.54 942.921 470.894 942.46 471.34 942.1C504.413 913.062 541.985 892.64 585.024 882.729C588.549 881.949 592.121 881.309 595.895 880.56V882.706C595.895 894.411 595.833 906.117 595.95 917.823C595.95 919.735 595.334 920.304 593.61 920.702C552.895 930.215 517.966 950.17 488.457 979.645C481.435 986.515 475.47 994.389 470.755 1003.01C470.523 1003.35 470.273 1003.68 470.006 1003.99Z" fill="white"/>
<path d="M470.006 1135.18V1133.54C470.006 1118.2 470.006 1102.87 470.06 1087.49C470.114 1086.38 470.565 1085.32 471.332 1084.5C504.467 1052.56 543.147 1030.81 588.307 1021.07C589.952 1020.71 591.621 1020.45 593.282 1020.15C594.062 1020.02 594.842 1019.9 595.731 1019.76V1050.41C588.073 1052.57 580.431 1054.36 573.038 1056.89C542.307 1067.29 514.388 1084.65 491.451 1107.61C483.103 1115.8 475.89 1125.07 470.006 1135.18Z" fill="white"/>
<path d="M595.77 1158.84V1181.09C587.972 1183.22 580.298 1184.99 572.82 1187.44C545.182 1196.56 520.804 1211.29 499.351 1230.91C489.338 1240.07 480.417 1250.16 473.328 1261.78C472.283 1263.49 471.332 1265.25 470.107 1267.38C470.06 1266.51 470.014 1266.04 470.014 1265.57C470.014 1253.86 470.014 1242.16 470.014 1230.45C470.042 1229.45 470.411 1228.49 471.059 1227.73C502.962 1193.39 541.494 1170.47 587.395 1160.33C590.148 1159.76 592.9 1159.35 595.77 1158.84Z" fill="white"/>
<path d="M471.23 658.892C471.068 659.02 470.921 659.167 470.794 659.329V739.178C475.044 731.413 480.526 724.936 486.523 718.888C497.636 707.674 510.105 698.177 523.433 689.764C545.479 675.858 568.936 665.252 594.328 659.134C595.887 658.775 595.887 658.018 595.887 656.84C595.887 639.359 595.887 621.876 595.887 604.39V602.369C593.368 602.822 591.06 603.149 588.783 603.665C545.331 613.021 506.448 632.047 471.23 658.892Z" fill="white"/>
<path d="M471.121 606.926C471.252 606.594 471.406 606.27 471.581 605.959C476.26 597.593 482.772 590.663 489.837 584.303C516.773 560.041 547.841 543.013 582.217 531.877C586.693 530.425 591.263 529.278 595.778 527.975V463.188C550.041 471.725 509.083 490.821 471.121 517.572V606.926Z" fill="white"/>
<path d="M471.121 235.838V343.219C471.707 341.574 472.538 340.027 473.585 338.63C479.497 330.522 486.788 323.803 494.54 317.56C514.652 301.367 536.939 288.866 560.646 278.814C572.029 273.968 583.76 269.985 595.739 266.898V185.043C573.248 189.07 551.702 195.844 530.732 204.553C509.975 213.195 490.027 223.665 471.121 235.838Z" fill="white"/>
<path d="M471.121 474.823C471.354 474.252 471.633 473.702 471.955 473.177C477.352 464.436 484.558 457.327 492.294 450.756C515.938 430.669 542.632 415.795 571.65 405.041C579.526 402.123 587.621 399.774 595.77 397.113V324.077C550.407 332.606 509.403 351.078 471.121 376.581V474.823Z" fill="white"/>
<path d="M346.201 871.773V870.29C346.201 847.867 346.217 825.447 346.248 803.029C346.277 802.046 346.685 801.111 347.387 800.422C379.82 773.889 416.098 754.778 456.876 744.602C461.336 743.486 465.875 742.682 470.383 741.753C470.9 741.687 471.421 741.653 471.942 741.652C471.942 742.323 472.02 742.9 472.02 743.47C472.02 758.157 472.02 772.844 472.02 787.531C472.02 788.935 471.685 789.482 470.219 789.872C432.553 798.924 399.558 816.881 370.618 842.485C361.019 850.93 352.783 860.809 346.201 871.773Z" fill="white"/>
<path d="M346.201 1003.99V1001.85C346.201 982.93 346.201 964.019 346.201 945.113C346.171 944.54 346.277 943.969 346.51 943.445C346.744 942.922 347.097 942.461 347.543 942.1C380.616 913.062 418.188 892.64 461.227 882.729C464.752 881.949 468.324 881.309 472.091 880.56V882.706C472.091 894.411 472.036 906.117 472.153 917.823C472.153 919.735 471.537 920.304 469.813 920.702C429.106 930.215 394.169 950.17 364.668 979.645C357.646 986.515 351.681 994.389 346.966 1003.01C346.818 1003.16 346.63 1003.33 346.201 1003.99Z" fill="white"/>
<path d="M346.201 1135.18V1133.54C346.201 1118.2 346.201 1102.87 346.256 1087.49C346.307 1086.38 346.755 1085.32 347.519 1084.5C380.654 1052.56 419.342 1030.81 464.495 1021.07C466.14 1020.71 467.809 1020.45 469.47 1020.15C470.25 1020.02 471.03 1019.9 471.911 1019.76V1050.41C464.261 1052.57 456.61 1054.36 449.217 1056.89C418.488 1067.3 390.57 1084.65 367.631 1107.61C359.29 1115.8 352.083 1125.08 346.201 1135.18Z" fill="white"/>
<path d="M471.958 1158.84V1181.09C464.206 1183.22 456.486 1184.99 449.007 1187.44C421.377 1196.56 397 1211.29 375.546 1230.91C365.533 1240.07 356.612 1250.16 349.523 1261.78C348.478 1263.49 347.527 1265.25 346.303 1267.38C346.256 1266.51 346.201 1266.04 346.201 1265.57C346.201 1253.86 346.201 1242.16 346.248 1230.45C346.276 1229.45 346.645 1228.49 347.293 1227.73C379.196 1193.39 417.728 1170.47 463.629 1160.33C466.343 1159.76 469.064 1159.35 471.958 1158.84Z" fill="white"/>
<path d="M347.408 658.892C347.248 659.02 347.104 659.167 346.979 659.329V739.178C351.222 731.413 356.704 724.936 362.709 718.888C373.813 707.674 386.291 698.177 399.618 689.764C421.664 675.858 445.122 665.252 470.513 659.134C472.073 658.775 472.073 658.018 472.073 656.84C472.073 639.359 472.073 621.876 472.073 604.39V602.369C469.554 602.822 467.254 603.149 464.976 603.665C421.493 613.021 382.641 632.047 347.408 658.892Z" fill="white"/>
<path d="M347.309 606.926C347.446 606.595 347.602 606.272 347.776 605.959C352.455 597.593 358.967 590.663 366.025 584.303C392.96 560.041 424.037 543.013 458.412 531.877C462.888 530.425 467.458 529.278 471.965 527.975V463.188C426.236 471.725 385.271 490.821 347.309 517.572V606.926Z" fill="white"/>
<path d="M347.309 235.838V343.219C347.901 341.576 348.734 340.029 349.781 338.63C355.692 330.522 362.983 323.803 370.735 317.56C390.839 301.367 413.135 288.866 436.842 278.814C448.224 273.967 459.955 269.983 471.934 266.898V185.043C449.436 189.07 427.897 195.844 406.927 204.553C386.169 213.197 366.218 223.666 347.309 235.838Z" fill="white"/>
<path d="M347.309 474.823C347.547 474.254 347.829 473.703 348.151 473.177C353.539 464.436 360.753 457.327 368.489 450.756C392.134 430.669 418.827 415.795 447.837 405.041C455.722 402.123 463.808 399.774 471.965 397.113V324.077C426.602 332.606 385.599 351.078 347.309 376.581V474.823Z" fill="white"/>
<path d="M221.574 871.773V870.29C221.574 847.867 221.593 825.447 221.629 803.029C221.654 802.045 222.062 801.109 222.768 800.422C255.201 773.889 291.471 754.778 332.249 744.602C336.709 743.486 341.256 742.682 345.763 741.753C346.281 741.686 346.802 741.652 347.323 741.652C347.323 742.323 347.401 742.9 347.401 743.47C347.401 758.157 347.401 772.844 347.401 787.531C347.401 788.935 347.073 789.482 345.6 789.872C307.933 798.924 274.946 816.881 245.999 842.485C236.399 850.931 228.161 860.81 221.574 871.773Z" fill="white"/>
<path d="M221.575 1003.99V1001.85C221.575 982.93 221.575 964.019 221.575 945.113C221.541 944.541 221.645 943.969 221.876 943.445C222.108 942.921 222.462 942.46 222.908 942.1C255.981 913.062 293.553 892.64 336.593 882.729C340.118 881.949 343.689 881.309 347.464 880.56V882.706C347.464 894.411 347.401 906.117 347.518 917.823C347.518 919.735 346.902 920.304 345.179 920.702C304.463 930.215 269.535 950.17 240.025 979.645C233.004 986.515 227.038 994.389 222.323 1003.01C222.191 1003.16 222.035 1003.33 221.575 1003.99Z" fill="white"/>
<path d="M221.574 1135.18V1133.54C221.574 1118.2 221.574 1102.87 221.629 1087.49C221.677 1086.38 222.129 1085.31 222.9 1084.5C256.035 1052.56 294.715 1030.81 339.875 1021.07C341.521 1020.71 343.19 1020.45 344.851 1020.15C345.631 1020.02 346.41 1019.9 347.299 1019.76V1050.41C339.641 1052.57 331.999 1054.36 324.606 1056.89C293.875 1067.29 265.956 1084.65 243.02 1107.61C234.671 1115.8 227.458 1125.07 221.574 1135.18Z" fill="white"/>
<path d="M347.339 1158.84V1181.09C339.579 1183.22 331.867 1184.99 324.388 1187.44C296.75 1196.56 272.373 1211.29 250.919 1230.91C240.906 1240.07 231.985 1250.16 224.896 1261.78C223.851 1263.49 222.9 1265.25 221.676 1267.38C221.629 1266.51 221.582 1266.04 221.582 1265.57C221.582 1253.86 221.582 1242.16 221.621 1230.45C221.649 1229.45 222.018 1228.49 222.666 1227.73C254.569 1193.39 293.101 1170.47 339.002 1160.33C341.716 1159.76 344.469 1159.35 347.339 1158.84Z" fill="white"/>
<path d="M222.799 658.892C222.635 659.018 222.488 659.165 222.362 659.329V739.178C226.612 731.413 232.087 724.936 238.091 718.888C249.204 707.674 261.674 698.177 275.001 689.764C297.047 675.858 320.505 665.252 345.896 659.134C347.456 658.775 347.456 658.018 347.456 656.84C347.456 639.359 347.456 621.876 347.456 604.39V602.369C344.937 602.822 342.629 603.149 340.351 603.665C296.899 613.021 258.016 632.047 222.799 658.892Z" fill="white"/>
<path d="M222.689 606.926C222.821 606.594 222.974 606.27 223.15 605.959C227.829 597.593 234.34 590.663 241.406 584.303C268.341 560.041 299.41 543.013 333.785 531.877C338.261 530.425 342.831 529.278 347.346 527.975V463.188C301.609 471.725 260.652 490.821 222.689 517.572V606.926Z" fill="white"/>
<path d="M222.689 235.838V343.219C223.276 341.574 224.107 340.027 225.154 338.63C231.065 330.522 238.356 323.803 246.108 317.56C266.22 301.367 288.508 288.866 312.215 278.814C323.597 273.967 335.328 269.983 347.307 266.898V185.043C324.817 189.07 303.27 195.844 282.3 204.553C261.544 213.195 241.595 223.665 222.689 235.838Z" fill="white"/>
<path d="M222.689 474.823C222.922 474.252 223.201 473.702 223.524 473.177C228.92 464.436 236.126 457.327 243.862 450.756C267.507 430.669 294.2 415.795 323.21 405.041C331.095 402.123 339.181 399.774 347.339 397.113V324.077C301.975 332.606 260.972 351.078 222.689 376.581V474.823Z" fill="white"/>
<path d="M1092.79 871.773V870.29C1092.79 847.867 1092.81 825.447 1092.84 803.029C1092.87 802.046 1093.28 801.113 1093.98 800.422C1126.41 773.889 1162.69 754.778 1203.47 744.602C1207.93 743.486 1212.47 742.682 1216.97 741.753C1217.49 741.687 1218.01 741.653 1218.53 741.652C1218.53 742.323 1218.61 742.9 1218.61 743.47C1218.61 758.157 1218.61 772.844 1218.61 787.531C1218.61 788.935 1218.28 789.482 1216.81 789.872C1179.14 798.924 1146.15 816.881 1117.21 842.485C1107.61 850.93 1099.38 860.809 1092.79 871.773Z" fill="white"/>
<path d="M1092.79 1003.99V1001.85C1092.79 982.93 1092.79 964.019 1092.79 945.113C1092.76 944.541 1092.86 943.969 1093.1 943.445C1093.33 942.921 1093.68 942.46 1094.13 942.1C1127.2 913.062 1164.77 892.64 1207.81 882.729C1211.34 881.949 1214.91 881.309 1218.68 880.56V882.706C1218.68 894.411 1218.62 906.117 1218.74 917.823C1218.74 919.735 1218.12 920.304 1216.4 920.702C1175.69 930.215 1140.75 950.17 1111.25 979.645C1104.23 986.515 1098.27 994.389 1093.55 1003.01C1093.41 1003.16 1093.25 1003.33 1092.79 1003.99Z" fill="white"/>
<path d="M1092.79 1135.18V1133.54C1092.79 1118.2 1092.79 1102.87 1092.85 1087.49C1092.9 1086.38 1093.35 1085.32 1094.11 1084.5C1127.25 1052.56 1165.93 1030.81 1211.09 1021.07C1212.73 1020.71 1214.4 1020.45 1216.06 1020.15C1216.84 1020.02 1217.62 1019.9 1218.51 1019.76V1050.41C1210.85 1052.57 1203.21 1054.36 1195.82 1056.89C1165.09 1067.29 1137.17 1084.65 1114.23 1107.61C1105.89 1115.8 1098.68 1125.07 1092.79 1135.18Z" fill="white"/>
<path d="M1218.55 1158.84V1181.09C1210.8 1183.22 1203.09 1184.99 1195.6 1187.44C1167.97 1196.56 1143.59 1211.29 1122.14 1230.91C1112.13 1240.07 1103.2 1250.16 1096.12 1261.78C1095.07 1263.49 1094.12 1265.25 1092.89 1267.38C1092.85 1266.51 1092.8 1266.04 1092.8 1265.57C1092.8 1253.86 1092.8 1242.16 1092.84 1230.45C1092.87 1229.45 1093.24 1228.49 1093.89 1227.73C1125.79 1193.39 1164.32 1170.47 1210.22 1160.33C1212.94 1159.76 1215.69 1159.35 1218.55 1158.84Z" fill="white"/>
<path d="M1094.02 658.892C1093.85 659.018 1093.71 659.165 1093.58 659.329V739.178C1097.82 731.413 1103.31 724.936 1109.31 718.888C1120.42 707.674 1132.89 698.177 1146.22 689.764C1168.27 675.858 1191.72 665.252 1217.12 659.134C1218.67 658.775 1218.67 658.018 1218.67 656.84C1218.67 639.359 1218.67 621.876 1218.67 604.39V602.369C1216.16 602.822 1213.85 603.149 1211.57 603.665C1168.11 613.021 1129.21 632.047 1094.02 658.892Z" fill="white"/>
<path d="M1093.91 606.926C1094.04 606.594 1094.19 606.27 1094.37 605.959C1099.05 597.593 1105.56 590.663 1112.62 584.303C1139.55 560.041 1170.63 543.013 1205 531.877C1209.48 530.425 1214.05 529.278 1218.56 527.975V463.188C1172.83 471.725 1131.87 490.821 1093.91 517.572V606.926Z" fill="white"/>
<path d="M1093.91 235.838V343.219C1094.49 341.574 1095.33 340.027 1096.37 338.63C1102.28 330.522 1109.58 323.803 1117.33 317.56C1137.44 301.367 1159.73 288.866 1183.43 278.814C1194.82 273.967 1206.55 269.983 1218.53 266.898V185.043C1196.03 189.07 1174.49 195.844 1153.52 204.553C1132.76 213.195 1112.81 223.665 1093.91 235.838Z" fill="white"/>
<path d="M1093.91 474.823C1094.14 474.252 1094.42 473.702 1094.74 473.177C1100.14 464.436 1107.35 457.327 1115.08 450.756C1138.73 430.669 1165.42 415.795 1194.43 405.041C1202.31 402.123 1210.4 399.774 1218.56 397.113V324.077C1173.19 332.606 1132.19 351.078 1093.91 376.581V474.823Z" fill="white"/>
<path d="M968.169 871.773V870.29C968.169 847.867 968.187 825.447 968.223 803.029C968.248 802.045 968.657 801.109 969.362 800.422C1001.8 773.889 1038.07 754.778 1078.84 744.602C1083.3 743.486 1087.85 742.682 1092.36 741.753C1092.87 741.686 1093.4 741.652 1093.92 741.652C1093.92 742.323 1094 742.9 1094 743.47C1094 758.157 1094 772.844 1094 787.531C1094 788.935 1093.67 789.482 1092.19 789.872C1054.53 798.924 1021.54 816.881 992.593 842.485C982.994 850.931 974.755 860.81 968.169 871.773Z" fill="white"/>
<path d="M968.169 1003.99V1001.85C968.169 982.93 968.169 964.019 968.169 945.113C968.135 944.541 968.239 943.969 968.471 943.445C968.703 942.921 969.056 942.46 969.502 942.1C1002.58 913.062 1040.15 892.64 1083.19 882.729C1086.71 881.949 1090.28 881.309 1094.06 880.56V882.706C1094.06 894.411 1094 906.117 1094.11 917.823C1094.11 919.735 1093.5 920.304 1091.77 920.702C1051.06 930.215 1016.13 950.17 986.62 979.645C979.598 986.515 973.632 994.389 968.917 1003.01C968.686 1003.35 968.436 1003.68 968.169 1003.99Z" fill="white"/>
<path d="M968.168 1135.18V1133.54C968.168 1118.2 968.168 1102.87 968.223 1087.49C968.277 1086.38 968.728 1085.32 969.494 1084.5C1002.63 1052.56 1041.31 1030.81 1086.47 1021.07C1088.12 1020.71 1089.78 1020.45 1091.44 1020.15C1092.22 1020.02 1093 1019.9 1093.89 1019.76V1050.41C1086.24 1052.57 1078.59 1054.36 1071.2 1056.89C1040.47 1067.29 1012.55 1084.65 989.614 1107.61C981.265 1115.8 974.052 1125.07 968.168 1135.18Z" fill="white"/>
<path d="M1093.93 1158.84V1181.09C1086.13 1183.22 1078.46 1184.99 1070.98 1187.44C1043.34 1196.56 1018.97 1211.29 997.514 1230.91C987.501 1240.07 978.579 1250.16 971.491 1261.78C970.446 1263.49 969.494 1265.25 968.27 1267.38C968.223 1266.51 968.176 1266.04 968.176 1265.57C968.176 1253.86 968.176 1242.16 968.176 1230.45C968.204 1229.45 968.573 1228.49 969.221 1227.73C1001.12 1193.39 1039.66 1170.47 1085.56 1160.33C1088.31 1159.76 1091.06 1159.35 1093.93 1158.84Z" fill="white"/>
<path d="M969.393 658.892C969.23 659.02 969.084 659.167 968.956 659.329V739.178C973.206 731.413 978.689 724.936 984.686 718.888C995.798 707.674 1008.27 698.177 1021.6 689.764C1043.64 675.858 1067.1 665.252 1092.49 659.134C1094.05 658.775 1094.05 658.018 1094.05 656.84C1094.05 639.359 1094.05 621.876 1094.05 604.39V602.369C1091.53 602.822 1089.22 603.149 1086.95 603.665C1043.49 613.021 1004.61 632.047 969.393 658.892Z" fill="white"/>
<path d="M969.284 606.926C969.415 606.594 969.569 606.27 969.744 605.959C974.423 597.593 980.934 590.663 988 584.303C1014.94 560.041 1046 543.013 1080.38 531.877C1084.86 530.425 1089.43 529.278 1093.94 527.975V463.188C1048.2 471.725 1007.25 490.821 969.284 517.572V606.926Z" fill="white"/>
<path d="M969.284 235.838V343.219C969.87 341.574 970.701 340.027 971.748 338.63C977.659 330.522 984.951 323.803 992.702 317.56C1012.81 301.367 1035.1 288.866 1058.81 278.814C1070.19 273.968 1081.92 269.985 1093.9 266.898V185.043C1071.41 189.07 1049.86 195.844 1028.89 204.553C1008.14 213.195 988.189 223.665 969.284 235.838Z" fill="white"/>
<path d="M969.284 474.823C969.516 474.252 969.795 473.702 970.118 473.177C975.515 464.436 982.72 457.327 990.456 450.756C1014.1 430.669 1040.79 415.795 1069.81 405.041C1077.69 402.123 1085.78 399.774 1093.93 397.113V324.077C1048.57 332.606 1007.57 351.078 969.284 376.581V474.823Z" fill="white"/>
<path d="M843.364 871.773V870.29C843.364 847.867 843.38 825.447 843.411 803.029C843.44 802.046 843.848 801.111 844.549 800.422C876.983 773.889 913.261 754.778 954.038 744.602C958.499 743.486 963.038 742.682 967.545 741.753C968.062 741.687 968.583 741.653 969.105 741.652C969.105 742.323 969.183 742.9 969.183 743.47C969.183 758.157 969.183 772.844 969.183 787.531C969.183 788.935 968.847 789.482 967.381 789.872C929.715 798.924 896.72 816.881 867.781 842.485C858.182 850.93 849.946 860.809 843.364 871.773Z" fill="white"/>
<path d="M843.364 1003.99V1001.85C843.364 982.93 843.364 964.019 843.364 945.113C843.334 944.54 843.44 943.969 843.673 943.445C843.906 942.922 844.26 942.461 844.705 942.1C877.778 913.062 915.351 892.64 958.39 882.729C961.915 881.949 965.487 881.309 969.253 880.56V882.706C969.253 894.411 969.199 906.117 969.316 917.823C969.316 919.735 968.699 920.304 966.976 920.702C926.269 930.215 891.332 950.17 861.831 979.645C854.809 986.515 848.843 994.389 844.128 1003.01C843.98 1003.16 843.793 1003.33 843.364 1003.99Z" fill="white"/>
<path d="M843.364 1135.18V1133.54C843.364 1118.2 843.364 1102.87 843.418 1087.49C843.47 1086.38 843.918 1085.32 844.682 1084.5C877.817 1052.56 916.505 1030.81 961.657 1021.07C963.303 1020.71 964.971 1020.45 966.632 1020.15C967.412 1020.02 968.192 1019.9 969.073 1019.76V1050.41C961.423 1052.57 953.773 1054.36 946.38 1056.89C915.651 1067.3 887.733 1084.65 864.794 1107.61C856.452 1115.8 849.245 1125.08 843.364 1135.18Z" fill="white"/>
<path d="M969.12 1158.84V1181.09C961.369 1183.22 953.648 1184.99 946.17 1187.44C918.54 1196.56 894.162 1211.29 872.709 1230.91C862.696 1240.07 853.775 1250.16 846.686 1261.78C845.641 1263.49 844.69 1265.25 843.465 1267.38C843.418 1266.51 843.364 1266.04 843.364 1265.57C843.364 1253.86 843.364 1242.16 843.411 1230.45C843.439 1229.45 843.807 1228.49 844.456 1227.73C876.359 1193.39 914.89 1170.47 960.792 1160.33C963.505 1159.76 966.227 1159.35 969.12 1158.84Z" fill="white"/>
<path d="M844.571 658.892C844.411 659.02 844.267 659.167 844.142 659.329V739.178C848.384 731.413 853.866 724.936 859.871 718.888C870.976 707.674 883.453 698.177 896.781 689.764C918.827 675.858 942.284 665.252 967.676 659.134C969.235 658.775 969.235 658.018 969.235 656.84C969.235 639.359 969.235 621.876 969.235 604.39V602.369C966.717 602.822 964.416 603.149 962.139 603.665C918.655 613.021 879.804 632.047 844.571 658.892Z" fill="white"/>
<path d="M844.471 606.926C844.608 606.595 844.764 606.272 844.939 605.959C849.618 597.593 856.13 590.663 863.187 584.303C890.123 560.041 921.199 543.013 955.575 531.877C960.051 530.425 964.621 529.278 969.128 527.975V463.188C923.398 471.725 882.434 490.821 844.471 517.572V606.926Z" fill="white"/>
<path d="M844.471 235.838V343.219C845.063 341.576 845.897 340.029 846.943 338.63C852.854 330.522 860.146 323.803 867.897 317.56C888.002 301.367 910.297 288.866 934.004 278.814C945.386 273.967 957.117 269.983 969.097 266.898V185.043C946.599 189.07 925.059 195.844 904.09 204.553C883.331 213.197 863.38 223.666 844.471 235.838Z" fill="white"/>
<path d="M844.471 474.823C844.71 474.254 844.991 473.703 845.313 473.177C850.702 464.436 857.916 457.327 865.652 450.756C889.296 430.669 915.99 415.795 945 405.041C952.884 402.123 960.971 399.774 969.128 397.113V324.077C923.765 332.606 882.761 351.078 844.471 376.581V474.823Z" fill="white"/>
<path d="M718.737 871.773V870.29C718.737 847.867 718.755 825.447 718.792 803.029C718.816 802.045 719.225 801.109 719.93 800.422C752.364 773.889 788.634 754.778 829.411 744.602C833.872 743.486 838.419 742.682 842.926 741.753C843.443 741.686 843.964 741.652 844.486 741.652C844.486 742.323 844.564 742.9 844.564 743.47C844.564 758.157 844.564 772.844 844.564 787.531C844.564 788.935 844.236 789.482 842.762 789.872C805.096 798.924 772.109 816.881 743.161 842.485C733.562 850.931 725.323 860.81 718.737 871.773Z" fill="white"/>
<path d="M718.737 1003.99V1001.85C718.737 982.93 718.737 964.019 718.737 945.113C718.704 944.541 718.807 943.969 719.039 943.445C719.271 942.921 719.625 942.46 720.071 942.1C753.144 913.062 790.716 892.64 833.755 882.729C837.28 881.949 840.852 881.309 844.626 880.56V882.706C844.626 894.411 844.564 906.117 844.681 917.823C844.681 919.735 844.065 920.304 842.341 920.702C801.626 930.215 766.697 950.17 737.188 979.645C730.166 986.515 724.201 994.389 719.486 1003.01C719.353 1003.16 719.197 1003.33 718.737 1003.99Z" fill="white"/>
<path d="M718.737 1135.18V1133.54C718.737 1118.2 718.737 1102.87 718.791 1087.49C718.84 1086.38 719.291 1085.31 720.062 1084.5C753.198 1052.56 791.878 1030.81 837.038 1021.07C838.683 1020.71 840.352 1020.45 842.013 1020.15C842.793 1020.02 843.573 1019.9 844.462 1019.76V1050.41C836.804 1052.57 829.162 1054.36 821.769 1056.89C791.038 1067.29 763.119 1084.65 740.182 1107.61C731.834 1115.8 724.621 1125.07 718.737 1135.18Z" fill="white"/>
<path d="M844.501 1158.84V1181.09C836.742 1183.22 829.029 1184.99 821.551 1187.44C793.913 1196.56 769.535 1211.29 748.082 1230.91C738.069 1240.07 729.148 1250.16 722.059 1261.78C721.014 1263.49 720.063 1265.25 718.838 1267.38C718.791 1266.51 718.745 1266.04 718.745 1265.57C718.745 1253.86 718.745 1242.16 718.784 1230.45C718.812 1229.45 719.18 1228.49 719.829 1227.73C751.732 1193.39 790.263 1170.47 836.165 1160.33C838.878 1159.76 841.631 1159.35 844.501 1158.84Z" fill="white"/>
<path d="M719.961 658.892C719.797 659.018 719.65 659.165 719.525 659.329V739.178C723.775 731.413 729.249 724.936 735.254 718.888C746.367 707.674 758.836 698.177 772.164 689.764C794.21 675.858 817.667 665.252 843.059 659.134C844.618 658.775 844.618 658.018 844.618 656.84C844.618 639.359 844.618 621.876 844.618 604.39V602.369C842.099 602.822 839.791 603.149 837.514 603.665C794.062 613.021 755.179 632.047 719.961 658.892Z" fill="white"/>
<path d="M719.852 606.926C719.983 606.594 720.137 606.27 720.312 605.959C724.991 597.593 731.503 590.663 738.568 584.303C765.504 560.041 796.572 543.013 830.948 531.877C835.424 530.425 839.994 529.278 844.509 527.975V463.188C798.771 471.725 757.814 490.821 719.852 517.572V606.926Z" fill="white"/>
<path d="M719.852 235.838V343.219C720.438 341.574 721.269 340.027 722.316 338.63C728.227 330.522 735.519 323.803 743.271 317.56C763.382 301.367 785.67 288.866 809.377 278.814C820.76 273.967 832.49 269.983 844.47 266.898V185.043C821.979 189.07 800.433 195.844 779.463 204.553C758.706 213.195 738.758 223.665 719.852 235.838Z" fill="white"/>
<path d="M719.852 474.823C720.085 474.252 720.364 473.702 720.686 473.177C726.083 464.436 733.289 457.327 741.025 450.756C764.669 430.669 791.363 415.795 820.373 405.041C828.257 402.123 836.344 399.774 844.501 397.113V324.077C799.138 332.606 758.134 351.078 719.852 376.581V474.823Z" fill="white"/>
<path d="M1341.36 871.773V870.29C1341.36 847.867 1341.38 825.447 1341.41 803.029C1341.44 802.046 1341.85 801.111 1342.55 800.422C1374.98 773.889 1411.26 754.778 1452.04 744.602C1456.5 743.486 1461.04 742.682 1465.55 741.753C1466.06 741.687 1466.58 741.653 1467.1 741.652C1467.1 742.323 1467.18 742.9 1467.18 743.47C1467.18 758.157 1467.18 772.844 1467.18 787.531C1467.18 788.935 1466.85 789.482 1465.38 789.872C1427.72 798.924 1394.72 816.881 1365.78 842.485C1356.18 850.93 1347.95 860.809 1341.36 871.773Z" fill="white"/>
<path d="M1341.36 1003.99V1001.85C1341.36 982.93 1341.36 964.019 1341.36 945.113C1341.33 944.54 1341.44 943.969 1341.67 943.445C1341.91 942.922 1342.26 942.461 1342.71 942.1C1375.78 913.062 1413.35 892.64 1456.39 882.729C1459.91 881.949 1463.49 881.309 1467.25 880.56V882.706C1467.25 894.411 1467.2 906.117 1467.32 917.823C1467.32 919.735 1466.7 920.304 1464.98 920.702C1424.27 930.215 1389.33 950.17 1359.83 979.645C1352.81 986.515 1346.84 994.389 1342.13 1003.01C1341.98 1003.16 1341.79 1003.33 1341.36 1003.99Z" fill="white"/>
<path d="M1341.36 1135.18V1133.54C1341.36 1118.2 1341.36 1102.87 1341.42 1087.49C1341.47 1086.38 1341.92 1085.32 1342.68 1084.5C1375.82 1052.56 1414.5 1030.81 1459.66 1021.07C1461.3 1020.71 1462.97 1020.45 1464.63 1020.15C1465.41 1020.02 1466.19 1019.9 1467.07 1019.76V1050.41C1459.42 1052.57 1451.77 1054.36 1444.38 1056.89C1413.65 1067.3 1385.73 1084.65 1362.79 1107.61C1354.45 1115.8 1347.25 1125.08 1341.36 1135.18Z" fill="white"/>
<path d="M1467.12 1158.84V1181.09C1459.37 1183.22 1451.65 1184.99 1444.17 1187.44C1416.54 1196.56 1392.16 1211.29 1370.71 1230.91C1360.7 1240.07 1351.77 1250.16 1344.69 1261.78C1343.64 1263.49 1342.69 1265.25 1341.47 1267.38C1341.42 1266.51 1341.36 1266.04 1341.36 1265.57C1341.36 1253.86 1341.36 1242.16 1341.41 1230.45C1341.44 1229.45 1341.81 1228.49 1342.46 1227.73C1374.36 1193.39 1412.89 1170.47 1458.79 1160.33C1461.51 1159.76 1464.23 1159.35 1467.12 1158.84Z" fill="white"/>
<path d="M1342.57 658.892C1342.41 659.02 1342.27 659.167 1342.14 659.329V739.178C1346.38 731.413 1351.87 724.936 1357.87 718.888C1368.98 707.674 1381.45 698.177 1394.78 689.764C1416.83 675.858 1440.28 665.252 1465.68 659.134C1467.24 658.775 1467.24 658.018 1467.24 656.84C1467.24 639.359 1467.24 621.876 1467.24 604.39V602.369C1464.72 602.822 1462.42 603.149 1460.14 603.665C1416.66 613.021 1377.8 632.047 1342.57 658.892Z" fill="white"/>
<path d="M1342.47 606.926C1342.61 606.595 1342.76 606.272 1342.94 605.959C1347.62 597.593 1354.13 590.663 1361.19 584.303C1388.12 560.041 1419.2 543.013 1453.57 531.877C1458.05 530.425 1462.62 529.278 1467.13 527.975V463.188C1421.4 471.725 1380.43 490.821 1342.47 517.572V606.926Z" fill="white"/>
<path d="M1342.47 235.838V343.219C1343.06 341.576 1343.9 340.029 1344.94 338.63C1350.85 330.522 1358.15 323.803 1365.9 317.56C1386 301.367 1408.3 288.866 1432 278.814C1443.39 273.967 1455.12 269.983 1467.1 266.898V185.043C1444.6 189.07 1423.06 195.844 1402.09 204.553C1381.33 213.197 1361.38 223.666 1342.47 235.838Z" fill="white"/>
<path d="M1342.47 474.823C1342.71 474.254 1342.99 473.703 1343.31 473.177C1348.7 464.436 1355.92 457.327 1363.65 450.756C1387.3 430.669 1413.99 415.795 1443 405.041C1450.88 402.123 1458.97 399.774 1467.13 397.113V324.077C1421.76 332.606 1380.76 351.078 1342.47 376.581V474.823Z" fill="white"/>
<path d="M1216.74 871.773V870.29C1216.74 847.867 1216.76 825.447 1216.79 803.029C1216.82 802.045 1217.23 801.109 1217.93 800.422C1250.36 773.889 1286.63 754.778 1327.41 744.602C1331.87 743.486 1336.42 742.682 1340.93 741.753C1341.44 741.686 1341.96 741.652 1342.49 741.652C1342.49 742.323 1342.56 742.9 1342.56 743.47C1342.56 758.157 1342.56 772.844 1342.56 787.531C1342.56 788.935 1342.24 789.482 1340.76 789.872C1303.1 798.924 1270.11 816.881 1241.16 842.485C1231.56 850.931 1223.32 860.81 1216.74 871.773Z" fill="white"/>
<path d="M1216.74 1003.99V1001.85C1216.74 982.93 1216.74 964.019 1216.74 945.113C1216.7 944.541 1216.81 943.969 1217.04 943.445C1217.27 942.921 1217.62 942.46 1218.07 942.1C1251.14 913.062 1288.72 892.64 1331.76 882.729C1335.28 881.949 1338.85 881.309 1342.63 880.56V882.706C1342.63 894.411 1342.56 906.117 1342.68 917.823C1342.68 919.735 1342.06 920.304 1340.34 920.702C1299.63 930.215 1264.7 950.17 1235.19 979.645C1228.17 986.515 1222.2 994.389 1217.49 1003.01C1217.35 1003.16 1217.2 1003.33 1216.74 1003.99Z" fill="white"/>
<path d="M1216.74 1135.18V1133.54C1216.74 1118.2 1216.74 1102.87 1216.79 1087.49C1216.84 1086.38 1217.29 1085.31 1218.06 1084.5C1251.2 1052.56 1289.88 1030.81 1335.04 1021.07C1336.68 1020.71 1338.35 1020.45 1340.01 1020.15C1340.79 1020.02 1341.57 1019.9 1342.46 1019.76V1050.41C1334.8 1052.57 1327.16 1054.36 1319.77 1056.89C1289.04 1067.29 1261.12 1084.65 1238.18 1107.61C1229.83 1115.8 1222.62 1125.07 1216.74 1135.18Z" fill="white"/>
<path d="M1342.5 1158.84V1181.09C1334.74 1183.22 1327.03 1184.99 1319.55 1187.44C1291.91 1196.56 1267.54 1211.29 1246.08 1230.91C1236.07 1240.07 1227.15 1250.16 1220.06 1261.78C1219.01 1263.49 1218.06 1265.25 1216.84 1267.38C1216.79 1266.51 1216.74 1266.04 1216.74 1265.57C1216.74 1253.86 1216.74 1242.16 1216.78 1230.45C1216.81 1229.45 1217.18 1228.49 1217.83 1227.73C1249.73 1193.39 1288.26 1170.47 1334.16 1160.33C1336.88 1159.76 1339.63 1159.35 1342.5 1158.84Z" fill="white"/>
<path d="M1217.96 658.892C1217.8 659.018 1217.65 659.165 1217.52 659.329V739.178C1221.77 731.413 1227.25 724.936 1233.25 718.888C1244.37 707.674 1256.84 698.177 1270.16 689.764C1292.21 675.858 1315.67 665.252 1341.06 659.134C1342.62 658.775 1342.62 658.018 1342.62 656.84C1342.62 639.359 1342.62 621.876 1342.62 604.39V602.369C1340.1 602.822 1337.79 603.149 1335.51 603.665C1292.06 613.021 1253.18 632.047 1217.96 658.892Z" fill="white"/>
<path d="M1217.85 606.926C1217.98 606.594 1218.14 606.27 1218.31 605.959C1222.99 597.593 1229.5 590.663 1236.57 584.303C1263.5 560.041 1294.57 543.013 1328.95 531.877C1333.42 530.425 1337.99 529.278 1342.51 527.975V463.188C1296.77 471.725 1255.81 490.821 1217.85 517.572V606.926Z" fill="white"/>
<path d="M1217.85 235.838V343.219C1218.44 341.574 1219.27 340.027 1220.32 338.63C1226.23 330.522 1233.52 323.803 1241.27 317.56C1261.38 301.367 1283.67 288.866 1307.38 278.814C1318.76 273.967 1330.49 269.983 1342.47 266.898V185.043C1319.98 189.07 1298.43 195.844 1277.46 204.553C1256.71 213.195 1236.76 223.665 1217.85 235.838Z" fill="white"/>
<path d="M1217.85 474.823C1218.08 474.252 1218.36 473.702 1218.69 473.177C1224.08 464.436 1231.29 457.327 1239.02 450.756C1262.67 430.669 1289.36 415.795 1318.37 405.041C1326.26 402.123 1334.34 399.774 1342.5 397.113V324.077C1297.14 332.606 1256.13 351.078 1217.85 376.581V474.823Z" fill="white"/>
</mask>
<g mask="url(#mask0_103_409)">
<rect width="1510.14" height="381.337" transform="matrix(1 0 0 -1 -35.4182 501.705)" fill="#13CD7E"/>
</g>
</g>
</svg>
