<svg width="41" height="41" viewBox="0 0 41 41" fill="none" xmlns="http://www.w3.org/2000/svg">
<path d="M19.294 40.6216C10.286 40.6216 5.75798 40.6216 2.95798 37.8376C0.125977 35.0376 0.125977 30.5096 0.125977 21.4696V19.8056C0.125977 10.7656 0.125977 6.23758 2.95798 3.43758C5.75798 0.621582 10.286 0.621582 19.294 0.621582H20.958C29.998 0.621582 34.494 0.621582 37.326 3.43758C40.126 6.25358 40.126 10.7656 40.126 19.8056V21.4696C40.126 30.5096 40.126 35.0376 37.326 37.8376C34.494 40.6216 29.998 40.6216 20.958 40.6216H19.294Z" fill="#0077FF"/>
<path d="M7.79382 20.4825C10.2545 19.1378 13.0012 18.0155 15.5676 16.8874C19.9829 15.0398 24.4157 13.2242 28.8932 11.5338C29.7643 11.2458 31.3296 10.9642 31.4831 12.245C31.399 14.058 31.0533 15.8604 30.8162 17.6628C30.2143 21.6265 29.5186 25.5765 28.8402 29.5271C28.6064 30.8431 26.9449 31.5242 25.8817 30.6821C23.3267 28.9699 20.752 27.2743 18.2296 25.5224C17.4034 24.6894 18.1696 23.4932 18.9075 22.8984C21.0119 20.8409 23.2436 19.0928 25.2381 16.9289C25.776 15.6401 24.1865 16.7263 23.6621 17.0591C20.7812 19.0288 17.9708 21.1187 14.9334 22.8497C13.3819 23.697 11.5736 22.9729 10.0228 22.5001C8.63233 21.929 6.59475 21.3535 7.79368 20.4826L7.79382 20.4825Z" fill="white"/>
</svg>
