<svg width="437" height="381" viewBox="0 0 437 381" fill="none" xmlns="http://www.w3.org/2000/svg">
<path d="M0.26178 0.438232H436.262V380.438H0.26178V0.438232Z" fill="#0077FF"/>
<mask id="mask0_103_405" style="mask-type:alpha" maskUnits="userSpaceOnUse" x="0" y="0" width="437" height="381">
<path d="M0.26178 0.438232H436.262V380.438H0.26178V0.438232Z" fill="#0077FF"/>
</mask>
<g mask="url(#mask0_103_405)">
<mask id="mask1_103_405" style="mask-type:alpha" maskUnits="userSpaceOnUse" x="0" y="0" width="437" height="381">
<rect x="436.262" y="380.442" width="436" height="380" transform="rotate(-180 436.262 380.442)" fill="#C4C4C4"/>
</mask>
<g mask="url(#mask1_103_405)">
<rect x="0.261871" y="-0.830322" width="436.592" height="611.436" fill="url(#paint0_linear_103_405)"/>
<path d="M436.132 -32.5156L436.132 89.5357C436.816 87.6662 437.785 85.9079 439.006 84.32C445.901 75.1041 454.406 67.467 463.447 60.371C486.906 41.9658 512.902 27.7561 540.554 16.3315C553.83 10.8219 567.513 6.29428 581.486 2.78702L581.486 -90.2504C555.244 -85.6734 530.121 -77.9743 505.662 -68.0753C481.452 -58.2522 458.184 -46.3524 436.132 -32.5156V-32.5156Z" fill="#0077FF"/>
<path d="M290.977 389.27C291.131 388.892 291.31 388.525 291.514 388.17C296.972 378.662 304.567 370.785 312.808 363.556C344.225 335.979 380.464 316.625 420.559 303.968C425.78 302.318 431.11 301.014 436.377 299.533L436.377 225.894C383.029 235.598 335.257 257.302 290.977 287.709L290.977 389.27Z" fill="#0077FF"/>
<path d="M145.618 389.27C145.778 388.894 145.96 388.527 146.163 388.171C151.621 378.662 159.216 370.785 167.448 363.556C198.866 335.98 235.113 316.625 275.208 303.968C280.429 302.318 285.759 301.014 291.017 299.533L291.017 225.894C237.678 235.598 189.897 257.303 145.618 287.709L145.618 389.27Z" fill="#0077FF"/>
<path d="M290.926 -32.5161L290.926 89.5352C291.61 87.6658 292.579 85.9074 293.8 84.3195C300.695 75.1036 309.2 67.4665 318.241 60.3705C341.7 41.9653 367.696 27.7556 395.348 16.3311C408.624 10.8227 422.307 6.29514 436.279 2.78654L436.279 -90.2508C410.047 -85.6739 384.915 -77.9748 360.455 -68.0758C336.245 -58.2527 312.977 -46.3528 290.926 -32.5161V-32.5161Z" fill="#0077FF"/>
<path d="M290.987 239.12C291.258 238.471 291.584 237.845 291.96 237.248C298.254 227.314 306.659 219.233 315.682 211.765C343.261 188.934 374.397 172.027 408.243 159.804C417.43 156.487 426.871 153.817 436.377 150.793L436.377 67.7781C383.465 77.473 335.639 98.4684 290.987 127.456L290.987 239.12Z" fill="#0077FF"/>
<path d="M0.261591 389.271C0.414658 388.892 0.593957 388.525 0.798251 388.171C6.25584 378.662 13.851 370.785 22.0919 363.556C53.5094 335.98 89.7478 316.625 129.843 303.968C135.064 302.318 140.394 301.014 145.661 299.533L145.661 225.894C92.3129 235.598 44.5408 257.303 0.261587 287.709L0.261591 389.271Z" fill="#0077FF"/>
<path d="M145.616 -32.5161L145.616 89.5352C146.307 87.667 147.279 85.9092 148.5 84.3195C155.394 75.1036 163.899 67.4665 172.941 60.3705C196.39 41.9653 222.395 27.7556 250.047 16.3311C263.324 10.8214 277.006 6.29379 290.979 2.78654L290.979 -90.2508C264.737 -85.6739 239.614 -77.9748 215.155 -68.0758C190.943 -58.2509 167.672 -46.3511 145.616 -32.5161V-32.5161Z" fill="#0077FF"/>
<path d="M145.618 239.12C145.896 238.473 146.224 237.847 146.6 237.248C152.885 227.314 161.299 219.233 170.322 211.765C197.901 188.934 229.037 172.027 262.874 159.804C272.07 156.487 281.503 153.817 291.017 150.793L291.017 67.7781C238.106 77.473 190.279 98.4683 145.618 127.456L145.618 239.12Z" fill="#0077FF"/>
<path d="M0.261597 -32.5161L0.261603 89.5352C0.945559 87.6658 1.91455 85.9074 3.13593 84.3195C10.0307 75.1036 18.5354 67.4665 27.5768 60.3705C51.0353 41.9653 77.0316 27.7556 104.683 16.3311C117.96 10.8214 131.642 6.29379 145.615 2.78654L145.615 -90.2508C119.382 -85.6739 94.2503 -77.9748 69.7912 -68.0758C45.5811 -58.2527 22.3132 -46.3528 0.261597 -32.5161V-32.5161Z" fill="#0077FF"/>
<path d="M0.26223 239.12C0.533612 238.471 0.859134 237.845 1.23551 237.248C7.52992 227.314 15.9346 219.233 24.9578 211.765C52.5368 188.933 83.6723 172.027 117.509 159.804C126.705 156.487 136.138 153.817 145.652 150.793L145.652 67.7781C92.741 77.473 44.9144 98.4683 0.262225 127.455L0.26223 239.12Z" fill="#0077FF"/>
</g>
<rect width="436" height="380.592" transform="matrix(1 0 0 -1 0 380.846)" fill="url(#paint1_linear_103_405)"/>
</g>
<defs>
<linearGradient id="paint0_linear_103_405" x1="218.558" y1="-0.830322" x2="218.558" y2="610.606" gradientUnits="userSpaceOnUse">
<stop stop-color="#005FFF"/>
<stop offset="1" stop-color="#005FFF" stop-opacity="0"/>
</linearGradient>
<linearGradient id="paint1_linear_103_405" x1="218" y1="0" x2="218" y2="380.592" gradientUnits="userSpaceOnUse">
<stop stop-color="#005FFF"/>
<stop offset="1" stop-color="#005FFF" stop-opacity="0"/>
</linearGradient>
</defs>
</svg>
