<svg width="437" height="381" viewBox="0 0 437 381" fill="none" xmlns="http://www.w3.org/2000/svg">
<path d="M0.872559 0.201904H436.873V380.202H0.872559V0.201904Z" fill="#17D685"/>
<mask id="mask0_103_404" style="mask-type:alpha" maskUnits="userSpaceOnUse" x="0" y="0" width="437" height="381">
<path d="M0.872559 0.201904H436.873V380.202H0.872559V0.201904Z" fill="#17D685"/>
</mask>
<g mask="url(#mask0_103_404)">
<g opacity="0.6">
<mask id="mask1_103_404" style="mask-type:alpha" maskUnits="userSpaceOnUse" x="1" y="-1" width="437" height="381">
<path d="M1.25281 -0.145142H437.253V379.855H1.25281V-0.145142Z" fill="#17D685"/>
</mask>
<g mask="url(#mask1_103_404)">
<path d="M554.197 264.666L554.197 213.913C492.479 203.046 444.6 175.876 411.403 132.839C401.692 120.193 393.387 106.527 386.635 92.0848L386.635 180.821C428.315 225.949 484.404 254.016 554.197 264.666Z" fill="#11C77A"/>
<path d="M392.399 9.65179C424.481 39.0765 476.982 73.1472 554.333 83.9607L554.333 41.6577C474.943 28.725 418.092 -13.524 386.771 -60.0385L386.771 4.27225C388.484 6.11979 390.36 7.91293 392.399 9.65179Z" fill="#11C77A"/>
<path d="M219.073 354.408C255.479 396.629 308.795 434.613 386.635 450.697L386.635 375.845C363.223 369.853 340.9 360.217 320.486 347.289C287.86 326.314 261.378 296.319 241.64 258.146C232.255 239.686 224.662 220.371 218.965 200.464V200.464C213.245 220.368 205.644 239.682 196.262 258.146C176.632 296.183 150.042 326.314 117.416 347.289C97.0714 360.201 74.8227 369.837 51.4842 375.845L51.4842 450.724C129.324 434.613 182.641 396.629 219.073 354.408Z" fill="#11C77A"/>
<path d="M218.692 -3.28081C218.812 -3.41431 218.939 -3.54132 219.073 -3.66123V-3.66123L219.426 -3.25362C254.608 33.2081 310.181 75.5384 386.635 89.1232L386.635 34.2678C328.724 21.3622 285.902 -11.7304 258.143 -40.4759C243.374 -55.7703 230.277 -72.5925 219.073 -90.6582V-90.6582C207.85 -72.5986 194.744 -55.7775 179.976 -40.4759C152.244 -11.7304 109.286 21.3351 51.4837 34.2678L51.4837 89.1232C127.937 75.4025 183.51 33.1809 218.692 -3.28081Z" fill="#11C77A"/>
<path d="M51.4839 363.374L51.4839 269.883C116.965 257.575 176.174 223.019 219.073 172.072V172.072C261.958 223.022 321.159 257.58 386.635 269.883L386.635 363.319C427.418 406.193 483.426 433.58 554.197 445.182L554.197 386.088C482.855 372.503 432.719 339.899 402.105 287.244C396.128 276.869 390.956 266.051 386.635 254.885L386.635 205.056C330.355 191.227 284.624 158.868 250.204 108.577C237.717 90.2069 227.278 70.5279 219.073 49.8904V49.8904C210.829 70.498 200.382 90.1558 187.915 108.522C153.495 158.895 107.764 191.145 51.4839 205.002L51.4839 254.94C47.1662 266.067 42.0035 276.849 36.0408 287.19C5.39955 339.872 -44.7358 372.53 -116.214 386.033L-116.214 445.127C-45.3339 433.58 10.7285 406.22 51.4839 363.374Z" fill="#11C77A"/>
<path d="M51.4838 180.903L51.4838 92.1392C44.7269 106.579 36.4221 120.244 26.7152 132.894C-6.48182 175.849 -54.3334 202.992 -116.078 213.968L-116.078 264.694C-46.3128 254.016 9.83121 226.004 51.4838 180.903Z" fill="#11C77A"/>
<path d="M51.4838 4.32708L51.4838 -59.9836C20.1628 -13.442 -36.6609 28.807 -116.078 41.7398L-116.078 83.9612C-38.7 73.0933 13.7735 39.077 45.8558 9.65223C47.7861 7.91337 49.635 6.12028 51.4838 4.32708Z" fill="#11C77A"/>
<rect width="436" height="380.592" transform="matrix(1 0 0 -1 1.61267 463.006)" fill="url(#paint0_linear_103_404)"/>
</g>
</g>
<rect width="436" height="380.592" transform="matrix(1 0 0 -1 1.49463 380.61)" fill="url(#paint1_linear_103_404)"/>
</g>
<defs>
<linearGradient id="paint0_linear_103_404" x1="218" y1="75.3486" x2="218" y2="380.592" gradientUnits="userSpaceOnUse">
<stop stop-color="#13CD7E"/>
<stop offset="1" stop-color="#13CD7E" stop-opacity="0"/>
</linearGradient>
<linearGradient id="paint1_linear_103_404" x1="218" y1="2.24474" x2="218" y2="276.327" gradientUnits="userSpaceOnUse">
<stop stop-color="#13CD7E"/>
<stop offset="1" stop-color="#13CD7E" stop-opacity="0"/>
</linearGradient>
</defs>
</svg>
