<svg width="41" height="41" viewBox="0 0 41 41" fill="none" xmlns="http://www.w3.org/2000/svg">
<path d="M20.1465 40.6216C11.1385 40.6216 6.61052 40.6216 3.81052 37.8376C0.978516 35.0376 0.978516 30.5096 0.978516 21.4696V19.8056C0.978516 10.7656 0.978516 6.23758 3.81052 3.43758C6.61052 0.621582 11.1385 0.621582 20.1465 0.621582H21.8105C30.8505 0.621582 35.3465 0.621582 38.1785 3.43758C40.9785 6.25358 40.9785 10.7656 40.9785 19.8056V21.4696C40.9785 30.5096 40.9785 35.0376 38.1785 37.8376C35.3465 40.6216 30.8505 40.6216 21.8105 40.6216H20.1465Z" fill="#0077FF"/>
<path d="M22.9465 29.4694V23.5174C26.2265 23.8534 28.6745 26.3014 29.6825 29.4694H34.4185C33.1385 24.7334 29.8105 22.1094 27.7305 21.1174C29.7945 19.8854 32.7225 16.8774 33.4105 12.8134H29.1065C28.2105 16.1254 25.5225 19.1174 22.9465 19.4054V12.7974H18.5785V24.3334C15.9225 23.6614 12.4505 20.4294 12.2905 12.7974H7.7305C7.9385 23.1974 13.4105 29.4534 22.4345 29.4534L22.9465 29.4694Z" fill="white"/>
</svg>
